<?xml version="1.0" encoding="utf-8"?>
<!-- Generator: Adobe Illustrator 21.0.2, SVG Export Plug-In . SVG Version: 6.00 Build 0)  -->
<svg version="1.1" id="Layer_1" xmlns="http://www.w3.org/2000/svg" xmlns:xlink="http://www.w3.org/1999/xlink" x="0px" y="0px"
	 width="136.9px" height="102.8px" viewBox="0 0 136.9 102.8" style="enable-background:new 0 0 136.9 102.8;" xml:space="preserve"
	>
<style type="text/css">
	.st0{display:none;}
	.st1{display:inline;fill:#79E0AA;}
	.st2{display:inline;fill:#D3B6A1;}
	.st3{fill:none;stroke:#D1D1D1;stroke-linecap:round;stroke-linejoin:round;stroke-miterlimit:10;}
	.st4{fill:none;stroke:#FFFFFF;stroke-width:6;stroke-linecap:round;stroke-linejoin:round;stroke-miterlimit:10;}
	.st5{fill:#707070;}
	.st6{fill:none;stroke:#000000;stroke-width:1.5;stroke-linecap:round;stroke-linejoin:round;stroke-miterlimit:10;}
	.st7{fill:#F5821F;}
	.st8{fill:#006C84;}
</style>
<g id="Layer_2_1_" class="st0">
	<rect x="-14.2" y="-8.1" class="st1" width="197.8" height="170.9"/>
</g>
<g id="Layer_1_2_">
	<g id="Layer_2" class="st0">
		<rect x="-66.8" y="-24.6" class="st2" width="339.3" height="172.8"/>
	</g>
	<g id="Layer_1_1_" class="st0">
	</g>
	<line class="st3" x1="8.8" y1="93.5" x2="8.8" y2="78.7"/>
</g>
<g id="Layer_3">
	<polygon class="st4" points="21.4,31.1 3,74.9 3,99.8 114.8,99.8 114.8,93.9 133.8,93.9 133.8,79.3 114.8,79.3 114.8,74.9 
		96.3,31.1 88.5,31.1 88.5,18 79.9,18 79.9,31.1 69,31.1 69,3 48.8,3 48.8,31.1 	"/>
	<polygon class="st5" points="21.4,31.1 3,74.9 3,99.8 114.8,99.8 114.8,93.9 133.8,93.9 133.8,79.3 114.8,79.3 114.8,74.9 
		96.3,31.1 88.5,31.1 88.5,18 79.9,18 79.9,31.1 69,31.1 69,3 48.8,3 48.8,31.1 	"/>
	<polygon class="st6" points="21.4,31.1 3,74.9 3,99.8 114.8,99.8 114.8,93.9 133.8,93.9 133.8,79.3 114.8,79.3 114.8,74.9 
		96.3,31.1 88.5,31.1 88.5,18 79.9,18 79.9,31.1 69,31.1 69,3 48.8,3 48.8,31.1 	"/>
	<polyline class="st3" points="93.8,93.5 55.4,93.5 23.3,93.5 	"/>
	<polygon class="st3" points="50.5,89.4 50.5,93.5 66.6,93.5 66.6,89.4 58.5,78.7 	"/>
	<line class="st3" x1="11.9" y1="93.5" x2="11.9" y2="78.7"/>
	<line class="st3" x1="8.3" y1="93.5" x2="8.3" y2="78.7"/>
	<line class="st3" x1="18.3" y1="93.5" x2="18.3" y2="78.7"/>
	<line class="st3" x1="15.2" y1="93.5" x2="15.2" y2="78.7"/>
	<line class="st3" x1="6" y1="86.1" x2="20.8" y2="86.1"/>
	<circle class="st7" cx="53.8" cy="7.6" r="0.7"/>
	<circle class="st7" cx="55.1" cy="13.8" r="0.6"/>
	<circle class="st7" cx="52.1" cy="17.6" r="0.6"/>
	<circle class="st7" cx="64.4" cy="17.1" r="0.6"/>
	<circle class="st7" cx="57.1" cy="31.7" r="0.6"/>
	<circle class="st7" cx="53.8" cy="27.4" r="0.6"/>
	<circle class="st7" cx="61.1" cy="27.4" r="0.6"/>
	<circle class="st7" cx="63.4" cy="12.3" r="0.6"/>
	<circle class="st7" cx="55.1" cy="22.8" r="0.7"/>
	<circle class="st7" cx="59" cy="23.5" r="0.7"/>
	<circle class="st7" cx="63.4" cy="6.5" r="0.7"/>
	<circle class="st7" cx="60.1" cy="16.9" r="0.7"/>
	<circle class="st7" cx="59" cy="10.8" r="0.7"/>
	<circle class="st7" cx="59" cy="6.8" r="0.7"/>
	<circle class="st7" cx="63.4" cy="22.8" r="0.7"/>
	<circle class="st7" cx="129.3" cy="90" r="2.7"/>
	<circle class="st7" cx="121.2" cy="83.3" r="2.8"/>
	<circle class="st7" cx="115.2" cy="89.2" r="2.9"/>
	<circle class="st7" cx="112.4" cy="82.9" r="2.8"/>
	<circle class="st7" cx="129.3" cy="83.3" r="2.6"/>
	<circle class="st7" cx="122.3" cy="90.2" r="2.5"/>
	<g>
		<circle class="st8" cx="84.2" cy="34.9" r="1.2"/>
		<circle class="st8" cx="84.2" cy="39.4" r="1.2"/>
		<circle class="st8" cx="84.2" cy="43.9" r="1.2"/>
		<circle class="st8" cx="84.2" cy="48.3" r="1.2"/>
		<ellipse transform="matrix(0.2506 -0.9681 0.9681 0.2506 26.6058 103.3623)" class="st8" cx="80.1" cy="34.5" rx="1.2" ry="1.2"/>
		<ellipse transform="matrix(0.2504 -0.9681 0.9681 0.2504 21.4375 105.4298)" class="st8" cx="78.8" cy="38.9" rx="1.2" ry="1.2"/>
		<ellipse transform="matrix(0.2504 -0.9681 0.9681 0.2504 16.4389 107.6768)" class="st8" cx="77.8" cy="43.2" rx="1.2" ry="1.2"/>
		<ellipse transform="matrix(0.2499 -0.9683 0.9683 0.2499 11.472 109.8737)" class="st8" cx="76.7" cy="47.5" rx="1.2" ry="1.2"/>
		<ellipse transform="matrix(0.9681 -0.2506 0.2506 0.9681 -5.8271 23.2315)" class="st8" cx="88.3" cy="34.5" rx="1.2" ry="1.2"/>
		<ellipse transform="matrix(0.9681 -0.2504 0.2504 0.9681 -6.8636 23.6447)" class="st8" cx="89.5" cy="38.8" rx="1.2" ry="1.2"/>
		<ellipse transform="matrix(0.9681 -0.2504 0.2504 0.9681 -7.937 24.0357)" class="st8" cx="90.5" cy="43.2" rx="1.2" ry="1.2"/>
		<ellipse transform="matrix(0.9683 -0.2499 0.2499 0.9683 -8.9592 24.4235)" class="st8" cx="91.7" cy="47.5" rx="1.2" ry="1.2"/>
	</g>
</g>
</svg>
