<?xml version="1.0" encoding="utf-8"?>
<!-- Generator: Adobe Illustrator 21.0.2, SVG Export Plug-In . SVG Version: 6.00 Build 0)  -->
<svg version="1.1" xmlns="http://www.w3.org/2000/svg" xmlns:xlink="http://www.w3.org/1999/xlink" x="0px" y="0px" width="69.3px"
	 height="130.4px" viewBox="0 0 69.3 130.4" style="enable-background:new 0 0 69.3 130.4;" xml:space="preserve">
<style type="text/css">
	.st0{display:none;}
	.st1{display:inline;fill:#00A4FF;stroke:#000000;stroke-miterlimit:10;}
	.st2{display:inline;fill:#14C5E2;}
	.st3{fill:none;stroke:#FFFFFF;stroke-width:6;stroke-linecap:round;stroke-linejoin:round;stroke-miterlimit:10;}
	.st4{fill:#6F6F6F;}
	.st5{fill:#F5821F;}
	.st6{fill:none;stroke:#D2D2D2;stroke-linecap:round;stroke-linejoin:round;stroke-miterlimit:10;}
	.st7{fill:none;stroke:#2D2D2D;stroke-width:1.5;stroke-linecap:round;stroke-linejoin:round;stroke-miterlimit:10;}
	
		.st8{fill:none;stroke:#2D2D2D;stroke-width:1.5;stroke-linecap:round;stroke-linejoin:round;stroke-miterlimit:10;stroke-dasharray:4;}
</style>
<g id="Layer_2_2_" class="st0">
	<rect x="-9.4" y="-3.6" class="st1" width="88.4" height="145.4"/>
</g>
<g id="Layer_1">
	<g id="Layer_2_1_">
	</g>
	<g id="Layer_1_2_">
		<g id="Layer_2" class="st0">
			<rect x="-3.2" y="-5.5" class="st2" width="78.1" height="140.4"/>
		</g>
		<g id="Layer_1_1_">
			<path class="st3" d="M65.9,80.8c0-10.1-4.8-19-12.2-24.8L63,3.4H6l9.2,53C8,62.2,3.5,70.9,3.5,80.8c0,11.9,6.6,22.2,16.3,27.5
				l-5.5,18.8h40.8l-5.7-18.8C59.2,103.1,65.9,92.7,65.9,80.8z"/>
			<path class="st4" d="M65.9,80.8c0-10.1-4.8-19-12.2-24.8L63,3.4H6l9.2,53C8,62.2,3.5,70.9,3.5,80.8c0,11.9,6.6,22.2,16.3,27.5
				l-5.5,18.8h40.8l-5.7-18.8C59.2,103.1,65.9,92.7,65.9,80.8z"/>
			<circle class="st5" cx="22.5" cy="119.3" r="1.1"/>
			<circle class="st5" cx="24.5" cy="121.6" r="1.1"/>
			<circle class="st5" cx="27.1" cy="119" r="1"/>
			<circle class="st5" cx="28.4" cy="122" r="1.1"/>
			<circle class="st5" cx="33" cy="118.7" r="1.1"/>
			<circle class="st5" cx="30.3" cy="119.7" r="1.1"/>
			<circle class="st5" cx="32.1" cy="122.3" r="1.1"/>
			<circle class="st5" cx="36" cy="119.3" r="1"/>
			<circle class="st5" cx="37.3" cy="121.9" r="1.1"/>
			<circle class="st5" cx="39.9" cy="119.3" r="1"/>
			<circle class="st5" cx="41.2" cy="122.2" r="1.1"/>
			<circle class="st5" cx="45.9" cy="118.9" r="1.1"/>
			<circle class="st5" cx="43.2" cy="120.1" r="1.1"/>
			<circle class="st5" cx="45.1" cy="122.5" r="1"/>
			<circle class="st5" cx="48.9" cy="119.5" r="1.1"/>
		</g>
		<g id="Layer_3">
			<circle class="st6" cx="34.6" cy="81" r="15.4"/>
			<line class="st6" x1="37.4" y1="65.8" x2="28.8" y2="62.6"/>
			<line class="st6" x1="29.5" y1="66.5" x2="20.3" y2="68"/>
			<line class="st6" x1="22.9" y1="70.9" x2="15.8" y2="76.9"/>
			<line class="st6" x1="19.5" y1="78.2" x2="16.2" y2="86.8"/>
			<line class="st6" x1="20.1" y1="86.1" x2="21.6" y2="95.3"/>
			<line class="st6" x1="24.7" y1="92.7" x2="30.5" y2="99.8"/>
			<line class="st6" x1="31.8" y1="96.1" x2="40.5" y2="99.4"/>
			<line class="st6" x1="39.8" y1="95.5" x2="48.9" y2="94"/>
			<line class="st6" x1="46.4" y1="90.9" x2="53.6" y2="85.1"/>
			<line class="st6" x1="49.8" y1="83.8" x2="53" y2="75.1"/>
			<line class="st6" x1="49.1" y1="75.8" x2="47.6" y2="66.7"/>
			<line class="st6" x1="44.7" y1="69.2" x2="38.7" y2="62"/>
			<path class="st7" d="M53.7,56L63,3.4H6l9.2,53"/>
			<path class="st7" d="M19.8,108.3l-5.5,18.8h40.8l-5.7-18.8"/>
			<circle class="st8" cx="34.4" cy="81" r="30.5"/>
		</g>
		<circle class="st5" cx="27.3" cy="14.2" r="2.5"/>
		<circle class="st5" cx="33.8" cy="9.3" r="2.5"/>
		<circle class="st5" cx="33.8" cy="19.2" r="2.5"/>
		<circle class="st5" cx="33.1" cy="29" r="2.5"/>
		<circle class="st5" cx="20.9" cy="59.6" r="2.5"/>
		<circle class="st5" cx="8.5" cy="76.9" r="2.5"/>
		<circle class="st5" cx="20.1" cy="102.3" r="2.5"/>
		<circle class="st5" cx="34.6" cy="101.9" r="2.5"/>
		<circle class="st5" cx="48.1" cy="102.3" r="2.5"/>
		<circle class="st5" cx="9.5" cy="87.6" r="2.5"/>
		<circle class="st5" cx="33.2" cy="59.6" r="2.5"/>
		<circle class="st5" cx="45.9" cy="62" r="2.5"/>
		<circle class="st5" cx="53" cy="71.2" r="2.5"/>
		<circle class="st5" cx="59" cy="78.7" r="2.5"/>
		<circle class="st5" cx="53.9" cy="92.2" r="2.5"/>
		<circle class="st5" cx="16.9" cy="70.9" r="2.5"/>
		<circle class="st5" cx="40.7" cy="24.8" r="2.5"/>
		<circle class="st5" cx="42.4" cy="8.5" r="2.5"/>
		<circle class="st5" cx="40.7" cy="15.8" r="2.5"/>
	</g>
</g>
</svg>
