<?xml version="1.0" encoding="utf-8"?>
<!-- Generator: Adobe Illustrator 21.0.2, SVG Export Plug-In . SVG Version: 6.00 Build 0)  -->
<svg version="1.1" xmlns="http://www.w3.org/2000/svg" xmlns:xlink="http://www.w3.org/1999/xlink" x="0px" y="0px" width="69.2px"
	 height="130.4px" viewBox="0 0 69.2 130.4" style="enable-background:new 0 0 69.2 130.4;" xml:space="preserve">
<style type="text/css">
	.st0{display:none;}
	.st1{display:inline;fill:#FF2200;stroke:#000000;stroke-miterlimit:10;}
	.st2{display:inline;fill:#14C5E2;}
	.st3{fill:none;stroke:#FFFFFF;stroke-width:6;stroke-linecap:round;stroke-linejoin:round;stroke-miterlimit:10;}
	.st4{fill:#6F6F6F;}
	.st5{fill:#F5821F;}
	.st6{fill:none;stroke:#D2D2D2;stroke-linecap:round;stroke-linejoin:round;stroke-miterlimit:10;}
	.st7{fill:#006C85;stroke:#2D2D2D;stroke-width:1.5;stroke-miterlimit:10;}
	.st8{fill:none;stroke:#2D2D2D;stroke-width:1.5;stroke-linecap:round;stroke-linejoin:round;stroke-miterlimit:10;}
</style>
<g id="Layer_2_1_" class="st0">
	<rect x="-32.8" y="-25.3" class="st1" width="137.7" height="181"/>
</g>
<g id="Layer_1">
	<g id="Layer_2" class="st0">
		<rect x="-0.7" y="-0.2" class="st2" width="72.2" height="129.7"/>
	</g>
	<g id="Layer_1_1_">
		<path class="st3" d="M65.7,80.7c0-10.1-4.8-19.1-12.3-24.9l9.3-52.8H5.5l9.2,53.2C7.6,62.1,3,70.9,3,80.7
			c0,11.9,6.6,22.3,16.4,27.6l-5.5,18.9h40.9l-5.8-18.9C58.9,103.1,65.7,92.7,65.7,80.7z"/>
		<path class="st4" d="M65.7,80.7c0-10.1-4.8-19.1-12.3-24.9l9.3-52.8H5.5l9.2,53.2C7.6,62.1,3,70.9,3,80.7
			c0,11.9,6.6,22.3,16.4,27.6l-5.5,18.9h40.9l-5.8-18.9C58.9,103.1,65.7,92.7,65.7,80.7z"/>
		<circle class="st5" cx="22.1" cy="119.4" r="1.1"/>
		<circle class="st5" cx="24.1" cy="121.7" r="1.1"/>
		<circle class="st5" cx="26.7" cy="119.1" r="1"/>
		<circle class="st5" cx="28" cy="122.1" r="1.1"/>
		<circle class="st5" cx="32.7" cy="118.7" r="1.1"/>
		<circle class="st5" cx="30" cy="119.8" r="1.1"/>
		<circle class="st5" cx="31.8" cy="122.4" r="1.1"/>
		<circle class="st5" cx="35.7" cy="119.4" r="1"/>
		<circle class="st5" cx="37" cy="122" r="1.1"/>
		<circle class="st5" cx="39.6" cy="119.4" r="1"/>
		<circle class="st5" cx="40.9" cy="122.3" r="1.1"/>
		<circle class="st5" cx="45.6" cy="119" r="1.1"/>
		<circle class="st5" cx="42.9" cy="120.1" r="1.1"/>
		<circle class="st5" cx="44.8" cy="122.6" r="1"/>
		<circle class="st5" cx="48.6" cy="119.6" r="1.1"/>
		<g>
			<path class="st6" d="M14.5,53.4c2.7,0,2.2-1,4.3-1s1.3,1,4.5,1c2.7,0,2.2-1,4.3-1s1.3,1,4.5,1c2.7,0,2.2-1,4.3-1s1.3,1,4.5,1h0.4
				c2.7,0,2.2-1,4.3-1"/>
			<path class="st6" d="M41.5,53.4c2.7,0,2.2-1,4.3-1s1.3,1,4.5,1c2.5,0,2.3-0.9,3.8-1"/>
		</g>
	</g>
	<g id="Layer_3">
		<g>
			<path class="st7" d="M41.4,53.4c2.7,0,2.2-1,4.3-1s1.3,1,4.3,1c2.5,0,2.2-0.9,3.8-1l-0.7,3.7c7.5,5.6,12.3,14.7,12.3,24.9
				c0,17.3-14,31.2-31.2,31.2S3.1,98,3.1,80.9c0-10,4.7-18.8,11.8-24.5l-0.4-3c2.7,0,2.2-1,4.3-1s1.3,1,4.3,1c2.7,0,2.2-1,4.3-1
				s1.3,1,4.3,1c2.7,0,2.2-1,4.3-1c2.2,0,1.3,1,4.3,1H41c2.7,0,2.2-1,4.3-1"/>
		</g>
		<circle class="st6" cx="34.3" cy="81" r="15.4"/>
		<line class="st6" x1="37.1" y1="65.8" x2="28.4" y2="62.5"/>
		<line class="st6" x1="29.2" y1="66.4" x2="20" y2="67.9"/>
		<line class="st6" x1="22.6" y1="70.9" x2="15.4" y2="76.8"/>
		<line class="st6" x1="19.1" y1="78.1" x2="15.8" y2="86.8"/>
		<line class="st6" x1="19.7" y1="86.1" x2="21.3" y2="95.3"/>
		<line class="st6" x1="24.3" y1="92.7" x2="30.2" y2="99.8"/>
		<line class="st6" x1="31.5" y1="96.2" x2="40.2" y2="99.4"/>
		<line class="st6" x1="39.5" y1="95.5" x2="48.6" y2="94"/>
		<line class="st6" x1="46.1" y1="90.9" x2="53.3" y2="85.1"/>
		<line class="st6" x1="49.5" y1="83.8" x2="52.7" y2="75.1"/>
		<line class="st6" x1="48.8" y1="75.7" x2="47.3" y2="66.6"/>
		<line class="st6" x1="44.4" y1="69.1" x2="38.4" y2="62"/>
		<path class="st8" d="M65.7,80.7c0-10.1-4.8-19.1-12.3-24.9l9.3-52.8H5.5l9.2,53.2C7.6,62.1,3,70.9,3,80.7
			c0,11.9,6.6,22.3,16.4,27.6l-5.5,18.9h40.9l-5.8-18.9C58.9,103.1,65.7,92.7,65.7,80.7z"/>
		<polygon class="st5" points="37.1,104.7 40.3,104.9 40.8,103.5 39.9,102.8 39,102.8 		"/>
		<polygon class="st5" points="8.6,88.7 9.2,90.2 10.7,90.7 11.7,90 12.2,88.9 11.3,88.2 9.8,88 		"/>
		<polygon class="st5" points="41.5,59.5 44.3,61.2 45.9,61.2 47.1,59.7 48.1,57.9 46.6,57 44.4,56.4 43,57 		"/>
		<polygon class="st5" points="22.1,104.3 24.3,105.3 25.7,104.1 24.5,103.2 23.8,103.2 		"/>
		<polygon class="st5" points="54.9,77.9 56,80.5 58.8,80.9 63.3,78.2 58.3,75.4 56.1,75.7 55.1,76.8 		"/>
		<polygon class="st5" points="28.5,24.3 31.3,23.9 32.3,21.3 30.8,16.3 26.9,20.5 26.7,22.7 27.6,23.9 		"/>
		<polygon class="st5" points="12.4,96 13,97.9 14.1,98.9 15.5,99.2 17.3,98.5 18.3,96.8 17.9,94.5 16.9,93.4 15.3,93.4 13.2,94.1 
					"/>
		<polygon class="st5" points="34,27.1 32.3,28.3 31.7,29.6 31.8,31 32.9,32.5 34.9,33.1 37,32 37.8,30.8 37.2,29.2 36,27.4 		"/>
		<polygon class="st5" points="20.5,59.9 21.2,58.8 23.2,58.2 25.5,60.3 25.1,61.5 23,62.5 21.1,60.8 		"/>
		<polygon class="st5" points="31,105.6 32.9,109.2 35.7,109.2 35.1,107.7 34.4,106.8 		"/>
		<polygon class="st5" points="7.7,73 7.2,78.1 9.3,79.7 11.7,80.6 12.4,77.3 11.5,75.3 		"/>
		<polygon class="st5" points="40.8,8 40.3,13.1 42.4,14.6 44.8,15.6 47.9,12.6 44.6,10.3 		"/>
		<polygon class="st5" points="53.6,65.7 52.9,67.2 52.7,68.9 55.7,72.2 58.2,71.9 58.7,70 58.8,68.4 56.1,65.4 		"/>
		<polygon class="st5" points="24.3,14.2 25.9,14.9 27.7,14.9 30.6,11.6 30.2,9.1 28.2,8.8 26.6,8.8 23.9,11.8 		"/>
		<polygon class="st5" points="54.8,97.8 59.2,93.8 60.2,90.9 59.7,87.3 57.3,88.2 55.5,90.3 53.9,93.2 		"/>
		<polygon class="st5" points="40.7,25.5 42.9,20.3 38.9,17 35.7,15.1 34.9,17.6 35.4,20.3 36.7,23.3 		"/>
		<polygon class="st5" points="14.5,66.8 13.8,65.8 12.4,65.2 11.6,66.3 12.4,67.5 13.6,67.5 		"/>
		<polygon class="st5" points="46.5,105.6 47.4,104.3 47.2,102.8 46.1,102.2 45,102.3 44.7,103.4 45.3,104.9 		"/>
	</g>
</g>
</svg>
