<?xml version="1.0" encoding="utf-8"?>
<!-- Generator: Adobe Illustrator 21.0.2, SVG Export Plug-In . SVG Version: 6.00 Build 0)  -->
<svg version="1.1" xmlns="http://www.w3.org/2000/svg" xmlns:xlink="http://www.w3.org/1999/xlink" x="0px" y="0px" width="44.8px"
	 height="88.7px" viewBox="0 0 44.8 88.7" style="enable-background:new 0 0 44.8 88.7;" xml:space="preserve">
<style type="text/css">
	.st0{display:none;}
	.st1{display:inline;fill:#5C5CF2;}
	.st2{display:inline;fill:#FFFFFF;}
	.st3{display:inline;fill:#006699;stroke:#006699;stroke-width:0.1498;stroke-linecap:round;stroke-linejoin:round;}
	.st4{fill:none;stroke:#FFFFFF;stroke-width:6;stroke-linecap:round;stroke-linejoin:round;stroke-miterlimit:10;}
	.st5{fill:none;}
	.st6{fill:none;stroke:#2D2D2E;stroke-width:1.5;stroke-linecap:round;stroke-linejoin:round;stroke-miterlimit:10;}
</style>
<g id="Layer_2" class="st0">
	<rect x="-35.3" y="-9.5" class="st1" width="138.7" height="114.3"/>
</g>
<g id="_x30_" inkscape:version="0.48.4 r9939" sodipodi:docname="pid controller.svg" xmlns:cc="http://creativecommons.org/ns#" xmlns:dc="http://purl.org/dc/elements/1.1/" xmlns:inkscape="http://www.inkscape.org/namespaces/inkscape" xmlns:rdf="http://www.w3.org/1999/02/22-rdf-syntax-ns#" xmlns:sodipodi="http://sodipodi.sourceforge.net/DTD/sodipodi-0.dtd" xmlns:svg="http://www.w3.org/2000/svg">
	
		<sodipodi:namedview  bordercolor="#666666" borderopacity="1" gridtolerance="10" guidetolerance="10" id="namedview9" inkscape:current-layer="1" inkscape:cx="100.91701" inkscape:cy="50.283773" inkscape:pageopacity="0" inkscape:pageshadow="2" inkscape:window-height="1018" inkscape:window-maximized="1" inkscape:window-width="1920" inkscape:window-x="-8" inkscape:window-y="-8" inkscape:zoom="2.8405582" objecttolerance="10" pagecolor="#ffffff" showgrid="true">
		<inkscape:grid  id="grid2986" type="xygrid"></inkscape:grid>
	</sodipodi:namedview>
	<g id="_x31_" class="st0">
		<path id="_x32_" inkscape:connector-curvature="0" class="st2" d="M-12.9,56.3v-2.8l0.3-2.8l0.3-2.7l0.4-2.7l0.7-2.7l0.6-2.5
			l0.9-2.5l1-2.5l1-2.4l1.2-2.4l1.3-2.2l1.5-2.2l1.5-2.1l1.6-2.1L1,19.6l1.8-1.8L4.7,16l1.9-1.8l2.1-1.6l2.2-1.5L13,9.8l2.4-1.3
			l2.2-1.2l3-1.7L23,4.7l2.5-0.9l2.8-0.7l2.5-0.6l2.7-0.4l2.9-0.5l2.7-0.1h2.8h2.8l2.9,0.1L50.3,2L53,2.4L55.7,3l2.5,0.7l2.5,0.9
			l2.6,1l2.4,1.2L68.1,8l2.2,1.3l2.2,1.3l2.1,1.5l2.1,1.6l1.9,1.8l1.9,1.8l1.8,1.8l1.8,2.1l1.6,2.1l1.5,2.1l1.3,2.2l1.3,2.2l1.2,2.4
			l1,2.4l1,2.5l0.9,2.5l0.7,2.5l0.6,2.7l0.4,2.7l0.3,2.7l0.3,2.8v2.8v2.7l-0.3,2.8L95.6,64l-0.4,2.7l-0.6,2.7l-0.7,2.5L93,74.4
			l-1,2.5l-1,2.4l-1.2,2.4l-1.3,2.2l-1.3,2.2l-1.5,2.2l-1.6,1.9l-1.8,2.1l-1.8,1.8L78.6,96l-1.9,1.6l-2.1,1.6l-2.1,1.5l-2.2,1.5
			l-2.2,1.3l-2.4,1.2l-2.4,1l-2.5,1l-2.5,0.7l-2.5,0.7l-2.7,0.6l-2.7,0.6l-2.7,0.3l-2.8,0.1l-2.8,0.1l-2.8-0.1l-2.7-0.1l-2.7-0.3
			l-2.8-0.6l-2.5-0.6l-2.7-0.7l-2.5-0.7l-2.4-1l-2.5-1l-2.2-1.2l-2.4-1.3l-2.1-1.5l-2.2-1.5l-2.1-1.6L5.6,96l-1.9-1.9l-2.4-0.9
			l-1.6-2.1l-1.6-1.9L-3.4,87L-5,84.6l-1.3-2.2L-7.5,80l-1-2.4l-1-2.5l-0.9-2.5l-0.6-2.5l-0.7-2.7l-0.4-2.7l-0.3-2.7l-0.3-2.8
			C-12.9,59-12.9,56.3-12.9,56.3z"/>
		<path id="_x33_" inkscape:connector-curvature="0" class="st3" d="M-15.4,56.3v-2.8l0.3-2.9l0.3-2.8l0.4-2.8l0.7-2.7l0.7-2.7
			l0.7-2.5l1-2.7l1.2-2.4l1.2-2.4l1.3-2.4l1.5-2.4l1.5-2.1l1.8-2.2l1.6-1.9l1.9-1.9l1.9-1.9L4.7,13l2.1-1.6L9,9.9l2.2-1.5l2.4-1.3
			L16,5.8l2.4-1l2.7-1l2.5-0.9l3.2-1.3L29.5,1l2.8-0.4l2.8-0.4l2.8-0.1L40.7,0l2.8,0.1l3,0.1l2.7,0.4L52.3,1L55,1.6l2.7,0.7l2.7,0.9
			l2.5,1l2.4,1l2.5,1.3L70,7.8l2.4,1.3l2.1,1.6l2.2,1.6l1.9,1.8l1.9,1.8l1.9,1.9l1.8,2.1l1.6,2.1l1.5,2.2l1.5,2.2l1.3,2.4l1.3,2.4
			l1,2.5l1,2.5l0.9,2.7l0.7,2.5l0.6,2.8l0.4,2.7l0.4,2.8l0.1,2.8l0.1,3l-0.1,2.8l-0.1,2.8l-0.3,2.8l-0.6,2.7l-0.6,2.8l-0.7,2.7
			l-0.9,2.5l-1,2.5l-1,2.5L90.1,82l-1.5,2.4l-1.3,2.2l-1.6,2.2l-1.6,2.1L82.3,93l-1.8,1.9l-1.9,1.8l-2.1,1.8l-2.1,1.6l-2.2,1.6
			l-2.2,1.5l-2.4,1.3l-2.4,1.2l-2.5,1.2l-2.5,0.9l-2.5,0.9l-2.7,0.7l-2.7,2.2l-2.7,0.4l-2.8,0.3l-2.8,0.3h-2.8h-3l-2.8-0.3l-2.8-0.3
			l-2.7-0.4l-2.8-0.6l-2.5-0.7l-2.7-0.9l-2.5-1l-2.5-1.2l-2.4-1.2l-2.4-1.3l-2.2-1.5l-2.2-1.5l-2.1-1.6l-2.1-1.8l-1.9-1.9l-2.3-2.2
			l-1.8-1.9l-1.6-2.2L-5.7,88l-1.5-2.4l-1.5-2.5l-1.2-2.4l-1.2-2.4l-0.9-2.5l-0.9-2.7l-0.7-2.7l-0.7-2.7l-0.4-2.8l-0.3-2.7l-0.3-3
			v-2.9H-15.4z M-12.3,59l0.1,2.7l0.4,2.7l0.4,2.5l0.6,2.5l0.6,2.5l0.9,2.5l0.9,2.4l1.2,2.4l1,2.2l1.3,2.2l1.3,2.1l1.5,2.1l1.6,2.1
			l1.6,1.9l1.8,1.8l1.8,1.8L6.6,97l1.9,1.6l2.1,1.5l2.2,1.3l2.1,1.2l2.4,1.2l2.4,1l2.4,1l2.4,0.7l2.5,0.7l2.5,0.6l2.7,0.4l2.7,0.4
			l2.7,0.1l2.7,0.1l2.7-0.1l2.7-0.1l2.7-0.4l2.7-0.4l2.5-0.6l2.5-0.6l2.4-0.9l2.5-0.9l2.2-1l2.4-1.2l2.1-1.3l2.2-1.3l2.1-1.5
			l1.9-1.6l1.9-1.6l1.9-1.8l1.6-1.8l1.8-1.9l1.5-1.9l1.5-2.1l1.3-2.2l1.3-2.1l1.2-2.4l1-2.4l0.9-2.4l0.9-2.4l0.7-2.5l0.6-2.5
			l0.4-2.7l0.3-2.7l0.3-2.7v-2.7v-2.5l-0.3-2.7l-0.3-2.7L92,45.5L91.4,43l-0.7-2.5l-0.9-2.4l-0.9-2.4l-1-2.4l-1.2-2.4l-1.2-2.1
			L84,26.6l-1.5-2.1L81,22.6l-1.6-1.9l-1.8-1.9l-1.8-1.6l-1.9-1.8l-1.1-1.8l-2.1-1.5l-2.1-1.3l-2.2-1.3l-2.2-1.2l-2.4-1l-2.4-0.9
			l-2.5-0.9l-2.6-0.9L51.8,4l-2.5-0.4l-2.7-0.3l-2.7-0.1l-2.7-0.1l-2.8,0.1l-2.7,0.1L33,3.6L30.3,4l-2.6,0.6l-2.5,0.7l-2.5,0.9
			l-2.4,0.9l-2.4,1l-2.2,1.2l-2.3,1.3l-2.1,1.5l-2.1,1.5l-2.1,1.5l-1.9,1.6l-1.9,1.8l-1.8,1.8l-1.6,1.9l-1.6,2.1l-1.5,2.1l-1.4,2.2
			l-1.2,2.2L-7,33l-1,2.4l-1,2.4l-0.7,2.5l-0.7,2.5l-0.6,2.5l-0.7,2.7l-0.4,2.7l-0.1,2.7v2.8C-12.3,56.3-12.3,59-12.3,59z"/>
	</g>
	<line class="st4" x1="19.8" y1="2.9" x2="19.8" y2="85.6"/>
	<path class="st4" d="M19.8,44.3"/>
	<line class="st4" x1="19.8" y1="44.3" x2="3" y2="44.3"/>
	<line class="st4" x1="41.6" y1="3.3" x2="41.6" y2="85.6"/>
	<line class="st4" x1="19.8" y1="2.9" x2="19.8" y2="85.6"/>
	<path class="st4" d="M19.8,44.3"/>
	<line class="st4" x1="19.8" y1="44.3" x2="3" y2="44.3"/>
	<line class="st4" x1="41.6" y1="3.3" x2="41.6" y2="85.6"/>
	<line class="st5" x1="19.8" y1="2.9" x2="19.8" y2="85.6"/>
	<path class="st5" d="M19.8,44.3"/>
	<line class="st5" x1="19.8" y1="44.3" x2="3" y2="44.3"/>
	<line class="st5" x1="41.6" y1="3.3" x2="41.6" y2="85.6"/>
	<line class="st6" x1="19.8" y1="2.9" x2="19.8" y2="85.6"/>
	<path class="st6" d="M19.8,44.3"/>
	<line class="st6" x1="19.8" y1="44.3" x2="3" y2="44.3"/>
	<line class="st6" x1="41.6" y1="3.3" x2="41.6" y2="85.6"/>
</g>
</svg>
