<?xml version="1.0" encoding="utf-8"?>
<!-- Generator: Adobe Illustrator 21.0.2, SVG Export Plug-In . SVG Version: 6.00 Build 0)  -->
<svg version="1.1" xmlns="http://www.w3.org/2000/svg" xmlns:xlink="http://www.w3.org/1999/xlink" x="0px" y="0px" width="73.7px"
	 height="152.6px" viewBox="0 0 73.7 152.6" style="enable-background:new 0 0 73.7 152.6;" xml:space="preserve">
<style type="text/css">
	.st0{display:none;}
	.st1{display:inline;fill:#E8FF3F;stroke:#000000;stroke-miterlimit:10;}
	.st2{display:inline;fill:#D83D3D;}
	.st3{fill:none;stroke:#FFFFFF;stroke-width:6;stroke-linecap:round;stroke-linejoin:round;stroke-miterlimit:10;}
	.st4{fill:#6F6F6F;}
	.st5{fill:#006C85;}
	.st6{fill:none;stroke:#D2D2D2;stroke-linecap:round;stroke-linejoin:round;stroke-miterlimit:10;}
	.st7{fill:none;stroke:#D2D2D2;stroke-linecap:round;stroke-linejoin:round;}
	.st8{fill:none;stroke:#2D2D2D;stroke-width:1.5;stroke-linecap:round;stroke-linejoin:round;stroke-miterlimit:10;}
</style>
<g id="Layer_2_2_" class="st0">
	<rect x="-13.5" y="-14.4" class="st1" width="101.4" height="186.7"/>
</g>
<g id="Layer_1">
	<g id="Layer_2_1_" class="st0">
		<rect x="4.4" y="17.6" class="st2" width="63.2" height="117.2"/>
	</g>
	<g id="Layer_1_1_">
		<path class="st3" d="M37.1,3.1c-12.8,0-33.3,7.7-33.3,20.5v5.8v93.7v5.8c0,12.8,20.5,20.5,33.3,20.5s33.3-7.7,33.3-20.5v-5.8V29.4
			v-5.8C70.4,10.8,50,3.1,37.1,3.1z"/>
		<path class="st4" d="M37.1,3.1c-12.8,0-33.3,7.7-33.3,20.5v5.8v93.7v5.8c0,12.8,20.5,20.5,33.3,20.5s33.3-7.7,33.3-20.5v-5.8V29.4
			v-5.8C70.4,10.8,50,3.1,37.1,3.1z"/>
		<path class="st5" d="M66.6,59.2h-3.4l-2.3-0.4l-2.9-1.2L54.1,58L51,59.3l-3.1,0.5l-3.1-1.4l-3.1-1.1l-3.4,1l-4.1,0.8l-3.5-0.4
			l-2.9-1.2h-2.6l-3.4,1.6h-3.3l-3.3-0.5l-2.6-1.1l-3.4,0.1l-3.4,1.5H4v64v5.8c0,12.8,20.5,20.5,33.3,20.5s33.3-7.7,33.3-20.5v-5.8
			V58L66.6,59.2z"/>
		<g>
			<path class="st6" d="M3.9,59.2c4.8,0,3.7-1.8,7.5-1.8s2.3,1.8,7.6,1.8c4.8,0,3.8-1.8,7.5-1.8s2.3,1.8,7.6,1.8
				c4.8,0,3.8-1.8,7.5-1.8c3.7,0,2.3,1.8,7.6,1.8c4.8,0,3.8-1.8,7.5-1.8c3.7,0,2.3,1.8,7.6,1.8"/>
			<path class="st6" d="M64.3,59.2c4.1,0,3.9-1.4,6.1-1.6"/>
		</g>
		<g>
			<line class="st7" x1="37.1" y1="3.1" x2="37.1" y2="116.9"/>
			<ellipse class="st7" cx="44.5" cy="116.9" rx="7.3" ry="3.4"/>
			<ellipse class="st7" cx="29.8" cy="116.9" rx="7.3" ry="3.4"/>
		</g>
		<path class="st8" d="M37.1,3.1c-12.8,0-33.3,7.7-33.3,20.5v5.8v93.7v5.8c0,12.8,20.5,20.5,33.3,20.5s33.3-7.7,33.3-20.5v-5.8V29.4
			v-5.8C70.4,10.8,50,3.1,37.1,3.1z"/>
	</g>
</g>
</svg>
