<?xml version="1.0" encoding="utf-8"?>
<!-- Generator: Adobe Illustrator 21.0.2, SVG Export Plug-In . SVG Version: 6.00 Build 0)  -->
<svg version="1.1" xmlns="http://www.w3.org/2000/svg" xmlns:xlink="http://www.w3.org/1999/xlink" x="0px" y="0px" width="66.2px"
	 height="66.4px" viewBox="0 0 66.2 66.4" style="enable-background:new 0 0 66.2 66.4;" xml:space="preserve">
<style type="text/css">
	.st0{display:none;}
	.st1{display:inline;fill:#E2DD1A;}
	.st2{display:inline;fill:#F47211;}
	.st3{fill:none;stroke:#FFFFFF;stroke-width:6;stroke-linecap:round;stroke-linejoin:round;stroke-miterlimit:10;}
	.st4{fill:#707070;}
	.st5{fill:none;stroke:#2D2D2E;stroke-width:1.5;stroke-linecap:round;stroke-linejoin:round;stroke-miterlimit:10;}
</style>
<g id="Layer_2_1_" class="st0">
	<rect x="-42.8" y="-39.4" class="st1" width="157" height="149"/>
</g>
<g id="Layer_1">
	<g id="Layer_2" class="st0">
		<rect x="-157.5" y="-146.7" class="st2" width="428" height="385"/>
	</g>
	
		<g id="svg2_6_" inkscape:version="0.48.4 r9939" sodipodi:docname="d620a493b1652df73d39dc5e5818a987.svg" xmlns:cc="http://creativecommons.org/ns#" xmlns:dc="http://purl.org/dc/elements/1.1/" xmlns:inkscape="http://www.inkscape.org/namespaces/inkscape" xmlns:rdf="http://www.w3.org/1999/02/22-rdf-syntax-ns#" xmlns:sodipodi="http://sodipodi.sourceforge.net/DTD/sodipodi-0.dtd" xmlns:svg="http://www.w3.org/2000/svg">
		<path id="path8_2_" inkscape:connector-curvature="0" class="st3" d="M62.9,34.6c0.2-9.3-3.6-17.7-9.9-23.5L41.5,23.5
			c-1.7-1.5-3.8-2.6-6.2-3V3.2V3c-0.6,0-1.1,0-1.7,0l0,0C24.3,3,16,7.1,10.4,13.6l12.7,11c-1.9,2.1-3.1,4.7-3.4,7.6L3.4,31.7H3.2
			c0,0.6-0.1,1.1-0.1,1.7l0,0C2.9,42.8,6.8,51.2,13.1,57L25,44.1c0,0-0.1-0.1-0.1-0.1c1.7,1.3,3.9,2.2,6.2,2.6v16.7v0.1
			c0.6,0,1.1,0,1.7,0l0,0c9.3,0,17.6-4.1,23.2-10.6L43.1,41.7c1.3-1.7,2.3-3.7,2.7-5.9l16.9,0.5h0.1C62.9,35.7,62.9,35.2,62.9,34.6
			L62.9,34.6L62.9,34.6z M24.2,33.4c0-4.8,3.8-8.6,8.6-8.6c4.8,0,8.6,3.9,8.6,8.6c0,4.8-3.8,8.6-8.6,8.6S24.2,38.2,24.2,33.4
			L24.2,33.4z"/>
		
			<sodipodi:namedview  bordercolor="#666666" borderopacity="1" fit-margin-bottom="0" fit-margin-left="0" fit-margin-right="0" fit-margin-top="0" gridtolerance="10" guidetolerance="10" id="namedview10" inkscape:current-layer="svg2" inkscape:cx="-291.44968" inkscape:cy="358.33299" inkscape:pageopacity="0" inkscape:pageshadow="2" inkscape:window-height="1018" inkscape:window-maximized="1" inkscape:window-width="1920" inkscape:window-x="-8" inkscape:window-y="-8" inkscape:zoom="0.23046875" objecttolerance="10" pagecolor="#ffffff" showgrid="false">
			</sodipodi:namedview>
		<path id="path8" inkscape:connector-curvature="0" class="st4" d="M62.9,34.6c0.2-9.3-3.6-17.7-9.9-23.5L41.5,23.5
			c-1.7-1.5-3.8-2.6-6.2-3V3.2V3c-0.6,0-1.1,0-1.7,0l0,0C24.3,3,16,7.1,10.4,13.6l12.7,11c-1.9,2.1-3.1,4.7-3.4,7.6L3.4,31.7H3.2
			c0,0.6-0.1,1.1-0.1,1.7l0,0C2.9,42.8,6.8,51.2,13.1,57L25,44.1c0,0-0.1-0.1-0.1-0.1c1.7,1.3,3.9,2.2,6.2,2.6v16.7v0.1
			c0.6,0,1.1,0,1.7,0l0,0c9.3,0,17.6-4.1,23.2-10.6L43.1,41.7c1.3-1.7,2.3-3.7,2.7-5.9l16.9,0.5h0.1C62.9,35.7,62.9,35.2,62.9,34.6
			L62.9,34.6L62.9,34.6z M24.2,33.4c0-4.8,3.8-8.6,8.6-8.6c4.8,0,8.6,3.9,8.6,8.6c0,4.8-3.8,8.6-8.6,8.6S24.2,38.2,24.2,33.4
			L24.2,33.4z"/>
		<path id="path8_1_" inkscape:connector-curvature="0" class="st5" d="M62.9,34.6c0.2-9.3-3.6-17.7-9.9-23.5L41.5,23.5
			c-1.7-1.5-3.8-2.6-6.2-3V3.2V3c-0.6,0-1.1,0-1.7,0l0,0C24.3,3,16,7.1,10.4,13.6l12.7,11c-1.9,2.1-3.1,4.7-3.4,7.6L3.4,31.7H3.2
			c0,0.6-0.1,1.1-0.1,1.7l0,0C2.9,42.8,6.8,51.2,13.1,57L25,44.1c0,0-0.1-0.1-0.1-0.1c1.7,1.3,3.9,2.2,6.2,2.6v16.7v0.1
			c0.6,0,1.1,0,1.7,0l0,0c9.3,0,17.6-4.1,23.2-10.6L43.1,41.7c1.3-1.7,2.3-3.7,2.7-5.9l16.9,0.5h0.1C62.9,35.7,62.9,35.2,62.9,34.6
			L62.9,34.6L62.9,34.6z M24.2,33.4c0-4.8,3.8-8.6,8.6-8.6c4.8,0,8.6,3.9,8.6,8.6c0,4.8-3.8,8.6-8.6,8.6S24.2,38.2,24.2,33.4
			L24.2,33.4z"/>
		<path id="path6" inkscape:connector-curvature="0" class="st4" d="M37.5,33.4c0-2.6-2.1-4.7-4.7-4.7c-2.6,0-4.7,2.1-4.7,4.7
			c0,2.6,2.1,4.7,4.7,4.7C35.4,38.2,37.5,36,37.5,33.4z"/>
		<path id="path6_1_" inkscape:connector-curvature="0" class="st5" d="M37.5,33.4c0-2.6-2.1-4.7-4.7-4.7c-2.6,0-4.7,2.1-4.7,4.7
			c0,2.6,2.1,4.7,4.7,4.7C35.4,38.2,37.5,36,37.5,33.4z"/>
	</g>
</g>
</svg>
