<?xml version="1.0" encoding="UTF-8" standalone="no"?>
<?gproms path="Flow_rate_sensor_block.is_flow_rate_within_range"?>

<svg
   xmlns:dc="http://purl.org/dc/elements/1.1/"
   xmlns:cc="http://creativecommons.org/ns#"
   xmlns:rdf="http://www.w3.org/1999/02/22-rdf-syntax-ns#"
   xmlns:svg="http://www.w3.org/2000/svg"
   xmlns="http://www.w3.org/2000/svg"
   xmlns:sodipodi="http://sodipodi.sourceforge.net/DTD/sodipodi-0.dtd"
   xmlns:inkscape="http://www.inkscape.org/namespaces/inkscape"
   version="1.1"
   x="0px"
   y="0px"
   width="50.5px"
   height="59.8px"
   viewBox="0 0 50.5 59.8"
   style="enable-background:new 0 0 50.5 59.8;"
   xml:space="preserve"
   id="svg4746"
   inkscape:version="0.91 r13725"
   sodipodi:docname="flow rate sensor.svg"><metadata
     id="metadata4779"><rdf:RDF><cc:Work
         rdf:about=""><dc:format>image/svg+xml</dc:format><dc:type
           rdf:resource="http://purl.org/dc/dcmitype/StillImage" /></cc:Work></rdf:RDF></metadata><defs
     id="defs4777" /><sodipodi:namedview
     pagecolor="#ffffff"
     bordercolor="#666666"
     borderopacity="1"
     objecttolerance="10"
     gridtolerance="10"
     guidetolerance="10"
     inkscape:pageopacity="0"
     inkscape:pageshadow="2"
     inkscape:window-width="742"
     inkscape:window-height="480"
     id="namedview4775"
     showgrid="false"
     inkscape:zoom="3.9464883"
     inkscape:cx="25.25"
     inkscape:cy="29.9"
     inkscape:window-x="0"
     inkscape:window-y="0"
     inkscape:window-maximized="0"
     inkscape:current-layer="Layer_1" /><style
     type="text/css"
     id="style4748">
	.st0{display:none;}
	.st1{display:inline;fill:#6AADFF;stroke:#000000;stroke-miterlimit:10;}
	.st2{display:inline;fill:#EEE52F;}
	.st3{fill:none;stroke:#FFFFFF;stroke-width:6;stroke-linecap:round;stroke-linejoin:round;stroke-miterlimit:10;}
	.st4{fill:#6F6F6F;}
	.st5{fill:none;}
	.st6{fill:#FFFFFF;}
	.st7{fill:#727070;}
	.st8{fill:none;stroke:#2D2D2E;stroke-width:1.5;stroke-linecap:round;stroke-linejoin:round;stroke-miterlimit:10;}
</style><g
     id="Layer_2_1_"
     class="st0"><rect
       x="-10.5"
       y="-4.1"
       class="st1"
       width="66.9"
       height="70.1"
       id="rect4751" /></g><g
     id="Layer_1"><g
       id="Layer_2"
       class="st0"><rect
         x="-70.1"
         y="-60.3"
         class="st2"
         width="242"
         height="197.7"
         id="rect4755" /></g><line
       class="st3"
       x1="25.4"
       y1="45.3"
       x2="25.4"
       y2="56.7"
       id="line4757" /><circle
       class="st3"
       cx="25.4"
       cy="25"
       r="21.9"
       id="circle4759"
	   style="stroke:#ff0000;stroke-opacity:1;stroke-width:0;stroke-miterlimit:10;stroke-dasharray:none"><animate
         attributeName="stroke-width"
         attributeType="XML"
         begin="0s"
         dur="1s"
         fill="freeze"
         from="6"
         to="0" /></circle>
	<line
       class="st4"
       x1="25.4"
       y1="45.3"
       x2="25.4"
       y2="56.7"
       id="line4761" /><circle
       class="st5"
       cx="25.4"
       cy="25"
       r="21.9"
       id="circle4763" /><circle
       class="st6"
       cx="25.4"
       cy="25"
       r="21.9"
       id="circle4765" /><g
       id="g4767"
       transformBehaviour="pinned"><path
         class="st7"
         d="M 22.9,35.6 C 22.6,35.6 22.3,35.5 22,35.2 21.8,35 21.6,34.7 21.6,34.3 l 0,-14.7 c 0,-0.3 0.1,-0.6 0.4,-0.9 0.2,-0.2 0.5,-0.4 0.9,-0.4 l 5.1,0 c 0.3,0 0.6,0.1 0.9,0.4 0.2,0.2 0.4,0.5 0.4,0.9 0,0.4 -0.1,0.6 -0.4,0.9 -0.2,0.2 -0.5,0.4 -0.9,0.4 l -3.9,0 0,4.6 3.4,0 c 0.3,0 0.6,0.1 0.9,0.4 0.2,0.2 0.4,0.5 0.4,0.9 0,0.3 -0.1,0.6 -0.4,0.9 -0.2,0.2 -0.5,0.4 -0.9,0.4 l -3.4,0 0,6.4 c 0,0.3 -0.1,0.6 -0.4,0.9 -0.2,0.1 -0.5,0.2 -0.8,0.2 z"
         id="path4769"
         inkscape:connector-curvature="0"
         style="fill:#727070" /></g><line
       class="st8"
       x1="25.4"
       y1="47.5"
       x2="25.4"
       y2="56.7"
       id="line4771" /><circle
       class="st8"
       cx="25.4"
       cy="25"
       r="21.9"
       id="circle4773" /></g></svg>