<?xml version="1.0" encoding="utf-8"?>
<!-- Generator: Adobe Illustrator 21.0.2, SVG Export Plug-In . SVG Version: 6.00 Build 0)  -->
<svg version="1.1" xmlns="http://www.w3.org/2000/svg" xmlns:xlink="http://www.w3.org/1999/xlink" x="0px" y="0px" width="132.9px"
	 height="80.6px" viewBox="0 0 132.9 80.6" style="enable-background:new 0 0 132.9 80.6;" xml:space="preserve">
<style type="text/css">
	.st0{display:none;}
	.st1{display:inline;fill:#6AD400;stroke:#000000;stroke-miterlimit:10;}
	.st2{display:inline;fill:#F41C83;}
	.st3{display:inline;fill:#0BD3F4;}
	.st4{fill:none;stroke:#FFFFFF;stroke-width:6;stroke-linecap:round;stroke-linejoin:round;stroke-miterlimit:10;}
	.st5{fill:#6F6F6F;}
	.st6{fill:none;stroke:#2D2D2D;stroke-width:1.5;stroke-linecap:round;stroke-linejoin:round;stroke-miterlimit:10;}
	.st7{fill:#F5821F;}
	.st8{fill:none;stroke:#D2D2D2;stroke-linecap:round;stroke-linejoin:round;}
	.st9{fill:#D2D2D2;stroke:#D2D2D2;stroke-width:0.75;stroke-linecap:round;stroke-linejoin:round;}
</style>
<g id="Layer_2_2_" class="st0">
	<rect x="-96.1" y="-77.4" class="st1" width="364" height="292"/>
</g>
<g id="Layer_1">
	<g id="Layer_2_1_" class="st0">
		<rect x="-16.3" y="-12.1" class="st2" width="170" height="110"/>
	</g>
	<g id="Layer_1_2_">
		<g id="Layer_2" class="st0">
			<rect x="-19.4" y="-15.3" class="st3" width="182.3" height="116.8"/>
		</g>
		<g id="Layer_1_1_">
			<polygon class="st4" points="123.9,33.3 116.1,33.3 116.1,22 116.1,12.1 73.6,12.1 73.6,3.2 58,3.2 58,12.1 15.6,12.1 15.6,33.3 
				3.3,33.3 8.9,47.8 15.6,47.8 15.6,69 58,69 58,76.9 73.6,76.9 73.6,69 116.1,69 116.1,47.8 129.5,47.8 			"/>
			<polygon class="st5" points="123.9,33.1 116.1,33.1 116.1,21.7 116.1,11.9 73.6,11.9 73.6,3 58,3 58,11.9 15.6,11.9 15.6,33.1 
				3.3,33.1 8.9,47.6 15.6,47.6 15.6,68.8 58,68.8 58,76.6 73.6,76.6 73.6,68.8 116.1,68.8 116.1,47.6 129.5,47.6 			"/>
			<polygon class="st6" points="123.9,33.3 116.1,33.3 116.1,22 116.1,12.1 73.6,12.1 73.6,3.2 58,3.2 58,12.1 15.6,12.1 15.6,33.3 
				3.3,33.3 8.9,47.8 15.6,47.8 15.6,69 58,69 58,76.9 73.6,76.9 73.6,69 116.1,69 116.1,47.8 129.5,47.8 			"/>
			<g>
				<g>
					<circle class="st7" cx="20.2" cy="37.4" r="2.6"/>
					<circle class="st7" cx="27.9" cy="37.4" r="2.6"/>
					<circle class="st7" cx="12.3" cy="37.4" r="2.6"/>
					<circle class="st7" cx="50.6" cy="37.4" r="2.6"/>
					<circle class="st7" cx="58.5" cy="37.4" r="2.6"/>
					<circle class="st7" cx="35.1" cy="37.4" r="2.6"/>
					<circle class="st7" cx="42.9" cy="37.4" r="2.6"/>
					<circle class="st7" cx="81.1" cy="37.4" r="2.6"/>
					<circle class="st7" cx="65.6" cy="37.4" r="2.6"/>
					<circle class="st7" cx="73.4" cy="37.4" r="2.6"/>
				</g>
				<g>
					<circle class="st7" cx="96.5" cy="37.4" r="2.6"/>
					<circle class="st7" cx="104.2" cy="37.4" r="2.6"/>
					<circle class="st7" cx="88.7" cy="37.4" r="2.6"/>
					<circle class="st7" cx="111.5" cy="37.4" r="2.6"/>
					<circle class="st7" cx="119.3" cy="37.4" r="2.6"/>
				</g>
			</g>
			<g>
				<g>
					<circle class="st7" cx="20.2" cy="43.7" r="2.6"/>
					<circle class="st7" cx="27.9" cy="43.7" r="2.6"/>
					<circle class="st7" cx="12.3" cy="43.7" r="2.6"/>
					<circle class="st7" cx="50.6" cy="43.7" r="2.6"/>
					<circle class="st7" cx="58.5" cy="43.7" r="2.6"/>
					<circle class="st7" cx="35.1" cy="43.7" r="2.6"/>
					<circle class="st7" cx="42.9" cy="43.7" r="2.6"/>
					<circle class="st7" cx="81.1" cy="43.7" r="2.6"/>
					<circle class="st7" cx="65.6" cy="43.7" r="2.6"/>
					<circle class="st7" cx="73.4" cy="43.7" r="2.6"/>
				</g>
				<g>
					<circle class="st7" cx="96.5" cy="43.7" r="2.6"/>
					<circle class="st7" cx="104.2" cy="43.7" r="2.6"/>
					<circle class="st7" cx="88.7" cy="43.7" r="2.6"/>
					<circle class="st7" cx="111.5" cy="43.7" r="2.6"/>
					<circle class="st7" cx="119.3" cy="43.7" r="2.6"/>
				</g>
			</g>
			<g>
				<path class="st8" d="M56.4,56.3c3.1,3.7-4.9,5.6,0,9.5"/>
				<path class="st8" d="M63,56.3c3.1,3.7-4.9,5.6,0,9.5"/>
				<path class="st8" d="M69.7,56.3c3.1,3.7-4.9,5.6,0,9.5"/>
				<path class="st8" d="M76.3,56.3c3.1,3.7-4.9,5.6,0,9.5"/>
				<polygon class="st9" points="56.8,53.3 55.4,56.4 58.2,56.4 				"/>
				<polygon class="st9" points="63.4,53.3 62,56.4 64.8,56.4 				"/>
				<polygon class="st9" points="70.1,53.3 68.7,56.4 71.5,56.4 				"/>
				<polygon class="st9" points="76.6,53.3 75.3,56.4 78.1,56.4 				"/>
			</g>
			<g>
				<path class="st8" d="M56.4,18c3.1,3.7-4.9,5.6,0,9.5"/>
				<path class="st8" d="M63,18c3.1,3.7-4.9,5.6,0,9.5"/>
				<path class="st8" d="M69.7,18c3.1,3.7-4.9,5.6,0,9.5"/>
				<path class="st8" d="M76.3,18c3.1,3.7-4.9,5.6,0,9.5"/>
				<polygon class="st9" points="56.8,14.9 55.4,18.1 58.2,18.1 				"/>
				<polygon class="st9" points="63.4,14.9 62,18.1 64.8,18.1 				"/>
				<polygon class="st9" points="70.1,14.9 68.7,18.1 71.5,18.1 				"/>
				<polygon class="st9" points="76.6,14.9 75.3,18.1 78.1,18.1 				"/>
			</g>
		</g>
	</g>
</g>
</svg>
