<?xml version="1.0" encoding="utf-8"?>
<!-- Generator: Adobe Illustrator 21.0.2, SVG Export Plug-In . SVG Version: 6.00 Build 0)  -->
<svg version="1.1" id="Layer_1" xmlns="http://www.w3.org/2000/svg" xmlns:xlink="http://www.w3.org/1999/xlink" x="0px" y="0px"
	 width="56.6px" height="74.1px" viewBox="0 0 56.6 74.1" style="enable-background:new 0 0 56.6 74.1;" xml:space="preserve">
<style type="text/css">
	.st0{display:none;}
	.st1{display:inline;fill:#EF6D0C;stroke:#000000;stroke-miterlimit:10;}
	.st2{fill:none;stroke:#FFFFFF;stroke-width:6;stroke-linecap:round;stroke-linejoin:round;stroke-miterlimit:10;}
	.st3{fill:none;}
	.st4{fill:#6F6F6F;}
	.st5{fill:none;stroke:#D2D2D2;stroke-linecap:round;stroke-linejoin:round;}
	.st6{fill:none;stroke:#2D2D2D;stroke-width:1.5;stroke-linecap:round;stroke-linejoin:round;stroke-miterlimit:10;}
	.st7{fill:#D2D2D2;}
	.st8{fill:none;stroke:#D2D2D2;stroke-linecap:round;stroke-linejoin:round;stroke-miterlimit:10;}
</style>
<g id="Layer_2" class="st0">
	<rect x="-12.1" y="-4.6" class="st1" width="72" height="83.3"/>
</g>
<g id="Layer_1_1_" inkscape:version="0.48.4 r" sodipodi:docname="speciation_analyser.svg" xmlns:cc="http://creativecommons.org/ns#" xmlns:dc="http://purl.org/dc/elements/1.1/" xmlns:inkscape="http://www.inkscape.org/namespaces/inkscape" xmlns:osb="http://www.openswatchbook.org/uri/2009/osb" xmlns:rdf="http://www.w3.org/1999/02/22-rdf-syntax-ns#" xmlns:sodipodi="http://sodipodi.sourceforge.net/DTD/sodipodi-0.dtd" xmlns:svg="http://www.w3.org/2000/svg">
	
		<sodipodi:namedview  bordercolor="#666666" borderopacity="1" gridtolerance="10" guidetolerance="10" id="namedview3124" inkscape:current-layer="Layer_1" inkscape:cx="2.663389" inkscape:cy="42.406208" inkscape:pageopacity="0" inkscape:pageshadow="2" inkscape:window-height="1018" inkscape:window-maximized="1" inkscape:window-width="1920" inkscape:window-x="-8" inkscape:window-y="-8" inkscape:zoom="8" objecttolerance="10" pagecolor="#ffffff" showgrid="false">
		</sodipodi:namedview>
	<line class="st2" x1="18.4" y1="35" x2="23.2" y2="35"/>
	<line class="st2" x1="18.4" y1="39.3" x2="23.2" y2="39.3"/>
	<line class="st2" x1="18.4" y1="43.6" x2="23.2" y2="43.6"/>
	<path class="st2" d="M52.5,58.2c-1.8-4.1-16.2-35.7-16.2-35.7v-16c0.5-0.3,0.8-0.7,0.8-1c0-1.4-3.9-2.5-8.8-2.5s-8.8,1.1-8.8,2.5
		c0,0.3,0.2,0.6,0.6,0.9V23c-1.7,3.8-14.3,31.4-16,35.2c-3.4,7.6,2,12.9,6.9,12.9h17.3h17.3C50.5,71.1,55.9,65.8,52.5,58.2z"/>
	<path class="st3" d="M52.5,58.2c-1.8-4.1-16.2-35.7-16.2-35.7v-16c0.5-0.3,0.8-0.7,0.8-1c0-1.4-3.9-2.5-8.8-2.5s-8.8,1.1-8.8,2.5
		c0,0.3,0.2,0.6,0.6,0.9V23c-1.7,3.8-14.3,31.4-16,35.2c-3.4,7.6,2,12.9,6.9,12.9h17.3h17.3C50.5,71.1,55.9,65.8,52.5,58.2z"/>
	<line class="st3" x1="18.4" y1="35" x2="23.2" y2="35"/>
	<line class="st3" x1="18.4" y1="39.3" x2="23.2" y2="39.3"/>
	<line class="st3" x1="18.4" y1="43.6" x2="23.2" y2="43.6"/>
	<path class="st3" d="M37.1,5.5c0,1.4-3.9,2.5-8.8,2.5s-8.8-1.1-8.8-2.5"/>
	<path class="st2" d="M37.1,5.5c0,1.4-3.9,2.5-8.8,2.5s-8.8-1.1-8.8-2.5"/>
	<path class="st4" d="M52.5,58.2c-1.8-4.1-16.2-35.7-16.2-35.7v-16c0.5-0.3,0.8-0.7,0.8-1c0-1.4-3.9-2.5-8.8-2.5s-8.8,1.1-8.8,2.5
		c0,0.3,0.2,0.6,0.6,0.9V23c-1.7,3.8-14.3,31.4-16,35.2c-3.4,7.6,2,12.9,6.9,12.9h17.3h17.3C50.5,71.1,55.9,65.8,52.5,58.2z"/>
	<line class="st5" x1="18.4" y1="35" x2="23.2" y2="35"/>
	<line class="st5" x1="18.4" y1="39.3" x2="23.2" y2="39.3"/>
	<line class="st5" x1="11.2" y1="43.6" x2="45.5" y2="43.6"/>
	<path class="st6" d="M52.5,58.2c-1.8-4.1-16.2-35.7-16.2-35.7v-16c0.5-0.3,0.8-0.7,0.8-1c0-1.4-3.9-2.5-8.8-2.5s-8.8,1.1-8.8,2.5
		c0,0.3,0.2,0.6,0.6,0.9V23c-1.7,3.8-14.3,31.4-16,35.2c-3.4,7.6,2,12.9,6.9,12.9h17.3h17.3C50.5,71.1,55.9,65.8,52.5,58.2z"/>
	<path class="st6" d="M37.1,5.5c0,1.4-3.9,2.5-8.8,2.5s-8.8-1.1-8.8-2.5"/>
</g>
<g>
	<path class="st7" d="M17.2,54.2c0,0.3-0.1,0.6-0.2,0.9c-0.1,0.3-0.3,0.5-0.5,0.8c-0.2,0.2-0.5,0.4-0.8,0.5s-0.6,0.2-0.9,0.2
		c-0.3,0-0.6-0.1-0.9-0.2c-0.3-0.1-0.5-0.3-0.8-0.5c-0.2-0.2-0.4-0.5-0.5-0.8s-0.2-0.6-0.2-0.9c0-0.3,0.1-0.6,0.2-0.9
		c0.1-0.3,0.3-0.5,0.5-0.8c0.2-0.2,0.5-0.4,0.8-0.5c0.3-0.1,0.6-0.2,0.9-0.2c0.3,0,0.6,0.1,0.9,0.2s0.5,0.3,0.8,0.5
		c0.2,0.2,0.4,0.5,0.5,0.8C17.2,53.5,17.2,53.8,17.2,54.2z M20.2,51.8c0.2,0.1,0.4,0.3,0.4,0.5c0.1,0.2,0.1,0.4,0,0.7l-5,10.4
		c-0.1,0.2-0.3,0.4-0.5,0.4c-0.2,0.1-0.4,0.1-0.7,0c-0.2-0.1-0.4-0.3-0.4-0.5c-0.1-0.2-0.1-0.4,0-0.7l5-10.4
		c0.1-0.2,0.3-0.4,0.5-0.4C19.8,51.6,20,51.7,20.2,51.8z M14,54.2c0,0.2,0.1,0.4,0.2,0.6c0.2,0.2,0.4,0.2,0.6,0.2s0.4-0.1,0.6-0.2
		c0.2-0.2,0.2-0.4,0.2-0.6s-0.1-0.4-0.2-0.6c-0.2-0.2-0.4-0.2-0.6-0.2s-0.4,0.1-0.6,0.2C14.1,53.7,14,53.9,14,54.2z M19.9,59
		c0.3,0,0.6,0.1,0.9,0.2c0.3,0.1,0.5,0.3,0.8,0.5c0.2,0.2,0.4,0.5,0.5,0.8c0.1,0.3,0.2,0.6,0.2,0.9c0,0.3-0.1,0.6-0.2,0.9
		c-0.1,0.3-0.3,0.5-0.5,0.8c-0.2,0.2-0.5,0.4-0.8,0.5c-0.3,0.1-0.6,0.2-0.9,0.2c-0.3,0-0.6-0.1-0.9-0.2c-0.3-0.1-0.5-0.3-0.8-0.5
		c-0.2-0.2-0.4-0.5-0.5-0.8c-0.1-0.3-0.2-0.6-0.2-0.9c0-0.3,0.1-0.6,0.2-0.9c0.1-0.3,0.3-0.5,0.5-0.8c0.2-0.2,0.5-0.4,0.8-0.5
		C19.2,59,19.5,59,19.9,59z M19.9,62.2c0.2,0,0.4-0.1,0.6-0.2c0.2-0.2,0.2-0.4,0.2-0.6s-0.1-0.4-0.2-0.6c-0.2-0.2-0.4-0.2-0.6-0.2
		s-0.4,0.1-0.6,0.2c-0.2,0.2-0.2,0.4-0.2,0.6s0.1,0.4,0.2,0.6C19.4,62.1,19.6,62.2,19.9,62.2z"/>
</g>
<polyline class="st8" points="25.4,51.2 25.4,64.3 44,64.3 "/>
<path class="st8" d="M25.9,53c5.3-0.7,10.5,10.8,18.1,11.1"/>
<path class="st8" d="M25.4,63.6c0,0,1.1,0.1,2.2-0.2c7.8-2.2,9.2-11.7,16.5-11.8"/>
</svg>
