<?xml version="1.0" encoding="utf-8"?>
<!-- Generator: Adobe Illustrator 21.0.2, SVG Export Plug-In . SVG Version: 6.00 Build 0)  -->
<svg version="1.1" xmlns="http://www.w3.org/2000/svg" xmlns:xlink="http://www.w3.org/1999/xlink" x="0px" y="0px" width="130.4px"
	 height="97.9px" viewBox="0 0 130.4 97.9" style="enable-background:new 0 0 130.4 97.9;" xml:space="preserve">
<style type="text/css">
	.st0{display:none;}
	.st1{display:inline;fill:#3000D4;stroke:#000000;stroke-miterlimit:10;}
	.st2{display:inline;fill:#ED7921;}
	.st3{fill:none;stroke:#FFFFFF;stroke-width:6;stroke-linecap:round;stroke-linejoin:round;stroke-miterlimit:10;}
	.st4{fill:#6F6F6F;}
	.st5{fill:none;stroke:#2D2D2D;stroke-width:1.5;stroke-linecap:round;stroke-linejoin:round;stroke-miterlimit:10;}
	.st6{fill:none;stroke:#C6C6C5;stroke-linecap:round;stroke-linejoin:round;stroke-miterlimit:10;}
</style>
<g id="Layer_2_1_" class="st0">
	<rect x="-29.3" y="-19.5" class="st1" width="188.4" height="163.6"/>
</g>
<g id="Layer_1">
	<g id="Layer_2" class="st0">
		<rect x="-47.4" y="-32.8" class="st2" width="226.3" height="167"/>
	</g>
	
		<g id="svg2" xmlns:cc="http://creativecommons.org/ns#" xmlns:dc="http://purl.org/dc/elements/1.1/" xmlns:rdf="http://www.w3.org/1999/02/22-rdf-syntax-ns#" xmlns:svg="http://www.w3.org/2000/svg">
		<g id="layer1" transform="translate(-87.736009,-147.17777)">
			<g id="layer1-9" transform="translate(-103.04264,-120.59984)">
				<g id="g3082" transform="matrix(1.2360885,0,0,1.2241866,155.35618,262.39212)">
					<path id="path2988_2_" class="st3" d="M92.9,67.8c10.6-0.1,21.5-4.4,29.1-11.7c6.5-6.2,9-14.5,9.6-23.3
						c0.2-2.9-0.4-5.4-2.7-7.4c-4.9-4-12.8-4.1-18.8-4c-6.6,0.1-16.4,3.9-21.2-2.1l0,0c-3-2.9-3.1-7.6-2.1-11.4
						c-1.2,0-5.6-0.7-6.4,0c-1.2,1.1-0.8,7-0.7,8.5c0.3,4.7,2.8,7.2,6,10.3c3.8,3.8,8.9,8.4,9.6,14.1c1.2,9.7-10.5,12.3-17.8,11.8
						c-12.1-0.8-25.9-3.7-37.4,1.9c-2.3,1.1-4.4,2.7-5.9,4.7c-1.1,1.5-4,7.2-1.2,8.3C44.6,84.1,96.3,88,92.9,67.8z M64.7,69.2
						c-0.4,0.1-0.7,0.1-0.8,0.2C64,69.3,64.3,69.2,64.7,69.2c-4.1,0.8-8.6,0.5-12.8,0.4c-2.1-0.1-4.2-0.2-6.3-0.3
						c-1.3-0.1-1-1.4-1.5-2.3c-0.7-1.3-2.8-0.8-4-0.5c1.1-6.4,7.4-8.7,13.2-7.5c8,1.7,15.8,5,23.8,6.8c0.4,0.1-2.7,1.2-2.6,1.2
						C71.2,67.8,67.9,68.5,64.7,69.2C66,68.9,67.7,68.5,64.7,69.2L64.7,69.2z"/>
					<path id="path2988" class="st4" d="M92.9,67.8c10.6-0.1,21.5-4.4,29.1-11.7c6.5-6.2,9-14.5,9.6-23.3c0.2-2.9-0.4-5.4-2.7-7.4
						c-4.9-4-12.8-4.1-18.8-4c-6.6,0.1-16.4,3.9-21.2-2.1l0,0c-3-2.9-3.1-7.6-2.1-11.4c-1.2,0-5.6-0.7-6.4,0c-1.2,1.1-0.8,7-0.7,8.5
						c0.3,4.7,2.8,7.2,6,10.3c3.8,3.8,8.9,8.4,9.6,14.1c1.2,9.7-10.5,12.3-17.8,11.8c-12.1-0.8-25.9-3.7-37.4,1.9
						c-2.3,1.1-4.4,2.7-5.9,4.7c-1.1,1.5-4,7.2-1.2,8.3C44.6,84.1,96.3,88,92.9,67.8z M64.7,69.2c-0.4,0.1-0.7,0.1-0.8,0.2
						C64,69.3,64.3,69.2,64.7,69.2c-4.1,0.8-8.6,0.5-12.8,0.4c-2.1-0.1-4.2-0.2-6.3-0.3c-1.3-0.1-1-1.4-1.5-2.3
						c-0.7-1.3-2.8-0.8-4-0.5c1.1-6.4,7.4-8.7,13.2-7.5c8,1.7,15.8,5,23.8,6.8c0.4,0.1-2.7,1.2-2.6,1.2
						C71.2,67.8,67.9,68.5,64.7,69.2C66,68.9,67.7,68.5,64.7,69.2L64.7,69.2z"/>
					<path id="path2988_1_" class="st5" d="M92.9,67.8c10.6-0.1,21.5-4.4,29.1-11.7c6.5-6.2,9-14.5,9.6-23.3
						c0.2-2.9-0.4-5.4-2.7-7.4c-4.9-4-12.8-4.1-18.8-4c-6.6,0.1-16.4,3.9-21.2-2.1l0,0c-3-2.9-3.1-7.6-2.1-11.4
						c-1.2,0-5.6-0.7-6.4,0c-1.2,1.1-0.8,7-0.7,8.5c0.3,4.7,2.8,7.2,6,10.3c3.8,3.8,8.9,8.4,9.6,14.1c1.2,9.7-10.5,12.3-17.8,11.8
						c-12.1-0.8-25.9-3.7-37.4,1.9c-2.3,1.1-4.4,2.7-5.9,4.7c-1.1,1.5-4,7.2-1.2,8.3C44.6,84.1,96.3,88,92.9,67.8z M64.7,69.2
						c-0.4,0.1-0.7,0.1-0.8,0.2C64,69.3,64.3,69.2,64.7,69.2c-4.1,0.8-8.6,0.5-12.8,0.4c-2.1-0.1-4.2-0.2-6.3-0.3
						c-1.3-0.1-1-1.4-1.5-2.3c-0.7-1.3-2.8-0.8-4-0.5c1.1-6.4,7.4-8.7,13.2-7.5c8,1.7,15.8,5,23.8,6.8c0.4,0.1-2.7,1.2-2.6,1.2
						C71.2,67.8,67.9,68.5,64.7,69.2C66,68.9,67.7,68.5,64.7,69.2L64.7,69.2z"/>
					<path id="path3070" class="st6" d="M94.3,76.1"/>
					<path id="path3072" class="st6" d="M92.9,67.4"/>
					<path id="path3907" class="st5" d="M77,65.8c8.3,2.8,15.9,2,15.9,2"/>
				</g>
			</g>
		</g>
	</g>
</g>
</svg>
