<?xml version="1.0" encoding="utf-8"?>
<!-- Generator: Adobe Illustrator 21.0.2, SVG Export Plug-In . SVG Version: 6.00 Build 0)  -->
<svg version="1.1" id="Layer_1" xmlns="http://www.w3.org/2000/svg" xmlns:xlink="http://www.w3.org/1999/xlink" x="0px" y="0px"
	 width="143.6px" height="87.4px" viewBox="0 0 143.6 87.4" style="enable-background:new 0 0 143.6 87.4;" xml:space="preserve">
<style type="text/css">
	.st0{display:none;}
	.st1{display:inline;fill:#E56B10;}
	.st2{fill:none;stroke:#FFFFFF;stroke-width:6;stroke-linecap:round;stroke-linejoin:round;stroke-miterlimit:10;}
	.st3{enable-background:new    ;}
	.st4{fill:#2D2D2D;}
	.st5{fill:none;stroke:#2D2D2D;stroke-width:1.5;stroke-linecap:round;stroke-linejoin:round;stroke-miterlimit:10;}
	.st6{fill:none;stroke:#FFFFFF;stroke-width:3;stroke-linecap:round;stroke-linejoin:round;stroke-miterlimit:10;}
</style>
<g id="Layer_2" class="st0">
	<rect x="-15.7" y="-17.1" class="st1" width="174.3" height="127"/>
</g>
<g id="svg2" inkscape:export-filename="C:\PSE_Sandbox\FP branch\gFORMULATE_1_0\_main\icons\models\ideal component splitter.png" inkscape:export-xdpi="90" inkscape:export-ydpi="90" inkscape:version="0.48.4 r9939" sodipodi:docname="ideal component splitter.svg" xmlns:cc="http://creativecommons.org/ns#" xmlns:dc="http://purl.org/dc/elements/1.1/" xmlns:inkscape="http://www.inkscape.org/namespaces/inkscape" xmlns:rdf="http://www.w3.org/1999/02/22-rdf-syntax-ns#" xmlns:sodipodi="http://sodipodi.sourceforge.net/DTD/sodipodi-0.dtd" xmlns:svg="http://www.w3.org/2000/svg">
	<line id="line33-5_1_" class="st2" x1="46.3" y1="17.7" x2="131.5" y2="17.7"/>
	<line id="line33-5-2_1_" class="st2" x1="3" y1="77.8" x2="126.4" y2="77.8"/>
	<line id="line33-5-9_1_" class="st2" x1="46.2" y1="18.4" x2="46.2" y2="77.8"/>
	
		<sodipodi:namedview  bordercolor="#666666" borderopacity="1" fit-margin-bottom="0" fit-margin-left="0" fit-margin-right="0" fit-margin-top="0" gridtolerance="10" guidetolerance="10" id="namedview7" inkscape:current-layer="g4162" inkscape:cx="-11.389511" inkscape:cy="60.336431" inkscape:pageopacity="0" inkscape:pageshadow="2" inkscape:window-height="1018" inkscape:window-maximized="1" inkscape:window-width="1920" inkscape:window-x="-8" inkscape:window-y="-8" inkscape:zoom="3.028805" objecttolerance="10" pagecolor="#ffffff" showgrid="false">
		</sodipodi:namedview>
	<g>
		<g class="st3">
			<path class="st4" d="M49.8,9c0-0.3-0.2-0.6-0.4-0.8L47.9,7c-0.5-0.4-0.7-0.9-0.8-1.5c0-0.6,0.2-1.2,0.6-1.6
				c0.4-0.4,1-0.6,1.5-0.5c0.6,0.1,1,0.5,1.3,1c0.1,0.3,0.1,0.6-0.2,0.7c-0.2,0.1-0.5,0.1-0.6-0.2c-0.1-0.3-0.4-0.4-0.7-0.5
				c-0.3-0.1-0.6,0-0.8,0.3C48.1,4.8,48,5.1,48,5.4c0,0.3,0.2,0.6,0.4,0.8l1.4,1.1c0.5,0.4,0.8,0.9,0.8,1.6c0,0.7-0.2,1.3-0.6,1.7
				c-0.4,0.5-1,0.6-1.6,0.5c-0.6-0.1-1.1-0.5-1.4-1C47,9.8,47,9.5,47.3,9.4c0.2-0.1,0.5-0.1,0.6,0.2c0.2,0.3,0.4,0.5,0.7,0.5
				c0.3,0.1,0.6,0,0.8-0.3C49.7,9.6,49.8,9.3,49.8,9z"/>
			<path class="st4" d="M52.5,14V3.9c0-0.3,0.2-0.5,0.5-0.5h1.6c1.1,0,2,1,2,2.2v3.3c0,1.2-0.9,2.2-2,2.2h-1.1v3
				c0,0.3-0.2,0.5-0.5,0.5C52.7,14.5,52.5,14.3,52.5,14z M54.5,4.4h-1.1V10h1.1c0.6,0,1.1-0.5,1.1-1.2V5.6
				C55.6,4.9,55.1,4.4,54.5,4.4z"/>
			<path class="st4" d="M58.5,9.4v-9c0-0.3,0.2-0.5,0.5-0.5c0.3,0,0.5,0.2,0.5,0.5v9c0,0.3,0.2,0.6,0.4,0.7c0.2,0.1,0.3,0.4,0.2,0.7
				c-0.1,0.3-0.4,0.3-0.6,0.2C58.9,10.7,58.5,10.1,58.5,9.4z"/>
			<path class="st4" d="M61.5,1.3c0-0.4,0.3-0.7,0.6-0.7c0.4,0,0.6,0.3,0.6,0.7c0,0.4-0.3,0.7-0.6,0.7C61.8,2,61.5,1.7,61.5,1.3z
				 M62.1,11.1c-0.2,0-0.5-0.2-0.5-0.5V3.8c0-0.3,0.2-0.5,0.5-0.5c0.3,0,0.5,0.2,0.5,0.5v6.8C62.6,10.9,62.4,11.1,62.1,11.1z"/>
			<path class="st4" d="M64.1,3.9c0-0.3,0.2-0.5,0.5-0.5h0.8v-3c0-0.3,0.2-0.5,0.5-0.5c0.3,0,0.5,0.2,0.5,0.5v3h1.1
				c0.3,0,0.5,0.2,0.5,0.5c0,0.3-0.2,0.5-0.5,0.5h-1.1v4.5c0,0.7,0.5,1.2,1.1,1.2c0.3,0,0.5,0.2,0.5,0.5s-0.2,0.5-0.5,0.5
				c-1.1,0-2-1-2-2.2V4.4h-0.8C64.3,4.4,64.1,4.2,64.1,3.9z"/>
			<path class="st4" d="M72.2,8.9V5.5c0-0.9,0.5-1.7,1.2-2c0.8-0.3,1.6-0.2,2.2,0.5c0.1,0.1,0.1,0.2,0.1,0.4c0,0.1,0,0.3-0.1,0.4
				c-0.1,0.1-0.2,0.1-0.3,0.1c-0.1,0-0.2-0.1-0.3-0.1c-0.3-0.4-0.8-0.5-1.2-0.3c-0.4,0.2-0.7,0.6-0.7,1.1v3.4c0,0.5,0.2,0.9,0.7,1.1
				c0.4,0.2,0.9,0.1,1.2-0.3c0.1-0.1,0.2-0.2,0.3-0.2c0.1,0,0.2,0.1,0.3,0.2c0.1,0.1,0.1,0.2,0.1,0.4c0,0.1,0,0.3-0.1,0.4
				c-0.6,0.6-1.4,0.8-2.2,0.5C72.7,10.6,72.2,9.8,72.2,8.9z"/>
			<path class="st4" d="M77.3,8.9V5.5c0-1.2,0.9-2.2,2-2.2c1.1,0,2,1,2,2.2v3.4c0,1.2-0.9,2.2-2,2.2C78.2,11.1,77.3,10.1,77.3,8.9z
				 M78.3,5.5v3.4c0,0.7,0.5,1.2,1.1,1.2c0.6,0,1.1-0.5,1.1-1.2V5.5c0-0.7-0.5-1.2-1.1-1.2C78.7,4.3,78.3,4.9,78.3,5.5z"/>
			<path class="st4" d="M84.3,10.6c0,0.3-0.2,0.5-0.5,0.5c-0.3,0-0.5-0.2-0.5-0.5V3.9c0-0.3,0.2-0.5,0.5-0.5h4.7c1.1,0,2,1,2,2.2v5
				c0,0.3-0.2,0.5-0.5,0.5c-0.3,0-0.5-0.2-0.5-0.5v-5c0-0.7-0.5-1.2-1.1-1.2h-1.1v6.2c0,0.3-0.2,0.5-0.5,0.5c-0.3,0-0.5-0.2-0.5-0.5
				V4.4h-2.2V10.6z"/>
			<path class="st4" d="M92.6,14V3.9c0-0.3,0.2-0.5,0.5-0.5h1.6c1.1,0,2,1,2,2.2v3.3c0,1.2-0.9,2.2-2,2.2h-1.1v3
				c0,0.3-0.2,0.5-0.5,0.5C92.8,14.5,92.6,14.3,92.6,14z M94.6,4.4h-1.1V10h1.1c0.6,0,1.1-0.5,1.1-1.2V5.6
				C95.7,4.9,95.2,4.4,94.6,4.4z"/>
			<path class="st4" d="M98.4,8.9V5.5c0-1.2,0.9-2.2,2-2.2c1.1,0,2,1,2,2.2v3.4c0,1.2-0.9,2.2-2,2.2C99.3,11.1,98.4,10.1,98.4,8.9z
				 M99.4,5.5v3.4c0,0.7,0.5,1.2,1.1,1.2s1.1-0.5,1.1-1.2V5.5c0-0.7-0.5-1.2-1.1-1.2S99.4,4.9,99.4,5.5z"/>
			<path class="st4" d="M104.5,10.6V3.9c0-0.3,0.2-0.5,0.5-0.5h1.6c1.1,0,2,1,2,2.2v5c0,0.3-0.2,0.5-0.5,0.5c-0.3,0-0.5-0.2-0.5-0.5
				v-5c0-0.7-0.5-1.2-1.1-1.2h-1.1v6.2c0,0.3-0.2,0.5-0.5,0.5C104.7,11.1,104.5,10.9,104.5,10.6z"/>
			<path class="st4" d="M110.4,8.9V5.5c0-1.2,0.9-2.2,2-2.2s2,1,2,2.2v1.7c0,0.3-0.2,0.5-0.5,0.5h-2.6v1.2c0,0.5,0.2,0.9,0.7,1.1
				s0.9,0.1,1.2-0.3c0.1-0.1,0.2-0.2,0.3-0.2c0.1,0,0.2,0.1,0.3,0.2c0.1,0.1,0.1,0.2,0.1,0.4c0,0.1,0,0.3-0.1,0.4
				c-0.6,0.6-1.4,0.8-2.2,0.5C110.9,10.6,110.4,9.8,110.4,8.9z M111.3,5.5v1.2h2.2V5.5c0-0.7-0.5-1.2-1.1-1.2S111.3,4.9,111.3,5.5z"
				/>
			<path class="st4" d="M116.3,10.6V3.9c0-0.3,0.2-0.5,0.5-0.5h1.6c1.1,0,2,1,2,2.2v5c0,0.3-0.2,0.5-0.5,0.5c-0.3,0-0.5-0.2-0.5-0.5
				v-5c0-0.7-0.5-1.2-1.1-1.2h-1.1v6.2c0,0.3-0.2,0.5-0.5,0.5C116.5,11.1,116.3,10.9,116.3,10.6z"/>
			<path class="st4" d="M121.8,3.9c0-0.3,0.2-0.5,0.5-0.5h0.8v-3c0-0.3,0.2-0.5,0.5-0.5c0.3,0,0.5,0.2,0.5,0.5v3h1.1
				c0.3,0,0.5,0.2,0.5,0.5c0,0.3-0.2,0.5-0.5,0.5h-1.1v4.5c0,0.7,0.5,1.2,1.1,1.2c0.3,0,0.5,0.2,0.5,0.5s-0.2,0.5-0.5,0.5
				c-1.1,0-2-1-2-2.2V4.4h-0.8C122,4.4,121.8,4.2,121.8,3.9z"/>
		</g>
	</g>
	<line id="line33-5-9" class="st5" x1="46.2" y1="17.7" x2="46.2" y2="77.8"/>
	<path id="path5593-1-1-4-0-1" inkscape:connector-curvature="0" class="st4" d="M126.7,9.7l15.4,8.1l-15.4,8
		C126.7,25.8,126.7,9.7,126.7,9.7z"/>
	<path id="path5593-1-1-4-0-1_1_" inkscape:connector-curvature="0" class="st4" d="M126.7,69.8l15.4,8.1l-15.4,8
		C126.7,85.9,126.7,69.8,126.7,69.8z"/>
	<path id="path5593-1-1-4-0-1_3_" inkscape:connector-curvature="0" class="st6" d="M126.7,9.7l15.4,8.1l-15.4,8
		C126.7,25.8,126.7,9.7,126.7,9.7z"/>
	<path id="path5593-1-1-4-0-1_2_" inkscape:connector-curvature="0" class="st6" d="M126.7,69.8l15.4,8.1l-15.4,8
		C126.7,85.9,126.7,69.8,126.7,69.8z"/>
	<line id="line33-5" class="st5" x1="46.3" y1="17.7" x2="131.5" y2="17.7"/>
	<line id="line33-5-2" class="st5" x1="3" y1="77.8" x2="130.1" y2="77.8"/>
</g>
</svg>
