<?xml version="1.0" encoding="utf-8"?>
<!-- Generator: Adobe Illustrator 21.0.2, SVG Export Plug-In . SVG Version: 6.00 Build 0)  -->
<svg version="1.1" id="Layer_1" xmlns="http://www.w3.org/2000/svg" xmlns:xlink="http://www.w3.org/1999/xlink" x="0px" y="0px"
	 width="143.6px" height="87.4px" viewBox="0 0 143.6 87.4" style="enable-background:new 0 0 143.6 87.4;" xml:space="preserve">
<style type="text/css">
	.st0{display:none;}
	.st1{display:inline;fill:#E56B10;}
	.st2{fill:none;stroke:#FFFFFF;stroke-width:6;stroke-linecap:round;stroke-linejoin:round;stroke-miterlimit:10;}
	.st3{fill:none;stroke:#2D2D2D;stroke-width:1.5;stroke-linecap:round;stroke-linejoin:round;stroke-miterlimit:10;}
	.st4{fill:#2D2D2D;}
	.st5{fill:none;stroke:#FFFFFF;stroke-width:3;stroke-linecap:round;stroke-linejoin:round;stroke-miterlimit:10;}
	.st6{enable-background:new    ;}
</style>
<g id="Layer_2" class="st0">
	<rect x="-15.7" y="-17.1" class="st1" width="174.3" height="127"/>
</g>
<g id="svg2" inkscape:export-filename="C:\PSE_Sandbox\FP branch\gFORMULATE_1_0\_main\icons\models\ideal component splitter.png" inkscape:export-xdpi="90" inkscape:export-ydpi="90" inkscape:version="0.48.4 r9939" sodipodi:docname="ideal component splitter.svg" xmlns:cc="http://creativecommons.org/ns#" xmlns:dc="http://purl.org/dc/elements/1.1/" xmlns:inkscape="http://www.inkscape.org/namespaces/inkscape" xmlns:rdf="http://www.w3.org/1999/02/22-rdf-syntax-ns#" xmlns:sodipodi="http://sodipodi.sourceforge.net/DTD/sodipodi-0.dtd" xmlns:svg="http://www.w3.org/2000/svg">
	<line id="line33-5_1_" class="st2" x1="46.3" y1="17.7" x2="131.5" y2="17.7"/>
	<line id="line33-5-2_1_" class="st2" x1="3" y1="77.8" x2="126.4" y2="77.8"/>
	<line id="line33-5-9_1_" class="st2" x1="46.2" y1="18.4" x2="46.2" y2="77.8"/>
	
		<sodipodi:namedview  bordercolor="#666666" borderopacity="1" fit-margin-bottom="0" fit-margin-left="0" fit-margin-right="0" fit-margin-top="0" gridtolerance="10" guidetolerance="10" id="namedview7" inkscape:current-layer="g4162" inkscape:cx="-11.389511" inkscape:cy="60.336431" inkscape:pageopacity="0" inkscape:pageshadow="2" inkscape:window-height="1018" inkscape:window-maximized="1" inkscape:window-width="1920" inkscape:window-x="-8" inkscape:window-y="-8" inkscape:zoom="3.028805" objecttolerance="10" pagecolor="#ffffff" showgrid="false">
		</sodipodi:namedview>
	<line id="line33-5-9" class="st3" x1="46.2" y1="17.7" x2="46.2" y2="77.8"/>
	<path id="path5593-1-1-4-0-1" inkscape:connector-curvature="0" class="st4" d="M126.7,9.7l15.4,8.1l-15.4,8
		C126.7,25.8,126.7,9.7,126.7,9.7z"/>
	<path id="path5593-1-1-4-0-1_1_" inkscape:connector-curvature="0" class="st4" d="M126.7,69.8l15.4,8.1l-15.4,8
		C126.7,85.9,126.7,69.8,126.7,69.8z"/>
	<path id="path5593-1-1-4-0-1_3_" inkscape:connector-curvature="0" class="st5" d="M126.7,9.7l15.4,8.1l-15.4,8
		C126.7,25.8,126.7,9.7,126.7,9.7z"/>
	<path id="path5593-1-1-4-0-1_2_" inkscape:connector-curvature="0" class="st5" d="M126.7,69.8l15.4,8.1l-15.4,8
		C126.7,85.9,126.7,69.8,126.7,69.8z"/>
	<line id="line33-5" class="st3" x1="46.3" y1="17.7" x2="131.5" y2="17.7"/>
	<line id="line33-5-2" class="st3" x1="3" y1="77.8" x2="130.1" y2="77.8"/>
</g>
<g>
	<g class="st6">
		<path class="st4" d="M63.4,9.1c0-0.3-0.2-0.6-0.4-0.8l-1.4-1.1c-0.5-0.4-0.7-0.9-0.8-1.5c0-0.6,0.2-1.2,0.6-1.6
			c0.4-0.4,1-0.6,1.5-0.5c0.6,0.1,1,0.5,1.3,1c0.1,0.3,0.1,0.6-0.2,0.7c-0.2,0.1-0.5,0.1-0.6-0.2c-0.1-0.3-0.4-0.4-0.7-0.5
			c-0.3-0.1-0.6,0-0.8,0.3c-0.2,0.2-0.3,0.5-0.3,0.8c0,0.3,0.2,0.6,0.4,0.8l1.4,1.1c0.5,0.4,0.8,0.9,0.8,1.6c0,0.7-0.2,1.3-0.6,1.7
			c-0.4,0.5-1,0.6-1.6,0.5c-0.6-0.1-1.1-0.5-1.4-1c-0.1-0.3-0.1-0.6,0.2-0.7c0.2-0.1,0.5-0.1,0.6,0.2c0.2,0.3,0.4,0.5,0.7,0.5
			c0.3,0.1,0.6,0,0.8-0.3C63.3,9.8,63.4,9.5,63.4,9.1z"/>
		<path class="st4" d="M66.1,14.2V4.1c0-0.3,0.2-0.5,0.5-0.5h1.6c1.1,0,2,1,2,2.2V9c0,1.2-0.9,2.2-2,2.2h-1.1v3
			c0,0.3-0.2,0.5-0.5,0.5C66.3,14.7,66.1,14.5,66.1,14.2z M68.2,4.6h-1.1v5.6h1.1c0.6,0,1.1-0.5,1.1-1.2V5.8
			C69.3,5.1,68.8,4.6,68.2,4.6z"/>
		<path class="st4" d="M72.1,9.6v-9c0-0.3,0.2-0.5,0.5-0.5c0.3,0,0.5,0.2,0.5,0.5v9c0,0.3,0.2,0.6,0.4,0.7c0.2,0.1,0.3,0.4,0.2,0.7
			c-0.1,0.3-0.4,0.3-0.6,0.2C72.5,10.9,72.1,10.3,72.1,9.6z"/>
		<path class="st4" d="M75.1,1.5c0-0.4,0.3-0.7,0.6-0.7c0.4,0,0.6,0.3,0.6,0.7c0,0.4-0.3,0.7-0.6,0.7C75.4,2.1,75.1,1.8,75.1,1.5z
			 M75.8,11.3c-0.3,0-0.5-0.2-0.5-0.5V4c0-0.3,0.2-0.5,0.5-0.5c0.3,0,0.5,0.2,0.5,0.5v6.8C76.2,11.1,76,11.3,75.8,11.3z"/>
		<path class="st4" d="M77.7,4.1c0-0.3,0.2-0.5,0.5-0.5H79v-3c0-0.3,0.2-0.5,0.5-0.5c0.3,0,0.5,0.2,0.5,0.5v3H81
			c0.3,0,0.5,0.2,0.5,0.5c0,0.3-0.2,0.5-0.5,0.5h-1.1v4.5c0,0.7,0.5,1.2,1.1,1.2c0.3,0,0.5,0.2,0.5,0.5s-0.2,0.5-0.5,0.5
			c-1.1,0-2-1-2-2.2V4.6h-0.8C77.9,4.6,77.7,4.4,77.7,4.1z"/>
		<path class="st4" d="M86,14.2V4.1c0-0.3,0.2-0.5,0.5-0.5H88c1.1,0,2,1,2,2.2V9c0,1.2-0.9,2.2-2,2.2H87v3c0,0.3-0.2,0.5-0.5,0.5
			C86.2,14.7,86,14.5,86,14.2z M88,4.6H87v5.6H88c0.6,0,1.1-0.5,1.1-1.2V5.8C89.1,5.1,88.7,4.6,88,4.6z"/>
		<path class="st4" d="M92.1,10.8V0.6c0-0.3,0.2-0.5,0.5-0.5c0.3,0,0.5,0.2,0.5,0.5v3h1.1c1.1,0,2,1,2,2.2v5c0,0.3-0.2,0.5-0.5,0.5
			c-0.2,0-0.5-0.2-0.5-0.5v-5c0-0.7-0.5-1.2-1.1-1.2H93v6.2c0,0.3-0.2,0.5-0.5,0.5C92.3,11.3,92.1,11.1,92.1,10.8z"/>
		<path class="st4" d="M100.7,5.7c0-0.5-0.3-0.9-0.7-1.1c-0.4-0.2-0.9-0.1-1.2,0.3C98.8,5,98.7,5,98.5,5c-0.1,0-0.2-0.1-0.3-0.2
			C98.1,4.7,98,4.6,98,4.5c0-0.2,0-0.3,0.1-0.4c0.6-0.6,1.4-0.8,2.2-0.5c0.7,0.3,1.2,1.1,1.2,2v5.1c0,0.3-0.2,0.5-0.5,0.5h-1.6
			c-1.1,0-2-1-2-2.2c0-1.2,0.9-2.2,2-2.2h1.1V5.7z M99.6,10.2h1.1V7.8h-1.1c-0.6,0-1.1,0.5-1.1,1.2C98.5,9.7,99,10.2,99.6,10.2z"/>
		<path class="st4" d="M106,9.1c0-0.3-0.2-0.6-0.4-0.8l-1.4-1.1c-0.5-0.4-0.7-0.9-0.8-1.5c0-0.6,0.2-1.2,0.6-1.6
			c0.4-0.4,1-0.6,1.5-0.5c0.6,0.1,1,0.5,1.3,1c0.1,0.3,0.1,0.6-0.2,0.7c-0.2,0.1-0.5,0.1-0.6-0.2c-0.1-0.3-0.4-0.4-0.7-0.5
			c-0.3-0.1-0.6,0-0.8,0.3c-0.2,0.2-0.3,0.5-0.3,0.8c0,0.3,0.2,0.6,0.4,0.8l1.4,1.1c0.5,0.4,0.8,0.9,0.8,1.6c0,0.7-0.2,1.3-0.6,1.7
			c-0.4,0.5-1,0.6-1.6,0.5c-0.6-0.1-1.1-0.5-1.4-1c-0.1-0.3-0.1-0.6,0.2-0.7c0.2-0.1,0.5-0.1,0.6,0.2c0.2,0.3,0.4,0.5,0.7,0.5
			c0.3,0.1,0.6,0,0.8-0.3C105.9,9.8,106.1,9.5,106,9.1z"/>
		<path class="st4" d="M108.6,9.1V5.7c0-1.2,0.9-2.2,2-2.2c1.1,0,2,1,2,2.2v1.7c0,0.3-0.2,0.5-0.5,0.5h-2.6v1.2
			c0,0.5,0.2,0.9,0.7,1.1c0.4,0.2,0.9,0.1,1.2-0.3c0.1-0.1,0.2-0.2,0.3-0.2c0.1,0,0.2,0.1,0.3,0.2c0.1,0.1,0.1,0.2,0.1,0.4
			c0,0.1,0,0.3-0.1,0.4c-0.6,0.6-1.4,0.8-2.2,0.5C109.1,10.8,108.6,10,108.6,9.1z M109.5,5.7v1.2h2.2V5.7c0-0.7-0.5-1.2-1.1-1.2
			C110,4.5,109.5,5,109.5,5.7z"/>
	</g>
	<g>
	</g>
</g>
</svg>
