<?xml version="1.0" encoding="utf-8"?>
<!-- Generator: Adobe Illustrator 21.0.2, SVG Export Plug-In . SVG Version: 6.00 Build 0)  -->
<svg version="1.1" id="Layer_1" xmlns="http://www.w3.org/2000/svg" xmlns:xlink="http://www.w3.org/1999/xlink" x="0px" y="0px"
	 width="79.3px" height="45.3px" viewBox="0 0 79.3 45.3" style="enable-background:new 0 0 79.3 45.3;" xml:space="preserve">
<style type="text/css">
	.st0{fill:none;stroke:#FFFFFF;stroke-width:6;stroke-linecap:round;stroke-linejoin:round;stroke-miterlimit:10;}
	.st1{fill:#6F6F6F;}
	.st2{fill:none;stroke:#D2D2D2;stroke-linecap:round;stroke-linejoin:round;stroke-miterlimit:10;}
	.st3{fill:none;stroke:#2D2D2D;stroke-width:1.5;stroke-linecap:round;stroke-linejoin:round;stroke-miterlimit:10;}
</style>
<ellipse class="st0" cx="39.6" cy="15" rx="36.6" ry="12"/>
<path class="st0" d="M76.2,15c0,6.6-16.4,12-36.6,12S3,21.6,3,15v15.2c0,6.6,16.4,12,36.6,12s36.6-5.4,36.6-12V15z"/>
<ellipse class="st1" cx="39.6" cy="15" rx="36.6" ry="12"/>
<path class="st1" d="M76.2,15c0,6.6-16.4,12-36.6,12S3,21.6,3,15v15.2c0,6.6,16.4,12,36.6,12s36.6-5.4,36.6-12V15z"/>
<line class="st2" x1="14.4" y1="20" x2="58.8" y2="6.8"/>
<line class="st2" x1="17.4" y1="21.6" x2="61.8" y2="8.4"/>
<ellipse class="st3" cx="39.6" cy="15" rx="36.6" ry="12"/>
<path class="st3" d="M76.2,15c0,6.6-16.4,12-36.6,12S3,21.6,3,15v15.2c0,6.6,16.4,12,36.6,12s36.6-5.4,36.6-12V15z"/>
</svg>
