<?xml version="1.0" encoding="utf-8"?>
<!-- Generator: Adobe Illustrator 21.0.2, SVG Export Plug-In . SVG Version: 6.00 Build 0)  -->
<svg version="1.1" xmlns="http://www.w3.org/2000/svg" xmlns:xlink="http://www.w3.org/1999/xlink" x="0px" y="0px" width="73.7px"
	 height="115px" viewBox="0 0 73.7 115" style="enable-background:new 0 0 73.7 115;" xml:space="preserve">
<style type="text/css">
	.st0{display:none;}
	.st1{display:inline;fill:#6AFFA1;stroke:#000000;stroke-miterlimit:10;}
	.st2{display:inline;fill:#7EF912;}
	.st3{fill:none;stroke:#FFFFFF;stroke-width:6;stroke-linecap:round;stroke-linejoin:round;stroke-miterlimit:10;}
	.st4{fill:#707070;}
	.st5{display:inline;fill:#F20A0A;}
	.st6{display:inline;fill:#EF8122;}
	.st7{fill:#006C84;}
	.st8{fill:none;stroke:#D1D1D1;stroke-linecap:round;stroke-linejoin:round;stroke-miterlimit:10;}
	.st9{fill:none;stroke:#D1D1D1;stroke-linecap:round;stroke-linejoin:round;}
	.st10{fill:none;stroke:#D2D2D2;stroke-linecap:round;stroke-linejoin:round;stroke-miterlimit:10;}
	.st11{fill:#F5821F;}
	.st12{fill:none;stroke:#2D2D2E;stroke-width:1.5;stroke-linecap:round;stroke-linejoin:round;stroke-miterlimit:10;}
</style>
<g id="Layer_2_2_" class="st0">
	<rect x="-11.7" y="-7.3" class="st1" width="106.2" height="134"/>
</g>
<g id="Layer_1">
	<g id="Layer_2_1_" class="st0">
		<rect x="5.6" y="-22.6" class="st2" width="64.3" height="121"/>
	</g>
	<g id="Layer_1_1_">
		<g>
			<path class="st3" d="M3.5,3.1v81.8v5.8c0,12.7,20.5,20.5,33.2,20.5s33.2-7.7,33.2-20.5v-5.8V3.1H3.5z"/>
		</g>
		<g>
			<path class="st4" d="M3.5,3.1v81.8v5.8c0,12.7,20.5,20.5,33.2,20.5s33.2-7.7,33.2-20.5v-5.8V3.1H3.5z"/>
		</g>
		<g id="Layer_2" class="st0">
			<rect x="8.9" y="7.5" class="st5" width="51.3" height="56.1"/>
		</g>
		<g id="Layer_1_12_">
			<g id="Layer_2_12_" class="st0">
				<rect x="-10.4" y="-46.6" class="st6" width="101" height="169.8"/>
			</g>
			<g id="Layer_1_13_">
				<path class="st7" d="M66.1,30.9h-3.4l-2.3-0.4l-2.8-1.2l-3.9,0.4l-3.1,1.4l-3.1,0.5l-3.1-1.4l-3.1-1.1l-3.4,0.9l-4.1,0.8
					l-3.5-0.4l-2.8-1.2h-2.6l-3.4,1.6h-3.3l-3.3-0.5l-2.6-1.1l-3.4,0.1l-3.4,1.5H3.6v54v5.8c0,12.7,20.5,20.5,33.2,20.5
					s33.2-7.7,33.2-20.5v-5.8V29.7L66.1,30.9z"/>
				<g>
					<path class="st8" d="M3.5,31.2c4.7,0,3.7-1.8,7.5-1.8s2.3,1.8,7.6,1.8c4.7,0,3.8-1.8,7.5-1.8s2.3,1.8,7.6,1.8
						c4.7,0,3.8-1.8,7.5-1.8c3.7,0,2.3,1.8,7.6,1.8c4.7,0,3.8-1.8,7.5-1.8c3.7,0,2.3,1.8,7.6,1.8"/>
					<path class="st8" d="M63.8,31.2c4.1,0,3.9-1.4,6.1-1.6"/>
				</g>
				<g>
					<line class="st9" x1="36.7" y1="3.3" x2="36.7" y2="68.4"/>
					<ellipse class="st9" cx="44" cy="68.4" rx="7.3" ry="3.4"/>
					<ellipse class="st9" cx="29.4" cy="68.4" rx="7.3" ry="3.4"/>
				</g>
			</g>
		</g>
		<g id="Layer_1_2_">
			<path class="st10" d="M44,89c0.9,1.5-1.9,5.2-6.5,8.3s-9.1,4.3-10.2,2.8l2.3,3.4c0.9,1.5,5.6,0.1,10.2-2.8c4.6-3,7.5-6.8,6.5-8.3
				L44,89z"/>
			<ellipse transform="matrix(0.832 -0.5548 0.5548 0.832 -46.4436 35.6907)" class="st10" cx="35.7" cy="94.5" rx="10" ry="3.3"/>
		</g>
		<circle class="st11" cx="12" cy="39.8" r="1.6"/>
		<circle class="st11" cx="65.3" cy="42.2" r="1.6"/>
		<circle class="st11" cx="15.3" cy="61.2" r="1.6"/>
		<circle class="st11" cx="16.6" cy="88" r="1.6"/>
		<circle class="st11" cx="25.4" cy="54.4" r="1.6"/>
		<circle class="st11" cx="31" cy="43" r="1.6"/>
		<circle class="st11" cx="15.3" cy="49" r="1.6"/>
		<circle class="st11" cx="13.6" cy="73.4" r="1.6"/>
		<circle class="st11" cx="55.4" cy="76.6" r="1.6"/>
		<circle class="st11" cx="62.1" cy="86.4" r="1.6"/>
		<circle class="st11" cx="49.7" cy="88" r="1.6"/>
		<circle class="st11" cx="42.5" cy="78.3" r="1.6"/>
		<circle class="st11" cx="44.1" cy="39.8" r="1.6"/>
		<circle class="st11" cx="53.8" cy="57.2" r="1.6"/>
		<circle class="st11" cx="63.7" cy="66.6" r="1.6"/>
		<circle class="st11" cx="44.8" cy="52.8" r="1.6"/>
		<circle class="st11" cx="57" cy="44.6" r="1.6"/>
		<circle class="st11" cx="31" cy="78.3" r="1.6"/>
		<circle class="st11" cx="28.7" cy="88" r="1.6"/>
		<g>
			<path class="st12" d="M3.5,3.1v81.8v5.8c0,12.7,20.5,20.5,33.2,20.5s33.2-7.7,33.2-20.5v-5.8V3.1H3.5z"/>
		</g>
	</g>
</g>
</svg>
