<?xml version="1.0" encoding="UTF-8" standalone="no"?>
<!-- Generator: Adobe Illustrator 21.0.2, SVG Export Plug-In . SVG Version: 6.00 Build 0)  -->

<svg
   xmlns:dc="http://purl.org/dc/elements/1.1/"
   xmlns:cc="http://creativecommons.org/ns#"
   xmlns:rdf="http://www.w3.org/1999/02/22-rdf-syntax-ns#"
   xmlns:svg="http://www.w3.org/2000/svg"
   xmlns="http://www.w3.org/2000/svg"
   xmlns:sodipodi="http://sodipodi.sourceforge.net/DTD/sodipodi-0.dtd"
   xmlns:inkscape="http://www.inkscape.org/namespaces/inkscape"
   version="1.1"
   id="svg3726"
   inkscape:version="0.91 r13725"
   sodipodi:docname="intravenous bolus.svg"
   x="0px"
   y="0px"
   width="57.5px"
   height="84.9px"
   viewBox="0 0 57.5 84.9"
   style="enable-background:new 0 0 57.5 84.9;"
   xml:space="preserve"><metadata
     id="metadata25"><rdf:RDF><cc:Work
         rdf:about=""><dc:format>image/svg+xml</dc:format><dc:type
           rdf:resource="http://purl.org/dc/dcmitype/StillImage" /></cc:Work></rdf:RDF></metadata><defs
     id="defs23" /><sodipodi:namedview
     pagecolor="#ffffff"
     bordercolor="#666666"
     borderopacity="1"
     objecttolerance="10"
     gridtolerance="10"
     guidetolerance="10"
     inkscape:pageopacity="0"
     inkscape:pageshadow="2"
     inkscape:window-width="1536"
     inkscape:window-height="801"
     id="namedview21"
     showgrid="false"
     inkscape:zoom="2.7797408"
     inkscape:cx="-64.064408"
     inkscape:cy="42.450001"
     inkscape:window-x="-8"
     inkscape:window-y="-8"
     inkscape:window-maximized="1"
     inkscape:current-layer="layer1_4_" /><style
     type="text/css"
     id="style3">
	.st0{fill:none;stroke:#FFFFFF;stroke-width:6;stroke-linecap:round;stroke-linejoin:round;stroke-miterlimit:10;}
	.st1{fill:#707070;}
	.st2{fill:none;stroke:#D1D1D1;stroke-linecap:round;stroke-linejoin:round;stroke-miterlimit:10;}
	.st3{fill:none;stroke:#2D2D2E;stroke-width:1.5;stroke-linecap:round;stroke-linejoin:round;stroke-miterlimit:10;}
</style><g
     id="layer1_4_"
     inkscape:groupmode="layer"
     inkscape:label="Layer 1"><g
       id="g3131"
       transform="matrix(1.3811371,2.3243617,-2.2805283,1.4076835,1109.3006,-958.53187)"><polygon
         class="st0"
         points="121.8,536.4 112.9,536.4 112.9,535.6 112.1,535.6 112.1,534.4 94.7,534.4 94.7,535.7 91.5,535.7     91.5,534.9 89.8,534.9 89.8,539.5 91.5,539.5 91.5,538.6 94.7,538.6 94.7,540 112.1,540 112.1,538.7 112.9,538.7 112.9,537.8     121.8,537.7   "
         id="polygon7"
         style="stroke:#ffffff;stroke-opacity:1" /><polygon
         class="st1"
         points="121.8,536.4 112.9,536.4 112.9,535.6 112.1,535.6 112.1,534.4 94.7,534.4 94.7,535.7 91.5,535.7     91.5,534.9 89.8,534.9 89.8,539.5 91.5,539.5 91.5,538.6 94.7,538.6 94.7,540 112.1,540 112.1,538.7 112.9,538.7 112.9,537.8     121.8,537.7   "
         id="polygon9" /><line
         class="st2"
         x1="99.5"
         y1="537"
         x2="99.5"
         y2="534.6"
         id="line11" /><line
         class="st2"
         x1="101.5"
         y1="537"
         x2="101.5"
         y2="534.7"
         id="line13" /><line
         class="st2"
         x1="103.6"
         y1="537"
         x2="103.5"
         y2="534.7"
         id="line15" /><line
         class="st2"
         x1="105.4"
         y1="537"
         x2="105.3"
         y2="534.6"
         id="line17" /><polygon
         class="st3"
         points="121.8,536.4 112.9,536.4 112.9,535.6 112.1,535.6 112.1,534.4 94.7,534.4 94.7,535.7 91.5,535.7     91.5,534.9 89.8,534.9 89.8,539.5 91.5,539.5 91.5,538.6 94.7,538.6 94.7,540 112.1,540 112.1,538.7 112.9,538.7 112.9,537.8     121.8,537.7   "
         id="polygon19"
         style="stroke-width:0.42241757;stroke-miterlimit:10;stroke-dasharray:none" /></g></g></svg>