<?xml version="1.0" encoding="UTF-8" standalone="no"?>
<!-- Generator: Adobe Illustrator 21.0.2, SVG Export Plug-In . SVG Version: 6.00 Build 0)  -->

<svg
   xmlns:dc="http://purl.org/dc/elements/1.1/"
   xmlns:cc="http://creativecommons.org/ns#"
   xmlns:rdf="http://www.w3.org/1999/02/22-rdf-syntax-ns#"
   xmlns:svg="http://www.w3.org/2000/svg"
   xmlns="http://www.w3.org/2000/svg"
   xmlns:sodipodi="http://sodipodi.sourceforge.net/DTD/sodipodi-0.dtd"
   xmlns:inkscape="http://www.inkscape.org/namespaces/inkscape"
   version="1.1"
   x="0px"
   y="0px"
   width="50.5px"
   height="50.5px"
   viewBox="0 0 50.5 50.5"
   style="enable-background:new 0 0 50.5 50.5;"
   xml:space="preserve"
   id="svg3502"
   inkscape:version="0.91 r13725"
   sodipodi:docname="psd comparison.svg"><metadata
     id="metadata3527"><rdf:RDF><cc:Work
         rdf:about=""><dc:format>image/svg+xml</dc:format><dc:type
           rdf:resource="http://purl.org/dc/dcmitype/StillImage" /></cc:Work></rdf:RDF></metadata><defs
     id="defs3525" /><sodipodi:namedview
     pagecolor="#ffffff"
     bordercolor="#666666"
     borderopacity="1"
     objecttolerance="10"
     gridtolerance="10"
     guidetolerance="10"
     inkscape:pageopacity="0"
     inkscape:pageshadow="2"
     inkscape:window-width="742"
     inkscape:window-height="480"
     id="namedview3523"
     showgrid="false"
     inkscape:zoom="4.6732673"
     inkscape:cx="25.25"
     inkscape:cy="25.25"
     inkscape:window-x="0"
     inkscape:window-y="0"
     inkscape:window-maximized="0"
     inkscape:current-layer="Layer_1" /><style
     type="text/css"
     id="style3504">
	.st0{display:none;}
	.st1{display:inline;fill:#1EFF00;stroke:#000000;stroke-miterlimit:10;}
	.st2{fill:none;stroke:#FFFFFF;stroke-width:6;stroke-linecap:round;stroke-linejoin:round;stroke-miterlimit:10;}
	.st3{fill:none;}
	.st4{fill:#FFFFFF;}
	.st5{fill:none;stroke:#717070;stroke-linecap:round;stroke-linejoin:round;stroke-miterlimit:10;}
	.st6{fill:none;stroke:#2D2D2E;stroke-width:1.5;stroke-linecap:round;stroke-linejoin:round;stroke-miterlimit:10;}
</style><g
     id="Layer_2"
     class="st0"><rect
       x="-2.6"
       y="-4.7"
       class="st1"
       width="63.5"
       height="59.6"
       id="rect3507" /></g><g
     id="Layer_1"><g
       id="g7" /><circle
       class="st2"
       cx="25.2"
       cy="25.2"
       r="22"
       id="circle3511" /><circle
       class="st3"
       cx="25.2"
       cy="25.2"
       r="22"
       id="circle3513" /><circle
       class="st4"
       cx="25.2"
       cy="25.2"
       r="22"
       id="circle3515" /><path
       class="st5"
       d="m 8.1,36.8 c 0,0 2.6,-0.7 3.4,-1.4 0.8,-0.8 2.3,-3.1 2.8,-5.2 0.5,-2.1 1,-5.1 2.1,-5 1.2,0.2 0.6,1.9 1.9,1.7 1.3,-0.2 5.4,-15.7 7.9,-15.8 2.5,-0.1 11,27.3 16.3,27"
       id="path3517"
       transformBehaviour="pinned"
       inkscape:connector-curvature="0"
       style="fill:none;stroke:#717070;stroke-linecap:round;stroke-linejoin:round;stroke-miterlimit:10" /><path
       class="st5"
       d="m 13.8,37.5 c 0,0 2.6,-0.7 3.4,-1.4 0.8,-0.8 2.3,-3.1 2.8,-5.2 0.5,-2.1 1,-5.1 2.1,-5 1.2,0.2 0.6,1.9 1.9,1.7 1.3,-0.2 5.4,-15.7 7.9,-15.8 1.9,-0.1 7.2,15.5 12,23.1"
       id="path3519"
       transformBehaviour="pinned"
       inkscape:connector-curvature="0"
       style="fill:none;stroke:#717070;stroke-linecap:round;stroke-linejoin:round;stroke-miterlimit:10" /><circle
       class="st6"
       cx="25.2"
       cy="25.2"
       r="22"
       id="circle3521" /></g></svg>