<?xml version="1.0" encoding="utf-8"?>
<!-- Generator: Adobe Illustrator 21.0.2, SVG Export Plug-In . SVG Version: 6.00 Build 0)  -->
<svg version="1.1" xmlns="http://www.w3.org/2000/svg" xmlns:xlink="http://www.w3.org/1999/xlink" x="0px" y="0px" width="98px"
	 height="130.4px" viewBox="0 0 98 130.4" style="enable-background:new 0 0 98 130.4;" xml:space="preserve">
<style type="text/css">
	.st0{display:none;}
	.st1{display:inline;fill:#3C3CDD;}
	.st2{fill:none;stroke:#FFFFFF;stroke-width:6;stroke-linecap:round;stroke-linejoin:round;stroke-miterlimit:10;}
	.st3{fill:#6F6F6F;}
	.st4{fill:none;stroke:#D2D2D2;stroke-linecap:round;stroke-linejoin:round;}
	.st5{fill:none;stroke:#2D2D2D;stroke-width:1.5;stroke-linecap:round;stroke-linejoin:round;stroke-miterlimit:10;}
</style>
<g id="Layer_2" class="st0">
	<rect x="-59.6" y="-47.8" class="st1" width="198.7" height="245"/>
</g>
<g id="Layer_1">
	<path class="st2" d="M48.8,3.2C23.5,3.2,3,10,3,18.2V112c0,8.3,20.5,15,45.8,15c25.3,0,45.8-6.7,45.8-15V18.2
		C94.5,10,74.1,3.2,48.8,3.2z"/>
	<path class="st3" d="M48.8,3.2C23.5,3.2,3,10,3,18.2V112c0,8.3,20.5,15,45.8,15c25.3,0,45.8-6.7,45.8-15V18.2
		C94.5,10,74.1,3.2,48.8,3.2z"/>
	<line class="st4" x1="17.5" y1="9.7" x2="7.3" y2="20"/>
	<line class="st4" x1="26.4" y1="7.9" x2="11" y2="23.2"/>
	<line class="st4" x1="34.7" y1="6.6" x2="16" y2="25.2"/>
	<line class="st4" x1="42.3" y1="6" x2="21.3" y2="27"/>
	<line class="st4" x1="48.8" y1="6.5" x2="26.7" y2="28.6"/>
	<line class="st4" x1="55.7" y1="6.6" x2="33.7" y2="28.6"/>
	<line class="st4" x1="62.3" y1="7" x2="40.4" y2="28.9"/>
	<line class="st4" x1="68.3" y1="8" x2="47.2" y2="29.1"/>
	<line class="st4" x1="73.5" y1="9.7" x2="54.2" y2="29.1"/>
	<line class="st4" x1="79.3" y1="11" x2="61.2" y2="29.1"/>
	<line class="st4" x1="84.4" y1="12.9" x2="69.5" y2="27.7"/>
	<line class="st4" x1="88.8" y1="15.5" x2="77.3" y2="27"/>
	<line class="st4" x1="79" y1="9.7" x2="89.3" y2="20"/>
	<line class="st4" x1="70.2" y1="7.9" x2="85.5" y2="23.2"/>
	<line class="st4" x1="61.9" y1="6.6" x2="80.5" y2="25.2"/>
	<line class="st4" x1="54.3" y1="6" x2="75.3" y2="27"/>
	<line class="st4" x1="47.8" y1="6.5" x2="69.9" y2="28.6"/>
	<line class="st4" x1="40.9" y1="6.6" x2="62.9" y2="28.6"/>
	<line class="st4" x1="34.3" y1="7" x2="56.2" y2="28.9"/>
	<line class="st4" x1="28.3" y1="8" x2="49.4" y2="29.1"/>
	<line class="st4" x1="23" y1="9.7" x2="42.4" y2="29.1"/>
	<line class="st4" x1="17.3" y1="11" x2="35.4" y2="29.1"/>
	<line class="st4" x1="12.2" y1="12.9" x2="27" y2="27.7"/>
	<line class="st4" x1="7.8" y1="15.5" x2="17.8" y2="25.5"/>
	<path class="st4" d="M92,50.7C86,56.7,68.8,61,48.5,61c-20.1,0-37.2-4.3-43.3-10.2"/>
	<path class="st4" d="M92,24.2c-6,6-23.2,10.3-43.5,10.3c-20.1,0-37.2-4.3-43.3-10.2"/>
	<path class="st4" d="M92,82.7C86,88.7,68.8,93,48.5,93c-20.1,0-37.2-4.3-43.3-10.2"/>
	<path class="st5" d="M48.8,3.2C23.5,3.2,3,10,3,18.2V112c0,8.3,20.5,15,45.8,15c25.3,0,45.8-6.7,45.8-15V18.2
		C94.5,10,74.1,3.2,48.8,3.2z"/>
</g>
</svg>
