<?xml version="1.0" encoding="utf-8"?>
<!-- Generator: Adobe Illustrator 21.0.2, SVG Export Plug-In . SVG Version: 6.00 Build 0)  -->
<svg version="1.1" xmlns="http://www.w3.org/2000/svg" xmlns:xlink="http://www.w3.org/1999/xlink" x="0px" y="0px" width="73.7px"
	 height="92.1px" viewBox="0 0 73.7 92.1" style="enable-background:new 0 0 73.7 92.1;" xml:space="preserve">
<style type="text/css">
	.st0{display:none;}
	.st1{display:inline;fill:#0042BF;stroke:#000000;stroke-miterlimit:10;}
	.st2{display:inline;stroke:#FFFFFF;stroke-miterlimit:10;}
	.st3{fill:none;stroke:#FFFFFF;stroke-width:6;stroke-linecap:round;stroke-linejoin:round;stroke-miterlimit:10;}
	.st4{fill:#707070;}
	.st5{fill:#006C84;}
	.st6{fill:none;stroke:#000000;stroke-miterlimit:10;}
	.st7{fill:none;stroke:#000000;stroke-width:1.5;stroke-linecap:round;stroke-linejoin:round;stroke-miterlimit:10;}
</style>
<g id="Layer_2_1_" class="st0">
	<rect x="-18.8" y="-18.4" class="st1" width="117.3" height="133.8"/>
</g>
<g id="Layer_1">
	<g id="Layer_2" class="st0">
		<rect x="-9.8" y="-4.4" class="st2" width="93" height="104.1"/>
	</g>
	<g id="Layer_1_1_">
		<path id="legib_3_" class="st3" d="M70.1,7.5c0-2.6-14.9-4.6-33.4-4.6S3.4,4.9,3.4,7.5c0,0.3,6.9,75.7,6.9,75.7l0.1,0.3
			c0,2.7,11.6,5,25.9,5s26.2-2.6,26.2-5.3l0,0C62.5,83.2,70.1,7.7,70.1,7.5z"/>
		<path class="st4" d="M70.1,7.5c0-2.6-14.9-4.6-33.4-4.6S3.4,4.9,3.4,7.5c0,0.3,6.9,75.7,6.9,75.7l0.1,0.3c0,2.7,11.6,5,25.9,5
			s25.9-2.3,25.9-5l0.3-0.3C62.5,83.2,70.1,7.7,70.1,7.5z"/>
		<path class="st5" d="M36.8,25.4c-16.8,0-30.4,2-31.4,4.4c0,0.3,0,0.4,0,0.7c2,22.2,4.9,52.6,4.9,52.6l0.1,0.3c0,2.7,11.6,5,25.9,5
			s25.9-2.3,25.9-5l0.3-0.3c0,0,3-30.1,5.3-52.3c0-0.4,0.1-0.9,0.1-1.3C66.1,27.3,52.8,25.4,36.8,25.4z"/>
		<ellipse class="st6" cx="36.8" cy="30.2" rx="31.5" ry="4.6"/>
		<path class="st7" d="M70.1,7.5c0,2.6-14.9,4.6-33.4,4.6s-33.4-2-33.4-4.6"/>
		<path id="outline_2_" class="st7" d="M70.1,7.5c0-2.6-14.9-4.6-33.4-4.6S3.4,4.9,3.4,7.5c0,0.3,6.9,75.7,6.9,75.7l0.1,0.3
			c0,2.7,11.6,5,25.9,5s26.2-2.6,26.2-5.3l0,0C62.5,83.2,70.1,7.7,70.1,7.5z"/>
	</g>
</g>
</svg>
