<?xml version="1.0" encoding="utf-8"?>
<!-- Generator: Adobe Illustrator 21.0.1, SVG Export Plug-In . SVG Version: 6.00 Build 0)  -->
<svg version="1.1" xmlns="http://www.w3.org/2000/svg" xmlns:xlink="http://www.w3.org/1999/xlink" x="0px" y="0px" width="56.6px"
	 height="74.1px" viewBox="0 0 56.6 74.1" style="enable-background:new 0 0 56.6 74.1;" xml:space="preserve">
<style type="text/css">
	.st0{display:none;}
	.st1{display:inline;fill:#EF111C;stroke:#000000;stroke-miterlimit:10;}
	.st2{fill:none;stroke:#FFFFFF;stroke-width:6;stroke-linecap:round;stroke-linejoin:round;stroke-miterlimit:10;}
	.st3{fill:#6F6F6F;}
	.st4{fill:none;stroke:#D2D2D2;stroke-linecap:round;stroke-linejoin:round;}
	.st5{fill:none;stroke:#2D2D2D;stroke-width:1.5;stroke-linecap:round;stroke-linejoin:round;stroke-miterlimit:10;}
</style>
<g id="Layer_2" class="st0">
	<rect x="-41.4" y="-31.6" class="st1" width="136.7" height="136.7"/>
</g>
<g id="svg3015" inkscape:version="0.48.5 r10040" sodipodi:docname="gcrystal solubility analyzer.svg" xmlns:cc="http://creativecommons.org/ns#" xmlns:dc="http://purl.org/dc/elements/1.1/" xmlns:inkscape="http://www.inkscape.org/namespaces/inkscape" xmlns:rdf="http://www.w3.org/1999/02/22-rdf-syntax-ns#" xmlns:sodipodi="http://sodipodi.sourceforge.net/DTD/sodipodi-0.dtd" xmlns:svg="http://www.w3.org/2000/svg">
	
		<sodipodi:namedview  bordercolor="#666666" borderopacity="1" gridtolerance="10" guidetolerance="10" id="namedview3039" inkscape:current-layer="svg3015" inkscape:cx="-20.610169" inkscape:cy="64" inkscape:pageopacity="0" inkscape:pageshadow="2" inkscape:window-height="1018" inkscape:window-maximized="1" inkscape:window-width="1920" inkscape:window-x="-8" inkscape:window-y="-8" inkscape:zoom="1.84375" objecttolerance="10" pagecolor="#ffffff" showgrid="false">
		</sodipodi:namedview>
	<path class="st2" d="M52.5,58.2c-1.8-4.1-16.2-35.7-16.2-35.7V6.5c0.5-0.3,0.8-0.7,0.8-1c0-1.4-3.9-2.5-8.8-2.5
		c-4.9,0-8.8,1.1-8.8,2.5c0,0.3,0.2,0.6,0.6,0.9V23C18.3,26.8,5.7,54.4,4,58.2c-3.4,7.6,2.1,12.9,6.9,12.9h17.3h17.3
		C50.5,71.1,55.9,65.8,52.5,58.2z"/>
	<path class="st2" d="M37.1,5.5c0,1.4-3.9,2.5-8.8,2.5c-4.9,0-8.8-1.1-8.8-2.5"/>
	<line class="st2" x1="18.4" y1="35" x2="23.2" y2="35"/>
	<line class="st2" x1="18.4" y1="39.4" x2="23.2" y2="39.4"/>
	<line class="st2" x1="14.1" y1="43.7" x2="42.1" y2="43.7"/>
	<line class="st2" x1="18.4" y1="48" x2="23.2" y2="48"/>
	<line class="st2" x1="18.4" y1="52.3" x2="23.2" y2="52.3"/>
	<line class="st2" x1="18.4" y1="56.6" x2="23.2" y2="56.6"/>
	<line class="st2" x1="18.4" y1="60.9" x2="23.2" y2="60.9"/>
	<line class="st2" x1="18.4" y1="65.2" x2="23.2" y2="65.2"/>
	<path class="st3" d="M52.5,58.2c-1.8-4.1-16.2-35.7-16.2-35.7V6.5c0.5-0.3,0.8-0.7,0.8-1c0-1.4-3.9-2.5-8.8-2.5
		c-4.9,0-8.8,1.1-8.8,2.5c0,0.3,0.2,0.6,0.6,0.9V23C18.3,26.8,5.7,54.4,4,58.2c-3.4,7.6,2.1,12.9,6.9,12.9h17.3h17.3
		C50.5,71.1,55.9,65.8,52.5,58.2z"/>
	<line class="st4" x1="36.8" y1="35" x2="41.8" y2="35"/>
	<line class="st4" x1="38.9" y1="39.4" x2="43.6" y2="39.4"/>
	<path class="st4" d="M47.5,43.7"/>
	<line class="st4" x1="11" y1="43.7" x2="45.8" y2="43.7"/>
	<line class="st4" x1="42.7" y1="48" x2="47.9" y2="48"/>
	<line class="st4" x1="44.7" y1="52.3" x2="49.1" y2="52.3"/>
	<line class="st4" x1="46.6" y1="56.6" x2="51.3" y2="56.6"/>
	<line class="st4" x1="48.6" y1="60.9" x2="53" y2="60.9"/>
	<path class="st5" d="M52.5,58.2c-1.8-4.1-16.2-35.7-16.2-35.7V6.5c0.5-0.3,0.8-0.7,0.8-1c0-1.4-3.9-2.5-8.8-2.5
		c-4.9,0-8.8,1.1-8.8,2.5c0,0.3,0.2,0.6,0.6,0.9V23C18.3,26.8,5.7,54.4,4,58.2c-3.4,7.6,2.1,12.9,6.9,12.9h17.3h17.3
		C50.5,71.1,55.9,65.8,52.5,58.2z"/>
	<path class="st5" d="M37.1,5.5c0,1.4-3.9,2.5-8.8,2.5c-4.9,0-8.8-1.1-8.8-2.5"/>
</g>
</svg>
