<?xml version="1.0" encoding="utf-8"?>
<!-- Generator: Adobe Illustrator 21.0.2, SVG Export Plug-In . SVG Version: 6.00 Build 0)  -->
<svg version="1.1" xmlns="http://www.w3.org/2000/svg" xmlns:xlink="http://www.w3.org/1999/xlink" x="0px" y="0px" width="130.4px"
	 height="61px" viewBox="0 0 130.4 61" style="enable-background:new 0 0 130.4 61;" xml:space="preserve">
<style type="text/css">
	.st0{display:none;}
	.st1{display:inline;fill:#AA0017;}
	.st2{display:inline;fill:#6B6BED;}
	.st3{fill:none;stroke:#FFFFFF;stroke-width:6;stroke-linecap:round;stroke-linejoin:round;stroke-miterlimit:10;}
	.st4{fill:#6F6F6F;}
	.st5{fill:none;stroke:#000000;stroke-width:1.5;stroke-linecap:round;stroke-linejoin:round;stroke-miterlimit:10;}
</style>
<g id="Layer_2_1_" class="st0">
	<rect x="-6.4" y="-18" class="st1" width="142.8" height="83.7"/>
</g>
<g id="Layer_1">
	<g id="Layer_2" class="st0">
		<rect x="6.4" y="-8.6" class="st2" width="122" height="63.9"/>
	</g>
	
		<g id="Layer_1_1_" inkscape:version="0.91 r13725" sodipodi:docname="sensor location.svg" xmlns:cc="http://creativecommons.org/ns#" xmlns:dc="http://purl.org/dc/elements/1.1/" xmlns:inkscape="http://www.inkscape.org/namespaces/inkscape" xmlns:rdf="http://www.w3.org/1999/02/22-rdf-syntax-ns#" xmlns:sodipodi="http://sodipodi.sourceforge.net/DTD/sodipodi-0.dtd" xmlns:svg="http://www.w3.org/2000/svg">
		
			<sodipodi:namedview  bordercolor="#666666" borderopacity="1" gridtolerance="10" guidetolerance="10" id="namedview9" inkscape:current-layer="Layer_1" inkscape:cx="-138.00694" inkscape:cy="33.875" inkscape:pageopacity="0" inkscape:pageshadow="2" inkscape:window-height="1018" inkscape:window-maximized="1" inkscape:window-width="1920" inkscape:window-x="1912" inkscape:window-y="-8" inkscape:zoom="3.1304348" objecttolerance="10" pagecolor="#ffffff" showgrid="false">
			</sodipodi:namedview>
		<polygon id="legib" class="st3" points="126.9,3.1 3.5,3.1 3.5,19.2 52.9,19.2 108.1,57.8 117.4,44.2 81.8,19.2 126.9,19.2 		"/>
		<polygon class="st4" points="126.9,3.1 3.5,3.1 3.5,19.2 52.9,19.2 108.1,57.8 117.4,44 81.9,19.2 126.9,19.2 		"/>
		<polygon id="outline" class="st5" points="126.9,3.1 3.5,3.1 3.5,19.2 52.9,19.2 108.1,57.8 117.4,44.2 81.8,19.2 126.9,19.2 		
			"/>
	</g>
</g>
</svg>
