<?xml version="1.0" encoding="utf-8"?>
<!-- Generator: Adobe Illustrator 21.0.2, SVG Export Plug-In . SVG Version: 6.00 Build 0)  -->
<svg version="1.1" id="Layer_1" xmlns="http://www.w3.org/2000/svg" xmlns:xlink="http://www.w3.org/1999/xlink" x="0px" y="0px"
	 width="119px" height="197px" viewBox="0 0 119 197" style="enable-background:new 0 0 119 197;" xml:space="preserve">
<style type="text/css">
	.st0{fill:none;stroke:#FFFFFF;stroke-width:6;stroke-linecap:round;stroke-linejoin:round;stroke-miterlimit:10;}
	.st1{fill:#6F6F6F;}
	.st2{fill:#F5821F;}
	.st3{fill:none;stroke:#D2D2D2;stroke-linecap:round;stroke-linejoin:round;}
	.st4{fill:none;stroke:#2D2D2D;stroke-width:1.5;stroke-linecap:round;stroke-linejoin:round;stroke-miterlimit:10;}
</style>
<polygon class="st0" points="19,128.8 14.8,118 14.7,118 14.7,108.3 7.7,108.3 7.7,118 7.7,118 3,128.3 3,181.5 19,181.5 "/>
<polygon class="st0" points="18.2,194 3,194 3,190.5 8.5,190.5 8.5,181.5 12.7,181.5 12.7,190.5 18.2,190.5 "/>
<polygon class="st0" points="67.5,128.8 63.3,118 63.2,118 63.2,108.3 56.2,108.3 56.2,118 56.2,118 51.5,128.3 51.5,181.5 
	67.5,181.5 "/>
<polygon class="st0" points="66.7,194 51.5,194 51.5,190.5 57,190.5 57,181.5 61.2,181.5 61.2,190.5 66.7,190.5 "/>
<polygon class="st0" points="19,68.3 14.8,79 14.7,79 14.7,88.8 7.7,88.8 7.7,79 7.7,79 3,68.8 3,15.5 19,15.5 "/>
<polygon class="st0" points="18.2,3 3,3 3,6.5 8.5,6.5 8.5,15.5 12.7,15.5 12.7,6.5 18.2,6.5 "/>
<polygon class="st0" points="43.2,75.8 39.1,86.5 39,86.5 39,96.3 32,96.3 32,86.5 31.9,86.5 27.3,76.3 27.3,23 43.2,23 "/>
<polygon class="st0" points="42.5,10.5 27.2,10.5 27.2,14 32.7,14 32.7,23 37,23 37,14 42.5,14 "/>
<polygon class="st0" points="67.5,82.8 63.3,93.5 63.2,93.5 63.2,103.3 56.2,103.3 56.2,93.5 56.2,93.5 51.5,83.3 51.5,30 67.5,30 
	"/>
<polygon class="st0" points="66.7,17.5 51.5,17.5 51.5,21 57,21 57,30 61.2,30 61.2,21 66.7,21 "/>
<polygon class="st0" points="91.7,68.3 87.6,79 87.5,79 87.5,88.8 80.5,88.8 80.5,79 80.4,79 75.8,68.8 75.8,15.5 91.7,15.5 "/>
<polygon class="st0" points="91,3 75.7,3 75.7,6.5 81.2,6.5 81.2,15.5 85.5,15.5 85.5,6.5 91,6.5 "/>
<polygon class="st0" points="116,68.3 111.8,79 111.7,79 111.7,88.8 104.7,88.8 104.7,79 104.7,79 100,68.8 100,15.5 116,15.5 "/>
<polygon class="st0" points="115.2,3 100,3 100,6.5 105.5,6.5 105.5,15.5 109.7,15.5 109.7,6.5 115.2,6.5 "/>
<rect x="55.9" y="104" class="st0" width="7.6" height="3.6"/>
<rect x="7.8" y="101.6" class="st0" width="7" height="5.5"/>
<polygon class="st1" points="19,128.8 14.8,118 14.7,118 14.7,108.3 7.7,108.3 7.7,118 7.7,118 3,128.3 3,181.5 19,181.5 "/>
<polygon class="st1" points="18.2,194 3,194 3,190.5 8.5,190.5 8.5,181.5 12.7,181.5 12.7,190.5 18.2,190.5 "/>
<polygon class="st1" points="67.5,128.8 63.3,118 63.2,118 63.2,108.3 56.2,108.3 56.2,118 56.2,118 51.5,128.3 51.5,181.5 
	67.5,181.5 "/>
<polygon class="st1" points="66.7,194 51.5,194 51.5,190.5 57,190.5 57,181.5 61.2,181.5 61.2,190.5 66.7,190.5 "/>
<polygon class="st1" points="19,68.3 14.8,79 14.7,79 14.7,88.8 7.7,88.8 7.7,79 7.7,79 3,68.8 3,15.5 19,15.5 "/>
<polygon class="st1" points="18.2,3 3,3 3,6.5 8.5,6.5 8.5,15.5 12.7,15.5 12.7,6.5 18.2,6.5 "/>
<polygon class="st1" points="43.2,75.8 39.1,86.5 39,86.5 39,96.3 32,96.3 32,86.5 31.9,86.5 27.3,76.3 27.3,23 43.2,23 "/>
<polygon class="st1" points="42.5,10.5 27.2,10.5 27.2,14 32.7,14 32.7,23 37,23 37,14 42.5,14 "/>
<polygon class="st1" points="67.5,82.8 63.3,93.5 63.2,93.5 63.2,103.3 56.2,103.3 56.2,93.5 56.2,93.5 51.5,83.3 51.5,30 67.5,30 
	"/>
<polygon class="st1" points="66.7,17.5 51.5,17.5 51.5,21 57,21 57,30 61.2,30 61.2,21 66.7,21 "/>
<polygon class="st1" points="91.7,68.3 87.6,79 87.5,79 87.5,88.8 80.5,88.8 80.5,79 80.4,79 75.8,68.8 75.8,15.5 91.7,15.5 "/>
<polygon class="st1" points="91,3 75.7,3 75.7,6.5 81.2,6.5 81.2,15.5 85.5,15.5 85.5,6.5 91,6.5 "/>
<polygon class="st1" points="116,68.3 111.8,79 111.7,79 111.7,88.8 104.7,88.8 104.7,79 104.7,79 100,68.8 100,15.5 116,15.5 "/>
<polygon class="st1" points="115.2,3 100,3 100,6.5 105.5,6.5 105.5,15.5 109.7,15.5 109.7,6.5 115.2,6.5 "/>
<rect x="55.9" y="104" class="st2" width="7.6" height="3.6"/>
<rect x="7.8" y="101.6" class="st2" width="7" height="5.5"/>
<line class="st3" x1="7.8" y1="127.8" x2="14.8" y2="127.8"/>
<line class="st3" x1="56.2" y1="127.8" x2="63.2" y2="127.8"/>
<line class="st3" x1="7.8" y1="69.3" x2="14.8" y2="69.3"/>
<line class="st3" x1="31.9" y1="76.8" x2="38.9" y2="76.8"/>
<line class="st3" x1="56.2" y1="83.8" x2="63.2" y2="83.8"/>
<line class="st3" x1="80.4" y1="69.3" x2="87.4" y2="69.3"/>
<line class="st3" x1="104.5" y1="69.3" x2="111.5" y2="69.3"/>
<polygon class="st4" points="19,128.8 14.8,118 14.7,118 14.7,108.3 7.7,108.3 7.7,118 7.7,118 3,128.3 3,181.5 19,181.5 "/>
<polygon class="st4" points="18.2,194 3,194 3,190.5 8.5,190.5 8.5,181.5 12.7,181.5 12.7,190.5 18.2,190.5 "/>
<polygon class="st4" points="67.5,128.8 63.3,118 63.2,118 63.2,108.3 56.2,108.3 56.2,118 56.2,118 51.5,128.3 51.5,181.5 
	67.5,181.5 "/>
<polygon class="st4" points="66.7,194 51.5,194 51.5,190.5 57,190.5 57,181.5 61.2,181.5 61.2,190.5 66.7,190.5 "/>
<polygon class="st4" points="19,68.3 14.8,79 14.7,79 14.7,88.8 7.7,88.8 7.7,79 7.7,79 3,68.8 3,15.5 19,15.5 "/>
<polygon class="st4" points="18.2,3 3,3 3,6.5 8.5,6.5 8.5,15.5 12.7,15.5 12.7,6.5 18.2,6.5 "/>
<polygon class="st4" points="43.2,75.8 39.1,86.5 39,86.5 39,96.3 32,96.3 32,86.5 31.9,86.5 27.3,76.3 27.3,23 43.2,23 "/>
<polygon class="st4" points="42.5,10.5 27.2,10.5 27.2,14 32.7,14 32.7,23 37,23 37,14 42.5,14 "/>
<polygon class="st4" points="67.5,82.8 63.3,93.5 63.2,93.5 63.2,103.3 56.2,103.3 56.2,93.5 56.2,93.5 51.5,83.3 51.5,30 67.5,30 
	"/>
<polygon class="st4" points="66.7,17.5 51.5,17.5 51.5,21 57,21 57,30 61.2,30 61.2,21 66.7,21 "/>
<polygon class="st4" points="91.7,68.3 87.6,79 87.5,79 87.5,88.8 80.5,88.8 80.5,79 80.4,79 75.8,68.8 75.8,15.5 91.7,15.5 "/>
<polygon class="st4" points="91,3 75.7,3 75.7,6.5 81.2,6.5 81.2,15.5 85.5,15.5 85.5,6.5 91,6.5 "/>
<polygon class="st4" points="116,68.3 111.8,79 111.7,79 111.7,88.8 104.7,88.8 104.7,79 104.7,79 100,68.8 100,15.5 116,15.5 "/>
<polygon class="st4" points="115.2,3 100,3 100,6.5 105.5,6.5 105.5,15.5 109.7,15.5 109.7,6.5 115.2,6.5 "/>
<rect x="55.9" y="104" class="st4" width="7.6" height="3.6"/>
<rect x="7.8" y="101.6" class="st4" width="7" height="5.5"/>
<polygon class="st0" points="43.4,128.8 39.3,118 39.2,118 39.2,108.3 32.2,108.3 32.2,118 32.1,118 27.5,128.3 27.5,181.5 
	43.4,181.5 "/>
<polygon class="st0" points="42.7,194 27.5,194 27.5,190.5 33,190.5 33,181.5 37.2,181.5 37.2,190.5 42.7,190.5 "/>
<rect x="32.2" y="101.6" class="st0" width="7" height="5.5"/>
<polygon class="st1" points="43.4,128.8 39.3,118 39.2,118 39.2,108.3 32.2,108.3 32.2,118 32.1,118 27.5,128.3 27.5,181.5 
	43.4,181.5 "/>
<polygon class="st1" points="42.7,194 27.5,194 27.5,190.5 33,190.5 33,181.5 37.2,181.5 37.2,190.5 42.7,190.5 "/>
<rect x="32.2" y="101.6" class="st2" width="7" height="5.5"/>
<line class="st3" x1="32.2" y1="127.8" x2="39.2" y2="127.8"/>
<polygon class="st4" points="43.4,128.8 39.3,118 39.2,118 39.2,108.3 32.2,108.3 32.2,118 32.1,118 27.5,128.3 27.5,181.5 
	43.4,181.5 "/>
<polygon class="st4" points="42.7,194 27.5,194 27.5,190.5 33,190.5 33,181.5 37.2,181.5 37.2,190.5 42.7,190.5 "/>
<rect x="32.2" y="101.6" class="st4" width="7" height="5.5"/>
<polygon class="st0" points="91.7,128.8 87.5,118 87.4,118 87.4,108.3 80.4,108.3 80.4,118 80.4,118 75.7,128.3 75.7,181.5 
	91.7,181.5 "/>
<polygon class="st0" points="90.9,194 75.7,194 75.7,190.5 81.2,190.5 81.2,181.5 85.4,181.5 85.4,190.5 90.9,190.5 "/>
<rect x="80.5" y="101.6" class="st0" width="7" height="5.5"/>
<polygon class="st1" points="91.7,128.8 87.5,118 87.4,118 87.4,108.3 80.4,108.3 80.4,118 80.4,118 75.7,128.3 75.7,181.5 
	91.7,181.5 "/>
<polygon class="st1" points="90.9,194 75.7,194 75.7,190.5 81.2,190.5 81.2,181.5 85.4,181.5 85.4,190.5 90.9,190.5 "/>
<rect x="80.5" y="101.6" class="st2" width="7" height="5.5"/>
<line class="st3" x1="80.5" y1="127.8" x2="87.5" y2="127.8"/>
<polygon class="st4" points="91.7,128.8 87.5,118 87.4,118 87.4,108.3 80.4,108.3 80.4,118 80.4,118 75.7,128.3 75.7,181.5 
	91.7,181.5 "/>
<polygon class="st4" points="90.9,194 75.7,194 75.7,190.5 81.2,190.5 81.2,181.5 85.4,181.5 85.4,190.5 90.9,190.5 "/>
<rect x="80.5" y="101.6" class="st4" width="7" height="5.5"/>
<polygon class="st0" points="116.1,128.8 112,118 111.9,118 111.9,108.3 104.9,108.3 104.9,118 104.9,118 100.2,128.3 100.2,181.5 
	116.1,181.5 "/>
<polygon class="st0" points="115.4,194 100.2,194 100.2,190.5 105.7,190.5 105.7,181.5 109.9,181.5 109.9,190.5 115.4,190.5 "/>
<rect x="105" y="101.6" class="st0" width="7" height="5.5"/>
<polygon class="st1" points="116.1,128.8 112,118 111.9,118 111.9,108.3 104.9,108.3 104.9,118 104.9,118 100.2,128.3 100.2,181.5 
	116.1,181.5 "/>
<polygon class="st1" points="115.4,194 100.2,194 100.2,190.5 105.7,190.5 105.7,181.5 109.9,181.5 109.9,190.5 115.4,190.5 "/>
<rect x="105" y="101.6" class="st2" width="7" height="5.5"/>
<line class="st3" x1="104.9" y1="127.8" x2="111.9" y2="127.8"/>
<polygon class="st4" points="116.1,128.8 112,118 111.9,118 111.9,108.3 104.9,108.3 104.9,118 104.9,118 100.2,128.3 100.2,181.5 
	116.1,181.5 "/>
<polygon class="st4" points="115.4,194 100.2,194 100.2,190.5 105.7,190.5 105.7,181.5 109.9,181.5 109.9,190.5 115.4,190.5 "/>
<rect x="105" y="101.6" class="st4" width="7" height="5.5"/>
</svg>
