<?xml version="1.0" encoding="utf-8"?>
<!-- Generator: Adobe Illustrator 21.0.2, SVG Export Plug-In . SVG Version: 6.00 Build 0)  -->
<svg version="1.1" xmlns="http://www.w3.org/2000/svg" xmlns:xlink="http://www.w3.org/1999/xlink" x="0px" y="0px" width="65.4px"
	 height="135px" viewBox="0 0 65.4 135" style="enable-background:new 0 0 65.4 135;" xml:space="preserve">
<style type="text/css">
	.st0{display:none;}
	.st1{display:inline;fill:#8181F7;}
	.st2{fill:none;stroke:#FFFFFF;stroke-width:6;stroke-linecap:round;stroke-linejoin:round;stroke-miterlimit:10;}
	.st3{fill:#6F6F6F;}
	.st4{fill:none;stroke:#D2D2D2;stroke-linecap:round;stroke-linejoin:round;}
	.st5{fill:none;stroke:#231F20;stroke-width:1.5;stroke-linecap:round;stroke-linejoin:round;stroke-miterlimit:10;}
</style>
<g id="Layer_2" class="st0">
	<rect x="-20.2" y="-7.2" class="st1" width="100.5" height="152.6"/>
</g>
<g id="Layer_1">
	<polygon id="legib" class="st2" points="25.8,115.1 25.8,131.8 38.5,131.8 38.5,115.1 62,72.8 62,3 3,3 3,72.8 	"/>
	<polygon class="st3" points="25.8,115.1 25.8,131.8 38.5,131.8 38.5,115.1 62,72.8 62,3 3,3 3,72.8 	"/>
	<line class="st4" x1="8.8" y1="73.3" x2="56.1" y2="73.3"/>
	<polygon id="outline" class="st5" points="25.8,115.1 25.8,131.8 38.5,131.8 38.5,115.1 62,72.8 62,3 3,3 3,72.8 	"/>
</g>
</svg>
