<?xml version="1.0" encoding="UTF-8" standalone="no"?>
<!-- Generator: Adobe Illustrator 21.0.2, SVG Export Plug-In . SVG Version: 6.00 Build 0)  -->

<svg
   xmlns:dc="http://purl.org/dc/elements/1.1/"
   xmlns:cc="http://creativecommons.org/ns#"
   xmlns:rdf="http://www.w3.org/1999/02/22-rdf-syntax-ns#"
   xmlns:svg="http://www.w3.org/2000/svg"
   xmlns="http://www.w3.org/2000/svg"
   xmlns:sodipodi="http://sodipodi.sourceforge.net/DTD/sodipodi-0.dtd"
   xmlns:inkscape="http://www.inkscape.org/namespaces/inkscape"
   version="1.1"
   id="Layer_1"
   x="0px"
   y="0px"
   width="68.5px"
   height="41.1px"
   viewBox="0 0 68.5 41.1"
   style="enable-background:new 0 0 68.5 41.1;"
   xml:space="preserve"
   inkscape:version="0.91 r13725"
   sodipodi:docname="vapour sink.svg"><metadata
     id="metadata3628"><rdf:RDF><cc:Work
         rdf:about=""><dc:format>image/svg+xml</dc:format><dc:type
           rdf:resource="http://purl.org/dc/dcmitype/StillImage" /></cc:Work></rdf:RDF></metadata><defs
     id="defs3626" /><sodipodi:namedview
     pagecolor="#ffffff"
     bordercolor="#666666"
     borderopacity="1"
     objecttolerance="10"
     gridtolerance="10"
     guidetolerance="10"
     inkscape:pageopacity="0"
     inkscape:pageshadow="2"
     inkscape:window-width="742"
     inkscape:window-height="480"
     id="namedview3624"
     showgrid="false"
     inkscape:zoom="4.2043796"
     inkscape:cx="34.25"
     inkscape:cy="20.549999"
     inkscape:window-x="0"
     inkscape:window-y="0"
     inkscape:window-maximized="0"
     inkscape:current-layer="Layer_1_26_" /><style
     type="text/css"
     id="style3602">
	.st0{display:none;}
	.st1{display:inline;fill:#19A2D8;}
	.st2{display:inline;fill:#F7F11E;stroke:#000000;stroke-miterlimit:10;}
	.st3{fill:none;stroke:#FFFFFF;stroke-width:6;stroke-linecap:round;stroke-linejoin:round;stroke-miterlimit:10;}
	.st4{fill:#FFFFFF;}
	.st5{fill:none;stroke:#707070;stroke-linecap:round;stroke-linejoin:round;stroke-miterlimit:10;}
	.st6{fill:#707070;}
	.st7{fill:none;stroke:#2D2D2E;stroke-width:1.5;stroke-linecap:round;stroke-linejoin:round;stroke-miterlimit:10;}
</style><g
     id="Layer_2_1_"
     class="st0"><rect
       x="-5.4"
       y="-4.1"
       class="st1"
       width="81.2"
       height="50.7"
       id="rect3605" /></g><g
     id="Layer_1_2_"><g
       id="Layer_2"
       class="st0"><rect
         x="-16.2"
         y="-17.2"
         class="st2"
         width="100.9"
         height="75.4"
         id="rect3609" /></g><g
       id="Layer_1_26_"><polygon
         class="st3"
         points="48.5,38 3,38 3,3 48.5,3 65.4,20.3   "
         id="polygon3612" /><polygon
         class="st4"
         points="48.5,38 3,38 3,3 48.5,3 65.4,20.3   "
         id="polygon3614" /><polyline
         class="st5"
         points="6.6,34.8 20.9,20.5 6.6,6.3   "
         id="polyline3616" /><g
         id="g3618"
         transformBehaviour="pinned"><path
           class="st6"
           d="m 7.9,16.9 c 0,-0.2 0,-0.3 0.1,-0.4 0.1,-0.1 0.2,-0.2 0.4,-0.3 0.2,0 0.3,0 0.4,0.1 0.1,0 0.2,0.1 0.2,0.3 0.2,0.6 0.3,1.1 0.5,1.7 0.1,0.5 0.3,1 0.4,1.6 0.1,0.6 0.3,1.1 0.5,1.6 0.1,-0.5 0.3,-1.1 0.4,-1.6 0.1,-0.5 0.3,-1.1 0.4,-1.6 0.2,-0.6 0.3,-1.1 0.5,-1.7 0,-0.2 0.1,-0.3 0.3,-0.3 0.1,-0.1 0.3,-0.1 0.4,-0.1 0.2,0 0.3,0.1 0.4,0.3 0.1,0.1 0.1,0.3 0.1,0.4 l -1.9,7 c 0,0.1 -0.1,0.2 -0.2,0.3 -0.1,0.1 -0.2,0.1 -0.3,0.1 -0.1,0 -0.3,0 -0.4,-0.1 C 10,24.1 9.9,24 9.9,23.9 l -2,-7 z"
           id="path3620"
           inkscape:connector-curvature="0"
           style="fill:#707070" /></g><polygon
         class="st7"
         points="48.5,38 3,38 3,3 48.5,3 65.4,20.3   "
         id="polygon3622" /></g></g></svg>