<?xml version="1.0" encoding="utf-8"?>
<!-- Generator: Adobe Illustrator 21.0.2, SVG Export Plug-In . SVG Version: 6.00 Build 0)  -->
<svg version="1.1" xmlns="http://www.w3.org/2000/svg" xmlns:xlink="http://www.w3.org/1999/xlink" x="0px" y="0px" width="156.1px"
	 height="73.7px" viewBox="0 0 156.1 73.7" style="enable-background:new 0 0 156.1 73.7;" xml:space="preserve">
<style type="text/css">
	.st0{display:none;}
	.st1{display:inline;fill:#7F9400;stroke:#000000;stroke-miterlimit:10;}
	.st2{display:inline;fill:#D214ED;}
	.st3{display:inline;fill:#ED2020;}
	.st4{fill:none;stroke:#FFFFFF;stroke-width:6;stroke-linecap:round;stroke-linejoin:round;stroke-miterlimit:10;}
	.st5{fill:#6F6F6F;}
	.st6{fill:none;stroke:#2D2D2D;stroke-width:1.5;stroke-linecap:round;stroke-linejoin:round;stroke-miterlimit:10;}
	.st7{fill:#F5821F;}
	.st8{fill:none;stroke:#D2D2D2;stroke-linecap:round;stroke-linejoin:round;}
	.st9{fill:#D2D2D2;}
</style>
<g id="Layer_2_2_" class="st0">
	<rect x="-2.4" y="-0.7" class="st1" width="153.3" height="88.9"/>
</g>
<g id="Layer_1">
	<g id="Layer_2_1_" class="st0">
		<rect x="17.9" y="-18.9" class="st2" width="125.9" height="93.5"/>
	</g>
	<g id="Layer_1_2_">
		<g id="Layer_2" class="st0">
			<rect x="5.7" y="-36.3" class="st3" width="154" height="125"/>
		</g>
		<g id="Layer_1_1_">
			<path class="st4" d="M3,37c0,13,7.9,34,20.9,34h6h95.7h6c13,0,20.9-20.9,20.9-34s-7.9-34-20.9-34h-6H29.9h-6C10.9,3,3,23.9,3,37z
				"/>
			<path class="st5" d="M3,37c0,13,7.9,34,20.9,34h6h95.7h6c13,0,20.9-20.9,20.9-34s-7.9-34-20.9-34h-6H29.9h-6C10.9,3,3,23.9,3,37z
				"/>
			<path class="st6" d="M3,37c0,13,7.9,34,20.9,34h6h95.7h6c13,0,20.9-20.9,20.9-34s-7.9-34-20.9-34h-6H29.9h-6C10.9,3,3,23.9,3,37z
				"/>
			<circle class="st7" cx="22.6" cy="11.3" r="2.8"/>
			<circle class="st7" cx="16.3" cy="18.9" r="2.8"/>
			<circle class="st7" cx="28.1" cy="21.7" r="2.8"/>
			<circle class="st7" cx="33.3" cy="30" r="2.8"/>
			<circle class="st7" cx="40.7" cy="43.1" r="2.8"/>
			<circle class="st7" cx="52.7" cy="30" r="2.8"/>
			<circle class="st7" cx="52.9" cy="49.7" r="2.8"/>
			<circle class="st7" cx="63.8" cy="48.1" r="2.8"/>
			<circle class="st7" cx="58.8" cy="25.5" r="2.8"/>
			<circle class="st7" cx="75" cy="30" r="2.8"/>
			<circle class="st7" cx="81.9" cy="48.1" r="2.8"/>
			<circle class="st7" cx="89.4" cy="44" r="2.8"/>
			<circle class="st7" cx="99.3" cy="31" r="2.8"/>
			<circle class="st7" cx="103.1" cy="50.8" r="2.8"/>
			<circle class="st7" cx="110.1" cy="47" r="2.8"/>
			<circle class="st7" cx="118.3" cy="50.8" r="2.8"/>
			<circle class="st7" cx="133.8" cy="64" r="2.8"/>
			<circle class="st7" cx="121" cy="61.2" r="2.8"/>
			<circle class="st7" cx="130.3" cy="58.1" r="2.8"/>
		</g>
		<g>
			<g>
				<path class="st8" d="M27.4,36.8c0,0,0.4,4.6,3.3,4.6c6,0,6.1-13.2,11.9-13.2c2.8,0,3.6,1.9,3.6,1.9s1,1.9,0.8,6.4"/>
			</g>
			<g>
				<path class="st8" d="M58.8,36.8c-1.9,3.9-3.5,9-7.1,9c-2.8,0-3.6-1.9-3.6-1.9s-1-1.9-0.8-6.4"/>
			</g>
			<g>
				<path class="st8" d="M58.8,36.8c1.9-3.7,3.3-8.6,6.9-8.6c2.8,0,3.6,1.9,3.6,1.9s1,1.9,0.8,6.4"/>
			</g>
			<g>
				<path class="st8" d="M81.8,36.8c-1.9,3.9-3.5,9-7.1,9c-2.8,0-3.6-1.9-3.6-1.9s-1-1.9-0.8-6.4"/>
			</g>
			<g>
				<path class="st8" d="M82.3,36.3c1.8-3.7,3.3-8.2,6.7-8.2c2.8,0,3.6,1.9,3.6,1.9s1,1.9,0.8,6.4"/>
			</g>
			<g>
				<path class="st8" d="M104.9,36.8c-1.9,3.9-3.5,9-7.1,9c-2.8,0-3.6-1.9-3.6-1.9s-1-1.9-0.8-6.4"/>
			</g>
			<g>
				<path class="st8" d="M105.1,36.8c1.9-3.7,3.3-8.6,6.9-8.6c2.8,0,3.6,1.9,3.6,1.9s1,1.9,0.8,6.4"/>
			</g>
			<g>
				<path class="st8" d="M128,36.8c-1.9,3.9-3.5,9-7.1,9c-2.8,0-3.6-1.9-3.6-1.9s-1-1.9-0.8-6.4"/>
			</g>
			<path class="st9" d="M25.8,38.2h103.9c0.8,0,1.5-0.6,1.5-1.2v-1c0-0.7-0.7-1.2-1.5-1.2H25.8c-0.8,0-1.5,0.6-1.5,1.2v1
				C24.4,37.5,24.9,38.2,25.8,38.2z"/>
		</g>
	</g>
</g>
</svg>
