<?xml version="1.0" encoding="utf-8"?>
<!-- Generator: Adobe Illustrator 21.0.2, SVG Export Plug-In . SVG Version: 6.00 Build 0)  -->
<svg version="1.1" id="Layer_1" xmlns="http://www.w3.org/2000/svg" xmlns:xlink="http://www.w3.org/1999/xlink" x="0px" y="0px"
	 width="136.8px" height="102.8px" viewBox="0 0 136.8 102.8" style="enable-background:new 0 0 136.8 102.8;" xml:space="preserve"
	>
<style type="text/css">
	.st0{fill:none;stroke:#FFFFFF;stroke-width:6;stroke-linecap:round;stroke-linejoin:round;}
	.st1{fill:#717070;}
	.st2{fill:none;stroke:#000000;stroke-width:1.5;stroke-linecap:round;stroke-linejoin:round;}
	.st3{fill:#EF8122;}
</style>
<polygon id="leg" class="st0" points="48.8,3 48.8,31.1 21.4,31.1 3,74.9 3,99.8 114.8,99.8 114.8,93.9 133.8,93.9 133.8,79.3 
	114.8,79.3 114.8,74.9 96.3,31.1 69,31.1 69,3 "/>
<polygon id="fill" class="st1" points="48.8,3 48.8,31.1 21.4,31.1 3,74.9 3,99.8 114.8,99.8 114.8,93.9 133.8,93.9 133.8,79.3 
	114.8,79.3 114.8,74.9 96.3,31.1 69,31.1 69,3 "/>
<polygon id="out" class="st2" points="48.8,3 48.8,31.1 21.4,31.1 3,74.9 3,99.8 114.8,99.8 114.8,93.9 133.8,93.9 133.8,79.3 
	114.8,79.3 114.8,74.9 96.3,31.1 69,31.1 69,3 "/>
<g id="dec">
	<circle class="st3" cx="53.8" cy="7.6" r="0.7"/>
	<circle class="st3" cx="55.1" cy="13.8" r="0.6"/>
	<circle class="st3" cx="52.1" cy="17.6" r="0.6"/>
	<circle class="st3" cx="64.4" cy="17.1" r="0.6"/>
	<circle class="st3" cx="57.1" cy="31.7" r="0.6"/>
	<circle class="st3" cx="53.8" cy="27.4" r="0.6"/>
	<circle class="st3" cx="61.1" cy="27.4" r="0.6"/>
	<circle class="st3" cx="63.4" cy="12.3" r="0.6"/>
	<circle class="st3" cx="55.1" cy="22.8" r="0.7"/>
	<circle class="st3" cx="59" cy="23.5" r="0.7"/>
	<circle class="st3" cx="63.4" cy="6.5" r="0.7"/>
	<circle class="st3" cx="60.1" cy="16.9" r="0.7"/>
	<circle class="st3" cx="59" cy="10.8" r="0.7"/>
	<circle class="st3" cx="59" cy="6.8" r="0.7"/>
	<circle class="st3" cx="63.4" cy="22.8" r="0.7"/>
	<circle class="st3" cx="129.3" cy="90" r="2.7"/>
	<circle class="st3" cx="121.2" cy="83.3" r="2.8"/>
	<circle class="st3" cx="115.2" cy="89.2" r="2.9"/>
	<circle class="st3" cx="112.4" cy="82.9" r="2.8"/>
	<circle class="st3" cx="129.3" cy="83.3" r="2.6"/>
	<circle class="st3" cx="122.3" cy="90.2" r="2.5"/>
</g>
</svg>
