<?xml version="1.0" encoding="utf-8"?>
<!-- Generator: Adobe Illustrator 21.0.2, SVG Export Plug-In . SVG Version: 6.00 Build 0)  -->
<svg version="1.1"
	 id="svg3726" inkscape:version="0.91 r13725" sodipodi:docname="cooler.svg" xmlns:cc="http://creativecommons.org/ns#" xmlns:dc="http://purl.org/dc/elements/1.1/" xmlns:inkscape="http://www.inkscape.org/namespaces/inkscape" xmlns:rdf="http://www.w3.org/1999/02/22-rdf-syntax-ns#" xmlns:sodipodi="http://sodipodi.sourceforge.net/DTD/sodipodi-0.dtd" xmlns:svg="http://www.w3.org/2000/svg"
	 xmlns="http://www.w3.org/2000/svg" xmlns:xlink="http://www.w3.org/1999/xlink" x="0px" y="0px" width="59.2px" height="50.5px"
	 viewBox="0 0 59.2 50.5" style="enable-background:new 0 0 59.2 50.5;" xml:space="preserve">
<style type="text/css">
	.st0{fill:none;stroke:#FFFFFF;stroke-width:6;stroke-linecap:round;stroke-linejoin:round;stroke-miterlimit:10;}
	.st1{display:none;}
	.st2{display:inline;fill:#4747DD;}
	.st3{display:inline;fill:none;stroke:#FFFFFF;stroke-width:6;stroke-miterlimit:10;}
	.st4{display:inline;fill:#6F6F6F;}
	.st5{display:inline;fill:none;stroke:#D2D2D2;stroke-linecap:round;stroke-linejoin:round;}
	.st6{display:inline;fill:none;stroke:#231F20;stroke-width:1.5;stroke-miterlimit:10;}
	.st7{fill:#6F6F6F;}
	.st8{fill:none;stroke:#D2D2D2;stroke-linecap:round;stroke-linejoin:round;stroke-miterlimit:10;}
	.st9{fill:#006C85;}
	.st10{fill:none;stroke:#D2D2D2;stroke-width:0.5;stroke-linecap:round;stroke-linejoin:round;}
	.st11{fill:#D2D2D2;}
	.st12{fill:none;stroke:#2D2D2D;stroke-width:1.5;stroke-linecap:round;stroke-linejoin:round;stroke-miterlimit:10;}
</style>
<path class="st0" d="M55.9,3H30.6C19.3,3,10,11.5,8.6,22.5H3V28h5.6c1.4,10.9,10.7,19.4,22,19.4h25.3v-5.5H45.3
	c4.6-4.1,7.5-10,7.5-16.7s-2.9-12.6-7.5-16.7h10.6V3z"/>
<sodipodi:namedview  bordercolor="#666666" borderopacity="1" gridtolerance="10" guidetolerance="10" id="namedview3756" inkscape:current-layer="Layer_1" inkscape:cx="25.4" inkscape:cy="25.25" inkscape:pageopacity="0" inkscape:pageshadow="2" inkscape:window-height="480" inkscape:window-maximized="0" inkscape:window-width="742" inkscape:window-x="0" inkscape:window-y="0" inkscape:zoom="4.6732673" objecttolerance="10" pagecolor="#ffffff" showgrid="false">
	</sodipodi:namedview>
<g id="Layer_2" class="st1">
	<rect id="rect3731" x="-13.7" y="-5.8" class="st2" width="81.6" height="72.4"/>
	
		<circle id="legib" sodipodi:cx="28.5" sodipodi:cy="27.5" sodipodi:rx="25.5" sodipodi:ry="25.5" class="st3" cx="-44.3" cy="29.4" r="25.5">
	</circle>
	
		<circle id="circle3" sodipodi:cx="28.5" sodipodi:cy="27.5" sodipodi:rx="25.5" sodipodi:ry="25.5" class="st4" cx="-44.3" cy="29.4" r="25.5">
	</circle>
	<polyline id="polyline5" class="st5" points="-63.6,18.3 -45.4,36.9 -45.4,19.9 -26,39.4 	"/>
	<polyline id="polyline7" class="st5" points="-28.9,40.4 -25.1,40.1 -25.1,36.6 	"/>
	
		<circle id="outline" sodipodi:cx="28.5" sodipodi:cy="27.5" sodipodi:rx="25.5" sodipodi:ry="25.5" class="st6" cx="-44.3" cy="29.4" r="25.5">
	</circle>
</g>
<sodipodi:namedview  bordercolor="#666666" borderopacity="1" fit-margin-bottom="0" fit-margin-left="0" fit-margin-right="0" fit-margin-top="0" gridtolerance="10" guidetolerance="10" id="namedview9" inkscape:current-layer="Layer_1" inkscape:cx="-5.7097458" inkscape:cy="27.763771" inkscape:pageopacity="0" inkscape:pageshadow="2" inkscape:window-height="1018" inkscape:window-maximized="1" inkscape:window-width="1920" inkscape:window-x="-8" inkscape:window-y="-8" inkscape:zoom="4.2522523" objecttolerance="10" pagecolor="#ffffff" showgrid="false">
	</sodipodi:namedview>
<sodipodi:namedview  bordercolor="#666666" borderopacity="1" fit-margin-bottom="0" fit-margin-left="0" fit-margin-right="0" fit-margin-top="0" gridtolerance="10" guidetolerance="10" id="namedview9" inkscape:current-layer="Layer_1" inkscape:cx="-5.7097458" inkscape:cy="27.763771" inkscape:pageopacity="0" inkscape:pageshadow="2" inkscape:window-height="1018" inkscape:window-maximized="1" inkscape:window-width="1920" inkscape:window-x="-8" inkscape:window-y="-8" inkscape:zoom="4.2522523" objecttolerance="10" pagecolor="#ffffff" showgrid="false">
	</sodipodi:namedview>
<path class="st7" d="M55.9,3H30.6C19.3,3,10,11.5,8.6,22.5H3V28h5.6c1.4,10.9,10.7,19.4,22,19.4h25.3v-5.5H45.3
	c4.6-4.1,7.5-10,7.5-16.7s-2.9-12.6-7.5-16.7h10.6V3z"/>
<g id="g3746">
	<polyline id="polyline3748" class="st8" points="13.5,13.3 31,30.8 31,20.9 47.7,37 	"/>
	<g id="g3750">
		<polyline id="polyline3752" class="st8" points="47.7,29.2 47.7,37.2 39.7,37.2 		"/>
	</g>
</g>
<polygon class="st9" points="47,40.2 14.3,40.2 16.7,42.5 22.5,45.9 27.7,47.2 34.4,47.4 55.9,47.4 55.9,41.9 45.3,41.9 "/>
<path class="st10" d="M17,24.6c-3.3,1.6-5-2.4-8.4,0"/>
<path class="st10" d="M17,26.5c-3.3,1.6-4.9-2.5-8.4,0"/>
<circle class="st9" cx="25.9" cy="38.1" r="0.9"/>
<circle class="st9" cx="28.1" cy="35.6" r="0.9"/>
<circle class="st9" cx="28.6" cy="38" r="0.9"/>
<circle class="st9" cx="30.8" cy="35.6" r="0.9"/>
<circle class="st9" cx="31.8" cy="38.1" r="0.9"/>
<circle class="st9" cx="36.2" cy="38.5" r="0.9"/>
<circle class="st9" cx="34" cy="36.1" r="0.9"/>
<circle class="st9" cx="36.5" cy="34.5" r="0.9"/>
<circle class="st9" cx="25" cy="35" r="0.9"/>
<rect x="44.7" y="3" class="st11" width="11.2" height="5.5"/>
<rect x="3" y="22.5" class="st11" width="5.5" height="5.5"/>
<path class="st12" d="M55.9,3H30.6C19.3,3,10,11.5,8.6,22.5H3V28h5.6c1.4,10.9,10.7,19.4,22,19.4h25.3v-5.5H45.3
	c4.6-4.1,7.5-10,7.5-16.7s-2.9-12.6-7.5-16.7h10.6V3z"/>
</svg>
