<?xml version="1.0" encoding="UTF-8" standalone="no"?>
<!-- Generator: Adobe Illustrator 21.0.2, SVG Export Plug-In . SVG Version: 6.00 Build 0)  -->

<svg
   xmlns:dc="http://purl.org/dc/elements/1.1/"
   xmlns:cc="http://creativecommons.org/ns#"
   xmlns:rdf="http://www.w3.org/1999/02/22-rdf-syntax-ns#"
   xmlns:svg="http://www.w3.org/2000/svg"
   xmlns="http://www.w3.org/2000/svg"
   xmlns:sodipodi="http://sodipodi.sourceforge.net/DTD/sodipodi-0.dtd"
   xmlns:inkscape="http://www.inkscape.org/namespaces/inkscape"
   version="1.1"
   x="0px"
   y="0px"
   width="65.6px"
   height="91.9px"
   viewBox="0 0 65.6 91.9"
   style="enable-background:new 0 0 65.6 91.9;"
   xml:space="preserve"
   id="svg3336"
   inkscape:version="0.91 r13725"
   sodipodi:docname="drying curve analysis.svg"><metadata
     id="metadata3375"><rdf:RDF><cc:Work
         rdf:about=""><dc:format>image/svg+xml</dc:format><dc:type
           rdf:resource="http://purl.org/dc/dcmitype/StillImage" /></cc:Work></rdf:RDF></metadata><defs
     id="defs3373" /><sodipodi:namedview
     pagecolor="#ffffff"
     bordercolor="#666666"
     borderopacity="1"
     objecttolerance="10"
     gridtolerance="10"
     guidetolerance="10"
     inkscape:pageopacity="0"
     inkscape:pageshadow="2"
     inkscape:window-width="1536"
     inkscape:window-height="897"
     id="namedview3371"
     showgrid="false"
     inkscape:zoom="7.9216538"
     inkscape:cx="32.799999"
     inkscape:cy="45.950001"
     inkscape:window-x="-8"
     inkscape:window-y="-8"
     inkscape:window-maximized="1"
     inkscape:current-layer="Layer_1" /><style
     type="text/css"
     id="style3338">
	.st0{display:none;}
	.st1{display:inline;fill:#91FFA1;stroke:#000000;stroke-miterlimit:10;}
	.st2{display:inline;fill:#EEE52F;}
	.st3{fill:none;stroke:#FFFFFF;stroke-width:6;stroke-linecap:round;stroke-linejoin:round;stroke-miterlimit:10;}
	.st4{fill:#707070;}
	.st5{fill:none;stroke:#D1D1D1;stroke-linecap:round;stroke-linejoin:round;stroke-miterlimit:10;}
	.st6{fill:none;stroke:#2D2D2E;stroke-width:1.5;stroke-linecap:round;stroke-linejoin:round;stroke-miterlimit:10;}
	.st7{fill:#D1D1D1;}
</style><g
     id="Layer_2_1_"
     class="st0"><rect
       x="-15"
       y="-14.7"
       class="st1"
       width="98.9"
       height="113.6"
       id="rect3341" /></g><g
     id="Layer_1"
     inkscape:version="0.91 r13725"
     sodipodi:docname="drying curve analysis.svg"><sodipodi:namedview
       bordercolor="#666666"
       borderopacity="1"
       gridtolerance="10"
       guidetolerance="10"
       id="namedview3993"
       inkscape:current-layer="Layer_3"
       inkscape:cx="32.650002"
       inkscape:cy="45.849998"
       inkscape:pageopacity="0"
       inkscape:pageshadow="2"
       inkscape:window-height="480"
       inkscape:window-maximized="0"
       inkscape:window-width="742"
       inkscape:window-x="0"
       inkscape:window-y="0"
       inkscape:zoom="2.5736097"
       objecttolerance="10"
       pagecolor="#ffffff"
       showgrid="false" /><g
       id="Layer_2"
       class="st0"><rect
         id="rect3978"
         x="-64.5"
         y="-33.7"
         class="st2"
         width="242"
         height="197.7" /></g><path
       class="st3"
       d="M47.7,14.7c0-2.2,0-4.9,0-6.8c0-1.8-6.8-4.8-14-4.8c-0.5,0-1,0-1.5,0c-7.2,0.1-14.3,3-14.3,4.8s0,4.6,0,6.8   H3.1v74.1h59.3V14.7H47.7z M32.7,6.2c1.6,0,2.9,1.3,2.9,2.9s-1.3,3-2.9,3c-1.6,0-2.9-1.3-2.9-2.9S31.1,6.2,32.7,6.2z"
       id="path3347" /><path
       class="st4"
       d="M47.7,14.7c0-2.2,0-4.9,0-6.8c0-1.8-6.8-4.8-14-4.8c-0.5,0-1,0-1.5,0c-7.2,0.1-14.3,3-14.3,4.8s0,4.6,0,6.8   H3.1v74.1h59.3V14.7H47.7z M32.7,6.2c1.6,0,2.9,1.3,2.9,2.9s-1.3,3-2.9,3c-1.6,0-2.9-1.3-2.9-2.9S31.1,6.2,32.7,6.2z"
       id="path3349" /><line
       class="st5"
       x1="20.8"
       y1="17.7"
       x2="45.4"
       y2="17.7"
       id="line3351" /><path
       class="st6"
       d="M47.7,14.7c0-2.2,0-4.9,0-6.8c0-1.8-6.8-4.8-14-4.8c-0.5,0-1,0-1.5,0c-7.2,0.1-14.3,3-14.3,4.8s0,4.6,0,6.8   H3.1v74.1h59.3V14.7H47.7z M32.7,6.2c1.6,0,2.9,1.3,2.9,2.9s-1.3,3-2.9,3c-1.6,0-2.9-1.3-2.9-2.9S31.1,6.2,32.7,6.2z"
       id="path3353" /><g
       id="g3355"
       transformBehaviour="pinned"><polyline
         class="st5"
         points="59.1,73.5 15.9,73.5 15.9,32.4   "
         id="polyline3357"
         style="fill:none;stroke:#d1d1d1;stroke-linecap:round;stroke-linejoin:round;stroke-miterlimit:10" /><path
         class="st7"
         d="m 41,84.2 0,-3.7 c 0,-2 -1.2,-2.5 -2.1,-2.5 -1,0 -1.6,0.5 -1.9,1.1 l 0,0 c 0,-0.4 -0.1,-0.7 -0.2,-1 0,0 -0.2,-1.1 -1.5,-1.2 -1.4,-0.1 -1.5,1.7 -1.5,1.7 l 0.8,0 c 0.5,-1.8 1.3,-0.5 1.3,-0.5 0.1,0.4 0.2,1 0.2,1.6 l 0,4.3 1.1,0 0,-3.5 c 0,-0.2 0,-0.4 0.1,-0.5 0.2,-0.6 0.7,-1.1 1.4,-1.1 1,0 1.3,0.8 1.3,1.7 l 0,3.6 c 0,0.8 0,1.8 0.2,2.1 l 1,0 C 41,85.9 41,84.9 41,84.2 Z"
         id="path3359"
         inkscape:connector-curvature="0"
         style="fill:#d1d1d1" /><g
         id="g3361"><path
           class="st7"
           d="m 10.6,56.8 c 0,0 -0.1,0 -0.1,0 -0.9,-0.1 -1.2,-1.4 -1.2,-1.6 0,0 -0.4,-1.9 -0.6,-3.5 -0.2,-1.3 -1,-1.4 -1.1,-1.4 l -1.2,0 C 6.2,50.3 6,50.1 6,49.9 6,49.7 6.2,49.5 6.4,49.5 l 1.3,0 c 0.6,0 1.7,0.5 1.9,2.1 0.1,1.6 0.4,3.4 0.4,3.4 0.1,0.5 0.4,0.9 0.5,1 0,0 0.3,0 0.9,-1.1 0.5,-1 0.6,-2.2 0.6,-3.2 0,-1.2 0,-2.6 1.4,-2.6 0.2,0 0.4,0.2 0.4,0.4 0,0.2 -0.2,0.4 -0.4,0.4 -0.5,0 -0.5,0.3 -0.6,1.7 0,1.1 0,2.4 -0.7,3.6 -0.2,0.7 -0.8,1.6 -1.5,1.6 z"
           id="path3363"
           inkscape:connector-curvature="0"
           style="fill:#d1d1d1" /></g><g
         id="g3365"><circle
           class="st7"
           cx="10.5"
           cy="48.700001"
           r="0.60000002"
           id="circle3367"
           style="fill:#d1d1d1" /></g><path
         class="st5"
         d="M 52.7,36.7 C 26,43.5 16.2,59.1 16.2,73.5"
         id="path3369"
         inkscape:connector-curvature="0"
         style="fill:none;stroke:#d1d1d1;stroke-linecap:round;stroke-linejoin:round;stroke-miterlimit:10" /></g></g></svg>