<?xml version="1.0" encoding="utf-8"?>
<!-- Generator: Adobe Illustrator 21.0.2, SVG Export Plug-In . SVG Version: 6.00 Build 0)  -->
<svg version="1.1"
	 id="svg2383" inkscape:export-filename="C:\PSE_Sandbox\FP branch\gFORMULATE_1_0\_main\icons\models\flow multiplier.png" inkscape:export-xdpi="90" inkscape:export-ydpi="90" inkscape:output_extension="org.inkscape.output.svg.inkscape" inkscape:version="0.91 r13725" sodipodi:docname="flow multiplier.svg" sodipodi:version="0.32" xmlns:cc="http://creativecommons.org/ns#" xmlns:dc="http://purl.org/dc/elements/1.1/" xmlns:inkscape="http://www.inkscape.org/namespaces/inkscape" xmlns:rdf="http://www.w3.org/1999/02/22-rdf-syntax-ns#" xmlns:sodipodi="http://sodipodi.sourceforge.net/DTD/sodipodi-0.dtd" xmlns:svg="http://www.w3.org/2000/svg"
	 xmlns="http://www.w3.org/2000/svg" xmlns:xlink="http://www.w3.org/1999/xlink" x="0px" y="0px" width="106.8px" height="76px"
	 viewBox="0 0 106.8 76" style="enable-background:new 0 0 106.8 76;" xml:space="preserve">
<style type="text/css">
	.st0{fill:#004F97;}
	.st1{fill:#3C3C3B;}
</style>
<defs>
	
	
		<inkscape:perspective  id="perspective2391" inkscape:persp3d-origin="372.04724 : 350.78739 : 1" inkscape:vp_x="0 : 526.18109 : 1" inkscape:vp_y="0 : 1000 : 0" inkscape:vp_z="744.09448 : 526.18109 : 1" sodipodi:type="inkscape:persp3d">
		</inkscape:perspective>
</defs>
<sodipodi:namedview  bordercolor="#666666" borderopacity="1.0" fit-margin-bottom="0" fit-margin-left="0" fit-margin-right="0" fit-margin-top="0" gridtolerance="10000" guidetolerance="10" id="base" inkscape:current-layer="g3023" inkscape:cx="-473.37292" inkscape:cy="94.938602" inkscape:document-units="px" inkscape:pageopacity="0.0" inkscape:pageshadow="2" inkscape:snap-bbox="true" inkscape:snap-global="false" inkscape:window-height="1141" inkscape:window-maximized="1" inkscape:window-width="1920" inkscape:window-x="1912" inkscape:window-y="-8" inkscape:zoom="0.47158032" objecttolerance="10" pagecolor="#ffffff" showgrid="false">
	<inkscape:grid  id="grid3021" originx="-9.2980278" originy="-353.48608" type="xygrid"></inkscape:grid>
</sodipodi:namedview>
<g id="layer1_3_" transform="translate(-9.2980278,-185.40459)" inkscape:groupmode="layer" inkscape:label="Layer 1">
	<g id="g3023" transform="matrix(0.993822,0,0,0.95668954,-5.9032658,67.812595)">
		<g id="path5565">
			<path inkscape:connector-curvature="0" class="st0" d="M14.7,162.6h34.7"/>
		</g>
		<g id="path5589">
			<rect x="67.2" y="124.6" width="2.7" height="76"/>
		</g>
		<polygon class="st1" points="122.8,163.3 102.1,127.8 102.1,147.9 69.9,147.9 69.9,176.5 102.1,176.5 102.1,198.1 		"/>
	</g>
</g>
<polygon class="st1" points="51.8,38.4 34,25.8 34,36.5 0,36.5 0,39.5 34,39.5 34,50.8 "/>
<g>
	<path d="M38.2,14.1l3.5-6.5l-3.4-6.2C38,1,38.2,0.4,38.7,0.1c0.5-0.3,1.1-0.1,1.4,0.4l2.8,5l2.8-5C45.9,0,46.5-0.1,47,0.1
		c0.5,0.3,0.7,0.9,0.4,1.4L44,7.7l3.5,6.5c0.3,0.5,0.1,1.1-0.4,1.4c-0.5,0.3-1.1,0.1-1.4-0.4l-2.9-5.3L40,15.1
		c-0.3,0.5-0.9,0.6-1.4,0.4C38.1,15.2,37.9,14.6,38.2,14.1z"/>
</g>
</svg>
