<?xml version="1.0" encoding="utf-8"?>
<!-- Generator: Adobe Illustrator 21.0.2, SVG Export Plug-In . SVG Version: 6.00 Build 0)  -->
<svg version="1.1" xmlns="http://www.w3.org/2000/svg" xmlns:xlink="http://www.w3.org/1999/xlink" x="0px" y="0px" width="110.4px"
	 height="133.3px" viewBox="0 0 110.4 133.3" style="enable-background:new 0 0 110.4 133.3;" xml:space="preserve">
<style type="text/css">
	.st0{display:none;}
	.st1{display:inline;fill:#06BF00;stroke:#000000;stroke-miterlimit:10;}
	.st2{display:inline;fill:#73DD17;}
	.st3{fill:none;stroke:#FFFFFF;stroke-width:6;stroke-linecap:round;stroke-linejoin:round;stroke-miterlimit:10;}
	.st4{fill:none;}
	.st5{fill:#6F6F6F;}
	.st6{fill:none;stroke:#D2D2D2;stroke-linecap:round;stroke-linejoin:round;stroke-miterlimit:10;}
	.st7{fill:none;stroke:#2D2D2D;stroke-width:1.5;stroke-linecap:round;stroke-linejoin:round;stroke-miterlimit:10;}
</style>
<g id="Layer_2_1_" class="st0">
	<rect x="-146.2" y="-114" class="st1" width="398" height="405"/>
</g>
<g id="Layer_1">
	<g id="Layer_2" class="st0">
		<rect x="-67.1" y="-86.6" class="st2" width="247" height="306"/>
	</g>
	<g id="Layer_1_1_">
		<path class="st3" d="M105.4,99.4c1-0.1,1.5-1.1,1.5-2.1c0-2.7-1.6-3.9-4.2-4c0-0.1,1.6-0.8,1.9-1.2c0.7-1.3,0.1-3.1-0.6-4.4
			c-1.3-2.4,0.2-2.6,0.2-5c0-0.5,0.1-1-0.3-1.5c-0.2-0.3-0.5-0.6-0.8-0.8c-1.5-1.1-1-2.8-1-4.6c0.1,0.3,0.2,0.6,0.2,0.9l0,0l0,0
			c0-1.2,0-2.5,0-3.7c0,0-0.1,0.1-0.1,0.2c0.1-2.7-1-4.8-1.2-7.1c1.7,0.4,1.9-1.2,1.7-2.4c-0.1-1.3,0.9-1.2,1.3-2.2
			s-0.3-1.9,0.3-2.8c0.9-1.6,1.9-2,1.1-3.9c-1-2.6-0.8-5.3-0.7-8.1c0.1-0.9,0-1.9-0.1-2.8c-1.5-0.1-2.9,0.3-4.4,0.1
			c0-0.2-0.1-0.3-0.2-0.5c-0.5-0.4-1.2-0.4-1.7-0.4c-3.2-0.1-5.9,0.6-7.5,3.6c-0.7,1.4-2.3,1.9-2.8,3.4c-0.4,1.4-1.2,1.6-2.4,2.1
			c-1.4,0.5-0.9,1.9-1,3.1c-1-0.1-1.6,0.2-1.9,1.1c-0.2,0.5-0.8,2.7-1.2,2.7c-0.8-0.1-2.4-0.6-3.2-0.3c-0.8,0.2-1.9,1.7-2.5,2.3
			c-0.5,0.4-2.1-0.2-2.7-0.3c-3-0.6-3.3,0.1-5.8,1.9c-0.6-2.8-1.3-5.5-1.6-8.4c8.9-0.1,17.8-3.7,24.3-9.9c5.5-5.3,7.6-12.3,8.1-19.7
			c0.2-2.4-0.3-4.6-2.3-6.2C91.7,15,85,14.9,79.9,15c-5.5,0.1-13.9,3.3-17.9-1.8l0,0c-2.5-2.4-2.6-6.4-1.7-9.6c-1,0-4.7-0.6-5.4,0
			c-1,0.9-0.7,5.9-0.6,7.1c0.2,4,2.4,6,5.1,8.7c3.2,3.2,7.5,7.1,8.1,11.9c1,8.2-8.9,10.4-15,10c-10.2-0.7-21.9-3.1-31.6,1.6
			c-1.9,0.9-3.7,2.2-4.9,3.9c-0.9,1.3-3.4,6.1-1,7c-2.1-0.1-4.3,0.2-4.8,2.8c-0.2,1.5-0.1,3.1,0.3,4.6c0.5,1.8-1.7,1.8-1.7,3.5
			c0,1.7,1.4,2.9,2.1,4.3c-3.3,1-0.9,3.1-0.9,5.3c0,1.8-4.1,3.1-1.9,5.7c1.2,1.9,0.6,1.6-0.3,3.7C7,85,7.2,86.1,7.3,87.5
			c0.2,1.9-0.9,2.2-2.3,3.2c-1.4,1-1.9,7.3-1.5,8.9c0.5,1.7,0.6,2.6,0,4.2c-0.3,1,0.1,1.9,0.6,2.6c1.4,1.6-0.2,4.4,2.1,5
			c0.9,0.3,2.8,0.2,2.7,1.7c-0.1,0.4-0.2,0.9,0,1.3c1.6,3.1,5,0.9,6.9,2.4c-0.1,1.7,0.7,2.7,2.4,2.8c4.9,0.4,10.8-3.1,10.4-8.5
			c0.2,0.6,0.7,1,0.9,1.5c1.8-1.8,3.3-4.5,2.7-7.1c2.6,3.5,0.9,9,5.4,11.3c1.5,0.8,3.2,0.9,4.9,0.8c5.5-0.8,6.4-3.2,5.7-8.9
			c1.1,0,2.5,1.3,3.7,1.7c-0.9,2.3-1.4,3.9,1,5.7c-0.8,0.8-2,1.1-2.4,2.2c-0.5,1.3,0,2.8,0,4.1c0,0.8,0.1,1.7,0.2,2.5
			c0.3,1.7,1.3,3,2.8,3.7c3.1,1.5,11.9,2.2,12.6-2.5c0.3-2-1.7-2.4-3-3.5c1.9-0.2,3.2-1.5,3.4-3.3c0.1-0.1,0.3-0.8,0.2-0.7
			c0.3-1,2,0.2,2.8,0.3c5,0.7,10.7,0.2,15.7,0.1c2.4-0.1,4.6-1,7.1-0.9c2.4,0.1,4.6-0.2,6-2.3c1.3-1.8,1.9-2.8,3.9-3.8
			c1.9-0.9,3.8-3.5,1.9-5.3C106.3,105.8,108.1,100,105.4,99.4z M41.6,55.2c-0.3,0.1-0.5,0.1-0.7,0.1C41,55.3,41.3,55.3,41.6,55.2
			c-3.5,0.7-7.3,0.5-10.8,0.3c-1.8-0.1-3.5-0.1-5.3-0.2c-1.1-0.1-0.8-1.2-1.3-2c-0.6-1.1-2.4-0.7-3.4-0.4c0.9-5.5,6.3-7.4,11.2-6.3
			c6.8,1.5,13.3,4.2,20.1,5.8c0.3,0.1-2.3,1-2.2,1C47.1,54,44.4,54.7,41.6,55.2C42.7,55,44.1,54.7,41.6,55.2z M59.5,57.6
			c0,0.5-0.1,5-0.4,5c-1.7,0-3.5,0.1-5.3,0.1c-2.3,0.1-4.7-0.6-6.8-1.5c4.2-1.8,8.4-3.6,12.5-5.4C59.6,56.4,59.6,57.1,59.5,57.6
			C59.6,56.8,59.5,57.6,59.5,57.6z"/>
		<path class="st4" d="M105.4,99.4c1-0.1,1.5-1.1,1.5-2.1c0-2.7-1.6-3.9-4.2-4c0-0.1,1.6-0.8,1.9-1.2c0.7-1.3,0.1-3.1-0.6-4.4
			c-1.3-2.4,0.2-2.6,0.2-5c0-0.5,0.1-1-0.3-1.5c-0.2-0.3-0.5-0.6-0.8-0.8c-1.5-1.1-1-2.8-1-4.6c0.1,0.3,0.2,0.6,0.2,0.9l0,0l0,0
			c0-1.2,0-2.5,0-3.7c0,0-0.1,0.1-0.1,0.2c0.1-2.7-1-4.8-1.2-7.1c1.7,0.4,1.9-1.2,1.7-2.4c-0.1-1.3,0.9-1.2,1.3-2.2
			s-0.3-1.9,0.3-2.8c0.9-1.6,1.9-2,1.1-3.9c-1-2.6-0.8-5.3-0.7-8.1c0.1-0.9,0-1.9-0.1-2.8c-1.5-0.1-2.9,0.3-4.4,0.1
			c0-0.2-0.1-0.3-0.2-0.5c-0.5-0.4-1.2-0.4-1.7-0.4c-3.2-0.1-5.9,0.6-7.5,3.6c-0.7,1.4-2.3,1.9-2.8,3.4c-0.4,1.4-1.2,1.6-2.4,2.1
			c-1.4,0.5-0.9,1.9-1,3.1c-1-0.1-1.6,0.2-1.9,1.1c-0.2,0.5-0.8,2.7-1.2,2.7c-0.8-0.1-2.4-0.6-3.2-0.3c-0.8,0.2-1.9,1.7-2.5,2.3
			c-0.5,0.4-2.1-0.2-2.7-0.3c-3-0.6-3.3,0.1-5.8,1.9c-0.6-2.8-1.3-5.5-1.6-8.4c8.9-0.1,17.8-3.7,24.3-9.9c5.5-5.3,7.6-12.3,8.1-19.7
			c0.2-2.4-0.3-4.6-2.3-6.2C91.7,15,85,14.9,79.9,15c-5.5,0.1-13.9,3.3-17.9-1.8l0,0c-2.5-2.4-2.6-6.4-1.7-9.6c-1,0-4.7-0.6-5.4,0
			c-1,0.9-0.7,5.9-0.6,7.1c0.2,4,2.4,6,5.1,8.7c3.2,3.2,7.5,7.1,8.1,11.9c1,8.2-8.9,10.4-15,10c-10.2-0.7-21.9-3.1-31.6,1.6
			c-1.9,0.9-3.7,2.2-4.9,3.9c-0.9,1.3-3.4,6.1-1,7c-2.1-0.1-4.3,0.2-4.8,2.8c-0.2,1.5-0.1,3.1,0.3,4.6c0.5,1.8-1.7,1.8-1.7,3.5
			c0,1.7,1.4,2.9,2.1,4.3c-3.3,1-0.9,3.1-0.9,5.3c0,1.8-4.1,3.1-1.9,5.7c1.2,1.9,0.6,1.6-0.3,3.7C7,85,7.2,86.1,7.3,87.5
			c0.2,1.9-0.9,2.2-2.3,3.2c-1.4,1-1.9,7.3-1.5,8.9c0.5,1.7,0.6,2.6,0,4.2c-0.3,1,0.1,1.9,0.6,2.6c1.4,1.6-0.2,4.4,2.1,5
			c0.9,0.3,2.8,0.2,2.7,1.7c-0.1,0.4-0.2,0.9,0,1.3c1.6,3.1,5,0.9,6.9,2.4c-0.1,1.7,0.7,2.7,2.4,2.8c4.9,0.4,10.8-3.1,10.4-8.5
			c0.2,0.6,0.7,1,0.9,1.5c1.8-1.8,3.3-4.5,2.7-7.1c2.6,3.5,0.9,9,5.4,11.3c1.5,0.8,3.2,0.9,4.9,0.8c5.5-0.8,6.4-3.2,5.7-8.9
			c1.1,0,2.5,1.3,3.7,1.7c-0.9,2.3-1.4,3.9,1,5.7c-0.8,0.8-2,1.1-2.4,2.2c-0.5,1.3,0,2.8,0,4.1c0,0.8,0.1,1.7,0.2,2.5
			c0.3,1.7,1.3,3,2.8,3.7c3.1,1.5,11.9,2.2,12.6-2.5c0.3-2-1.7-2.4-3-3.5c1.9-0.2,3.2-1.5,3.4-3.3c0.1-0.1,0.3-0.8,0.2-0.7
			c0.3-1,2,0.2,2.8,0.3c5,0.7,10.7,0.2,15.7,0.1c2.4-0.1,4.6-1,7.1-0.9c2.4,0.1,4.6-0.2,6-2.3c1.3-1.8,1.9-2.8,3.9-3.8
			c1.9-0.9,3.8-3.5,1.9-5.3C106.3,105.8,108.1,100,105.4,99.4z M41.6,55.2c-0.3,0.1-0.5,0.1-0.7,0.1C41,55.3,41.3,55.3,41.6,55.2
			c-3.5,0.7-7.3,0.5-10.8,0.3c-1.8-0.1-3.5-0.1-5.3-0.2c-1.1-0.1-0.8-1.2-1.3-2c-0.6-1.1-2.4-0.7-3.4-0.4c0.9-5.5,6.3-7.4,11.2-6.3
			c6.8,1.5,13.3,4.2,20.1,5.8c0.3,0.1-2.3,1-2.2,1C47.1,54,44.4,54.7,41.6,55.2C42.7,55,44.1,54.7,41.6,55.2z M59.5,57.6
			c0,0.5-0.1,5-0.4,5c-1.7,0-3.5,0.1-5.3,0.1c-2.3,0.1-4.7-0.6-6.8-1.5c4.2-1.8,8.4-3.6,12.5-5.4C59.6,56.4,59.6,57.1,59.5,57.6
			C59.6,56.8,59.5,57.6,59.5,57.6z"/>
		<path class="st5" d="M98,102.1C98,102.1,98,102.1,98,102.1L98,102.1z"/>
		<path class="st5" d="M105.4,99.4c1-0.1,1.5-1.1,1.5-2.1c0-2.7-1.6-3.9-4.2-4c0-0.1,1.6-0.8,1.9-1.2c0.7-1.3,0.1-3.1-0.6-4.4
			c-1.3-2.4,0.2-2.6,0.2-5c0-0.5,0.1-1-0.3-1.5c-0.2-0.3-0.5-0.6-0.8-0.8c-1.5-1.1-1-2.8-1-4.6c0.1,0.3,0.2,0.6,0.2,0.9l0,0l0,0
			c0-1.2,0-2.5,0-3.7c0,0-0.1,0.1-0.1,0.2c0.1-2.7-1-4.8-1.2-7.1c1.7,0.4,1.9-1.2,1.7-2.4c-0.1-1.3,0.9-1.2,1.3-2.2
			s-0.3-1.9,0.3-2.8c0.9-1.6,1.9-2,1.1-3.9c-1-2.6-0.8-5.3-0.7-8.1c0.1-0.9,0-1.9-0.1-2.8c-1.5-0.1-2.9,0.3-4.4,0.1
			c0-0.2-0.1-0.3-0.2-0.5c-0.5-0.4-1.2-0.4-1.7-0.4c-3.2-0.1-5.9,0.6-7.5,3.6c-0.7,1.4-2.3,1.9-2.8,3.4c-0.4,1.4-1.2,1.6-2.4,2.1
			c-1.4,0.5-0.9,1.9-1,3.1c-1-0.1-1.6,0.2-1.9,1.1c-0.2,0.5-0.8,2.7-1.2,2.7c-0.8-0.1-2.4-0.6-3.2-0.3c-0.8,0.2-1.9,1.7-2.5,2.3
			c-0.5,0.4-2.1-0.2-2.7-0.3c-3-0.6-3.3,0.1-5.8,1.9c-0.6-2.8-1.3-5.5-1.6-8.4c8.9-0.1,17.8-3.7,24.3-9.9c5.5-5.3,7.6-12.3,8.1-19.7
			c0.2-2.4-0.3-4.6-2.3-6.2C91.7,15,85,14.9,79.9,15c-5.5,0.1-13.9,3.3-17.9-1.8l0,0c-2.5-2.4-2.6-6.4-1.7-9.6c-1,0-4.7-0.6-5.4,0
			c-1,0.9-0.7,5.9-0.6,7.1c0.2,4,2.4,6,5.1,8.7c3.2,3.2,7.5,7.1,8.1,11.9c1,8.2-8.9,10.4-15,10c-10.2-0.7-21.9-3.1-31.6,1.6
			c-1.9,0.9-3.7,2.2-4.9,3.9c-0.9,1.3-3.4,6.1-1,7c-2.1-0.1-4.3,0.2-4.8,2.8c-0.2,1.5-0.1,3.1,0.3,4.6c0.5,1.8-1.7,1.8-1.7,3.5
			c0,1.7,1.4,2.9,2.1,4.3c-3.3,1-0.9,3.1-0.9,5.3c0,1.8-4.1,3.1-1.9,5.7c1.2,1.9,0.6,1.6-0.3,3.7C7,85,7.2,86.1,7.3,87.5
			c0.2,1.9-0.9,2.2-2.3,3.2c-1.4,1-1.9,7.3-1.5,8.9c0.5,1.7,0.6,2.6,0,4.2c-0.3,1,0.1,1.9,0.6,2.6c1.4,1.6-0.2,4.4,2.1,5
			c0.9,0.3,2.8,0.2,2.7,1.7c-0.1,0.4-0.2,0.9,0,1.3c1.6,3.1,5,0.9,6.9,2.4c-0.1,1.7,0.7,2.7,2.4,2.8c4.9,0.4,10.8-3.1,10.4-8.5
			c0.2,0.6,0.7,1,0.9,1.5c1.8-1.8,3.3-4.5,2.7-7.1c2.6,3.5,0.9,9,5.4,11.3c1.5,0.8,3.2,0.9,4.9,0.8c5.5-0.8,6.4-3.2,5.7-8.9
			c1.1,0,2.5,1.3,3.7,1.7c-0.9,2.3-1.4,3.9,1,5.7c-0.8,0.8-2,1.1-2.4,2.2c-0.5,1.3,0,2.8,0,4.1c0,0.8,0.1,1.7,0.2,2.5
			c0.3,1.7,1.3,3,2.8,3.7c3.1,1.5,11.9,2.2,12.6-2.5c0.3-2-1.7-2.4-3-3.5c1.9-0.2,3.2-1.5,3.4-3.3c0.1-0.1,0.3-0.8,0.2-0.7
			c0.3-1,2,0.2,2.8,0.3c5,0.7,10.7,0.2,15.7,0.1c2.4-0.1,4.6-1,7.1-0.9c2.4,0.1,4.6-0.2,6-2.3c1.3-1.8,1.9-2.8,3.9-3.8
			c1.9-0.9,3.8-3.5,1.9-5.3C106.3,105.8,108.1,100,105.4,99.4z M41.6,55.2c-0.3,0.1-0.5,0.1-0.7,0.1C41,55.3,41.3,55.3,41.6,55.2
			c-3.5,0.7-7.3,0.5-10.8,0.3c-1.8-0.1-3.5-0.1-5.3-0.2c-1.1-0.1-0.8-1.2-1.3-2c-0.6-1.1-2.4-0.7-3.4-0.4c0.9-5.5,6.3-7.4,11.2-6.3
			c6.8,1.5,13.3,4.2,20.1,5.8c0.3,0.1-2.3,1-2.2,1C47.1,54,44.4,54.7,41.6,55.2C42.7,55,44.1,54.7,41.6,55.2z M59.5,57.6
			c0,0.5-0.1,5-0.4,5c-1.7,0-3.5,0.1-5.3,0.1c-2.3,0.1-4.7-0.6-6.8-1.5c4.2-1.8,8.4-3.6,12.5-5.4C59.6,56.4,59.6,57.1,59.5,57.6
			C59.6,56.8,59.5,57.6,59.5,57.6z"/>
		<path class="st5" d="M105.4,99.5c1.9-0.2,1.5-3,1-4.1c-0.7-1.7-1.7-2-3.8-2.1v-0.1c3.5-0.4,2-4.9,0.5-6.8c0-0.3,0-0.6,0-0.9
			c1.8-0.8,0.9-1.5,1-3.2c0.1-1.1-0.8-1.9-2-2.5c-0.2-1-0.1-2-0.1-3c0-0.3,0-0.8,0-1.1c0.1,0.3,0.2,0.6,0.2,0.9v-3.7
			c-0.1,0.1-0.1,0.2-0.1,0.2c0.1-1.6,0-3.2-0.3-4.8c-0.1-0.6-0.5-1.4-0.9-2.1c0-0.1,0.1-0.2,0.1-0.3h1.1c1.3-0.9,0.3-2.1,0.7-3.2
			c0.2-0.5,1-0.8,1.2-1.4c0.2-0.6-0.2-1.3,0-2c0.2-1.2,0.8-1.3,1.4-2.3c0.8-1.3,0.6-1.3,0.1-2.5c-1.3-3.4-0.5-7.2-0.8-10.9
			c-1.5-0.1-2.9,0.3-4.4,0.1c-0.1-1.6-5.2-0.6-6.5-0.3c-2.7,0.5-2.2,2.4-3.4,3.8c-0.6,0.7-1.5,1-2,1.9c-0.4,0.7-0.3,1.6-1.1,2.2
			c-0.9,0.6-2,0.3-2.6,1.6c-0.2,0.6,0,1.6,0,2.2c-0.7-0.1-1.2,0.1-1.6,0.5l-1.3,3.4l-3.4-0.3l-2.7,2.4l-5.1-1l-3.2,2.3l-1.2-5.5
			l-0.1-0.9c0,0.1-0.1-0.8-0.2-1.7c0.3-0.2,0.5-0.6,0.3-1c-0.1-0.2-0.2-0.3-0.4-0.5c-0.1-0.5-0.1-0.8-0.1-0.7l-1.1,0.2
			c-2-0.3-5,0.3-5.6,1.5l0.2,0.3c0.1,0.1,0.3,0.1,0.5,0.2l-0.1,1c-0.1,0.6-0.3,6.4-0.3,7.1l-7,0.1l-4.1-1.1l-5.3-2.2
			c-0.3-0.2-0.7-0.3-1-0.4c-1.9-0.7-9.1,0.7-9.1,0.7l-1.4,0.1c-1-1.7-1.3-2.3-4.2-1.9c0.5-2-1.1-1.2-2.1-2c-0.8-0.7-0.8-2.6-1.5-3
			c-1.7-1.1-3.9,0.5-5.7,0.8c-2.1,0.3-5-0.6-6.8,0.6c-1.7,1.2-1.3,4.1-1.2,5.7c0.1,0.7,0.6,1.6,0.2,2.3c-0.3,0.7-1.3,0.6-1.6,1.7
			c-0.4,2,1.2,3.3,2.1,4.9c-3.6,1.2-0.9,3.5-0.9,5.4c0,1.6-0.8,0.9-1.5,1.9c-0.8,1-0.9,2.5-0.5,3.7c0.2,0.6,1.2,1.3,1.2,2
			c0,0.6-0.7,0.5-0.9,1c-0.5,1.2-0.9,1.9-1,3.2c-0.1,1,0.5,2.7-0.1,3.5c-0.5,0.9-2.1,1.3-2.6,2.1c-0.6,1-0.2,2.2-0.3,3.4
			c-0.1,1.2-0.6,2.4-0.7,3.6c-0.1,1.4,0.8,2.7,0.7,4.1c-0.1,0.8-0.8,1.5-0.7,2.6c0.1,1.3,1.3,1.9,1.6,2.9c0.3,0.9-0.4,2-0.1,2.8
			c0.8,1.6,2.9,1,3.8,1.9c0.6,0.6-0.1,1.6,0.2,2.3c1.2,2.2,4.3,2.3,6.9,2.4c-0.1,2.8,1.5,3.1,4.7,2.8c1.3-0.1,2.7-0.4,3.6-1.1
			c0.5-0.4,0.6-1.1,1-1.4c0.3-0.2,0.9-0.1,1.2-0.3c1.1-0.9,1.7-1.7,2.1-3c0.2-0.5,0.3-1.6,0.2-2.7l0.9,1.6c0,0,3.6-3.4,2.7-7.2
			c0.8,1.5,1.5,3.2,1.7,5.4c0.9,6.7,6,7.3,9.1,6.7c2.9-0.5,6.3,0.2,5.2-8.9c0.1,0,0.3,0,0.4,0c0.5,0.6,1.5,1.2,3.2,1.7
			c-0.3,0.7-0.9,1.4-1,2.1c-0.1,0.6,0.2,1.3,0.6,2c0.1,0.3,0.2,0.5,0.4,0.8c0.2,0.2,0.4,0.4,0.7,0.6c0.1,0.1,0.2,0.2,0.3,0.2
			c-0.7,0.7-2,1.2-2.4,2.3c-0.5,1.1,0,3,0,4.2c0,3,0.4,5.7,4.4,6.8c2,0.5,7.5,0.6,9.2-0.3c2.1-1,3-4.5,0.3-5.3l-1.4-0.9
			c2.1-0.3,3.2-1.6,3.4-3.4c0.1-0.1,0.1-0.1,0.1-0.2c0.2-0.5,0.1-0.7,0.4-1c0.5,0.2,0.9,0.4,1.5,0.5c2.4,0.6,5.9,0.3,8.4,0.3
			c2.8,0,5.6,0.1,8.4,0c2.1-0.1,4.4-0.9,5.8-0.9c2.3-0.1,3.9,0.5,5.9-0.9c1.8-1.2,2.2-3.4,3.5-4.4c1.3-0.9,2.3-0.8,3.4-2.1
			c1.2-1.5,1.8-2.7,0.3-4.1C106.2,106,107.8,100,105.4,99.5z"/>
		<path class="st6" d="M59.5,64.2c1.5-2.1,4-2.3,6.9-1.5"/>
		<path class="st6" d="M35.5,60.1c0.8,0.3,1.5,0.9,1.8,1.7c3,0.4,4.4-1.9,6.3,0.2c0.3-0.5,1.1-0.7,1.9-0.8"/>
		<path class="st6" d="M22.7,67.6c0.1,0.8-0.5,1.5-0.5,2.2c0.1,0.8,0.7,1.5,0.7,2.3c0.1,2-2.5,2.5-2.8,4c3.8,1.1,2.8,6.2-0.6,7.1
			c0.3,1,0.8,1.8,0.8,3c-0.1,1.2-1,2.4-0.9,3.6c0.1,1.1,0.8,1.8,0.7,3.1c-0.1,1-1,2.7-0.1,3.1c0.9,0.8,1.2,1.5,1.2,2.6
			c0,0.6-0.6,1-0.6,1.5c-0.1,0.6,0.5,0.7,0.4,1.2c-0.1,2.1,0.8,3.4,0.9,5.6c1.6-0.1,2.9,0.6,3.2,1.9c2.4-0.9,3.1,0.9,3.2,2.8"/>
		<path class="st6" d="M10.4,61.3c0.9,1.2,2.8,4,5.1,2.8c-0.2,1.7,1.9,2.3,3.5,2.6c1.1,0.2,2.6-0.1,3.6,0.2c0.9,0.2,0.7,0.5,1.5,0.9
			c2,1,4,1.2,6.3,1.7c1.8,0.5,3.1,1.7,5.3,1c0.3,1.2,1.3,1.9,2.7,2.3c1,0.3,2.5,0.4,3.5,0.2c0.6-0.1,1.2-0.8,1.7-0.8
			c0.9,0,2.4,0.6,3.5,0.8c2.3,0.2,3.3-0.1,5.4-0.5c0.9-0.2,0.5-0.3,1.4-0.3c1.2,0.1,2.7,0.9,3.9,1.1c0.7,0.1,1.8,0.2,2.6,0.1
			c1-0.2,1.3-0.7,2-0.9c2.6-0.8,5.2-1.1,7.7-1.9c2.7-0.9,6.2,0.5,9.5,0.2c2-0.2,3.3-0.9,5.1-1.3c0.5-0.1,0.6-0.4,1.1-0.5
			c0.7-0.1,1.5,0.4,2.2,0.3c3.3-0.3,1.6-2.2,3.1-3.6c0.5-0.4,2.3-0.6,3.1-1.3c0.9-0.8,1.6-2,1.8-3.1c1.8-0.1,2.3,0.2,3.5-0.8
			c1.2-1,0.6-2.3,1.3-3.1c0.8-1,2.4-1.5,3-2.5"/>
		<path class="st6" d="M48.1,107.9c-0.7-5-0.7-5.6-0.7-5.6"/>
		<path class="st6" d="M32.2,106.1c-0.3-1.6-1.3-3.2-3.7-4.9"/>
		<path class="st6" d="M42.3,103.4c0,1.1,2.1,8.3,0.2,8.9c-1.9,0.5-3.5-8.3-4.2-9.1c-0.7-0.7-9.1-9.4-13.7-6.3s-1.2,7.8,0,8.9
			c1.2,1.1,2.3,3.1,2.3,3.1"/>
		<path class="st6" d="M46.7,102.3"/>
		<path class="st6" d="M21.1,86.4"/>
		<path class="st6" d="M20.2,85.9c0,0,8.6,6.2,12.1,5.2c1.9-0.5,3.8-1.9,5.6-3.2c1.7-1.1,3.3-2,4.8-2c3.2,0,9.7,7.8,0.2,11.2l-3,1.6
			c0,0,19.3-11.7,22.3-10.5c3,1.3,5.1,4.2-2.3,10.1"/>
		<path class="st6" d="M21.1,93.1c0,0,5.8,4.2,11.1,3.2s9.5-4.4,9.5-4.4s-10.7,5.4-7.4,8.3c3.2,2.9,10.2,5.2,14.4,0.5
			s8.8-7.3,8.8-7.3s-10.7,5.6-3.2,9.6s10.9-7,12.8-9.2c1.9-2.1,5.6-3.1,5.6-3.1"/>
		<path class="st6" d="M63.8,88.2c0,0,7.7-4,10-2.7s3.2,8.9,4.9,8.9c5.8,0,10.4-7.6,16-2.7c5.6,4.9,1.4,7.6-1.6,9.2
			c-3,1.6-11.6,2.3-11.6,2.3"/>
		<path class="st6" d="M70.3,92.2c0,0,2.1,6,6.7,6.7c4.6,0.7,13.9-2.7,13.9-2.7"/>
		<path class="st6" d="M77.1,98.9c0,0-3,2-1.2,4.4c1.9,2.3,8.6,6.8,13,4.9c4.4-2,8.8-6.2,8.8-6.2"/>
		<path class="st6" d="M97.1,97.6c0,0,5.8,1.1,5.8,3.1s-1.2,6.8-6.5,8.6c-5.3,1.8-7.9,2.6-13,2.6s-10.7-8.6-15.3-8.3
			c-7.2,0.5-9,8.8-15.5,7.3"/>
		<path class="st6" d="M75.2,101c0,0-3-4.4-10.7-2.3"/>
		<line class="st6" x1="23.2" y1="81.4" x2="31.1" y2="86.2"/>
		<path class="st6" d="M38,87.2c0,0-0.2-4.2-6.7-6.8c-6.5-2.7-4.4-9.6-4.2-10.5"/>
		<path class="st6" d="M35.2,82.5c0,0,4.9,1.5,7.4-1.1s5.1-7.3,5.1-7.3"/>
		<path class="st6" d="M35.2,72.5c0,0-1.4,4.4,0.9,4.4c2.3,0,6.7-3.4,6.7-3.4"/>
		<path class="st6" d="M46.9,76.7c0,0,1.2,4,0.5,5.4c-0.7,1.5-1.9,4.7-1.9,4.7"/>
		<path class="st6" d="M53.9,72.3c0,0-0.8,7.1-0.8,8.8c0,1.6-2.3,6.3-2.3,6.3"/>
		<path class="st6" d="M57.1,88.8c0.5-0.5,3.2-4.9,3.2-4.9"/>
		<path class="st6" d="M61.3,73.6c0,0-2.1,3.1-1.2,6.7c0.9,3.6,3.2,6.3,3.2,6.3"/>
		<path class="st6" d="M69,75.6v-4c0,0,7.2,1.6,10.7,1.5s3.7,0.9,6.5-0.5c2.8-1.5,7.2-5.2,7.2-5.2"/>
		<path class="st6" d="M95.5,62.7c0,0,6,1.1,5.3,3.6c-0.7,2.6-2.8,7.4-4.9,8.9s-7.2,3.4-13,3.4s-9.1-0.2-9.1-0.2"/>
		<path class="st6" d="M75,72.9c0,0-8.4,2.3-8.8,6.7s2.6,6,2.6,6"/>
		<path class="st6" d="M73.6,84.8c0,0,3.2-1.6,6-1.1S89.8,85,91.2,84c1.4-0.9,2.8-1.5,2.8-1.5l3.5,0.2"/>
		<path class="st6" d="M102.8,85.6c-0.7,0.3-1.7,0.5-3.2,0.9c-6,1.3-8.6,2.9-8.6,2.9"/>
		<path class="st6" d="M88.7,78.6c0,0,7.9-1.1,9.5-0.3c0.5,0.2,1.3,0.5,2.2,0.8c0.5,0.2,1,0.4,1.6,0.6"/>
		<path class="st6" d="M76.4,90.4c0,0,2.8-0.9,4.9-1.1c2.1-0.2,6.5,1.1,6.5,1.1"/>
		<path class="st6" d="M68.3,119c-0.6-0.2-1.2-0.4-1.7-0.7c-1.2-0.6-2.3-1.3-3.3-1.6c-0.8-1.5-2.5-2.4-4.1-3.2"/>
		<path class="st6" d="M63.4,105.6c4.6,0.1,8.2,2.3,12.5,2.9"/>
		<path class="st6" d="M57.3,118.2"/>
		<path class="st6" d="M66.4,119"/>
		<path class="st6" d="M54.8,122c1.1,1,6.2,1.3,7.9,1.1"/>
		<path class="st6" d="M66.6,61.1"/>
		<path class="st6" d="M65.5,53.7"/>
		<g>
			<path class="st6" d="M21.6,92.9c0.1,0.1,0.2,0.1,0.3,0.2h-0.3C21.6,93,21.6,93,21.6,92.9z M20.3,92c-0.1,0-0.1,0-0.2,0
				c0-0.1-0.1-0.2-0.1-0.3C20.1,91.8,20.2,91.9,20.3,92z"/>
			<path class="st6" d="M65.5,53.7"/>
		</g>
		<path class="st7" d="M105.4,99.4c1-0.1,1.5-1.1,1.5-2.1c0-2.7-1.6-3.9-4.2-4c0-0.1,1.6-0.8,1.9-1.2c0.7-1.3,0.1-3.1-0.6-4.4
			c-1.3-2.4,0.2-2.6,0.2-5c0-0.5,0.1-1-0.3-1.5c-0.2-0.3-0.5-0.6-0.8-0.8c-1.5-1.1-1-2.8-1-4.6c0.1,0.3,0.2,0.6,0.2,0.9l0,0l0,0
			c0-1.2,0-2.5,0-3.7c0,0-0.1,0.1-0.1,0.2c0.1-2.7-1-4.8-1.2-7.1c1.7,0.4,1.9-1.2,1.7-2.4c-0.1-1.3,0.9-1.2,1.3-2.2
			s-0.3-1.9,0.3-2.8c0.9-1.6,1.9-2,1.1-3.9c-1-2.6-0.8-5.3-0.7-8.1c0.1-0.9,0-1.9-0.1-2.8c-1.5-0.1-2.9,0.3-4.4,0.1
			c0-0.2-0.1-0.3-0.2-0.5c-0.5-0.4-1.2-0.4-1.7-0.4c-3.2-0.1-5.9,0.6-7.5,3.6c-0.7,1.4-2.3,1.9-2.8,3.4c-0.4,1.4-1.2,1.6-2.4,2.1
			c-1.4,0.5-0.9,1.9-1,3.1c-1-0.1-1.6,0.2-1.9,1.1c-0.2,0.5-0.8,2.7-1.2,2.7c-0.8-0.1-2.4-0.6-3.2-0.3c-0.8,0.2-1.9,1.7-2.5,2.3
			c-0.5,0.4-2.1-0.2-2.7-0.3c-3-0.6-3.3,0.1-5.8,1.9c-0.6-2.8-1.3-5.5-1.6-8.4c8.9-0.1,17.8-3.7,24.3-9.9c5.5-5.3,7.6-12.3,8.1-19.7
			c0.2-2.4-0.3-4.6-2.3-6.2C91.7,15,85,14.9,79.9,15c-5.5,0.1-13.9,3.3-17.9-1.8l0,0c-2.5-2.4-2.6-6.4-1.7-9.6c-1,0-4.7-0.6-5.4,0
			c-1,0.9-0.7,5.9-0.6,7.1c0.2,4,2.4,6,5.1,8.7c3.2,3.2,7.5,7.1,8.1,11.9c1,8.2-8.9,10.4-15,10c-10.2-0.7-21.9-3.1-31.6,1.6
			c-1.9,0.9-3.7,2.2-4.9,3.9c-0.9,1.3-3.4,6.1-1,7c-2.1-0.1-4.3,0.2-4.8,2.8c-0.2,1.5-0.1,3.1,0.3,4.6c0.5,1.8-1.7,1.8-1.7,3.5
			c0,1.7,1.4,2.9,2.1,4.3c-3.3,1-0.9,3.1-0.9,5.3c0,1.8-4.1,3.1-1.9,5.7c1.2,1.9,0.6,1.6-0.3,3.7C7,85,7.2,86.1,7.3,87.5
			c0.2,1.9-0.9,2.2-2.3,3.2c-1.4,1-1.9,7.3-1.5,8.9c0.5,1.7,0.6,2.6,0,4.2c-0.3,1,0.1,1.9,0.6,2.6c1.4,1.6-0.2,4.4,2.1,5
			c0.9,0.3,2.8,0.2,2.7,1.7c-0.1,0.4-0.2,0.9,0,1.3c1.6,3.1,5,0.9,6.9,2.4c-0.1,1.7,0.7,2.7,2.4,2.8c4.9,0.4,10.8-3.1,10.4-8.5
			c0.2,0.6,0.7,1,0.9,1.5c1.8-1.8,3.3-4.5,2.7-7.1c2.6,3.5,0.9,9,5.4,11.3c1.5,0.8,3.2,0.9,4.9,0.8c5.5-0.8,6.4-3.2,5.7-8.9
			c1.1,0,2.5,1.3,3.7,1.7c-0.9,2.3-1.4,3.9,1,5.7c-0.8,0.8-2,1.1-2.4,2.2c-0.5,1.3,0,2.8,0,4.1c0,0.8,0.1,1.7,0.2,2.5
			c0.3,1.7,1.3,3,2.8,3.7c3.1,1.5,11.9,2.2,12.6-2.5c0.3-2-1.7-2.4-3-3.5c1.9-0.2,3.2-1.5,3.4-3.3c0.1-0.1,0.3-0.8,0.2-0.7
			c0.3-1,2,0.2,2.8,0.3c5,0.7,10.7,0.2,15.7,0.1c2.4-0.1,4.6-1,7.1-0.9c2.4,0.1,4.6-0.2,6-2.3c1.3-1.8,1.9-2.8,3.9-3.8
			c1.9-0.9,3.8-3.5,1.9-5.3C106.3,105.8,108.1,100,105.4,99.4z M41.6,55.2c-0.3,0.1-0.5,0.1-0.7,0.1C41,55.3,41.3,55.3,41.6,55.2
			c-3.5,0.7-7.3,0.5-10.8,0.3c-1.8-0.1-3.5-0.1-5.3-0.2c-1.1-0.1-0.8-1.2-1.3-2c-0.6-1.1-2.4-0.7-3.4-0.4c0.9-5.5,6.3-7.4,11.2-6.3
			c6.8,1.5,13.3,4.2,20.1,5.8c0.3,0.1-2.3,1-2.2,1C47.1,54,44.4,54.7,41.6,55.2C42.7,55,44.1,54.7,41.6,55.2z M59.5,57.6
			c0,0.5-0.1,5-0.4,5c-1.7,0-3.5,0.1-5.3,0.1c-2.3,0.1-4.7-0.6-6.8-1.5c4.2-1.8,8.4-3.6,12.5-5.4C59.6,56.4,59.6,57.1,59.5,57.6
			C59.6,56.8,59.5,57.6,59.5,57.6z"/>
	</g>
</g>
</svg>
