<?xml version="1.0" encoding="UTF-8" standalone="no"?>
<?gproms path="Humidity_sensor_block.is_out_of_spec_overall"?>

<svg
   xmlns:dc="http://purl.org/dc/elements/1.1/"
   xmlns:cc="http://creativecommons.org/ns#"
   xmlns:rdf="http://www.w3.org/1999/02/22-rdf-syntax-ns#"
   xmlns:svg="http://www.w3.org/2000/svg"
   xmlns="http://www.w3.org/2000/svg"
   xmlns:sodipodi="http://sodipodi.sourceforge.net/DTD/sodipodi-0.dtd"
   xmlns:inkscape="http://www.inkscape.org/namespaces/inkscape"
   version="1.1"
   x="0px"
   y="0px"
   width="50.5px"
   height="50.5px"
   viewBox="0 0 50.5 50.5"
   style="enable-background:new 0 0 50.5 50.5;"
   xml:space="preserve"
   id="svg4311"
   inkscape:version="0.91 r13725"
   sodipodi:docname="humidity sensor.svg"><metadata
     id="metadata4338"><rdf:RDF><cc:Work
         rdf:about=""><dc:format>image/svg+xml</dc:format><dc:type
           rdf:resource="http://purl.org/dc/dcmitype/StillImage" /></cc:Work></rdf:RDF></metadata><defs
     id="defs4336" /><sodipodi:namedview
     pagecolor="#ffffff"
     bordercolor="#666666"
     borderopacity="1"
     objecttolerance="10"
     gridtolerance="10"
     guidetolerance="10"
     inkscape:pageopacity="0"
     inkscape:pageshadow="2"
     inkscape:window-width="742"
     inkscape:window-height="480"
     id="namedview4334"
     showgrid="false"
     inkscape:zoom="4.6732673"
     inkscape:cx="25.25"
     inkscape:cy="25.25"
     inkscape:window-x="0"
     inkscape:window-y="0"
     inkscape:window-maximized="0"
     inkscape:current-layer="Layer_1" /><style
     type="text/css"
     id="style4313">
	.st0{display:none;}
	.st1{display:inline;fill:#1EFF00;stroke:#000000;stroke-miterlimit:10;}
	.st2{fill:none;stroke:#FFFFFF;stroke-width:6;stroke-linecap:round;stroke-linejoin:round;stroke-miterlimit:10;}
	.st3{fill:none;}
	.st4{fill:#FFFFFF;}
	.st5{fill:#727070;}
	.st6{fill:none;stroke:#2D2D2E;stroke-width:1.5;stroke-linecap:round;stroke-linejoin:round;stroke-miterlimit:10;}
</style><g
     id="Layer_2"
     class="st0"><rect
       x="-2.6"
       y="-4.7"
       class="st1"
       width="63.5"
       height="59.6"
       id="rect4316" /></g><g
     id="Layer_1"><g
       id="g7" /><circle
       class="st2"
       cx="25.3"
       cy="25.3"
       r="22.1"
       id="circle4320"
	   style="stroke:#ff0000;stroke-opacity:1;stroke-width:0;stroke-miterlimit:10;stroke-dasharray:none"><animate
         attributeName="stroke-width"
         attributeType="XML"
         begin="0s"
         dur="1s"
         fill="freeze"
         from="6"
         to="0" /></circle>
		 <circle
       class="st3"
       cx="25.3"
       cy="25.3"
       r="22.1"
       id="circle4322" /><circle
       class="st4"
       cx="25.3"
       cy="25.3"
       r="22.1"
       id="circle4324" /><g
       id="g4326"
       transformBehaviour="pinned"><path
         class="st5"
         d="m 23.1,24.7 c -0.4,0.7 -1,1.2 -1.7,1.6 l 2.3,6.1 c 0.1,0.3 0.1,0.6 0,1 -0.1,0.3 -0.4,0.5 -0.7,0.6 -0.3,0.1 -0.6,0.1 -0.9,0 -0.3,-0.1 -0.5,-0.4 -0.7,-0.7 l -2.4,-6.5 -1.4,0 0,6 c 0,0.3 -0.1,0.6 -0.4,0.9 -0.2,0.2 -0.5,0.4 -0.9,0.4 C 16,34.1 15.7,34 15.4,33.7 15.1,33.4 15,33.2 15,32.8 l 0,-14.9 c 0,-0.3 0.1,-0.6 0.4,-0.9 0.2,-0.2 0.5,-0.4 0.9,-0.4 l 3.1,0 c 0.6,0 1.2,0.1 1.7,0.3 0.5,0.2 1,0.5 1.4,0.9 0.4,0.4 0.7,0.9 0.9,1.4 0.2,0.5 0.3,1.1 0.3,1.7 l 0,1.5 c 0.1,0.9 -0.2,1.6 -0.6,2.3 z m -5.6,-0.4 1.9,0 c 0.5,0 1,-0.2 1.3,-0.5 0.3,-0.3 0.5,-0.8 0.5,-1.3 l 0,-1.5 c 0,-0.5 -0.2,-1 -0.5,-1.3 -0.4,-0.4 -0.8,-0.5 -1.3,-0.5 l -1.9,0 0,5.1 z"
         id="path4328"
         inkscape:connector-curvature="0"
         style="fill:#727070" /><path
         class="st5"
         d="m 33.2,16.9 c 0.2,-0.2 0.5,-0.4 0.9,-0.4 0.3,0 0.6,0.1 0.9,0.4 0.2,0.2 0.4,0.5 0.4,0.9 l 0,15 c 0,0.3 -0.1,0.6 -0.4,0.9 -0.3,0.2 -0.6,0.3 -1,0.3 -0.3,0 -0.6,-0.1 -0.9,-0.4 -0.3,-0.3 -0.4,-0.5 -0.4,-0.9 l 0,-6.5 -3.7,0 0,6.5 c 0,0.3 -0.1,0.6 -0.4,0.9 -0.2,0.2 -0.5,0.4 -0.9,0.4 -0.4,0 -0.6,-0.1 -0.9,-0.4 -0.3,-0.3 -0.4,-0.5 -0.4,-0.9 l 0,-15 c 0,-0.3 0.1,-0.6 0.4,-0.9 0.2,-0.2 0.5,-0.4 0.9,-0.4 0.4,0 0.6,0.1 0.9,0.4 0.2,0.2 0.4,0.5 0.4,0.9 l 0,6 3.7,0 0,-6 c 0.1,-0.3 0.2,-0.6 0.5,-0.8 z"
         id="path4330"
         inkscape:connector-curvature="0"
         style="fill:#727070" /></g><circle
       class="st6"
       cx="25.3"
       cy="25.3"
       r="22.1"
       id="circle4332" /></g></svg>