<?xml version="1.0" encoding="UTF-8" standalone="no"?>
<!-- Generator: Adobe Illustrator 21.0.2, SVG Export Plug-In . SVG Version: 6.00 Build 0)  -->

<svg
   xmlns:dc="http://purl.org/dc/elements/1.1/"
   xmlns:cc="http://creativecommons.org/ns#"
   xmlns:rdf="http://www.w3.org/1999/02/22-rdf-syntax-ns#"
   xmlns:svg="http://www.w3.org/2000/svg"
   xmlns="http://www.w3.org/2000/svg"
   xmlns:sodipodi="http://sodipodi.sourceforge.net/DTD/sodipodi-0.dtd"
   xmlns:inkscape="http://www.inkscape.org/namespaces/inkscape"
   version="1.1"
   x="0px"
   y="0px"
   width="50.5px"
   height="59.8px"
   viewBox="0 0 50.5 59.8"
   style="enable-background:new 0 0 50.5 59.8;"
   xml:space="preserve"
   id="svg4127"
   inkscape:version="0.91 r13725"
   sodipodi:docname="liquid composition sensor.svg"><metadata
     id="metadata4174"><rdf:RDF><cc:Work
         rdf:about=""><dc:format>image/svg+xml</dc:format><dc:type
           rdf:resource="http://purl.org/dc/dcmitype/StillImage" /></cc:Work></rdf:RDF></metadata><defs
     id="defs4172" /><sodipodi:namedview
     pagecolor="#ffffff"
     bordercolor="#666666"
     borderopacity="1"
     objecttolerance="10"
     gridtolerance="10"
     guidetolerance="10"
     inkscape:pageopacity="0"
     inkscape:pageshadow="2"
     inkscape:window-width="742"
     inkscape:window-height="480"
     id="namedview4170"
     showgrid="false"
     inkscape:zoom="3.9464883"
     inkscape:cx="25.25"
     inkscape:cy="29.9"
     inkscape:window-x="0"
     inkscape:window-y="0"
     inkscape:window-maximized="0"
     inkscape:current-layer="Layer_1" /><style
     type="text/css"
     id="style4129">
	.st0{display:none;}
	.st1{display:inline;fill:#6AADFF;stroke:#000000;stroke-miterlimit:10;}
	.st2{display:inline;fill:#EEE52F;}
	.st3{fill:none;stroke:#FFFFFF;stroke-width:6;stroke-linecap:round;stroke-linejoin:round;stroke-miterlimit:10;}
	.st4{fill:none;}
	.st5{fill:#FFFFFF;}
	.st6{fill:none;stroke:#2D2D2E;stroke-width:1.5;stroke-linecap:round;stroke-linejoin:round;stroke-miterlimit:10;}
	.st7{fill:#727070;}
</style><g
     id="Layer_2_1_"
     class="st0"><rect
       x="-10.5"
       y="-4.1"
       class="st1"
       width="66.9"
       height="70.1"
       id="rect4132" /></g><g
     id="Layer_1"><g
       id="Layer_2"
       class="st0"><rect
         x="-70.1"
         y="-60.3"
         class="st2"
         width="242"
         height="197.7"
         id="rect4136" /></g><line
       class="st3"
       x1="25.2"
       y1="45.2"
       x2="25.2"
       y2="56.6"
       id="line4138" /><circle
       class="st3"
       cx="25.2"
       cy="25"
       r="21.9"
       id="circle4140" /><line
       class="st4"
       x1="25.2"
       y1="45.2"
       x2="25.2"
       y2="56.6"
       id="line4142" /><circle
       class="st4"
       cx="25.2"
       cy="25"
       r="21.9"
       id="circle4144" /><circle
       class="st5"
       cx="25.2"
       cy="25"
       r="21.9"
       id="circle4146" /><line
       class="st6"
       x1="25.2"
       y1="47.5"
       x2="25.2"
       y2="56.6"
       id="line4148" /><circle
       class="st6"
       cx="25.2"
       cy="25"
       r="21.9"
       id="circle4150" /><g
       id="g4152"
       transformBehaviour="pinned"><path
         class="st7"
         d="M 12.2,29.8 C 12,29.6 12,29.4 12,29.2 l 0,-12.6 c 0,-0.2 0.1,-0.4 0.2,-0.6 0.2,-0.2 0.4,-0.2 0.6,-0.2 l 1.7,0 c 0.2,0 0.4,0.1 0.6,0.2 0.2,0.2 0.2,0.4 0.2,0.6 0,0.2 -0.1,0.4 -0.2,0.6 -0.2,0.2 -0.4,0.2 -0.6,0.2 l -0.9,0 0,10.9 0.9,0 c 0.2,0 0.4,0.1 0.6,0.2 0.2,0.2 0.2,0.4 0.2,0.6 0,0.2 -0.1,0.4 -0.2,0.6 -0.2,0.2 -0.4,0.2 -0.6,0.2 l -1.7,0 c -0.2,0.1 -0.4,0 -0.6,-0.1 z"
         id="path4154"
         inkscape:connector-curvature="0"
         style="fill:#727070" /><path
         class="st7"
         d="m 22.7,27.7 c 0.1,0.2 0,0.4 -0.1,0.6 -0.1,0.2 -0.3,0.3 -0.5,0.4 -0.2,0.1 -0.4,0 -0.6,-0.1 C 21.3,28.5 21.2,28.3 21.1,28.1 21.1,28 21,27.8 21,27.6 21,27.4 20.9,27.2 20.8,27 20.7,26.8 20.7,26.5 20.6,26.3 l -2.9,0 c -0.1,0.3 -0.1,0.5 -0.2,0.7 -0.1,0.2 -0.1,0.4 -0.2,0.6 0,0.2 -0.1,0.4 -0.1,0.5 -0.1,0.2 -0.2,0.4 -0.4,0.5 -0.2,0.1 -0.4,0.1 -0.6,0.1 -0.2,-0.1 -0.4,-0.2 -0.5,-0.4 -0.1,-0.2 -0.1,-0.4 -0.1,-0.6 l 2.7,-9.9 c 0,-0.2 0.1,-0.3 0.3,-0.4 0.1,-0.1 0.3,-0.2 0.5,-0.2 0.2,0 0.4,0.1 0.5,0.2 0.1,0.1 0.2,0.3 0.3,0.4 l 2.8,9.9 z m -2.5,-3 c -0.2,-0.6 -0.3,-1.2 -0.5,-1.8 -0.2,-0.6 -0.3,-1.2 -0.5,-1.8 -0.2,0.6 -0.3,1.2 -0.5,1.8 -0.2,0.6 -0.3,1.2 -0.5,1.8 l 2,0 z"
         id="path4156"
         inkscape:connector-curvature="0"
         style="fill:#727070" /><path
         class="st7"
         d="m 24.3,29.5 c -0.1,0.1 -0.2,0.1 -0.3,0.1 -0.1,0 -0.2,0 -0.3,-0.1 -0.1,-0.1 -0.1,-0.2 -0.1,-0.3 0,-0.1 0,-0.2 0.1,-0.3 l 1.2,-1.2 c 0.2,-0.2 0.3,-0.2 0.5,-0.1 0.1,0 0.2,0.1 0.2,0.2 0.1,0.1 0.1,0.2 0.1,0.3 l 0,5.8 c 0,0.1 0,0.2 -0.1,0.3 -0.1,0.1 -0.2,0.1 -0.3,0.1 -0.1,0 -0.2,0 -0.3,-0.1 -0.1,-0.1 -0.1,-0.2 -0.1,-0.3 l 0,-4.6 c 0,0 -0.1,0.1 -0.1,0.1 0,0 -0.1,0.1 -0.1,0.1 -0.3,-0.1 -0.3,0 -0.4,0 z"
         id="path4158"
         inkscape:connector-curvature="0"
         style="fill:#727070" /><path
         class="st7"
         d="m 32.1,34.2 c -0.1,-0.1 -0.2,-0.1 -0.2,-0.3 0,-0.2 0,-0.2 0,-0.4 l 1,-1.8 L 32,30 c -0.1,-0.1 -0.1,-0.2 0,-0.3 0,-0.1 0.1,-0.2 0.2,-0.3 0.1,-0.1 0.2,-0.1 0.3,0 0.1,0 0.2,0.1 0.3,0.2 l 0.7,1.3 0.7,-1.3 c 0.1,-0.1 0.1,-0.2 0.3,-0.2 0.1,0 0.2,0 0.3,0 0.1,0.1 0.2,0.1 0.2,0.3 0,0.1 0,0.2 0,0.3 l -1,1.7 1,1.8 c 0.1,0.1 0.1,0.2 0,0.4 -0.1,0.2 -0.1,0.2 -0.2,0.3 -0.1,0.1 -0.2,0.1 -0.3,0 -0.1,0 -0.2,-0.1 -0.3,-0.2 L 33.5,32.7 32.7,34 c -0.1,0.1 -0.2,0.2 -0.3,0.2 0,0.1 -0.2,0 -0.3,0 z"
         id="path4160"
         inkscape:connector-curvature="0"
         style="fill:#727070" /><path
         class="st7"
         d="m 38.5,16 c 0.2,0.2 0.2,0.4 0.2,0.6 l 0,12.6 c 0,0.2 -0.1,0.4 -0.2,0.6 C 38.3,30 38.1,30 37.9,30 l -1.7,0 c -0.2,0 -0.4,-0.1 -0.6,-0.2 -0.2,-0.2 -0.2,-0.4 -0.2,-0.6 0,-0.2 0.1,-0.4 0.2,-0.6 0.2,-0.2 0.4,-0.2 0.6,-0.2 l 0.9,0 0,-11 -0.9,0 c -0.2,0 -0.4,-0.1 -0.6,-0.2 -0.2,-0.2 -0.2,-0.4 -0.2,-0.6 0,-0.2 0.1,-0.4 0.2,-0.6 0.2,-0.2 0.4,-0.2 0.6,-0.2 l 1.7,0 c 0.3,0 0.5,0.1 0.6,0.2 z"
         id="path4162"
         inkscape:connector-curvature="0"
         style="fill:#727070" /></g><circle
       class="st7"
       cx="27.2"
       cy="31.5"
       r="0.6"
       id="circle4164" /><circle
       class="st7"
       cx="29"
       cy="31.5"
       r="0.6"
       id="circle4166" /><circle
       class="st7"
       cx="30.8"
       cy="31.5"
       r="0.6"
       id="circle4168" /></g></svg>