<?xml version="1.0" encoding="utf-8"?>
<!-- Generator: Adobe Illustrator 21.0.2, SVG Export Plug-In . SVG Version: 6.00 Build 0)  -->
<svg version="1.1" xmlns="http://www.w3.org/2000/svg" xmlns:xlink="http://www.w3.org/1999/xlink" x="0px" y="0px" width="105.5px"
	 height="83.6px" viewBox="0 0 105.5 83.6" style="enable-background:new 0 0 105.5 83.6;" xml:space="preserve">
<style type="text/css">
	.st0{display:none;}
	.st1{display:inline;fill:#DDD93C;}
	.st2{display:inline;fill:#3D3DE2;}
	.st3{fill:none;stroke:#FFFFFF;stroke-width:6;stroke-linecap:round;stroke-linejoin:round;stroke-miterlimit:10;}
	.st4{fill:#717070;}
	.st5{fill:none;stroke:#000000;stroke-width:1.5;stroke-linecap:round;stroke-linejoin:round;stroke-miterlimit:10;}
</style>
<g id="Layer_2_1_" class="st0">
	<rect x="-20.1" y="-2.3" class="st1" width="149.5" height="96.8"/>
</g>
<g id="Layer_1">
	<g id="Layer_2" class="st0">
		<rect x="-13.4" y="5" class="st2" width="132" height="77.8"/>
	</g>
	<path class="st3" d="M100.3,55.4L89.2,18.1l1.2,0.2c0.7,0.1,1.5-0.4,1.6-1.1c0.1-0.7-0.4-1.5-1.1-1.6l-30.6-5.1
		c-0.8-3.4-3.9-5.9-7.5-5.9c-2.7,0-5.1,1.4-6.5,3.5L15.4,3.1c-0.7-0.1-1.5,0.4-1.6,1.1c-0.1,0.7,0.4,1.5,1.1,1.6l0.9,0.2L16,6.2
		L4.8,43.7H2.9c0,0,0,13.7,14.7,13.7s14.7-13.7,14.7-13.7h-1.9L19.2,6.5l25.9,4.3C45,11.3,45,11.9,45,12.4c0,2.8,1.4,5.2,3.6,6.6
		v52.8H24.8c-1.2,0-2.2,1-2.2,2.2v4.2c0,1.2,1,2.2,2.2,2.2h55.5c1.2,0,2.2-1,2.2-2.2V74c0-1.2-1-2.2-2.2-2.2H56.8V19
		c2-1.2,3.3-3.3,3.6-5.7l25.5,4.2L86,18L74.9,55.4H73c0,0,0,13.7,14.7,13.7s14.7-13.7,14.7-13.7H100.3z M8,43.7l9.6-32.1l9.6,32.1H8
		z M78.1,55.4l9.6-32.1l9.6,32.1H78.1z"/>
	<path class="st4" d="M100.3,55.4L89.2,18.1l1.2,0.2c0.7,0.1,1.5-0.4,1.6-1.1c0.1-0.7-0.4-1.5-1.1-1.6l-30.6-5.1
		c-0.8-3.4-3.9-5.9-7.5-5.9c-2.7,0-5.1,1.4-6.5,3.5L15.4,3.1c-0.7-0.1-1.5,0.4-1.6,1.1c-0.1,0.7,0.4,1.5,1.1,1.6l0.9,0.2L16,6.2
		L4.8,43.7H2.9c0,0,0,13.7,14.7,13.7s14.7-13.7,14.7-13.7h-1.9L19.2,6.5l25.9,4.3C45,11.3,45,11.9,45,12.4c0,2.8,1.4,5.2,3.6,6.6
		v52.8H24.8c-1.2,0-2.2,1-2.2,2.2v4.2c0,1.2,1,2.2,2.2,2.2h55.5c1.2,0,2.2-1,2.2-2.2V74c0-1.2-1-2.2-2.2-2.2H56.8V19
		c2-1.2,3.3-3.3,3.6-5.7l25.5,4.2L86,18L74.9,55.4H73c0,0,0,13.7,14.7,13.7s14.7-13.7,14.7-13.7H100.3z M8,43.7l9.6-32.1l9.6,32.1H8
		z M78.1,55.4l9.6-32.1l9.6,32.1H78.1z"/>
	<path class="st5" d="M100.3,55.4L89.2,18.1l1.2,0.2c0.7,0.1,1.5-0.4,1.6-1.1c0.1-0.7-0.4-1.5-1.1-1.6l-30.6-5.1
		c-0.8-3.4-3.9-5.9-7.5-5.9c-2.7,0-5.1,1.4-6.5,3.5L15.4,3.1c-0.7-0.1-1.5,0.4-1.6,1.1c-0.1,0.7,0.4,1.5,1.1,1.6l0.9,0.2L16,6.2
		L4.8,43.7H2.9c0,0,0,13.7,14.7,13.7s14.7-13.7,14.7-13.7h-1.9L19.2,6.5l25.9,4.3C45,11.3,45,11.9,45,12.4c0,2.8,1.4,5.2,3.6,6.6
		v52.8H24.8c-1.2,0-2.2,1-2.2,2.2v4.2c0,1.2,1,2.2,2.2,2.2h55.5c1.2,0,2.2-1,2.2-2.2V74c0-1.2-1-2.2-2.2-2.2H56.8V19
		c2-1.2,3.3-3.3,3.6-5.7l25.5,4.2L86,18L74.9,55.4H73c0,0,0,13.7,14.7,13.7s14.7-13.7,14.7-13.7H100.3z M8,43.7l9.6-32.1l9.6,32.1H8
		z M78.1,55.4l9.6-32.1l9.6,32.1H78.1z"/>
</g>
</svg>
