<?xml version="1.0" encoding="UTF-8" standalone="no"?>
<?gproms path="Moisture_content_sensor_block.within_spec_warning_upper"?><svg
   xmlns:dc="http://purl.org/dc/elements/1.1/"
   xmlns:cc="http://creativecommons.org/ns#"
   xmlns:rdf="http://www.w3.org/1999/02/22-rdf-syntax-ns#"
   xmlns:svg="http://www.w3.org/2000/svg"
   xmlns="http://www.w3.org/2000/svg"
   xmlns:sodipodi="http://sodipodi.sourceforge.net/DTD/sodipodi-0.dtd"
   xmlns:inkscape="http://www.inkscape.org/namespaces/inkscape"
   version="1.1"
   id="svg4595"
   inkscape:version="0.91 r13725"
   sodipodi:docname="moisture content sensor.svg"
   x="0px"
   y="0px"
   width="50.5px"
   height="50.5px"
   viewBox="0 0 50.5 50.5"
   style="enable-background:new 0 0 50.5 50.5;"
   xml:space="preserve"><metadata
     id="metadata19"><rdf:RDF><cc:Work
         rdf:about=""><dc:format>image/svg+xml</dc:format><dc:type
           rdf:resource="http://purl.org/dc/dcmitype/StillImage" /></cc:Work></rdf:RDF></metadata><defs
     id="defs17" /><style
     type="text/css"
     id="style3">
	.st0{display:none;}
	.st1{display:inline;fill:#1EFF00;stroke:#000000;stroke-miterlimit:10;}
	.st2{fill:none;stroke:#FFFFFF;stroke-width:6;stroke-linecap:round;stroke-linejoin:round;stroke-miterlimit:10;}
	.st3{fill:none;}
	.st4{fill:#FFFFFF;}
	.st5{fill:#717070;}
	.st6{fill:none;stroke:#2D2D2E;stroke-width:1.5;stroke-linecap:round;stroke-linejoin:round;stroke-miterlimit:10;}
</style><sodipodi:namedview
     bordercolor="#666666"
     borderopacity="1"
     gridtolerance="10"
     guidetolerance="10"
     id="namedview4618"
     inkscape:current-layer="Layer_1"
     inkscape:cx="-12.304026"
     inkscape:cy="25.25"
     inkscape:pageopacity="0"
     inkscape:pageshadow="2"
     inkscape:window-height="480"
     inkscape:window-maximized="0"
     inkscape:window-width="742"
     inkscape:window-x="0"
     inkscape:window-y="0"
     inkscape:zoom="4.6732673"
     objecttolerance="10"
     pagecolor="#ffffff"
     showgrid="false" /><g
     id="Layer_2"
     class="st0"><rect
       id="rect4600"
       x="-2.6"
       y="-4.7"
       class="st1"
       width="63.5"
       height="59.6" /></g><g
     id="Layer_1"><g
       id="g7" /><circle
       id="circle4604"
       class="st2"
       cx="25.2"
       cy="25.3"
       r="22.2"
       style="stroke:#ff0000;stroke-opacity:1;stroke-width:0;stroke-miterlimit:10;stroke-dasharray:none"><animate
         attributeName="stroke-width"
         attributeType="XML"
         begin="0s"
         dur="1s"
         fill="freeze"
         from="0"
         to="6" /></circle><circle
       id="circle4606"
       class="st3"
       cx="25.2"
       cy="25.3"
       r="22.2" /><circle
       id="circle4608"
       class="st4"
       cx="25.2"
       cy="25.3"
       r="22.2" /><g
       id="g4610"
       transformBehaviour="pinned"><path
         id="path4612"
         inkscape:connector-curvature="0"
         class="st5"
         d="m 15.6,33.8 c -0.3,0 -0.6,-0.1 -0.9,-0.4 -0.2,-0.2 -0.4,-0.5 -0.4,-0.9 l 0,-15 c 0,-0.3 0.1,-0.6 0.3,-0.8 0.2,-0.2 0.4,-0.4 0.7,-0.4 0.3,-0.1 0.6,0 0.8,0.1 0.3,0.1 0.5,0.3 0.6,0.6 0.3,0.8 0.7,1.5 1.1,2.3 0.3,0.7 0.6,1.4 1,2.1 0.4,0.7 0.7,1.4 1,2.1 0.3,-0.6 0.6,-1.3 1,-2.1 0.4,-0.7 0.7,-1.4 1,-2.1 0.3,-0.7 0.7,-1.5 1.1,-2.3 0.1,-0.3 0.3,-0.5 0.6,-0.6 0.3,-0.1 0.5,-0.2 0.8,-0.1 0.3,0.1 0.5,0.2 0.7,0.4 0.2,0.2 0.3,0.5 0.3,0.8 l 0,15.1 c 0,0.3 -0.1,0.6 -0.4,0.9 -0.2,0.2 -0.5,0.4 -0.9,0.4 -0.4,0 -0.6,-0.1 -0.9,-0.4 -0.2,-0.2 -0.4,-0.5 -0.4,-0.9 l 0,-9.5 c -0.2,0.5 -0.4,0.9 -0.7,1.4 -0.2,0.5 -0.4,0.9 -0.6,1.2 -0.2,0.4 -0.4,0.8 -0.6,1.2 -0.1,0.2 -0.3,0.4 -0.5,0.5 -0.2,0.1 -0.4,0.2 -0.7,0.2 -0.5,0 -0.9,-0.2 -1.1,-0.7 C 18.3,26.5 18.1,26.1 17.9,25.7 17.7,25.4 17.5,25 17.3,24.5 17.1,24 16.9,23.6 16.7,23.1 l 0,9.5 c 0,0.3 -0.1,0.6 -0.4,0.9 -0.1,0.2 -0.4,0.3 -0.7,0.3 z"
         style="fill:#717070" /><path
         id="path4614"
         inkscape:connector-curvature="0"
         class="st5"
         d="m 31.4,33.7 c -0.5,-0.1 -0.9,-0.3 -1.3,-0.6 -0.4,-0.3 -0.7,-0.6 -1,-1 -0.3,-0.4 -0.5,-0.8 -0.7,-1.2 -0.2,-0.4 -0.2,-0.9 -0.2,-1.4 l 0,-8.9 c 0,-0.5 0.1,-1 0.2,-1.4 0.2,-0.5 0.4,-0.9 0.7,-1.3 0.3,-0.4 0.6,-0.7 1,-1 0.4,-0.3 0.8,-0.5 1.3,-0.6 1,-0.3 1.9,-0.2 2.8,0.2 0.9,0.4 1.6,1 2.1,1.9 0.2,0.3 0.2,0.6 0.1,0.9 -0.1,0.3 -0.3,0.6 -0.6,0.8 -0.3,0.2 -0.6,0.2 -0.9,0.1 -0.3,-0.1 -0.6,-0.3 -0.8,-0.6 -0.2,-0.4 -0.5,-0.6 -0.9,-0.8 -0.4,-0.2 -0.8,-0.2 -1.2,-0.1 -0.4,0.1 -0.7,0.3 -1,0.7 -0.3,0.3 -0.4,0.7 -0.4,1.1 l 0,8.9 c 0,0.4 0.1,0.8 0.4,1.1 0.3,0.3 0.6,0.6 1,0.7 0.4,0.1 0.8,0.1 1.2,-0.1 0.4,-0.2 0.7,-0.4 0.9,-0.8 0.2,-0.3 0.5,-0.5 0.8,-0.6 0.3,-0.1 0.6,-0.1 0.9,0.1 0.3,0.2 0.5,0.5 0.6,0.8 0.1,0.3 0,0.6 -0.1,0.9 -0.5,0.9 -1.2,1.5 -2.1,1.9 -0.9,0.5 -1.8,0.6 -2.8,0.3 z"
         style="fill:#717070" /></g><circle
       id="circle4616"
       class="st6"
       cx="25.2"
       cy="25.3"
       r="22.2" /></g></svg>