<?xml version="1.0" encoding="utf-8"?>
<!-- Generator: Adobe Illustrator 21.0.2, SVG Export Plug-In . SVG Version: 6.00 Build 0)  -->
<svg version="1.1" xmlns="http://www.w3.org/2000/svg" xmlns:xlink="http://www.w3.org/1999/xlink" x="0px" y="0px" width="73.7px"
	 height="130.4px" viewBox="0 0 73.7 130.4" style="enable-background:new 0 0 73.7 130.4;" xml:space="preserve">
<style type="text/css">
	.st0{display:none;}
	.st1{display:inline;fill:#007094;stroke:#000000;stroke-miterlimit:10;}
	.st2{display:inline;fill:#D83D3D;}
	.st3{display:inline;fill:#F5821F;}
	.st4{fill:none;stroke:#FFFFFF;stroke-width:6;stroke-linecap:round;stroke-linejoin:round;stroke-miterlimit:10;}
	.st5{fill:#6F6F6F;}
	.st6{fill:#006C85;}
	.st7{fill:none;stroke:#D2D2D2;stroke-linecap:round;stroke-linejoin:round;stroke-miterlimit:10;}
	.st8{fill:none;stroke:#D2D2D2;stroke-linecap:round;stroke-linejoin:round;}
	.st9{fill:none;stroke:#2D2D2D;stroke-width:1.5;stroke-linecap:round;stroke-linejoin:round;stroke-miterlimit:10;}
	.st10{fill:#F5821F;}
</style>
<g id="Layer_2_2_" class="st0">
	<rect x="-9.3" y="-3.2" class="st1" width="90.5" height="145.2"/>
</g>
<g id="Layer_1">
	<g id="Layer_2_1_" class="st0">
		<rect x="4.4" y="6.4" class="st2" width="63.2" height="117.2"/>
	</g>
	<g id="Layer_1_2_">
		<g id="Layer_2" class="st0">
			<rect x="2.2" y="2.7" class="st3" width="74.5" height="125.2"/>
		</g>
		<g id="Layer_1_1_">
			<path class="st4" d="M36.8,3.3C26,3.3,8.7,9.8,8.7,20.6v4.9v79.4v4.9c0,10.8,17.4,17.4,28.2,17.4S65,120.7,65,109.9v-4.9V25.6
				v-4.9C65,9.8,47.8,3.3,36.8,3.3z"/>
			<path class="st5" d="M36.8,3.3C26,3.3,8.7,9.8,8.7,20.6v4.9v79.4v4.9c0,10.8,17.4,17.4,28.2,17.4S65,120.7,65,109.9v-4.9V25.6
				v-4.9C65,9.8,47.8,3.3,36.8,3.3z"/>
			<path class="st6" d="M61.8,50.8h-2.9l-2-0.3l-2.4-1l-3.3,0.3l-2.6,1.2l-2.6,0.5l-2.6-1.2l-2.6-0.9l-2.9,0.8l-3.5,0.7l-3-0.3
				l-2.4-1h-2.2l-2.9,1.4h-2.8l-2.8-0.5l-2.2-0.9l-2.9,0.1l-2.9,1.3H8.8v54.2v4.9c0,10.8,17.4,17.4,28.2,17.4s28.2-6.6,28.2-17.4
				v-4.9V49.7L61.8,50.8z"/>
			<g>
				<path class="st7" d="M8.7,50.8c4,0,3.1-1.5,6.3-1.5s2,1.5,6.4,1.5c4,0,3.2-1.5,6.3-1.5s2,1.5,6.4,1.5c4,0,3.2-1.5,6.3-1.5
					c3.1,0,2,1.5,6.4,1.5c4,0,3.2-1.5,6.3-1.5s2,1.5,6.4,1.5"/>
				<path class="st7" d="M59.8,50.8c3.5,0,3.3-1.2,5.2-1.4"/>
			</g>
			<g>
				<line class="st8" x1="36.8" y1="3.3" x2="36.8" y2="99.7"/>
				<ellipse class="st8" cx="43.1" cy="99.7" rx="6.2" ry="2.9"/>
				<ellipse class="st8" cx="30.6" cy="99.7" rx="6.2" ry="2.9"/>
			</g>
			<path class="st9" d="M36.8,3.3C26,3.3,8.7,9.8,8.7,20.6v4.9v79.4v4.9c0,10.8,17.4,17.4,28.2,17.4S65,120.7,65,109.9v-4.9V25.6
				v-4.9C65,9.8,47.8,3.3,36.8,3.3z"/>
			<g>
				<polygon class="st10" points="36.3,108.1 31.6,113.5 34.4,119.9 38.2,115.4 38.6,114.3 				"/>
				<polygon class="st10" points="28.1,91.6 30.7,89.4 31.6,87.3 32.1,82.9 30.7,81.4 29.8,81.8 28,85.5 27.4,88.6 				"/>
				<polygon class="st10" points="47.9,90.1 44.5,89.9 44,91.4 44.9,92.2 45.9,92.2 				"/>
				<polygon class="st10" points="26,110.9 27.3,107.8 26.1,106.8 25.1,107.4 24.8,108.4 				"/>
				<polygon class="st10" points="19.9,81.8 19.2,80.2 17.6,79.6 16.6,80.4 16.1,81.6 17.1,82.3 18.7,82.5 				"/>
				<polygon class="st10" points="22.1,115.4 20.6,116.2 20.2,117.9 21.1,118.9 22.2,119.2 22.8,118.3 22.9,116.7 				"/>
				<polygon class="st10" points="55.5,91.5 54.2,91 52.6,91.5 52.6,93 54.1,93.4 55,92.6 				"/>
				<polygon class="st10" points="29.6,71.6 26.5,69.7 24.8,69.7 23.5,71.4 22.6,73.2 24.2,74.2 26.5,74.8 28,74.2 				"/>
				<polygon class="st10" points="61.6,62.5 59.3,61.5 57.8,62.7 59,63.7 59.8,63.7 				"/>
				<polygon class="st10" points="21.9,62.6 20.7,59.9 17.7,59.5 13,62.3 18.3,65.3 20.6,64.9 21.7,63.8 				"/>
				<polygon class="st10" points="19.4,106.1 18.7,104.1 17.5,103.1 16,102.8 14.2,103.5 13,105.3 13.5,107.7 14.5,108.9 
					16.3,108.9 18.4,108.2 				"/>
				<polygon class="st10" points="59.5,80.4 57.4,80.4 56.1,81.1 55.2,82.4 55.2,84.4 56.6,86.1 59,86.5 60.4,86 61.1,84.4 
					61.1,82.1 				"/>
				<polygon class="st10" points="31.3,62.8 30.6,64 28.4,64.7 26,62.4 26.5,61.1 28.7,60.1 30.7,61.9 				"/>
				<polygon class="st10" points="43.3,65.5 42.4,64.5 42.5,62.2 45.4,60.5 46.4,61.5 46.7,63.9 44.3,65.3 				"/>
				<polygon class="st10" points="47.9,119.6 47.3,120.8 45.1,121.6 42.6,119.4 42.9,118.2 45,117 47.2,118.6 				"/>
				<polygon class="st10" points="19.9,94.1 18,90.3 15,90.3 15.7,91.9 16.4,92.9 				"/>
				<polygon class="st10" points="48.1,81.9 48.7,76.5 46.4,74.9 43.9,73.9 43.2,77.5 44.1,79.5 				"/>
				<polygon class="st10" points="60.9,71.7 60.2,70 58.9,68.7 54.2,68.7 52.6,70.9 53.9,72.7 55,73.9 59.3,73.9 				"/>
				<polygon class="st10" points="59.2,100.1 54.2,104 52.8,106.9 53.2,110.9 55.7,110 57.9,108.1 59.6,104.9 				"/>
				<polygon class="st10" points="41.6,109.5 42.4,110.7 43.9,111.3 44.7,110.1 43.9,108.9 42.6,108.9 				"/>
				<polygon class="st10" points="16.6,70.6 15.6,71.9 15.8,73.5 16.9,74.1 18.1,74 18.4,72.9 17.9,71.2 				"/>
			</g>
		</g>
	</g>
</g>
</svg>
