<?xml version="1.0" encoding="utf-8"?>
<!-- Generator: Adobe Illustrator 21.0.2, SVG Export Plug-In . SVG Version: 6.00 Build 0)  -->
<svg version="1.1" id="Layer_1" xmlns="http://www.w3.org/2000/svg" xmlns:xlink="http://www.w3.org/1999/xlink" x="0px" y="0px"
	 width="146.1px" height="31px" viewBox="0 0 146.1 31" style="enable-background:new 0 0 146.1 31;" xml:space="preserve">
<style type="text/css">
	.st0{display:none;}
	.st1{display:inline;fill:#EF29D8;}
	.st2{display:inline;fill:#E80F0F;}
	.st3{fill:none;stroke:#FFFFFF;stroke-width:6;stroke-linecap:round;stroke-linejoin:round;stroke-miterlimit:10;}
	.st4{fill:url(#SVGID_1_);}
	.st5{fill:none;stroke:#2D2D2D;stroke-width:1.5;stroke-linecap:round;stroke-linejoin:round;stroke-miterlimit:10;}
	.st6{fill:#F5821F;}
</style>
<g id="Layer_2_1_" class="st0">
	<rect x="-2.5" y="-2.8" class="st1" width="155.7" height="36.8"/>
</g>
<g id="Layer_2" class="st0">
	<rect x="-14.3" y="-11.8" class="st2" width="178" height="56"/>
</g>
<g id="Layer_1_1_">
	<path class="st3" d="M3,20.1h7.1c0.6,4.6,2,7.9,3.6,7.9h118c1.6,0,3.1-3.3,3.6-7.9h7.8v-8.7h-7.7c-0.5-4.9-2-8.4-3.7-8.4h-118
		C12,3,10.6,6.5,10,11.4H3L3,20.1L3,20.1z"/>
	
		<linearGradient id="SVGID_1_" gradientUnits="userSpaceOnUse" x1="3" y1="578.78" x2="143.1" y2="578.78" gradientTransform="matrix(-1 0 0 -1 146.1 594.28)">
		<stop  offset="0" style="stop-color:#DCFFFF"/>
		<stop  offset="9.794998e-02" style="stop-color:#AEE0E5"/>
		<stop  offset="0.2111" style="stop-color:#80C2CC"/>
		<stop  offset="0.3287" style="stop-color:#59A7B6"/>
		<stop  offset="0.449" style="stop-color:#3992A4"/>
		<stop  offset="0.573" style="stop-color:#208197"/>
		<stop  offset="0.7021" style="stop-color:#0E758D"/>
		<stop  offset="0.8396" style="stop-color:#036E87"/>
		<stop  offset="1" style="stop-color:#006C85"/>
	</linearGradient>
	<path class="st4" d="M3,20.1h7.1c0.6,4.6,2,7.9,3.6,7.9h118c1.6,0,3.1-3.3,3.6-7.9h7.8v-8.7h-7.7c-0.5-4.9-2-8.4-3.7-8.4h-118
		C12,3,10.6,6.5,10,11.4H3L3,20.1L3,20.1z"/>
</g>
<path class="st5" d="M3,20.1h7.1c0.6,4.6,2,7.9,3.6,7.9h118c1.6,0,3.1-3.3,3.6-7.9h7.8v-8.7h-7.7c-0.5-4.9-2-8.4-3.7-8.4h-118
	C12,3,10.6,6.5,10,11.4H3L3,20.1L3,20.1z"/>
<g id="Layer_2_2_">
	<polygon class="st6" points="108.8,22.5 114.9,23 117.9,17.6 112.8,17.3 111.8,17.7 	"/>
	<polygon class="st6" points="106.9,16.6 103,17.5 101,19.2 98,23.6 98.7,25.8 99.8,25.8 103.8,23.1 106,20.2 	"/>
	<polygon class="st6" points="59.9,11.7 59.8,14.6 61,15.1 61.8,14.3 61.8,13.4 	"/>
	<polygon class="st6" points="64.4,7.4 63,8 62.5,9.4 63.3,10.3 64.3,10.7 64.8,9.9 65,8.5 	"/>
	<polygon class="st6" points="60,21 59.6,22.1 60,23.5 61.3,23.5 61.8,22.2 61,21.4 	"/>
	<polygon class="st6" points="80.5,6.5 78.9,9.1 78.9,10.6 80.3,11.7 81.9,12.6 82.8,11.2 83.3,9.2 82.8,7.9 	"/>
	<polygon class="st6" points="69.2,10.5 68.3,12.5 69.3,13.8 70.2,12.7 70.2,12 	"/>
	<polygon class="st6" points="89.9,5.7 87.5,6.7 87.3,9.3 89.7,13.4 92.3,8.8 91.9,6.8 90.9,5.9 	"/>
	<polygon class="st6" points="90,19.5 88.3,20.1 87.4,21.1 87.2,22.4 87.8,24 89.3,25 91.4,24.6 92.4,23.7 92.4,22.2 91.8,20.3 	"/>
	<polygon class="st6" points="75.8,12.9 76.8,13.5 77.3,15.4 75.3,17.5 74.3,17.1 73.3,15.2 74.9,13.4 	"/>
	<polygon class="st6" points="72.2,19.8 68.8,21.5 68.8,24.1 70.3,23.5 71,22.9 	"/>
	<polygon class="st6" points="84.3,18.7 79.7,18.2 78.3,20.2 77.3,22.4 80.4,23 82.3,22.2 	"/>
	<polygon class="st6" points="97.3,11.1 95.8,11.7 94.8,12.8 94.8,16.9 96.7,18.3 98.3,17.2 99.3,16.2 99.3,12.5 	"/>
	<polygon class="st6" points="122.3,9.1 117.9,10.6 118.2,12 119.3,15 124.3,18 126.8,18.6 129.8,18.1 129.8,15.3 128.8,13.9 	"/>
	<polygon class="st6" points="105.7,5.1 105.9,10.5 107.3,12.9 110.3,14.7 110.9,12.4 110.7,9.9 109.3,7.1 	"/>
	<polygon class="st6" points="64.6,19.8 65.6,19.1 66.1,17.8 65.1,17.1 64,17.8 64,18.9 	"/>
	<polygon class="st6" points="72.8,9.3 74,10.2 75.4,10 75.9,9 75.8,8 74.8,7.7 73.4,8.2 	"/>
</g>
</svg>
