<?xml version="1.0" encoding="utf-8"?>
<!-- Generator: Adobe Illustrator 21.0.2, SVG Export Plug-In . SVG Version: 6.00 Build 0)  -->
<svg version="1.1" id="Layer_1" xmlns="http://www.w3.org/2000/svg" xmlns:xlink="http://www.w3.org/1999/xlink" x="0px" y="0px"
	 width="146.1px" height="31px" viewBox="0 0 146.1 31" style="enable-background:new 0 0 146.1 31;" xml:space="preserve">
<style type="text/css">
	.st0{display:none;}
	.st1{display:inline;fill:#EF29D8;}
	.st2{display:inline;fill:#E80F0F;}
	.st3{fill:none;stroke:#FFFFFF;stroke-width:6;stroke-linecap:round;stroke-linejoin:round;stroke-miterlimit:10;}
	.st4{fill:url(#SVGID_1_);}
	.st5{fill:none;stroke:#2D2D2D;stroke-width:1.5;stroke-linecap:round;stroke-linejoin:round;stroke-miterlimit:10;}
</style>
<g id="Layer_2_1_" class="st0">
	<rect x="-2.5" y="-2.8" class="st1" width="155.7" height="36.8"/>
</g>
<g id="Layer_1_2_">
	<g id="Layer_2" class="st0">
		<rect x="-14.3" y="-11.8" class="st2" width="178" height="56"/>
	</g>
	<g id="Layer_1_1_">
		<path class="st3" d="M143.1,10.9H136c-0.6-4.6-2-7.9-3.6-7.9h-118c-1.6,0-3.1,3.3-3.6,7.9H3v8.7h7.7c0.5,4.9,2,8.4,3.7,8.4h118
			c1.7,0,3.1-3.5,3.7-8.4h7L143.1,10.9L143.1,10.9z"/>
		
			<linearGradient id="SVGID_1_" gradientUnits="userSpaceOnUse" x1="3" y1="578.78" x2="143.1" y2="578.78" gradientTransform="matrix(1 0 0 1 0 -563.28)">
			<stop  offset="0" style="stop-color:#DCFFFF"/>
			<stop  offset="9.794998e-02" style="stop-color:#AEE0E5"/>
			<stop  offset="0.2111" style="stop-color:#80C2CC"/>
			<stop  offset="0.3287" style="stop-color:#59A7B6"/>
			<stop  offset="0.449" style="stop-color:#3992A4"/>
			<stop  offset="0.573" style="stop-color:#208197"/>
			<stop  offset="0.7021" style="stop-color:#0E758D"/>
			<stop  offset="0.8396" style="stop-color:#036E87"/>
			<stop  offset="1" style="stop-color:#006C85"/>
		</linearGradient>
		<path class="st4" d="M143.1,10.9H136c-0.6-4.6-2-7.9-3.6-7.9h-118c-1.6,0-3.1,3.3-3.6,7.9H3v8.7h7.7c0.5,4.9,2,8.4,3.7,8.4h118
			c1.7,0,3.1-3.5,3.7-8.4h7L143.1,10.9L143.1,10.9z"/>
	</g>
	<path class="st5" d="M143.1,10.9H136c-0.6-4.6-2-7.9-3.6-7.9h-118c-1.6,0-3.1,3.3-3.6,7.9H3v8.7h7.7c0.5,4.9,2,8.4,3.7,8.4h118
		c1.7,0,3.1-3.5,3.7-8.4h7L143.1,10.9L143.1,10.9z"/>
</g>
</svg>
