<?xml version="1.0" encoding="utf-8"?>
<!-- Generator: Adobe Illustrator 21.0.2, SVG Export Plug-In . SVG Version: 6.00 Build 0)  -->
<svg version="1.1"
	 id="svg4624" inkscape:version="0.91 r13725" sodipodi:docname="plasma concentration monitor.svg" xmlns:cc="http://creativecommons.org/ns#" xmlns:dc="http://purl.org/dc/elements/1.1/" xmlns:inkscape="http://www.inkscape.org/namespaces/inkscape" xmlns:rdf="http://www.w3.org/1999/02/22-rdf-syntax-ns#" xmlns:sodipodi="http://sodipodi.sourceforge.net/DTD/sodipodi-0.dtd" xmlns:svg="http://www.w3.org/2000/svg"
	 xmlns="http://www.w3.org/2000/svg" xmlns:xlink="http://www.w3.org/1999/xlink" x="0px" y="0px" width="50.5px" height="50.5px"
	 viewBox="0 0 50.5 50.5" style="enable-background:new 0 0 50.5 50.5;" xml:space="preserve">
<style type="text/css">
	.st0{display:none;}
	.st1{display:inline;fill:#1EFF00;stroke:#000000;stroke-miterlimit:10;}
	.st2{fill:none;stroke:#FFFFFF;stroke-width:6;stroke-linecap:round;stroke-linejoin:round;stroke-miterlimit:10;}
	.st3{fill:none;}
	.st4{fill:#FFFFFF;}
	.st5{fill:#717070;}
	.st6{fill:none;stroke:#2D2D2E;stroke-width:1.5;stroke-linecap:round;stroke-linejoin:round;stroke-miterlimit:10;}
</style>
<sodipodi:namedview  bordercolor="#666666" borderopacity="1" gridtolerance="10" guidetolerance="10" id="namedview4653" inkscape:current-layer="Layer_1" inkscape:cx="25.25" inkscape:cy="25.25" inkscape:pageopacity="0" inkscape:pageshadow="2" inkscape:window-height="480" inkscape:window-maximized="0" inkscape:window-width="742" inkscape:window-x="0" inkscape:window-y="0" inkscape:zoom="4.6732673" objecttolerance="10" pagecolor="#ffffff" showgrid="false">
	</sodipodi:namedview>
<g id="Layer_2" class="st0">
	<rect id="rect4629" x="-2.6" y="-4.7" class="st1" width="63.5" height="59.6"/>
</g>
<g id="Layer_1">
	<g id="g7">
	</g>
	<circle id="circle4633" class="st2" cx="25.2" cy="25.2" r="22.1"/>
	<circle id="circle4635" class="st3" cx="25.2" cy="25.2" r="22.1"/>
	<circle id="circle4637" class="st4" cx="25.2" cy="25.2" r="22.1"/>
	<g id="g4639">
		<g id="g4641">
			<path id="path4643" inkscape:connector-curvature="0" class="st5" d="M28.7,43.9c-0.6,0-1.1-0.4-1.1-1.1V21.4
				c0-0.9,0.4-1.7,1.1-2.4c0.6-0.6,1.5-1.1,2.4-1.1h1.3c0.9,0,1.7,0.4,2.4,1.1c0.6,0.6,1.1,1.5,1.1,2.4v8.2c0,0.9-0.4,1.7-1.1,2.4
				c-0.6,0.6-1.5,1.1-2.4,1.1H30v9.5C29.7,43.5,29.1,43.9,28.7,43.9z M30.8,20.3c-0.4,0-0.6,0.2-0.9,0.4c-0.3,0.2-0.4,0.4-0.4,0.9
				v9.5h2.4c0.4,0,0.6-0.2,0.9-0.4c0.2-0.2,0.4-0.4,0.4-0.9v-8.2c0-0.4-0.2-0.6-0.4-0.9c-0.2-0.2-0.4-0.4-0.9-0.4
				C31.9,20.3,30.8,20.3,30.8,20.3z"/>
		</g>
		<g id="g4645">
			<g id="g4647">
				<path id="path4649" inkscape:connector-curvature="0" class="st5" d="M14.8,28.8V18.4c0-2.4,1.5-4.3,3.7-5
					c2.4-0.6,4.5,0.4,5.6,2.4c0.4,0.6,0.2,1.5-0.4,1.9s-1.5,0.2-1.9-0.6c-0.4-0.9-1.5-1.3-2.4-1.1c-0.9,0.2-1.5,1.1-1.5,2.2v10.4
					c0,1.1,0.6,1.9,1.5,2.2c0.9,0.3,1.9-0.2,2.4-1.1c0.4-0.6,1.3-0.9,1.9-0.6c0.6,0.4,0.9,1.3,0.4,1.9c-1.1,1.9-3.5,3-5.6,2.4
					C16.5,33.1,14.8,30.9,14.8,28.8z"/>
			</g>
		</g>
	</g>
	<circle id="circle4651" class="st6" cx="25.2" cy="25.2" r="22.1"/>
</g>
</svg>
