<?xml version="1.0" encoding="UTF-8" standalone="no"?>
<!-- Generator: Adobe Illustrator 21.0.2, SVG Export Plug-In . SVG Version: 6.00 Build 0)  -->

<svg
   xmlns:dc="http://purl.org/dc/elements/1.1/"
   xmlns:cc="http://creativecommons.org/ns#"
   xmlns:rdf="http://www.w3.org/1999/02/22-rdf-syntax-ns#"
   xmlns:svg="http://www.w3.org/2000/svg"
   xmlns="http://www.w3.org/2000/svg"
   xmlns:sodipodi="http://sodipodi.sourceforge.net/DTD/sodipodi-0.dtd"
   xmlns:inkscape="http://www.inkscape.org/namespaces/inkscape"
   version="1.1"
   x="0px"
   y="0px"
   width="50.5px"
   height="50.5px"
   viewBox="0 0 50.5 50.5"
   style="enable-background:new 0 0 50.5 50.5;"
   xml:space="preserve"
   id="svg4567"
   inkscape:version="0.91 r13725"
   sodipodi:docname="roll gap controller.svg"><metadata
     id="metadata4593"><rdf:RDF><cc:Work
         rdf:about=""><dc:format>image/svg+xml</dc:format><dc:type
           rdf:resource="http://purl.org/dc/dcmitype/StillImage" /></cc:Work></rdf:RDF></metadata><defs
     id="defs4591" /><sodipodi:namedview
     pagecolor="#ffffff"
     bordercolor="#666666"
     borderopacity="1"
     objecttolerance="10"
     gridtolerance="10"
     guidetolerance="10"
     inkscape:pageopacity="0"
     inkscape:pageshadow="2"
     inkscape:window-width="742"
     inkscape:window-height="480"
     id="namedview4589"
     showgrid="false"
     inkscape:zoom="4.6732673"
     inkscape:cx="25.25"
     inkscape:cy="25.25"
     inkscape:window-x="0"
     inkscape:window-y="0"
     inkscape:window-maximized="0"
     inkscape:current-layer="Layer_1" /><style
     type="text/css"
     id="style4569">
	.st0{display:none;}
	.st1{display:inline;fill:#1EFF00;stroke:#000000;stroke-miterlimit:10;}
	.st2{fill:none;stroke:#FFFFFF;stroke-width:6;stroke-linecap:round;stroke-linejoin:round;stroke-miterlimit:10;}
	.st3{fill:#FFFFFF;}
	.st4{fill:none;stroke:#2D2D2E;stroke-width:1.5;stroke-linecap:round;stroke-linejoin:round;stroke-miterlimit:10;}
	.st5{fill:#707070;}
</style><g
     id="Layer_2"
     class="st0"><rect
       x="-2.6"
       y="-4.7"
       class="st1"
       width="63.5"
       height="59.6"
       id="rect4572" /></g><g
     id="Layer_1"><g
       id="g7" /><g
       id="Layer_1_34_"><circle
         class="st2"
         cx="25.3"
         cy="25.2"
         r="22.2"
         id="circle4577" /><circle
         class="st3"
         cx="25.3"
         cy="25.2"
         r="22.2"
         id="circle4579" /><circle
         class="st4"
         cx="25.3"
         cy="25.2"
         r="22.2"
         id="circle4581" /></g><g
       id="g4583"
       transformBehaviour="pinned"><path
         class="st5"
         d="m 23.7,24.6 c -0.4,0.7 -1,1.3 -1.8,1.7 l 2.4,6.4 c 0.1,0.3 0.1,0.7 0,1 -0.2,0.3 -0.4,0.6 -0.8,0.7 -0.3,0.1 -0.7,0.1 -1,0 -0.3,-0.1 -0.6,-0.4 -0.7,-0.7 l -2.5,-6.8 -1.5,0 0,6.3 c 0,0.4 -0.1,0.7 -0.4,0.9 -0.3,0.3 -0.6,0.4 -0.9,0.4 -0.4,0 -0.7,-0.1 -0.9,-0.4 -0.3,-0.3 -0.4,-0.6 -0.4,-0.9 l 0,-15.9 c 0,-0.4 0.1,-0.7 0.4,-0.9 0.3,-0.3 0.6,-0.4 0.9,-0.4 l 3.3,0 c 0.6,0 1.2,0.1 1.8,0.4 0.6,0.2 1,0.6 1.5,1 0.4,0.4 0.7,0.9 1,1.5 0.2,0.6 0.4,1.2 0.4,1.8 l 0,1.5 c -0.1,0.8 -0.4,1.6 -0.8,2.4 z m -5.9,-0.5 2,0 c 0.5,0 1,-0.2 1.4,-0.6 0.4,-0.4 0.6,-0.8 0.6,-1.4 l 0,-1.5 c 0,-0.5 -0.2,-1 -0.6,-1.4 -0.4,-0.4 -0.8,-0.6 -1.4,-0.6 l -2,0 0,5.5 z"
         id="path4585"
         inkscape:connector-curvature="0"
         style="fill:#707070" /><path
         class="st5"
         d="m 35,24.5 c 0.3,0.3 0.4,0.6 0.4,0.9 l 0,4.4 c 0,0.6 -0.1,1.2 -0.4,1.8 -0.2,0.6 -0.6,1 -1,1.5 -0.4,0.4 -0.9,0.7 -1.5,1 -0.6,0.2 -1.2,0.4 -1.8,0.4 -0.6,0 -1.2,-0.1 -1.8,-0.4 -0.6,-0.2 -1,-0.6 -1.4,-1 -0.4,-0.4 -0.7,-0.9 -1,-1.5 -0.2,-0.6 -0.4,-1.2 -0.4,-1.8 l 0,-9.3 c 0,-0.5 0.1,-1 0.2,-1.5 0.2,-0.5 0.4,-0.9 0.7,-1.3 0.3,-0.4 0.7,-0.7 1.1,-1 0.4,-0.3 0.9,-0.5 1.4,-0.6 0.5,-0.1 1,-0.2 1.5,-0.1 0.5,0 1,0.1 1.4,0.3 0.5,0.2 0.9,0.5 1.3,0.8 0.4,0.3 0.7,0.7 1,1.2 0.2,0.3 0.2,0.6 0.1,1 -0.1,0.3 -0.3,0.6 -0.6,0.8 -0.3,0.2 -0.6,0.2 -1,0.1 -0.3,-0.1 -0.6,-0.3 -0.8,-0.6 -0.2,-0.4 -0.6,-0.7 -1,-0.8 -0.4,-0.2 -0.8,-0.2 -1.2,-0.1 -0.4,0.1 -0.8,0.3 -1.1,0.7 -0.3,0.4 -0.4,0.8 -0.4,1.2 l 0,9.3 c 0,0.5 0.2,1 0.6,1.4 0.4,0.4 0.9,0.6 1.4,0.6 0.5,0 1,-0.2 1.4,-0.6 0.4,-0.4 0.6,-0.8 0.6,-1.4 l 0,-3.1 -1.4,0 c -0.4,0 -0.7,-0.1 -0.9,-0.4 -0.3,-0.3 -0.4,-0.6 -0.4,-0.9 0,-0.4 0.1,-0.7 0.4,-0.9 0.3,-0.3 0.6,-0.4 0.9,-0.4 l 2.7,0 c 0.4,-0.1 0.7,0 1,0.3 z"
         id="path4587"
         inkscape:connector-curvature="0"
         style="fill:#707070" /></g></g></svg>