<?xml version="1.0" encoding="UTF-8" standalone="no"?>
<!-- Generator: Adobe Illustrator 21.0.2, SVG Export Plug-In . SVG Version: 6.00 Build 0)  -->

<svg
   xmlns:dc="http://purl.org/dc/elements/1.1/"
   xmlns:cc="http://creativecommons.org/ns#"
   xmlns:rdf="http://www.w3.org/1999/02/22-rdf-syntax-ns#"
   xmlns:svg="http://www.w3.org/2000/svg"
   xmlns="http://www.w3.org/2000/svg"
   xmlns:sodipodi="http://sodipodi.sourceforge.net/DTD/sodipodi-0.dtd"
   xmlns:inkscape="http://www.inkscape.org/namespaces/inkscape"
   version="1.1"
   x="0px"
   y="0px"
   width="50.5px"
   height="59.8px"
   viewBox="0 0 50.5 59.8"
   style="enable-background:new 0 0 50.5 59.8;"
   xml:space="preserve"
   id="svg3652"
   inkscape:version="0.91 r13725"
   sodipodi:docname="saturation level sensor.svg"><metadata
     id="metadata3701"><rdf:RDF><cc:Work
         rdf:about=""><dc:format>image/svg+xml</dc:format><dc:type
           rdf:resource="http://purl.org/dc/dcmitype/StillImage" /></cc:Work></rdf:RDF></metadata><defs
     id="defs3699" /><sodipodi:namedview
     pagecolor="#ffffff"
     bordercolor="#666666"
     borderopacity="1"
     objecttolerance="10"
     gridtolerance="10"
     guidetolerance="10"
     inkscape:pageopacity="0"
     inkscape:pageshadow="2"
     inkscape:window-width="742"
     inkscape:window-height="480"
     id="namedview3697"
     showgrid="false"
     inkscape:zoom="3.9464883"
     inkscape:cx="25.25"
     inkscape:cy="29.9"
     inkscape:window-x="0"
     inkscape:window-y="0"
     inkscape:window-maximized="0"
     inkscape:current-layer="Layer_1" /><style
     type="text/css"
     id="style3654">
	.st0{display:none;}
	.st1{display:inline;fill:#6AADFF;stroke:#000000;stroke-miterlimit:10;}
	.st2{display:inline;fill:#EEE52F;}
	.st3{display:inline;fill:#FFFFFF;}
	.st4{display:inline;fill:#006899;stroke:#006899;stroke-width:0.1498;stroke-linecap:round;stroke-linejoin:round;}
	.st5{fill:none;}
	.st6{fill:none;stroke:#FFFFFF;stroke-width:6;stroke-linecap:round;stroke-linejoin:round;stroke-miterlimit:10;}
	.st7{fill:#FFFFFF;}
	.st8{fill:none;stroke:#2D2D2E;stroke-width:1.5;stroke-linecap:round;stroke-linejoin:round;stroke-miterlimit:10;}
	.st9{fill:none;stroke:#727070;stroke-linecap:round;stroke-linejoin:round;stroke-miterlimit:10;}
	.st10{fill:#727070;}
</style><g
     id="Layer_2_1_"
     class="st0"><rect
       x="-10.5"
       y="-4.1"
       class="st1"
       width="66.9"
       height="70.1"
       id="rect3657" /></g><g
     id="Layer_1"><g
       id="Layer_2"
       class="st0"><rect
         x="-70.1"
         y="-60.3"
         class="st2"
         width="242"
         height="197.7"
         id="rect3661" /></g><g
       id="_x30__1_"
       inkscape:version="0.48.4 r9939"
       sodipodi:docname="pid controller.svg"><sodipodi:namedview
         bordercolor="#666666"
         borderopacity="1"
         gridtolerance="10"
         guidetolerance="10"
         id="namedview9"
         inkscape:current-layer="1"
         inkscape:cx="100.91701"
         inkscape:cy="50.283773"
         inkscape:pageopacity="0"
         inkscape:pageshadow="2"
         inkscape:window-height="1018"
         inkscape:window-maximized="1"
         inkscape:window-width="1920"
         inkscape:window-x="-8"
         inkscape:window-y="-8"
         inkscape:zoom="2.8405582"
         objecttolerance="10"
         pagecolor="#ffffff"
         showgrid="true"><inkscape:grid
           id="grid2986"
           type="xygrid" /></sodipodi:namedview><g
         id="_x31__1_"
         class="st0"><path
           id="_x32__1_"
           inkscape:connector-curvature="0"
           class="st3"
           d="M-33.5,35.9v-4l0.4-4l0.4-3.9l0.6-3.9l1-3.9l0.9-3.6     l1.3-3.6l1.4-3.6l1.4-3.4l1.7-3.4l1.9-3.1l2.1-3.1l2.1-3l2.3-3l2.3-3l2.6-2.6l2.7-2.6l2.7-2.6l3-2.3l3.1-2.1l3-1.9L7-32.4     l3.1-1.7l4.3-2.4l3.4-1.3l3.6-1.3l4-1L29-41l3.9-0.6l4.1-0.7l3.9-0.1h4h4l4.1,0.1l3.9,0.6l3.9,0.6l3.9,0.9l3.6,1l3.6,1.3l3.7,1.4     l3.4,1.7l3.4,1.7l3.1,1.9l3.1,1.9l3,2.1l3,2.3l2.7,2.6l2.7,2.6l2.6,2.6l2.6,3l2.3,3l2.1,3l1.9,3.1l1.9,3.1l1.7,3.4l1.4,3.4     l1.4,3.6l1.3,3.6l1,3.6l0.9,3.9l0.6,3.9l0.4,3.9l0.4,4v4v3.9l-0.4,4l-0.4,3.9l-0.6,3.9l-0.9,3.9l-1,3.6l-1.3,3.6l-1.4,3.6     l-1.4,3.4l-1.7,3.4l-1.9,3.1l-1.9,3.1l-2.1,3.1l-2.3,2.7l-2.6,3l-2.6,2.6l-2.7,2.7l-2.7,2.3l-3,2.3l-3,2.1l-3.1,2.1l-3.1,1.9     l-3.4,1.7l-3.4,1.4l-3.6,1.4l-3.6,1l-3.6,1l-3.9,0.9l-3.9,0.9l-3.9,0.4l-4,0.1l-4,0.1l-4-0.1l-3.9-0.1l-3.9-0.4l-4-0.9l-3.6-0.9     l-3.9-1l-3.6-1l-3.4-1.4l-3.6-1.4l-3.1-1.7l-3.4-1.9l-3-2.1l-3.1-2.1l-3-2.3L-7,92.6l-2.7-2.7l-3.4-1.3l-2.3-3l-2.3-2.7l-2.1-3.1     l-2.3-3.4l-1.9-3.1l-1.7-3.4l-1.4-3.4l-1.4-3.6l-1.3-3.6l-0.9-3.6l-1-3.9l-0.6-3.9l-0.4-3.9l-0.4-4     C-33.5,39.8-33.5,35.9-33.5,35.9z" /><path
           id="_x33__1_"
           inkscape:connector-curvature="0"
           class="st4"
           d="M-37,35.9v-4l0.4-4.1l0.4-4l0.6-4l1-3.9l1-3.9l1-3.6     l1.4-3.9l1.7-3.4l1.7-3.4l1.9-3.4l2.1-3.4l2.1-3l2.6-3.1l2.3-2.7l2.7-2.7l2.7-2.7l3-2.6l3-2.3l3.1-2.1L1-32.5l3.4-1.9l3.4-1.9     l3.4-1.4l3.9-1.4l3.6-1.3l4.6-1.9l3.9-0.9l4-0.6l4-0.6l4-0.1l4-0.1l4,0.1l4.3,0.1l3.9,0.6l4.4,0.6l3.9,0.9l3.9,1l3.9,1.3l3.6,1.4     l3.4,1.4l3.6,1.9l3.1,1.9l3.4,1.9l3,2.3l3.1,2.3l2.7,2.6l2.7,2.6l2.7,2.7l2.6,3l2.3,3l2.1,3.1l2.1,3.1l1.9,3.4l1.9,3.4l1.4,3.6     l1.4,3.6l1.3,3.9l1,3.6l0.9,4l0.6,3.9l0.6,4l0.1,4l0.1,4.3l-0.1,4l-0.1,4l-0.4,4l-0.9,3.9l-0.9,4l-1,3.9l-1.3,3.6l-1.4,3.6     l-1.4,3.6l-1.7,3.4l-2.1,3.4l-1.9,3.1l-2.3,3.1l-2.3,3l-2.6,3l-2.6,2.7l-2.7,2.6l-3,2.6l-3,2.3l-3.1,2.3l-3.1,2.1l-3.4,1.9     l-3.4,1.7l-3.6,1.7l-3.6,1.3l-3.6,1.3l-3.9,1l-3.9,3.1l-3.9,0.6l-4,0.4l-4,0.4h-4h-4.3l-4-0.4l-4-0.4l-3.9-0.6l-4-0.9l-3.6-1     l-3.9-1.3l-3.6-1.4l-3.6-1.7l-3.4-1.7l-3.4-1.9l-3.1-2.1l-3.1-2.1l-3-2.3l-3-2.6l-2.7-2.7l-3.3-3.1l-2.6-2.7l-2.3-3.1l-2.3-3     l-2.1-3.4l-2.1-3.6l-1.7-3.4l-1.7-3.4l-1.3-3.6l-1.3-3.9l-1-3.9l-1-3.9l-0.6-4l-0.4-3.9l-0.4-4.3v-4.1H-37z M-32.6,39.8l0.1,3.9     l0.6,3.9l0.6,3.6l0.9,3.6l0.9,3.6l1.3,3.6l1.3,3.4l1.7,3.4l1.4,3.1l1.9,3.1l1.9,3l2.1,3l2.3,3l2.3,2.7l2.6,2.6l2.6,2.6l2.7,2.3     l2.7,2.3l3,2.1l3.1,1.9l3,1.7l3.4,1.7l3.4,1.4l3.4,1.4l3.4,1l3.6,1l3.6,0.9l3.9,0.6l3.9,0.6l3.9,0.1l3.9,0.1l3.9-0.1l3.9-0.1     l3.9-0.6l3.9-0.6l3.6-0.9l3.6-0.9l3.4-1.3l3.6-1.3l3.1-1.4l3.4-1.7l3-1.9l3.1-1.9l3-2.1l2.7-2.3l2.7-2.3l2.7-2.6l2.3-2.6l2.6-2.7     l2.1-2.7l2.1-3l1.9-3.1l1.9-3l1.7-3.4l1.4-3.4l1.3-3.4l1.3-3.4l1-3.6l0.9-3.6l0.6-3.9l0.4-3.9l0.4-3.9v-3.9v-3.6l-0.4-3.9     l-0.4-3.9l-0.6-3.9l-0.9-3.6l-1-3.6l-1.3-3.4L112,6.5l-1.4-3.4l-1.7-3.4l-1.7-3L105-6.5l-2.1-3l-2.1-2.7L98.4-15l-2.6-2.7     L93.3-20l-2.7-2.6L89-25.1l-3-2.1l-3-1.9L79.8-31l-3.1-1.7l-3.4-1.4l-3.4-1.3l-3.6-1.3L62.6-38L59-38.8l-3.6-0.6l-3.9-0.4     L47.7-40l-3.9-0.1l-4,0.1L36-39.8l-3.9,0.4l-3.9,0.6L24.5-38L21-37l-3.6,1.3L14-34.4L10.5-33l-3.1,1.7l-3.3,1.9l-3,2.1l-3,2.1     l-3,2.1l-2.7,2.3l-2.7,2.6l-2.6,2.6l-2.3,2.7l-2.3,3l-2.1,3l-2,3.1l-1.7,3.1L-25,2.6l-1.4,3.4l-1.4,3.4l-1,3.6l-1,3.6l-0.9,3.6     l-1,3.9l-0.6,3.9l-0.1,3.9v4C-32.6,35.9-32.6,39.8-32.6,39.8z" /></g><line
         class="st5"
         x1="25.4"
         y1="45.2"
         x2="25.4"
         y2="56.6"
         id="line3669" /><circle
         class="st5"
         cx="25.4"
         cy="24.9"
         r="21.9"
         id="circle3671" /><circle
         class="st6"
         cx="25.4"
         cy="24.9"
         r="21.9"
         id="circle3673" /><line
         class="st6"
         x1="25.4"
         y1="45.2"
         x2="25.4"
         y2="56.6"
         id="line3675" /><circle
         class="st7"
         cx="25.4"
         cy="24.9"
         r="21.9"
         id="circle3677" /><line
         class="st8"
         x1="25.4"
         y1="47.5"
         x2="25.4"
         y2="56.6"
         id="line3679" /><circle
         class="st8"
         cx="25.4"
         cy="24.9"
         r="21.9"
         id="circle3681" /></g><polyline
       class="st9"
       points="35.9,33.3 18.7,33.3 18.7,16.9  "
       id="polyline3683" /><path
       class="st9"
       d="M 18.7,33.3 C 29.3,30.6 33.2,24.4 33.2,18.6"
       id="path3685"
       transformBehaviour="pinned"
       inkscape:connector-curvature="0"
       style="fill:none;stroke:#727070;stroke-linecap:round;stroke-linejoin:round;stroke-miterlimit:10" /><g
       id="g3687"
       transformBehaviour="pinned"><path
         class="st10"
         d="m 26.4,36.1 c 0.1,0 0.3,0.1 0.4,0.1 0.1,0.1 0.1,0.2 0.1,0.4 0,0.1 -0.1,0.3 -0.1,0.4 -0.1,0.1 -0.2,0.1 -0.4,0.1 l -0.9,0 0,5.7 c 0,0.1 -0.1,0.3 -0.1,0.4 -0.1,0.1 -0.2,0.1 -0.4,0.1 -0.1,0 -0.3,-0.1 -0.4,-0.1 -0.1,-0.1 -0.1,-0.2 -0.1,-0.4 l 0,-5.7 -0.9,0 c -0.1,0 -0.3,-0.1 -0.4,-0.1 -0.1,-0.1 -0.1,-0.2 -0.1,-0.4 0,-0.1 0.1,-0.3 0.1,-0.4 0.1,-0.1 0.2,-0.1 0.4,-0.1 l 2.8,0 z"
         id="path3689"
         inkscape:connector-curvature="0"
         style="fill:#727070" /></g><g
       id="g3691"
       transformBehaviour="pinned"><path
         class="st10"
         d="M 8.9,28.8 C 8.7,28.7 8.5,28.7 8.4,28.6 8.2,28.5 8.1,28.4 8,28.2 7.9,28 7.8,27.9 7.7,27.7 7.6,27.5 7.6,27.3 7.6,27.1 l 0,-3.6 c 0,-0.2 0,-0.4 0.1,-0.6 0.1,-0.2 0.2,-0.4 0.3,-0.5 0.1,-0.2 0.3,-0.3 0.4,-0.4 0.1,-0.1 0.3,-0.2 0.5,-0.2 0.4,-0.1 0.8,-0.1 1.2,0.1 0.4,0.2 0.7,0.4 0.9,0.8 0.1,0.1 0.1,0.3 0.1,0.4 0,0.1 -0.1,0.2 -0.2,0.3 -0.1,0.1 -0.3,0.1 -0.4,0 -0.1,0 -0.2,-0.1 -0.3,-0.2 C 10.1,23 10,22.9 9.8,22.9 9.6,22.8 9.5,22.8 9.3,22.9 9.1,22.9 9,23 8.9,23.2 8.8,23.3 8.7,23.5 8.7,23.7 l 0,3.6 c 0,0.2 0.1,0.3 0.2,0.5 0.1,0.1 0.2,0.2 0.4,0.3 0.2,0 0.3,0 0.5,0 0.2,-0.1 0.3,-0.2 0.4,-0.3 0.1,-0.1 0.2,-0.2 0.3,-0.2 0.1,0 0.3,0 0.4,0 0.1,0.1 0.2,0.2 0.2,0.3 0,0.1 0,0.3 -0.1,0.4 -0.2,0.4 -0.5,0.6 -0.9,0.8 C 9.7,28.9 9.3,28.9 8.9,28.8 Z"
         id="path3693"
         inkscape:connector-curvature="0"
         style="fill:#727070" /><path
         class="st10"
         d="m 14,24.6 0,0.8 c 0,0.1 0,0.3 -0.1,0.3 -0.1,0.1 -0.2,0.1 -0.3,0.1 -0.1,0 -0.3,0 -0.3,-0.1 -0.1,-0.1 -0.1,-0.2 -0.1,-0.3 l 0,-0.8 -0.9,0.4 c -0.1,0.1 -0.2,0.1 -0.4,0.1 -0.1,0 -0.2,-0.1 -0.3,-0.2 -0.1,-0.1 -0.1,-0.2 -0.1,-0.4 0,-0.1 0.1,-0.2 0.2,-0.3 l 0.7,-0.4 -0.7,-0.4 c -0.1,-0.1 -0.2,-0.2 -0.2,-0.3 0,-0.1 0,-0.3 0.1,-0.4 0.1,-0.1 0.2,-0.2 0.3,-0.2 0.1,0 0.3,0 0.4,0.1 L 13,23 13,22.2 c 0,-0.1 0,-0.2 0.1,-0.3 0.1,-0.1 0.2,-0.1 0.3,-0.1 0.1,0 0.3,0 0.3,0.1 0.1,0.1 0.1,0.2 0.1,0.3 l 0,0.8 0.7,-0.4 c 0.1,-0.1 0.2,-0.1 0.4,-0.1 0.2,0 0.2,0.1 0.3,0.2 0.1,0.1 0.1,0.2 0.1,0.4 0,0.1 -0.1,0.2 -0.2,0.3 l -0.7,0.4 0.7,0.4 c 0.1,0.1 0.2,0.2 0.2,0.3 0,0.1 0,0.3 -0.1,0.4 0,0 -0.1,0.1 -0.2,0.1 -0.1,0 -0.3,0 -0.4,-0.1 L 14,24.6 Z"
         id="path3695"
         inkscape:connector-curvature="0"
         style="fill:#727070" /></g></g></svg>