<?xml version="1.0" encoding="UTF-8" standalone="no"?>
<!-- Generator: Adobe Illustrator 21.0.2, SVG Export Plug-In . SVG Version: 6.00 Build 0)  -->

<svg
   xmlns:dc="http://purl.org/dc/elements/1.1/"
   xmlns:cc="http://creativecommons.org/ns#"
   xmlns:rdf="http://www.w3.org/1999/02/22-rdf-syntax-ns#"
   xmlns:svg="http://www.w3.org/2000/svg"
   xmlns="http://www.w3.org/2000/svg"
   xmlns:sodipodi="http://sodipodi.sourceforge.net/DTD/sodipodi-0.dtd"
   xmlns:inkscape="http://www.inkscape.org/namespaces/inkscape"
   version="1.1"
   id="Layer_1"
   x="0px"
   y="0px"
   width="68.5px"
   height="41.8px"
   viewBox="0 0 68.5 41.8"
   style="enable-background:new 0 0 68.5 41.8;"
   xml:space="preserve"
   inkscape:version="0.91 r13725"
   sodipodi:docname="solid sink.svg"><metadata
     id="metadata3574"><rdf:RDF><cc:Work
         rdf:about=""><dc:format>image/svg+xml</dc:format><dc:type
           rdf:resource="http://purl.org/dc/dcmitype/StillImage" /></cc:Work></rdf:RDF></metadata><defs
     id="defs3572" /><sodipodi:namedview
     pagecolor="#ffffff"
     bordercolor="#666666"
     borderopacity="1"
     objecttolerance="10"
     gridtolerance="10"
     guidetolerance="10"
     inkscape:pageopacity="0"
     inkscape:pageshadow="2"
     inkscape:window-width="1536"
     inkscape:window-height="897"
     id="namedview3570"
     showgrid="false"
     inkscape:zoom="4.2043796"
     inkscape:cx="34.25"
     inkscape:cy="20.9"
     inkscape:window-x="-8"
     inkscape:window-y="-8"
     inkscape:window-maximized="1"
     inkscape:current-layer="_x30_" /><style
     type="text/css"
     id="style3547">
	.st0{display:none;}
	.st1{display:inline;fill:#5C5CF2;}
	.st2{display:inline;fill:#FFFFFF;}
	.st3{display:inline;fill:#006699;stroke:#006699;stroke-width:0.1498;stroke-linecap:round;stroke-linejoin:round;}
	.st4{fill:none;stroke:#FFFFFF;stroke-width:6;stroke-linecap:round;stroke-linejoin:round;stroke-miterlimit:10;}
	.st5{fill:#EF8122;}
	.st6{fill:none;stroke:#D2D2D2;stroke-linecap:round;stroke-linejoin:round;stroke-miterlimit:10;}
	.st7{enable-background:new    ;}
	.st8{fill:#D2D2D2;}
	.st9{fill:none;stroke:#2D2D2E;stroke-width:1.5;stroke-linecap:round;stroke-linejoin:round;stroke-miterlimit:10;}
</style><g
     id="Layer_2"
     class="st0"><rect
       x="-29.1"
       y="-35.4"
       class="st1"
       width="138.7"
       height="114.3"
       id="rect3550" /></g><g
     id="_x30_"
     inkscape:version="0.48.4 r9939"
     sodipodi:docname="pid controller.svg"><sodipodi:namedview
       bordercolor="#666666"
       borderopacity="1"
       gridtolerance="10"
       guidetolerance="10"
       id="namedview9"
       inkscape:current-layer="1"
       inkscape:cx="100.91701"
       inkscape:cy="50.283773"
       inkscape:pageopacity="0"
       inkscape:pageshadow="2"
       inkscape:window-height="1018"
       inkscape:window-maximized="1"
       inkscape:window-width="1920"
       inkscape:window-x="-8"
       inkscape:window-y="-8"
       inkscape:zoom="2.8405582"
       objecttolerance="10"
       pagecolor="#ffffff"
       showgrid="true"><inkscape:grid
         id="grid2986"
         type="xygrid" /></sodipodi:namedview><g
       id="_x31_"
       class="st0"><path
         id="_x32_"
         inkscape:connector-curvature="0"
         class="st2"
         d="M-6.7,30.4v-2.8l0.3-2.8l0.3-2.7l0.4-2.7l0.7-2.7l0.6-2.5    l0.9-2.5l1-2.5l1-2.4l1.2-2.4L1,2.2L2.5,0L4-2.1l1.6-2.1l1.6-2.1L9-8.1l1.9-1.8l1.9-1.8l2.1-1.6l2.2-1.5l2.1-1.3l2.4-1.3l2.2-1.2    l3-1.7l2.4-0.9l2.5-0.9l2.8-0.7l2.5-0.6l2.7-0.4l2.9-0.5l2.7-0.1h2.8h2.8l2.9,0.1l2.7,0.4l2.7,0.4l2.7,0.6l2.5,0.7l2.5,0.9l2.6,1    l2.4,1.2l2.4,1.2l2.2,1.3l2.2,1.3l2.1,1.5l2.1,1.6l1.9,1.8l1.9,1.8l1.8,1.8l1.8,2.1l1.6,2.1l1.5,2.1l1.3,2.2L96,3.9l1.2,2.4l1,2.4    l1,2.5l0.9,2.5l0.7,2.5l0.6,2.7l0.4,2.7l0.3,2.7l0.3,2.8v2.8v2.7l-0.3,2.8l-0.3,2.7l-0.4,2.7l-0.6,2.7l-0.7,2.5l-0.9,2.5l-1,2.5    l-1,2.4L96,55.8L94.7,58l-1.3,2.2l-1.5,2.2l-1.6,1.9l-1.8,2.1l-1.8,1.8l-1.9,1.9l-1.9,1.6l-2.1,1.6l-2.1,1.5l-2.2,1.5l-2.2,1.3    l-2.4,1.2l-2.4,1l-2.5,1l-2.5,0.7L62,82.2l-2.7,0.6l-2.7,0.6l-2.7,0.3l-2.8,0.1l-2.8,0.1l-2.8-0.1l-2.7-0.1l-2.7-0.3l-2.8-0.6    l-2.5-0.6l-2.7-0.7l-2.5-0.7l-2.4-1l-2.5-1l-2.2-1.2l-2.4-1.3L18,74.8l-2.2-1.5l-2.1-1.6l-1.9-1.6l-1.9-1.9l-2.4-0.9l-1.6-2.1    l-1.6-1.9l-1.5-2.2l-1.6-2.4l-1.3-2.2l-1.2-2.4l-1-2.4l-1-2.5l-0.9-2.5l-0.6-2.5l-0.7-2.7l-0.4-2.7l-0.3-2.7l-0.3-2.8    C-6.7,33.1-6.7,30.4-6.7,30.4z" /><path
         id="_x33_"
         inkscape:connector-curvature="0"
         class="st3"
         d="M-9.2,30.4v-2.8l0.3-2.9l0.3-2.8l0.4-2.8l0.7-2.7l0.7-2.7    l0.7-2.5l1-2.7l1.2-2.4l1.2-2.4l1.3-2.4l1.5-2.4l1.5-2.1l1.8-2.2L5-7.3l1.9-1.9l1.9-1.9l2.1-1.8l2.1-1.6l2.2-1.5l2.2-1.5l2.4-1.3    l2.4-1.3l2.4-1l2.7-1l2.5-0.9l3.2-1.3l2.7-0.6l2.8-0.4l2.8-0.4l2.8-0.1l2.8-0.1l2.8,0.1l3,0.1l2.7,0.4l3.1,0.4l2.7,0.6l2.7,0.7    l2.7,0.9l2.5,1l2.4,1l2.5,1.3l2.2,1.3l2.4,1.3l2.1,1.6l2.2,1.6l1.9,1.8l1.9,1.8l1.9,1.9L90.4-6L92-3.9l1.5,2.2L95,0.5l1.3,2.4    l1.3,2.4l1,2.5l1,2.5l0.9,2.7l0.7,2.5l0.6,2.8l0.4,2.7l0.4,2.8l0.1,2.8l0.1,3l-0.1,2.8l-0.1,2.8l-0.3,2.8l-0.6,2.7l-0.6,2.8    l-0.7,2.7l-0.9,2.5l-1,2.5l-1,2.5l-1.2,2.4l-1.5,2.4l-1.3,2.2l-1.6,2.2L90.3,65l-1.8,2.1L86.7,69l-1.9,1.8l-2.1,1.8l-2.1,1.6    l-2.2,1.6l-2.2,1.5l-2.4,1.3l-2.4,1.2L68.9,81l-2.5,0.9l-2.5,0.9l-2.7,0.7l-2.7,2.2l-2.7,0.4L53,86.4l-2.8,0.3h-2.8h-3l-2.8-0.3    l-2.8-0.3l-2.7-0.4l-2.8-0.6l-2.5-0.7l-2.7-0.9l-2.5-1l-2.5-1.2l-2.4-1.2l-2.4-1.3l-2.2-1.5l-2.2-1.5l-2.1-1.6l-2.1-1.8l-1.9-1.9    l-2.3-2.2l-1.8-1.9l-1.6-2.2l-1.6-2.1L-1,59.7l-1.5-2.5l-1.2-2.4l-1.2-2.4l-0.9-2.5l-0.9-2.7l-0.7-2.7l-0.7-2.7L-8.5,39l-0.3-2.7    l-0.3-3L-9.2,30.4L-9.2,30.4z M-6.1,33.1l0.1,2.7l0.4,2.7l0.4,2.5l0.6,2.5L-4,46l0.9,2.5l0.9,2.4l1.2,2.4l1,2.2l1.3,2.2l1.3,2.1    l1.5,2.1L5.7,64l1.6,1.9l1.8,1.8l1.8,1.8l1.9,1.6l1.9,1.6l2.1,1.5l2.2,1.3l2.1,1.2l2.4,1.2l2.4,1l2.4,1l2.4,0.7l2.5,0.7l2.5,0.6    l2.7,0.4l2.7,0.4l2.7,0.1l2.7,0.1l2.7-0.1l2.7-0.1l2.7-0.4l2.7-0.4l2.5-0.6l2.5-0.6l2.4-0.9l2.5-0.9l2.2-1l2.4-1.2l2.1-1.3    l2.2-1.3l2.1-1.5l1.9-1.6l1.9-1.6l1.9-1.8l1.6-1.8l1.8-1.9l1.5-1.9l1.5-2.1l1.3-2.2l1.3-2.1l1.2-2.4l1-2.4l0.9-2.4l0.9-2.4    l0.7-2.5l0.6-2.5l0.4-2.7l0.3-2.7l0.3-2.7v-2.7v-2.5L98.9,25l-0.3-2.7l-0.4-2.7l-0.6-2.5l-0.7-2.5L96,12.2l-0.9-2.4l-1-2.4L92.9,5    l-1.2-2.1l-1.5-2.2l-1.5-2.1l-1.5-1.9l-1.6-1.9l-1.8-1.9L82-8.7l-1.9-1.8L79-12.3l-2.1-1.5l-2.1-1.3l-2.2-1.3l-2.2-1.2l-2.4-1    l-2.4-0.9l-2.5-0.9l-2.6-0.9L58-21.9l-2.5-0.4l-2.7-0.3l-2.7-0.1l-2.7-0.1l-2.8,0.1l-2.7,0.1l-2.7,0.3l-2.7,0.4l-2.6,0.6l-2.5,0.7    l-2.5,0.9l-2.4,0.9l-2.4,1l-2.2,1.2l-2.3,1.3l-2.1,1.5l-2.1,1.5l-2.1,1.5l-1.9,1.6L9.5-7.4L7.7-5.6L6.1-3.7L4.5-1.6L3,0.5L1.6,2.7    L0.4,4.9l-1.2,2.2l-1,2.4l-1,2.4l-0.7,2.5l-0.7,2.5l-0.6,2.5l-0.7,2.7l-0.4,2.7L-6,27.5v2.8C-6.1,30.4-6.1,33.1-6.1,33.1z" /></g><polygon
       class="st4"
       points="48.5,38.6 3,38.6 3,3.6 48.5,3.6 65.4,20.9  "
       id="polygon3558" /><polygon
       class="st5"
       points="48.5,38.6 3,38.6 3,3.6 48.5,3.6 65.4,20.9  "
       id="polygon3560" /><polyline
       class="st6"
       points="6.6,35.4 20.9,21.1 6.6,6.9  "
       id="polyline3562" /><g
       class="st7"
       id="g3564"
       transformBehaviour="pinned"
       style="enable-background:new"><path
         class="st8"
         d="m 10.8,23.6 c 0.1,-0.1 0.2,-0.2 0.3,-0.3 0.1,-0.1 0.1,-0.2 0.1,-0.4 0,-0.3 -0.1,-0.5 -0.3,-0.7 L 9,20.2 C 8.8,20 8.6,19.8 8.5,19.5 8.4,19.2 8.4,18.9 8.4,18.7 8.4,18.5 8.5,18.1 8.6,17.9 8.7,17.6 8.9,17.4 9.2,17.3 9.5,17.2 9.7,17 10,16.9 c 0.3,-0.1 0.6,-0.1 0.8,0 0.3,0.1 0.5,0.2 0.8,0.3 0.2,0.2 0.4,0.4 0.6,0.6 0.1,0.1 0.1,0.3 0.1,0.4 0,0.2 -0.1,0.3 -0.3,0.4 -0.1,0.1 -0.3,0.1 -0.4,0.1 -0.1,0 -0.3,-0.1 -0.3,-0.3 C 11.2,18.2 11,18 10.7,18 c -0.3,0 -0.5,0 -0.7,0.2 -0.2,0.2 -0.3,0.4 -0.3,0.6 0,0.3 0.1,0.5 0.2,0.7 l 1.9,2 c 0.2,0.2 0.4,0.5 0.5,0.7 0.1,0.2 0.1,0.6 0.1,0.9 0,0.3 -0.1,0.6 -0.3,0.8 -0.1,0.3 -0.3,0.5 -0.6,0.7 -0.2,0.2 -0.5,0.3 -0.8,0.4 -0.3,0.1 -0.6,0.1 -0.9,0 C 9.5,24.9 9.2,24.8 9,24.6 8.8,24.4 8.6,24.2 8.4,24 8.3,23.9 8.3,23.7 8.3,23.6 8.3,23.4 8.4,23.3 8.6,23.2 8.8,23 8.9,23 9.1,23 c 0.2,0 0.3,0.1 0.4,0.3 0.1,0.2 0.3,0.4 0.6,0.4 0.2,0.1 0.5,0 0.7,-0.1 z"
         id="path3566"
         inkscape:connector-curvature="0"
         style="fill:#d2d2d2" /></g><polygon
       class="st9"
       points="48.5,38.6 3,38.6 3,3.6 48.5,3.6 65.4,20.9  "
       id="polygon3568" /></g></svg>