<?xml version="1.0" encoding="UTF-8" standalone="no"?>
<!-- Generator: Adobe Illustrator 21.0.2, SVG Export Plug-In . SVG Version: 6.00 Build 0)  -->

<svg
   xmlns:dc="http://purl.org/dc/elements/1.1/"
   xmlns:cc="http://creativecommons.org/ns#"
   xmlns:rdf="http://www.w3.org/1999/02/22-rdf-syntax-ns#"
   xmlns:svg="http://www.w3.org/2000/svg"
   xmlns="http://www.w3.org/2000/svg"
   xmlns:sodipodi="http://sodipodi.sourceforge.net/DTD/sodipodi-0.dtd"
   xmlns:inkscape="http://www.inkscape.org/namespaces/inkscape"
   version="1.1"
   id="Layer_1"
   x="0px"
   y="0px"
   width="68.4px"
   height="41.1px"
   viewBox="0 0 68.4 41.1"
   style="enable-background:new 0 0 68.4 41.1;"
   xml:space="preserve"
   inkscape:version="0.91 r13725"
   sodipodi:docname="solid source.svg"><metadata
     id="metadata3599"><rdf:RDF><cc:Work
         rdf:about=""><dc:format>image/svg+xml</dc:format><dc:type
           rdf:resource="http://purl.org/dc/dcmitype/StillImage" /></cc:Work></rdf:RDF></metadata><defs
     id="defs3597" /><sodipodi:namedview
     pagecolor="#ffffff"
     bordercolor="#666666"
     borderopacity="1"
     objecttolerance="10"
     gridtolerance="10"
     guidetolerance="10"
     inkscape:pageopacity="0"
     inkscape:pageshadow="2"
     inkscape:window-width="1536"
     inkscape:window-height="897"
     id="namedview3595"
     showgrid="false"
     inkscape:zoom="2.4408427"
     inkscape:cx="84.668752"
     inkscape:cy="11.87239"
     inkscape:window-x="-8"
     inkscape:window-y="-8"
     inkscape:window-maximized="1"
     inkscape:current-layer="Layer_1_1_" /><style
     type="text/css"
     id="style3577">
	.st0{display:none;}
	.st1{display:inline;fill:#E8E342;stroke:#000000;stroke-miterlimit:10;}
	.st2{fill:none;stroke:#FFFFFF;stroke-width:6;stroke-linecap:round;stroke-linejoin:round;stroke-miterlimit:10;}
	.st3{fill:#F5821F;}
	.st4{fill:none;stroke:#D2D2D2;stroke-linecap:round;stroke-linejoin:round;stroke-miterlimit:10;}
	.st5{enable-background:new    ;}
	.st6{fill:#D2D2D2;}
	.st7{fill:none;stroke:#2D2D2D;stroke-width:1.5;stroke-linecap:round;stroke-linejoin:round;stroke-miterlimit:10;}
</style><g
     id="Layer_2"
     class="st0"><rect
       x="-19"
       y="-17.2"
       class="st1"
       width="102.1"
       height="75.3"
       id="rect3580" /></g><g
     id="Layer_1_1_"><polygon
       class="st2"
       points="48.5,38 3,38 3,3 48.5,3 65.4,20.3  "
       id="polygon3583" /><polygon
       class="st3"
       points="48.5,38 3,38 3,3 48.5,3 65.4,20.3  "
       id="polygon3585" /><polyline
       class="st4"
       points="46.3,34.7 60.5,20.5 46.3,6.3  "
       id="polyline3587" /><g
       class="st5"
       id="g3589"
       transformBehaviour="pinned"
       style="enable-background:new"><path
         class="st6"
         d="m 50.4,22.9 c 0.1,-0.1 0.2,-0.2 0.3,-0.3 0.1,-0.1 0.1,-0.2 0.1,-0.4 0,-0.3 -0.1,-0.5 -0.3,-0.7 l -1.9,-2 C 48.4,19.3 48.2,19.1 48.1,18.8 48,18.6 48,18.3 48,18 c 0,-0.3 0.1,-0.6 0.2,-0.8 0.1,-0.3 0.3,-0.5 0.6,-0.6 0.2,-0.2 0.5,-0.3 0.8,-0.4 0.3,-0.1 0.6,-0.1 0.8,0 0.3,0.1 0.5,0.2 0.8,0.3 0.3,0.1 0.4,0.4 0.6,0.6 0.1,0.1 0.1,0.3 0.1,0.4 0,0.2 -0.1,0.3 -0.3,0.4 -0.2,0.1 -0.3,0.1 -0.5,0.1 -0.2,0 -0.3,-0.1 -0.3,-0.3 -0.1,-0.2 -0.3,-0.4 -0.6,-0.4 -0.3,0 -0.5,0 -0.7,0.2 -0.2,0.2 -0.3,0.4 -0.3,0.6 0,0.3 0.1,0.5 0.2,0.7 l 1.9,2 c 0.2,0.2 0.4,0.5 0.5,0.7 0.1,0.3 0.1,0.6 0.1,0.9 0,0.3 -0.1,0.6 -0.3,0.8 -0.2,0.2 -0.3,0.5 -0.6,0.7 -0.2,0.2 -0.5,0.3 -0.8,0.4 -0.3,0.1 -0.6,0.1 -0.9,0 -0.3,-0.1 -0.6,-0.2 -0.8,-0.4 -0.2,-0.2 -0.4,-0.4 -0.6,-0.6 -0.1,-0.1 -0.1,-0.3 -0.1,-0.4 0,-0.2 0.1,-0.3 0.3,-0.4 0.2,-0.1 0.3,-0.1 0.4,-0.1 0.2,0 0.3,0.1 0.4,0.3 0.1,0.2 0.3,0.4 0.6,0.4 0.4,0 0.7,0 0.9,-0.2 z"
         id="path3591"
         inkscape:connector-curvature="0"
         style="fill:#d2d2d2" /></g><polygon
       class="st7"
       points="48.5,38 3,38 3,3 48.5,3 65.4,20.3  "
       id="polygon3593" /></g></svg>