<?xml version="1.0" encoding="UTF-8" standalone="no"?>
<!-- Generator: Adobe Illustrator 21.0.1, SVG Export Plug-In . SVG Version: 6.00 Build 0)  -->

<svg
   xmlns:dc="http://purl.org/dc/elements/1.1/"
   xmlns:cc="http://creativecommons.org/ns#"
   xmlns:rdf="http://www.w3.org/1999/02/22-rdf-syntax-ns#"
   xmlns:svg="http://www.w3.org/2000/svg"
   xmlns="http://www.w3.org/2000/svg"
   xmlns:sodipodi="http://sodipodi.sourceforge.net/DTD/sodipodi-0.dtd"
   xmlns:inkscape="http://www.inkscape.org/namespaces/inkscape"
   version="1.1"
   x="0px"
   y="0px"
   width="65.3px"
   height="91.7px"
   viewBox="0 0 65.3 91.7"
   style="enable-background:new 0 0 65.3 91.7;"
   xml:space="preserve"
   id="svg3402"
   inkscape:version="0.91 r13725"
   sodipodi:docname="sorption isotherm analysis.svg"><metadata
     id="metadata3436"><rdf:RDF><cc:Work
         rdf:about=""><dc:format>image/svg+xml</dc:format><dc:type
           rdf:resource="http://purl.org/dc/dcmitype/StillImage" /></cc:Work></rdf:RDF></metadata><defs
     id="defs3434" /><sodipodi:namedview
     pagecolor="#ffffff"
     bordercolor="#666666"
     borderopacity="1"
     objecttolerance="10"
     gridtolerance="10"
     guidetolerance="10"
     inkscape:pageopacity="0"
     inkscape:pageshadow="2"
     inkscape:window-width="1536"
     inkscape:window-height="897"
     id="namedview3432"
     showgrid="false"
     inkscape:zoom="2.5736097"
     inkscape:cx="32.650002"
     inkscape:cy="45.849998"
     inkscape:window-x="-8"
     inkscape:window-y="-8"
     inkscape:window-maximized="1"
     inkscape:current-layer="Layer_1" /><style
     type="text/css"
     id="style3404">
	.st0{display:none;}
	.st1{display:inline;fill:#3318EF;}
	.st2{fill:none;stroke:#FFFFFF;stroke-width:6;stroke-linecap:round;stroke-linejoin:round;stroke-miterlimit:10;}
	.st3{fill:#6F6F6F;}
	.st4{fill:none;stroke:#D2D2D2;stroke-linecap:round;stroke-linejoin:round;stroke-miterlimit:10;}
	.st5{fill:none;stroke:#2D2D2D;stroke-width:1.5;stroke-linecap:round;stroke-linejoin:round;stroke-miterlimit:10;}
	.st6{fill:#D2D2D2;}
</style><g
     id="Layer_2"
     class="st0"><rect
       x="-5.6"
       y="-5.7"
       class="st1"
       width="76.1"
       height="100.9"
       id="rect3407" /></g><g
     id="Layer_1"><path
       class="st2"
       d="M47.6,14.6c0-2.2,0-4.9,0-6.8c0-1.8-6.8-4.8-14-4.8c-0.5,0-1,0-1.5,0c-7.2,0.1-14.3,3-14.3,4.8   c0,1.8,0,4.6,0,6.8H3v74.1h59.3V14.6H47.6z M32.6,6.1c1.6,0,2.9,1.3,2.9,2.9S34.2,12,32.6,12c-1.6,0-2.9-1.3-2.9-2.9   S31,6.1,32.6,6.1z"
       id="path3410" /><path
       class="st3"
       d="M47.6,14.6c0-2.2,0-4.9,0-6.8c0-1.8-6.8-4.8-14-4.8c-0.5,0-1,0-1.5,0c-7.2,0.1-14.3,3-14.3,4.8   c0,1.8,0,4.6,0,6.8H3v74.1h59.3V14.6H47.6z M32.6,6.1c1.6,0,2.9,1.3,2.9,2.9S34.2,12,32.6,12c-1.6,0-2.9-1.3-2.9-2.9   S31,6.1,32.6,6.1z"
       id="path3412" /><polyline
       class="st4"
       points="59,73.4 15.8,73.4 15.8,32.3  "
       id="polyline3414"
       transformBehaviour="pinned"
       style="fill:none;stroke:#d2d2d2;stroke-linecap:round;stroke-linejoin:round;stroke-miterlimit:10" /><line
       class="st4"
       x1="20.7"
       y1="17.6"
       x2="45.3"
       y2="17.6"
       id="line3416" /><path
       class="st5"
       d="M47.6,14.6c0-2.2,0-4.9,0-6.8c0-1.8-6.8-4.8-14-4.8c-0.5,0-1,0-1.5,0c-7.2,0.1-14.3,3-14.3,4.8   c0,1.8,0,4.6,0,6.8H3v74.1h59.3V14.6H47.6z M32.6,6.1c1.6,0,2.9,1.3,2.9,2.9S34.2,12,32.6,12c-1.6,0-2.9-1.3-2.9-2.9   S31,6.1,32.6,6.1z"
       id="path3418" /><g
       id="g3420"
       transformBehaviour="pinned"><path
         class="st6"
         d="m 35.3,81.7 1.3,3.5 c 0.1,0.2 0,0.5 -0.3,0.6 -0.2,0.1 -0.5,0 -0.6,-0.3 l -1.3,-3.6 -1.1,0 0,3.5 c 0,0.3 -0.2,0.4 -0.4,0.4 -0.2,0 -0.4,-0.2 -0.4,-0.4 l 0,-8.1 c 0,-0.3 0.2,-0.4 0.4,-0.4 l 1.7,0 c 1.2,0 2.1,1 2.1,2.1 l 0,0.8 c -0.1,0.8 -0.6,1.6 -1.4,1.9 z m 0.4,-2 0,-0.8 c 0,-0.7 -0.5,-1.2 -1.2,-1.2 l -1.2,0 0,3.3 1.2,0 c 0.7,-0.1 1.2,-0.6 1.2,-1.3 z"
         id="path3422"
         inkscape:connector-curvature="0"
         style="fill:#d2d2d2" /><path
         class="st6"
         d="m 42,76.7 c 0.3,0 0.4,0.2 0.4,0.4 l 0,8.1 c 0,0.3 -0.2,0.4 -0.4,0.4 -0.2,0 -0.4,-0.2 -0.4,-0.4 l 0,-3.8 -2.5,0 0,3.8 c 0,0.3 -0.2,0.4 -0.4,0.4 -0.2,0 -0.4,-0.2 -0.4,-0.4 l 0,-8.1 c 0,-0.3 0.2,-0.4 0.4,-0.4 0.3,0 0.4,0.2 0.4,0.4 l 0,3.5 2.5,0 0,-3.5 c 0,-0.2 0.2,-0.4 0.4,-0.4 z"
         id="path3424"
         inkscape:connector-curvature="0"
         style="fill:#d2d2d2" /></g><g
       id="g3426"
       transformBehaviour="pinned
"><path
         class="st6"
         d="m 7.5,56.7 2,-4 L 7.6,49 c -0.1,-0.2 0,-0.5 0.2,-0.6 0.2,-0.1 0.5,0 0.6,0.2 l 1.6,3.1 1.6,-3.1 c 0.1,-0.2 0.4,-0.3 0.6,-0.2 0.2,0.1 0.3,0.4 0.2,0.6 l -1.9,3.7 2,4 c 0.1,0.2 0,0.5 -0.2,0.6 -0.2,0.1 -0.5,0 -0.6,-0.2 L 10,53.7 8.3,57.1 C 8.2,57.3 7.9,57.4 7.7,57.3 7.5,57.2 7.4,56.9 7.5,56.7 Z"
         id="path3428"
         inkscape:connector-curvature="0"
         style="fill:#d2d2d2" /></g><path
       class="st4"
       d="M 15.8,61 C 26.4,37.8 41.7,56.7 52.3,35"
       id="path3430"
       transformBehaviour="pinned"
       inkscape:connector-curvature="0"
       style="fill:none;stroke:#d2d2d2;stroke-linecap:round;stroke-linejoin:round;stroke-miterlimit:10" /></g></svg>