<?xml version="1.0" encoding="UTF-8" standalone="no"?>
<?gproms path="System_composition_sensor_block.is_composition_within_range"?>

<svg
   xmlns:dc="http://purl.org/dc/elements/1.1/"
   xmlns:cc="http://creativecommons.org/ns#"
   xmlns:rdf="http://www.w3.org/1999/02/22-rdf-syntax-ns#"
   xmlns:svg="http://www.w3.org/2000/svg"
   xmlns="http://www.w3.org/2000/svg"
   xmlns:sodipodi="http://sodipodi.sourceforge.net/DTD/sodipodi-0.dtd"
   xmlns:inkscape="http://www.inkscape.org/namespaces/inkscape"
   version="1.1"
   x="0px"
   y="0px"
   width="50.5px"
   height="59.8px"
   viewBox="0 0 50.5 59.8"
   style="enable-background:new 0 0 50.5 59.8;"
   xml:space="preserve"
   id="svg4212"
   inkscape:version="0.91 r13725"
   sodipodi:docname="composition quality monitor.svg"><metadata
     id="metadata4245"><rdf:RDF><cc:Work
         rdf:about=""><dc:format>image/svg+xml</dc:format><dc:type
           rdf:resource="http://purl.org/dc/dcmitype/StillImage" /></cc:Work></rdf:RDF></metadata><defs
     id="defs4243" /><sodipodi:namedview
     pagecolor="#ffffff"
     bordercolor="#666666"
     borderopacity="1"
     objecttolerance="10"
     gridtolerance="10"
     guidetolerance="10"
     inkscape:pageopacity="0"
     inkscape:pageshadow="2"
     inkscape:window-width="1536"
     inkscape:window-height="801"
     id="namedview4241"
     showgrid="false"
     inkscape:zoom="3.9464883"
     inkscape:cx="-12.125"
     inkscape:cy="29.9"
     inkscape:window-x="-8"
     inkscape:window-y="-8"
     inkscape:window-maximized="1"
     inkscape:current-layer="Layer_1" /><style
     type="text/css"
     id="style4214">
	.st0{display:none;}
	.st1{display:inline;fill:#6AADFF;stroke:#000000;stroke-miterlimit:10;}
	.st2{display:inline;fill:#EEE52F;}
	.st3{fill:none;stroke:#FFFFFF;stroke-width:6;stroke-linecap:round;stroke-linejoin:round;stroke-miterlimit:10;}
	.st4{fill:#6F6F6F;}
	.st5{fill:none;}
	.st6{fill:#FFFFFF;}
	.st7{fill:#727070;}
	.st8{fill:none;stroke:#2D2D2E;stroke-width:1.5;stroke-linecap:round;stroke-linejoin:round;stroke-miterlimit:10;}
</style><g
     id="Layer_2_1_"
     class="st0"><rect
       x="-10.5"
       y="-4.1"
       class="st1"
       width="66.9"
       height="70.1"
       id="rect4217" /></g><g
     id="Layer_1"><g
       id="Layer_2"
       class="st0"><rect
         x="-70.1"
         y="-60.3"
         class="st2"
         width="242"
         height="197.7"
         id="rect4221" /></g><line
       class="st3"
       x1="25.2"
       y1="45.4"
       x2="25.2"
       y2="56.6"
       id="line4223" /><circle
       class="st3"
       cx="25.2"
       cy="24.6"
       r="21.5"
       id="circle4225"
       style="stroke:#ff0000;stroke-opacity:1;stroke-width:0;stroke-miterlimit:10;stroke-dasharray:none"><animate
         attributeName="stroke-width"
         attributeType="XML"
         begin="0s"
         dur="1s"
         fill="freeze"
         from="6"
         to="0" /></circle><line
       class="st4"
       x1="25.2"
       y1="45.4"
       x2="25.2"
       y2="56.6"
       id="line4227" /><circle
       class="st5"
       cx="25.2"
       cy="24.6"
       r="21.5"
       id="circle4229" /><circle
       class="st6"
       cx="25.2"
       cy="24.6"
       r="21.5"
       id="circle4231" /><g
       id="g4233"
       transformBehaviour="pinned"><path
         class="st7"
         d="m 25.1,19.5 c 0,0.5 -0.1,0.9 -0.3,1.3 -0.2,0.4 -0.4,0.8 -0.7,1.1 -0.3,0.3 -0.7,0.5 -1.1,0.7 -0.4,0.2 -0.8,0.3 -1.3,0.3 -0.5,0 -0.9,-0.1 -1.3,-0.3 C 20,22.4 19.6,22.2 19.3,21.9 19,21.6 18.8,21.2 18.6,20.8 18.4,20.4 18.3,20 18.3,19.5 c 0,-0.5 0.1,-0.9 0.3,-1.3 0.2,-0.4 0.4,-0.8 0.7,-1.1 0.3,-0.3 0.7,-0.5 1.1,-0.7 0.4,-0.2 0.8,-0.3 1.3,-0.3 0.5,0 0.9,0.1 1.3,0.3 0.4,0.2 0.8,0.4 1.1,0.7 0.3,0.3 0.5,0.7 0.7,1.1 0.2,0.4 0.3,0.9 0.3,1.3 z m 4.2,-3.3 c 0.3,0.1 0.5,0.4 0.6,0.7 0.1,0.3 0.1,0.6 -0.1,0.9 L 22.7,32.5 C 22.6,32.8 22.3,33 22,33.1 21.7,33.2 21.4,33.2 21.1,33 20.8,32.9 20.6,32.6 20.5,32.3 20.4,32 20.4,31.7 20.6,31.4 l 7.1,-14.7 c 0.1,-0.3 0.4,-0.5 0.7,-0.6 0.3,-0.1 0.6,-0.1 0.9,0.1 z m -8.8,3.3 c 0,0.3 0.1,0.6 0.3,0.8 0.2,0.2 0.5,0.3 0.8,0.3 0.3,0 0.6,-0.1 0.8,-0.3 0.2,-0.2 0.3,-0.5 0.3,-0.8 0,-0.3 -0.1,-0.6 -0.3,-0.8 -0.2,-0.2 -0.5,-0.3 -0.8,-0.3 -0.3,0 -0.6,0.1 -0.8,0.3 -0.2,0.2 -0.3,0.5 -0.3,0.8 z m 8.3,6.8 c 0.5,0 0.9,0.1 1.3,0.3 0.4,0.2 0.8,0.4 1.1,0.7 0.3,0.3 0.5,0.7 0.7,1.1 0.2,0.4 0.3,0.8 0.3,1.3 0,0.5 -0.1,0.9 -0.3,1.3 -0.2,0.4 -0.4,0.8 -0.7,1.1 -0.3,0.3 -0.7,0.5 -1.1,0.7 -0.4,0.2 -0.8,0.3 -1.3,0.3 -0.5,0 -0.9,-0.1 -1.3,-0.3 -0.4,-0.2 -0.8,-0.4 -1.1,-0.7 -0.3,-0.3 -0.5,-0.7 -0.7,-1.1 -0.2,-0.4 -0.3,-0.8 -0.3,-1.3 0,-0.5 0.1,-0.9 0.3,-1.3 0.2,-0.4 0.4,-0.8 0.7,-1.1 0.3,-0.3 0.7,-0.5 1.1,-0.7 0.4,-0.3 0.8,-0.3 1.3,-0.3 z m 0,4.5 c 0.3,0 0.6,-0.1 0.8,-0.3 0.2,-0.2 0.3,-0.5 0.3,-0.8 0,-0.3 -0.1,-0.6 -0.3,-0.8 -0.2,-0.2 -0.5,-0.3 -0.8,-0.3 -0.3,0 -0.6,0.1 -0.8,0.3 -0.2,0.2 -0.3,0.5 -0.3,0.8 0,0.3 0.1,0.6 0.3,0.8 0.2,0.2 0.4,0.3 0.8,0.3 z"
         id="path4235"
         inkscape:connector-curvature="0"
         style="fill:#727070" /></g><circle
       class="st8"
       cx="25.2"
       cy="24.6"
       r="21.5"
       id="circle4237" /><line
       class="st8"
       x1="25.2"
       y1="46.2"
       x2="25.2"
       y2="56.6"
       id="line4239" /></g></svg>