<?xml version="1.0" encoding="utf-8"?>
<!-- Generator: Adobe Illustrator 21.1.0, SVG Export Plug-In . SVG Version: 6.00 Build 0)  -->
<svg version="1.1" id="Layer_1" xmlns="http://www.w3.org/2000/svg" xmlns:xlink="http://www.w3.org/1999/xlink" x="0px" y="0px"
	 width="118.4px" height="106.7px" viewBox="0 0 118.4 106.7" style="enable-background:new 0 0 118.4 106.7;" xml:space="preserve"
	>
<style type="text/css">
	.st0{fill:none;stroke:#FFFFFF;stroke-width:6;stroke-linecap:round;stroke-linejoin:round;stroke-miterlimit:10;}
	.st1{fill:#717070;}
	.st2{fill:none;stroke:#CFCDCE;stroke-linecap:round;stroke-linejoin:round;stroke-miterlimit:10;}
	.st3{fill:none;stroke:#2D2D2E;stroke-width:1.5;stroke-linecap:round;stroke-linejoin:round;stroke-miterlimit:10;}
	.st4{fill:#EE7F07;}
	.st5{fill:#006D82;}
</style>
<path class="st0" d="M115.2,49.2c0-25.5-25.2-46.3-56.1-46.3S3.1,23.5,3.1,49.2c0,12,5.6,23,14.7,31.2v23.3H25V85.8
	c9.4,6,21.3,9.6,34.1,9.6s24.7-3.6,34.1-9.6v17.9h7.3V80.4C109.6,72.2,115.2,61.2,115.2,49.2z"/>
<path class="st1" d="M115.2,49.2c0-25.5-25.2-46.3-56.1-46.3S3.1,23.5,3.1,49.2c0,12,5.6,23,14.7,31.2v23.3H25V85.8
	c9.4,6,21.3,9.6,34.1,9.6s24.7-3.6,34.1-9.6v17.9h7.3V80.4C109.6,72.2,115.2,61.2,115.2,49.2z"/>
<g>
	<polyline class="st2" points="55,33.3 58.7,28 58.7,2.8 	"/>
	<line class="st2" x1="51.9" y1="31.1" x2="57.9" y2="35.4"/>
</g>
<path class="st3" d="M115.2,49.2c0-25.5-25.2-46.3-56.1-46.3S3.1,23.5,3.1,49.2c0,11.7,5.2,22.4,13.9,30.5c0.3,0.2,0.5,0.5,0.8,0.7
	v23.3H25V85.8c9.4,6,21.3,9.6,34.1,9.6s24.7-3.6,34.1-9.6v17.9h7.3V80.4C109.6,72.2,115.2,61.2,115.2,49.2z"/>
<g id="Layer_4_1_">
	<circle class="st4" cx="11.3" cy="66.2" r="2.2"/>
	<ellipse transform="matrix(0.8957 -0.4446 0.4446 0.8957 -25.7413 12.9908)" class="st4" cx="14.8" cy="61.4" rx="2.2" ry="2.2"/>
	<circle class="st4" cx="14.8" cy="70.8" r="2.2"/>
	<circle class="st4" cx="20.2" cy="70.8" r="2.2"/>
	<circle class="st4" cx="17.1" cy="66.2" r="2.2"/>
	<circle class="st4" cx="24.4" cy="75" r="2.2"/>
	<circle class="st4" cx="34.9" cy="86.2" r="2.2"/>
	<circle class="st4" cx="34.9" cy="80.7" r="2.2"/>
	<circle class="st4" cx="29.8" cy="84.1" r="2.2"/>
	<circle class="st4" cx="29.8" cy="78.4" r="2.2"/>
	<circle class="st4" cx="29.8" cy="72.2" r="2.2"/>
	<circle class="st4" cx="25" cy="68.3" r="2.2"/>
	<circle class="st4" cx="21.5" cy="62.6" r="2.2"/>
	<circle class="st4" cx="9.3" cy="60.4" r="2.2"/>
	<ellipse transform="matrix(0.7071 -0.7071 0.7071 0.7071 -48.4121 35.7747)" class="st4" cx="19" cy="76.3" rx="2.2" ry="2.2"/>
	<ellipse transform="matrix(0.7071 -0.7071 0.7071 0.7071 -49.8898 40.8934)" class="st4" cx="24.4" cy="80.7" rx="2.2" ry="2.2"/>
</g>
<g>
	<g>
		<path class="st5" d="M49.4,37.3c0.6-0.9,2-1.2,2.9-0.5c0.9,0.8,1.1,2.2,0.5,3.1c-0.6,0.9-2,1.2-2.9,0.5
			C48.9,39.6,48.6,38.2,49.4,37.3z"/>
		<path class="st5" d="M44.8,43.9c0.6-0.9,2-1.2,2.9-0.5s1.1,2.2,0.5,3.1c-0.6,0.9-2,1.2-2.9,0.5C44.3,46.2,44,44.9,44.8,43.9z"/>
		<path class="st5" d="M40.5,50.6c0.6-0.9,2-1.2,2.9-0.5s1.1,2.2,0.5,3.1c-0.6,0.9-2,1.2-2.9,0.5S39.7,51.5,40.5,50.6z"/>
		<path class="st5" d="M44.3,31.9c0.9-0.8,2.2-0.6,2.9,0.3c0.8,0.9,0.6,2.3-0.3,3.1S44.8,35.9,44,35C43.4,34,43.5,32.7,44.3,31.9z"
			/>
		<path class="st5" d="M38.4,37.1c0.9-0.8,2.2-0.6,2.9,0.3s0.6,2.3-0.3,3.1s-2.2,0.6-2.9-0.3C37.4,39.3,37.7,37.9,38.4,37.1z"/>
		<path class="st5" d="M32.6,42.5c0.9-0.8,2.2-0.6,2.9,0.3s0.6,2.3-0.3,3.1s-2.2,0.6-2.9-0.3C31.7,44.7,31.8,43.3,32.6,42.5z"/>
		<path class="st5" d="M55.1,41.6c0.5-1.1,1.5-1.7,2.6-1.2c1.1,0.5,1.5,1.7,1.2,2.9c-0.5,1.1-1.5,1.7-2.6,1.2
			C55.3,44.1,54.8,42.8,55.1,41.6z"/>
		<path class="st5" d="M52.5,49.3c0.5-1.1,1.5-1.7,2.6-1.2c1.1,0.5,1.5,1.7,1.2,2.9c-0.5,1.1-1.5,1.7-2.6,1.2
			C52.7,51.8,52,50.6,52.5,49.3z"/>
		<path class="st5" d="M49.4,57c0.5-1.1,1.5-1.7,2.6-1.2c1.1,0.5,1.5,1.7,1.2,2.9c-0.5,1.1-1.5,1.7-2.6,1.2
			C49.4,59.4,48.9,58.1,49.4,57z"/>
	</g>
</g>
<path class="st3" d="M17.8,80.4c0,0,3.3,2.9,7.3,5.4"/>
<path class="st3" d="M100.5,80.4c0,0-6.3,4.8-7.3,5.4"/>
</svg>
