<?xml version="1.0" encoding="utf-8"?>
<!-- Generator: Adobe Illustrator 21.0.2, SVG Export Plug-In . SVG Version: 6.00 Build 0)  -->
<svg version="1.1" id="Layer_1" xmlns="http://www.w3.org/2000/svg" xmlns:xlink="http://www.w3.org/1999/xlink" x="0px" y="0px"
	 width="145px" height="38.9px" viewBox="0 0 145 38.9" style="enable-background:new 0 0 145 38.9;" xml:space="preserve">
<style type="text/css">
	.st0{display:none;}
	.st1{display:inline;fill:#DB14E0;}
	.st2{display:inline;fill:#4421F4;}
	.st3{fill:none;stroke:#FFFFFF;stroke-width:6;stroke-linecap:round;stroke-linejoin:round;stroke-miterlimit:10;}
	.st4{fill:#6F6F6F;}
	.st5{fill:none;stroke:#2D2D2D;stroke-width:1.5;stroke-linecap:round;stroke-linejoin:round;stroke-miterlimit:10;}
	.st6{display:inline;fill:#35D3ED;}
	.st7{fill:#F5821F;}
	.st8{fill:#006C85;}
	.st9{fill:none;stroke:#D2D2D2;stroke-width:2;stroke-linecap:round;stroke-linejoin:round;stroke-miterlimit:10;}
	.st10{fill:#D2D2D2;stroke:#EDEDED;stroke-linecap:round;stroke-linejoin:round;stroke-miterlimit:10;}
	.st11{fill:#D2D2D2;}
</style>
<g id="Layer_1_4_">
	<g id="Layer_2_2_" class="st0">
		<rect x="-3.2" y="-14.9" class="st1" width="153.2" height="57"/>
	</g>
	<g id="Layer_1_3_">
		<g id="Layer_2_1_" class="st0">
			<rect x="-2.2" y="-18.2" class="st2" width="172.5" height="58.3"/>
		</g>
		<g id="Layer_1_2_">
			<path class="st3" d="M135.5,17v-4.5c0-1.2-1-2.1-2.1-2.1H48.9V3H37.6v7.4H26.4V3H11.9v7.4H5.3c-1.2,0-2.1,1-2.1,2.1v21.3
				c0,1.2,1,2.1,2.1,2.1h128.1c1.2,0,2.1-1,2.1-2.1v-3.3h6.6V17H135.5z"/>
			<path class="st4" d="M135.5,17v-4.5c0-1.2-1-2.1-2.1-2.1H48.9V3H37.6v7.4H26.4V3H11.9v7.4H5.3c-1.2,0-2.1,1-2.1,2.1v21.3
				c0,1.2,1,2.1,2.1,2.1h128.1c1.2,0,2.1-1,2.1-2.1v-3.3h6.6V17H135.5z"/>
			<path class="st5" d="M135.5,17v-4.5c0-1.2-1-2.1-2.1-2.1H48.9V3H37.6v7.4H26.4V3H11.9v7.4H5.3c-1.2,0-2.1,1-2.1,2.1v21.3
				c0,1.2,1,2.1,2.1,2.1h128.1c1.2,0,2.1-1,2.1-2.1v-3.3h6.6V17H135.5z"/>
			<g id="Layer_2" class="st0">
				<rect x="-11.1" y="-23.6" class="st6" width="183.3" height="79.3"/>
			</g>
			<circle class="st7" cx="15.5" cy="6.4" r="1"/>
			<circle class="st7" cx="17.4" cy="10.2" r="1"/>
			<circle class="st7" cx="22" cy="13.5" r="1"/>
			<circle class="st7" cx="19.7" cy="6.7" r="1"/>
			<circle class="st7" cx="20.2" cy="10.9" r="1"/>
			<circle class="st7" cx="23.9" cy="5.5" r="1"/>
			<circle class="st7" cx="23.3" cy="9.5" r="1"/>
			<circle class="st7" cx="131.9" cy="21.4" r="2.7"/>
			<circle class="st7" cx="130.3" cy="30" r="2.7"/>
			<circle class="st7" cx="130.3" cy="14.5" r="2.7"/>
			<circle class="st7" cx="137.3" cy="25.8" r="2.7"/>
		</g>
	</g>
</g>
<g id="Layer_2_3_">
	<path class="st8" d="M40.5,8.6c0.6,0,0.9-0.3,0.9-0.3s0.7-0.7,0-1.5s-0.9-2.2-0.9-2.2S40.3,6,39.6,6.8s0,1.5,0,1.5
		S39.9,8.6,40.5,8.6"/>
	<path class="st8" d="M46.1,8.8c0.6,0,0.9-0.3,0.9-0.3s0.7-0.7,0-1.5s-0.9-2.2-0.9-2.2S45.9,6.2,45.2,7s0,1.5,0,1.5
		S45.4,8.8,46.1,8.8"/>
	<path class="st8" d="M43.3,12.2c0.6,0,0.9-0.3,0.9-0.3s0.7-0.7,0-1.5s-0.9-2.2-0.9-2.2s-0.2,1.4-0.9,2.2s0,1.5,0,1.5
		S42.6,12.2,43.3,12.2"/>
</g>
<line class="st9" x1="8.3" y1="18" x2="125.6" y2="18"/>
<g>
	<path class="st10" d="M78.3,18c0.5-1.2-0.6-3.3-0.6-3.3s-0.6-1.4-2.6-1.4c-4.2,0-4.3,9.5-8.6,9.5c-2.1,0-2.4-1.5-2.4-1.5
		s-0.2-0.9-0.2-1.9l-0.2-3.3c-0.1-0.8-0.6-1.4-0.6-1.4s-0.6-1.3-2.6-1.4c-4.2-0.2-4.3,9.5-8.6,9.5c-2.1,0-2.4-1.5-2.4-1.5
		s-0.2-0.8-0.2-1.7l-0.1-3.3c-0.2-0.8-0.6-1.5-0.6-1.5s-0.6-1.4-2.6-1.4c-4.2,0-4.3,9.5-8.6,9.5c-2.1,0-2.4-1.5-2.4-1.5
		s-0.2-1-0.2-2.2l-0.1-2.7c-0.2-0.9-0.6-1.7-0.6-1.7s-0.6-1.4-2.6-1.4c-4.2,0-4.3,9.5-8.6,9.5c-2.1,0-2.4-1.5-2.4-1.5
		s-0.2-1-0.2-2.2l-0.1-2.5c0-1.1-0.7-2-0.7-2s-0.6-1.4-2.6-1.4c-4.2,0-4.3,9.5-8.6,9.5c-2.1,0-2.4-1.5-2.4-1.5S5.8,19,6.2,17.5h6.6"
		/>
</g>
<path class="st11" d="M82.4,22.9H79c-0.7,0-1.3-0.6-1.3-1.2v-7.8c0-0.7,0.6-1.2,1.3-1.2h3.5c0.7,0,1.3,0.6,1.3,1.2v7.8
	C83.7,22.4,83.2,22.9,82.4,22.9z"/>
<path class="st11" d="M94,22.9h-3.3c-0.7,0-1.2-0.6-1.2-1.2v-7.8c0-0.7,0.6-1.2,1.2-1.2H94c0.7,0,1.2,0.6,1.2,1.2v7.8
	C95.2,22.4,94.7,22.9,94,22.9z"/>
<path class="st11" d="M105.4,22.9h-3.3c-0.7,0-1.2-0.6-1.2-1.2v-7.8c0-0.7,0.6-1.2,1.2-1.2h3.3c0.7,0,1.2,0.6,1.2,1.2v7.8
	C106.7,22.4,106.1,22.9,105.4,22.9z"/>
<path class="st11" d="M116.8,22.9h-3.3c-0.7,0-1.2-0.6-1.2-1.2v-7.8c0-0.7,0.6-1.2,1.2-1.2h3.3c0.7,0,1.2,0.6,1.2,1.2v7.8
	C118.1,22.4,117.5,22.9,116.8,22.9z"/>
<line class="st9" x1="8.3" y1="29.4" x2="125.6" y2="29.4"/>
<g>
	<path class="st10" d="M75.5,28.6c-0.1-1,0.1-2,0.1-2s0-1.5-2-1.5c-4.2,0-2.8,9.2-7.1,9.2c-2.1,0-2.4-1.5-2.4-1.5s-0.2-0.9-0.2-1.9
		l-0.2-3.3c-0.1-0.8-0.6-1.4-0.6-1.4s-0.6-1.3-2.6-1.4c-4.2-0.2-4.3,9.5-8.6,9.5c-2.1,0-2.4-1.5-2.4-1.5s-0.2-0.8-0.2-1.7l-0.1-3.3
		c-0.2-0.8-0.6-1.5-0.6-1.5s-0.6-1.4-2.6-1.4c-4.2,0-4.3,9.5-8.6,9.5c-2.1,0-2.4-1.5-2.4-1.5s-0.2-1-0.2-2.2l-0.1-2.7
		c-0.2-0.9-0.6-1.7-0.6-1.7s-0.6-1.4-2.6-1.4c-4.2,0-4.3,9.5-8.6,9.5c-2.1,0-2.4-1.5-2.4-1.5s-0.2-1-0.2-2.2L20.4,28
		c0-1.1-0.7-2-0.7-2s-0.6-1.4-2.6-1.4c-4.2,0-4.3,9.5-8.6,9.5c-2.1,0-2.4-1.5-2.4-1.5s-0.3-2.3,0.1-3.8h6.6"/>
</g>
<path class="st11" d="M76.5,34.3H73c-0.7,0-1.3-0.6-1.3-1.2v-7.8c0-0.7,0.6-1.2,1.3-1.2h3.5c0.7,0,1.3,0.6,1.3,1.2v7.8
	C77.7,33.8,77.2,34.3,76.5,34.3z"/>
<path class="st11" d="M88.2,34.3h-3.3c-0.7,0-1.2-0.6-1.2-1.2v-7.8c0-0.7,0.6-1.2,1.2-1.2h3.3c0.7,0,1.2,0.6,1.2,1.2v7.8
	C89.4,33.8,88.9,34.3,88.2,34.3z"/>
<path class="st11" d="M99.7,34.3h-3.3c-0.7,0-1.2-0.6-1.2-1.2v-7.8c0-0.7,0.6-1.2,1.2-1.2h3.3c0.7,0,1.2,0.6,1.2,1.2v7.8
	C101,33.8,100.4,34.3,99.7,34.3z"/>
<path class="st11" d="M111.1,34.3h-3.3c-0.7,0-1.2-0.6-1.2-1.2v-7.8c0-0.7,0.6-1.2,1.2-1.2h3.3c0.7,0,1.2,0.6,1.2,1.2v7.8
	C112.4,33.8,111.8,34.3,111.1,34.3z"/>
<path class="st11" d="M122.5,34.3h-3.3c-0.7,0-1.2-0.6-1.2-1.2v-7.8c0-0.7,0.6-1.2,1.2-1.2h3.3c0.7,0,1.2,0.6,1.2,1.2v7.8
	C123.8,33.8,123.2,34.3,122.5,34.3z"/>
</svg>
