<?xml version="1.0" encoding="UTF-8" standalone="no"?>
<!-- Generator: Adobe Illustrator 21.0.2, SVG Export Plug-In . SVG Version: 6.00 Build 0)  -->

<svg
   xmlns:dc="http://purl.org/dc/elements/1.1/"
   xmlns:cc="http://creativecommons.org/ns#"
   xmlns:rdf="http://www.w3.org/1999/02/22-rdf-syntax-ns#"
   xmlns:svg="http://www.w3.org/2000/svg"
   xmlns="http://www.w3.org/2000/svg"
   xmlns:sodipodi="http://sodipodi.sourceforge.net/DTD/sodipodi-0.dtd"
   xmlns:inkscape="http://www.inkscape.org/namespaces/inkscape"
   version="1.1"
   x="0px"
   y="0px"
   width="50.5px"
   height="50.5px"
   viewBox="0 0 50.5 50.5"
   style="enable-background:new 0 0 50.5 50.5;"
   xml:space="preserve"
   id="svg4688"
   inkscape:version="0.91 r13725"
   sodipodi:docname="two_compartment_PK.svg"><metadata
     id="metadata4715"><rdf:RDF><cc:Work
         rdf:about=""><dc:format>image/svg+xml</dc:format><dc:type
           rdf:resource="http://purl.org/dc/dcmitype/StillImage" /></cc:Work></rdf:RDF></metadata><defs
     id="defs4713" /><sodipodi:namedview
     pagecolor="#ffffff"
     bordercolor="#666666"
     borderopacity="1"
     objecttolerance="10"
     gridtolerance="10"
     guidetolerance="10"
     inkscape:pageopacity="0"
     inkscape:pageshadow="2"
     inkscape:window-width="742"
     inkscape:window-height="480"
     id="namedview4711"
     showgrid="false"
     inkscape:zoom="4.6732673"
     inkscape:cx="25.25"
     inkscape:cy="25.25"
     inkscape:window-x="0"
     inkscape:window-y="0"
     inkscape:window-maximized="0"
     inkscape:current-layer="Layer_1" /><style
     type="text/css"
     id="style4690">
	.st0{display:none;}
	.st1{display:inline;fill:#1EFF00;stroke:#000000;stroke-miterlimit:10;}
	.st2{fill:none;stroke:#FFFFFF;stroke-width:6;stroke-linecap:round;stroke-linejoin:round;stroke-miterlimit:10;}
	.st3{fill:#6F6F6F;}
	.st4{fill:none;stroke:#2D2D2D;stroke-width:1.5;stroke-linecap:round;stroke-linejoin:round;stroke-miterlimit:10;}
	.st5{fill:#C0C0C0;}
</style><g
     id="Layer_2"
     class="st0"><rect
       x="-2.6"
       y="-4.7"
       class="st1"
       width="63.5"
       height="59.6"
       id="rect4693" /></g><g
     id="Layer_1"><g
       id="g7" /><g
       id="svg2"
       inkscape:version="0.48.4 r"
       sodipodi:docname="PK1.png"><sodipodi:namedview
         bordercolor="#666666"
         borderopacity="1.0"
         id="base"
         inkscape:current-layer="layer1"
         inkscape:cx="691.40998"
         inkscape:cy="451.42319"
         inkscape:document-units="px"
         inkscape:pageopacity="0.0"
         inkscape:pageshadow="2"
         inkscape:window-height="1018"
         inkscape:window-maximized="1"
         inkscape:window-width="1920"
         inkscape:window-x="-8"
         inkscape:window-y="-8"
         inkscape:zoom="0.35"
         pagecolor="#ffffff"
         showgrid="false" /><path
         class="st2"
         d="M47.4,41.9c0,2.9-2.4,5.4-5.4,5.4H8.5c-2.9,0-5.4-2.4-5.4-5.4V8.4C3.1,5.5,5.5,3,8.5,3H42    c2.9,0,5.4,2.4,5.4,5.4C47.4,8.4,47.4,41.9,47.4,41.9z"
         id="path4699" /><path
         class="st3"
         d="M47.4,41.9c0,2.9-2.4,5.4-5.4,5.4H8.5c-2.9,0-5.4-2.4-5.4-5.4V8.4C3.1,5.5,5.5,3,8.5,3H42    c2.9,0,5.4,2.4,5.4,5.4C47.4,8.4,47.4,41.9,47.4,41.9z"
         id="path4701" /><path
         class="st4"
         d="M47.4,41.9c0,2.9-2.4,5.4-5.4,5.4H8.5c-2.9,0-5.4-2.4-5.4-5.4V8.4C3.1,5.5,5.5,3,8.5,3H42    c2.9,0,5.4,2.4,5.4,5.4C47.4,8.4,47.4,41.9,47.4,41.9z"
         id="path4703" /><path
         class="st5"
         d="M31.7,11.9c-2.2,0-4.4,0.6-6.2,1.6c-1.8-1-3.9-1.6-6.2-1.6C12,11.9,6,17.8,6,25.3s6,13.4,13.4,13.4    c2.2,0,4.4-0.6,6.2-1.6c1.8,1,3.9,1.6,6.2,1.6c7.4,0,13.4-6,13.4-13.4S39,11.9,31.7,11.9z"
         id="path4705" /><g
         id="g4707"
         transformBehaviour="pinned"><path
           class="st3"
           d="m 22.2,20.5 c -0.3,-0.2 -0.4,-0.4 -0.6,-0.8 -0.1,-0.3 0,-0.6 0.1,-0.9 0.6,-1 1.3,-1.6 2.5,-1.9 0.6,-0.1 1,-0.2 1.6,-0.1 0.6,0.1 1,0.2 1.6,0.4 1,0.6 1.7,1.3 2,2.5 0.1,0.6 0.2,1 0.1,1.6 -0.1,0.6 -0.2,1 -0.4,1.6 -0.6,1.1 -1.2,2.1 -1.7,3.1 -0.2,0.4 -0.4,0.9 -0.7,1.3 -0.2,0.4 -0.4,0.9 -0.7,1.3 -0.2,0.4 -0.4,0.9 -0.7,1.2 -0.2,0.3 -0.3,0.7 -0.6,1 l 3.6,0 c 0.3,0 0.6,0.1 0.8,0.3 0.2,0.2 0.3,0.6 0.3,0.8 0,0.3 -0.1,0.6 -0.3,0.8 -0.2,0.2 -0.6,0.3 -0.8,0.3 l -5.5,0 c -0.4,0 -0.8,-0.2 -1,-0.6 -0.2,-0.3 -0.2,-0.8 0,-1.1 L 27,21.4 C 27.2,21 27.2,20.5 27.1,20.1 27,19.7 26.7,19.3 26.3,19.1 25.9,18.9 25.4,18.9 25,19 c -0.4,0.1 -0.8,0.4 -1,0.8 -0.1,0.3 -0.4,0.4 -0.7,0.6 -0.5,0.4 -0.9,0.4 -1.1,0.1 z"
           id="path4709"
           inkscape:connector-curvature="0"
           style="fill:#6f6f6f" /></g></g></g></svg>