<?xml version="1.0" encoding="UTF-8" standalone="no"?>
<?gproms path="Vertical_blender_block.relative_fill"?>

<svg
   xmlns:dc="http://purl.org/dc/elements/1.1/"
   xmlns:cc="http://creativecommons.org/ns#"
   xmlns:rdf="http://www.w3.org/1999/02/22-rdf-syntax-ns#"
   xmlns:svg="http://www.w3.org/2000/svg"
   xmlns="http://www.w3.org/2000/svg"
   xmlns:sodipodi="http://sodipodi.sourceforge.net/DTD/sodipodi-0.dtd"
   xmlns:inkscape="http://www.inkscape.org/namespaces/inkscape"
   version="1.1"
   x="0px"
   y="0px"
   width="73.7px"
   height="127.2px"
   viewBox="0 0 73.7 127.2"
   style="enable-background:new 0 0 73.7 127.2;"
   xml:space="preserve"
   id="svg2"
   inkscape:version="0.91 r13725"
   sodipodi:docname="vertical_blender.svg"><metadata
     id="metadata101"><rdf:RDF><cc:Work
         rdf:about=""><dc:format>image/svg+xml</dc:format><dc:type
           rdf:resource="http://purl.org/dc/dcmitype/StillImage" /></cc:Work></rdf:RDF></metadata><defs
     id="defs99" /><sodipodi:namedview
     pagecolor="#ffffff"
     bordercolor="#666666"
     borderopacity="1"
     objecttolerance="10"
     gridtolerance="10"
     guidetolerance="10"
     inkscape:pageopacity="0"
     inkscape:pageshadow="2"
     inkscape:window-width="1536"
     inkscape:window-height="801"
     id="namedview97"
     showgrid="true"
     inkscape:zoom="3.7106919"
     inkscape:cx="64.881956"
     inkscape:cy="67.98883"
     inkscape:window-x="-8"
     inkscape:window-y="-8"
     inkscape:window-maximized="1"
     inkscape:current-layer="svg2"><inkscape:grid
       type="xygrid"
       id="grid4250" /></sodipodi:namedview><style
     type="text/css"
     id="style4">
	.st0{display:none;}
	.st1{display:inline;fill:#D44500;stroke:#000000;stroke-miterlimit:10;}
	.st2{display:inline;fill:#F5821F;}
	.st3{display:inline;fill:#E21A1A;}
	.st4{fill:none;stroke:#FFFFFF;stroke-width:6;stroke-linecap:round;stroke-linejoin:round;stroke-miterlimit:10;}
	.st5{fill:#6F6F6F;}
	.st6{fill:none;stroke:#2D2D2D;stroke-width:1.5;stroke-linecap:round;stroke-linejoin:round;stroke-miterlimit:10;}
	.st7{fill:#F5821F;}
	.st8{fill:none;stroke:#D2D2D2;stroke-linecap:round;stroke-linejoin:round;}
	.st9{fill:#D2D2D2;}
</style><g
     id="Layer_2_2_"
     class="st0"><rect
       x="-6"
       y="-11"
       class="st1"
       width="98.5"
       height="157"
       id="rect7" /></g><g
     id="Layer_1"><g
       id="Layer_2_1_"
       class="st0"><rect
         x="-0.1"
         y="8.5"
         class="st2"
         width="79.4"
         height="127.5"
         id="rect11" /></g><g
       id="Layer_1_2_"><g
         id="Layer_2"
         class="st0"><rect
           x="-12.3"
           y="-21.7"
           class="st3"
           width="111"
           height="170"
           id="rect15" /></g><g
         id="Layer_1_1_"><path
           class="st4"
           d="M3.4,3.2v94.1v5.9c0,12.8,20.6,20.6,33.4,20.6s33.4-7.8,33.4-20.6v-5.9V3.2H3.4z"
           id="path18" /><path
           class="st5"
           d="M3.4,3.2v94.1v5.9c0,12.8,20.6,20.6,33.4,20.6s33.4-7.8,33.4-20.6v-5.9V3.2H3.4z"
           id="path20" /><path
           class="st6"
           d="M3.4,3.2v94.1v5.9c0,12.8,20.6,20.6,33.4,20.6s33.4-7.8,33.4-20.6v-5.9V3.2H3.4z"
           id="path22" /></g><g
         id="Layer_3" /><circle
         class="st7"
         cx="22.1"
         cy="12.4"
         r="2.7"
         id="circle25" /><circle
         class="st7"
         cx="30.5"
         cy="20.6"
         r="2.7"
         id="circle27" /><circle
         class="st7"
         cx="46.5"
         cy="9.7"
         r="2.7"
         id="circle29" /><circle
         class="st7"
         cx="51.9"
         cy="42.4"
         r="2.7"
         id="circle31" /><circle
         class="st7"
         cx="24.8"
         cy="35.4"
         r="2.7"
         id="circle33" /><circle
         class="st7"
         cx="50.7"
         cy="21.2"
         r="2.7"
         id="circle35" /><circle
         class="st7"
         cx="49.2"
         cy="32.8"
         r="2.7"
         id="circle37" /><circle
         class="st7"
         cx="24.8"
         cy="96.3"
         r="2.7"
         id="circle39" /><circle
         class="st7"
         cx="30.5"
         cy="112"
         r="2.7"
         id="circle41" /><circle
         class="st7"
         cx="42.8"
         cy="117.5"
         r="2.7"
         id="circle43" /><circle
         class="st7"
         cx="42.8"
         cy="101"
         r="2.7"
         id="circle45" /><circle
         class="st7"
         cx="31.9"
         cy="64.7"
         r="2.7"
         id="circle47" /><circle
         class="st7"
         cx="24.8"
         cy="55.5"
         r="2.7"
         id="circle49" /><circle
         class="st7"
         cx="31.5"
         cy="41.1"
         r="2.7"
         id="circle51" /><circle
         class="st7"
         cx="47.3"
         cy="52.3"
         r="2.7"
         id="circle53" /><circle
         class="st7"
         cx="44.6"
         cy="76"
         r="2.7"
         id="circle55" /><circle
         class="st7"
         cx="27.8"
         cy="81.5"
         r="2.7"
         id="circle57" /><rect
         style="opacity:1;fill:#f5821f;fill-opacity:1"
         id="rect4229-8"
         width="5.9288144"
         height="99.172882"
         x="59.997974"
         y="-106.17966"
         transform="scale(1,-1)"><animate
           attributeName="height"
           attributeType="XML"
           dur="1s"
           fill="freeze"
           from="1"
           to="99" /></rect><rect
         style="opacity:1;fill:#f5821f;fill-opacity:1"
         id="rect4229"
         width="5.9288144"
         height="99.172882"
         x="8.3542376"
         y="-106.17966"
         transform="scale(1,-1)"><animate
           attributeName="height"
           attributeType="XML"
           dur="1s"
           from="1"
           to="99"
           fill="freeze" /></rect><circle
         class="st7"
         cx="48"
         cy="95"
         r="2.7"
         id="circle59" /><g
         id="g61"><g
           id="g63"><path
             class="st8"
             d="M37.6,111.6c0,0,4.5-0.4,4.5-3.3c0-5.9-13-6-13-11.7c0-2.7,1.9-3.5,1.9-3.5s1.9-1,6.3-0.8"
             id="path65" /></g><g
           id="g67"><path
             class="st8"
             d="M37.6,80.9c3.8,1.9,8.9,3.4,8.9,7c0,2.7-1.9,3.5-1.9,3.5s-1.9,1-6.3,0.8"
             id="path69" /></g><g
           id="g71"><path
             class="st8"
             d="M37.6,80.8c-3.7-1.9-8.5-3.3-8.5-6.8c0-2.7,1.9-3.5,1.9-3.5s1.9-1,6.3-0.8"
             id="path73" /></g><g
           id="g75"><path
             class="st8"
             d="M37.6,58.3c3.8,1.9,8.9,3.4,8.9,7c0,2.7-1.9,3.5-1.9,3.5s-1.9,1-6.3,0.8"
             id="path77" /></g><g
           id="g79"><path
             class="st8"
             d="M37.2,57.7c-3.7-1.8-8.1-3.3-8.1-6.5c0-2.7,1.9-3.5,1.9-3.5s1.9-1,6.3-0.8"
             id="path81" /></g><g
           id="g83"><path
             class="st8"
             d="M37.6,35.4c3.8,1.9,8.9,3.4,8.9,7c0,2.7-1.9,3.5-1.9,3.5s-1.9,1-6.3,0.8"
             id="path85" /></g><g
           id="g87"><path
             class="st8"
             d="M37.6,35.4c-3.7-1.9-8.5-3.3-8.5-6.8c0-2.7,1.9-3.5,1.9-3.5s1.9-1,6.3-0.8"
             id="path89" /></g><g
           id="g91"><path
             class="st8"
             d="M37.6,12.7c3.8,1.9,8.9,3.4,8.9,7c0,2.7-1.9,3.5-1.9,3.5s-1.9,1-6.3,0.8"
             id="path93" /></g><path
           class="st9"
           d="M39,113.3V11.1c0-0.8-0.5-1.5-1.2-1.5h-1c-0.7,0-1.2,0.7-1.2,1.5v102.2c0,0.8,0.5,1.5,1.2,1.5h1     C38.4,114.8,39,114.1,39,113.3z"
           id="path95" /></g></g></g></svg>