<?xml version="1.0" encoding="utf-8"?>
<!-- Generator: Adobe Illustrator 21.0.2, SVG Export Plug-In . SVG Version: 6.00 Build 0)  -->
<svg version="1.1" id="Layer_1" xmlns="http://www.w3.org/2000/svg" xmlns:xlink="http://www.w3.org/1999/xlink" x="0px" y="0px"
	 width="88.4px" height="130.4px" viewBox="0 0 88.4 130.4" style="enable-background:new 0 0 88.4 130.4;" xml:space="preserve">
<style type="text/css">
	.st0{fill:none;stroke:#FFFFFF;stroke-width:6;stroke-linecap:round;stroke-linejoin:round;stroke-miterlimit:10;}
	.st1{fill:#6F6F6F;}
	.st2{fill:#006C85;}
	.st3{fill:#AEE0E5;}
	.st4{fill:none;stroke:#D2D2D2;stroke-linecap:round;stroke-linejoin:round;}
	.st5{fill:none;stroke:#231F20;stroke-width:1.5;stroke-linecap:round;stroke-linejoin:round;stroke-miterlimit:10;}
</style>
<path id="leg" class="st0" d="M57.1,3.3c-10.8,0-28.2,6.5-28.2,17.4v5v35.8H3v8.1h25.9v35.6v5c0,10.8,17.4,17.4,28.2,17.4
	s28.2-6.6,28.2-17.4v-5V25.6v-5C85.3,9.8,68,3.3,57.1,3.3z"/>
<path id="fill" class="st1" d="M57.1,3.3c-10.8,0-28.2,6.5-28.2,17.4v5v35.8H3v8.1h25.9v35.6v5c0,10.8,17.4,17.4,28.2,17.4
	s28.2-6.6,28.2-17.4v-5V25.6v-5C85.3,9.8,68,3.3,57.1,3.3z"/>
<circle class="st2" cx="33.6" cy="68.4" r="1.8"/>
<circle class="st2" cx="33.9" cy="62.3" r="1.8"/>
<circle class="st3" cx="36.9" cy="73.7" r="1.8"/>
<line class="st4" x1="33.9" y1="17.1" x2="80.1" y2="17.1"/>
<line class="st4" x1="33.9" y1="113.3" x2="80.1" y2="113.3"/>
<path class="st4" d="M45.3,42.9c-2.4,7-10.7,3.7-12.2,12.2"/>
<path class="st4" d="M48.2,45.7c-2.4,7-10.7,3.6-12.2,12.2"/>
<circle class="st2" cx="39.6" cy="68.9" r="1.8"/>
<circle class="st2" cx="45.3" cy="68.4" r="1.8"/>
<circle class="st2" cx="45" cy="59.8" r="1.8"/>
<circle class="st2" cx="48.9" cy="64.2" r="1.8"/>
<circle class="st2" cx="50.8" cy="70.1" r="1.8"/>
<circle class="st2" cx="39.8" cy="63.3" r="1.8"/>
<circle class="st3" cx="43.3" cy="74.1" r="1.8"/>
<ellipse transform="matrix(0.1676 -0.9859 0.9859 0.1676 -43.4106 105.3472)" class="st3" cx="40.7" cy="78.4" rx="1.8" ry="1.8"/>
<ellipse transform="matrix(0.1676 -0.9859 0.9859 0.1676 -49.8214 109.2081)" class="st3" cx="39.8" cy="84.1" rx="1.8" ry="1.8"/>
<rect x="3.4" y="61.6" class="st2" width="26.3" height="8.3"/>
<ellipse transform="matrix(0.1676 -0.9859 0.9859 0.1676 -43.2485 113.323)" class="st3" cx="45.5" cy="82.3" rx="1.8" ry="1.8"/>
<path id="out" class="st5" d="M57.1,3.3c-10.8,0-28.2,6.5-28.2,17.4v5v35.8H3v8.1h25.9v35.6v5c0,10.8,17.4,17.4,28.2,17.4
	s28.2-6.6,28.2-17.4v-5V25.6v-5C85.3,9.8,68,3.3,57.1,3.3z"/>
</svg>
