<?xml version="1.0" encoding="UTF-8" standalone="no"?>
<!DOCTYPE svg PUBLIC "-//W3C//DTD SVG 1.0//EN" "http://www.w3.org/TR/2001/PR-SVG-20010719/DTD/svg10.dtd">
<svg width="8cm" height="14cm" viewBox="142 177 141 261" xmlns="http://www.w3.org/2000/svg" xmlns:xlink="http://www.w3.org/1999/xlink">
  <g>
    <polygon style="fill: #ffffff" points="200,231.429 260,231.429 260,388.571 200,388.571 "/>
    <path style="fill: #ffffff" d="M 200 231.429 C 230,200 260,231.429 260,231.429 L 200,231.429z"/>
    <path style="fill: #ffffff" d="M 200 388.571 C 230,420 260,388.571 260,388.571 L 200,388.571z"/>
    <line style="fill: none; fill-opacity:0; stroke-width: 2; stroke: #000000" x1="200" y1="231.429" x2="200" y2="388.571"/>
    <line style="fill: none; fill-opacity:0; stroke-width: 2; stroke: #000000" x1="260" y1="231.429" x2="260" y2="388.571"/>
    <path style="fill: none; fill-opacity:0; stroke-width: 2; stroke: #000000" d="M 200 231.429 C 230,200 260,231.429 260,231.429"/>
    <path style="fill: none; fill-opacity:0; stroke-width: 2; stroke: #000000" d="M 200 388.571 C 230,420 260,388.571 260,388.571"/>
    <line style="fill: none; fill-opacity:0; stroke-width: 2; stroke-dasharray: 5.6; stroke: #000000" x1="200" y1="247.143" x2="260" y2="247.143"/>
    <line style="fill: none; fill-opacity:0; stroke-width: 2; stroke-dasharray: 5.6; stroke: #000000" x1="200" y1="255" x2="260" y2="255"/>
    <line style="fill: none; fill-opacity:0; stroke-width: 2; stroke-dasharray: 5.6; stroke: #000000" x1="200" y1="262.857" x2="260" y2="262.857"/>
    <line style="fill: none; fill-opacity:0; stroke-width: 2; stroke-dasharray: 5.6; stroke: #000000" x1="200" y1="357.143" x2="260" y2="357.143"/>
    <line style="fill: none; fill-opacity:0; stroke-width: 2; stroke-dasharray: 5.6; stroke: #000000" x1="200" y1="365" x2="260" y2="365"/>
    <line style="fill: none; fill-opacity:0; stroke-width: 2; stroke-dasharray: 5.6; stroke: #000000" x1="200" y1="372.857" x2="260" y2="372.857"/>
  </g>
  <g>
    <line style="fill: none; fill-opacity:0; stroke-width: 2; stroke: #000000" x1="210" y1="223.25" x2="210" y2="192.986"/>
    <polygon style="fill: #000000" points="210,185.486 215,195.486 210,192.986 205,195.486 "/>
    <polygon style="fill: none; fill-opacity:0; stroke-width: 2; stroke: #000000" points="210,185.486 215,195.486 210,192.986 205,195.486 "/>
  </g>
  <text font-size="12.8" style="fill: #000000;text-anchor:start;font-family:Segoe UI Light;font-style:normal;font-weight:300" x="177.25" y="191">
    <tspan x="177.25" y="191">V(1)</tspan>
  </text>
  <g>
    <line style="fill: none; fill-opacity:0; stroke-width: 2; stroke: #000000" x1="144" y1="294" x2="190.264" y2="294.236"/>
    <polygon style="fill: #000000" points="197.764,294.274 187.739,299.223 190.264,294.236 187.79,289.223 "/>
    <polygon style="fill: none; fill-opacity:0; stroke-width: 2; stroke: #000000" points="197.764,294.274 187.739,299.223 190.264,294.236 187.79,289.223 "/>
  </g>
  <text font-size="12.8" style="fill: #000000;text-anchor:start;font-family:Segoe UI Light;font-style:normal;font-weight:300" x="160" y="280">
    <tspan x="160" y="280">F</tspan>
  </text>
  <g>
    <line style="fill: none; fill-opacity:0; stroke-width: 2; stroke: #000000" x1="251.886" y1="215.1" x2="251.886" y2="184.836"/>
    <polygon style="fill: #000000" points="251.886,222.6 246.886,212.6 251.886,215.1 256.886,212.6 "/>
    <polygon style="fill: none; fill-opacity:0; stroke-width: 2; stroke: #000000" points="251.886,222.6 246.886,212.6 251.886,215.1 256.886,212.6 "/>
  </g>
  <text font-size="12.8" style="fill: #000000;text-anchor:start;font-family:Segoe UI Light;font-style:normal;font-weight:300" x="259.15" y="191.65">
    <tspan x="259.15" y="191.65">L(0)</tspan>
  </text>
  <g>
    <line style="fill: none; fill-opacity:0; stroke-width: 2; stroke: #000000" x1="208.49" y1="434.982" x2="208.49" y2="404.718"/>
    <polygon style="fill: #000000" points="208.49,397.218 213.49,407.218 208.49,404.718 203.49,407.218 "/>
    <polygon style="fill: none; fill-opacity:0; stroke-width: 2; stroke: #000000" points="208.49,397.218 213.49,407.218 208.49,404.718 203.49,407.218 "/>
  </g>
  <g>
    <line style="fill: none; fill-opacity:0; stroke-width: 2; stroke: #000000" x1="252.196" y1="425.95" x2="252.196" y2="395.686"/>
    <polygon style="fill: #000000" points="252.196,433.45 247.196,423.45 252.196,425.95 257.196,423.45 "/>
    <polygon style="fill: none; fill-opacity:0; stroke-width: 2; stroke: #000000" points="252.196,433.45 247.196,423.45 252.196,425.95 257.196,423.45 "/>
  </g>
  <text font-size="12.8" style="fill: #000000;text-anchor:start;font-family:Segoe UI Light;font-style:normal;font-weight:300" x="162.203" y="434.668">
    <tspan x="162.203" y="434.668">V(N+1)</tspan>
  </text>
  <text font-size="12.8" style="fill: #000000;text-anchor:start;font-family:Segoe UI Light;font-style:normal;font-weight:300" x="261.254" y="434.738">
    <tspan x="261.254" y="434.738">L(N)</tspan>
  </text>
</svg>
