<?xml version="1.0" encoding="UTF-8" standalone="no"?>
<!DOCTYPE svg PUBLIC "-//W3C//DTD SVG 1.0//EN" "http://www.w3.org/TR/2001/PR-SVG-20010719/DTD/svg10.dtd">
<svg width="13cm" height="16cm" viewBox="84 99 258 302" xmlns="http://www.w3.org/2000/svg" xmlns:xlink="http://www.w3.org/1999/xlink">
  <g>
    <rect style="fill: #ffffff" x="100" y="100" width="200" height="100"/>
    <rect style="fill: none; fill-opacity:0; stroke-width: 2; stroke: #000000" x="100" y="100" width="200" height="100"/>
  </g>
  <g>
    <rect style="fill: #ffffff" x="100" y="300" width="200" height="100"/>
    <rect style="fill: none; fill-opacity:0; stroke-width: 2; stroke: #000000" x="100" y="300" width="200" height="100"/>
  </g>
  <g>
    <line style="fill: none; fill-opacity:0; stroke-width: 2; stroke: #000000" x1="260" y1="200" x2="260" y2="290.264"/>
    <polygon style="fill: #000000" points="260,297.764 255,287.764 260,290.264 265,287.764 "/>
    <polygon style="fill: none; fill-opacity:0; stroke-width: 2; stroke: #000000" points="260,297.764 255,287.764 260,290.264 265,287.764 "/>
  </g>
  <g>
    <line style="fill: none; fill-opacity:0; stroke-width: 2; stroke: #000000" x1="140" y1="300" x2="140" y2="209.736"/>
    <polygon style="fill: #000000" points="140,202.236 145,212.236 140,209.736 135,212.236 "/>
    <polygon style="fill: none; fill-opacity:0; stroke-width: 2; stroke: #000000" points="140,202.236 145,212.236 140,209.736 135,212.236 "/>
  </g>
  <text font-size="16.9333" style="fill: #000000;text-anchor:middle;font-family:Segoe UI Light;font-style:normal;font-weight:300" x="200" y="150">
    <tspan x="200" y="150">N-1</tspan>
  </text>
  <text font-size="16.9333" style="fill: #000000;text-anchor:middle;font-family:Segoe UI Light;font-style:normal;font-weight:300" x="200" y="350">
    <tspan x="200" y="350">N</tspan>
  </text>
  <text font-size="12.8" style="fill: #000000;text-anchor:start;font-family:Segoe UI Light;font-style:normal;font-weight:300" x="340" y="200">
    <tspan x="340" y="200"></tspan>
  </text>
  <text font-size="16.9333" style="fill: #000000;text-anchor:middle;font-family:Segoe UI Light;font-style:normal;font-weight:300" x="220" y="280">
    <tspan x="220" y="280">L(N-1)</tspan>
  </text>
  <text font-size="16.9333" style="fill: #000000;text-anchor:middle;font-family:Segoe UI Light;font-style:normal;font-weight:300" x="100" y="260">
    <tspan x="100" y="260">V(N)</tspan>
  </text>
  <text font-size="16.9333" style="fill: #000000;text-anchor:middle;font-family:Segoe UI Light;font-style:normal;font-weight:300" x="320" y="240">
    <tspan x="320" y="240">B</tspan>
  </text>
  <g>
    <line style="fill: none; fill-opacity:0; stroke-width: 2; stroke: #000000" x1="260" y1="250" x2="329.265" y2="249.123"/>
    <polygon style="fill: #000000" points="336.764,249.028 326.828,254.154 329.265,249.123 326.702,244.155 "/>
    <polygon style="fill: none; fill-opacity:0; stroke-width: 2; stroke: #000000" points="336.764,249.028 326.828,254.154 329.265,249.123 326.702,244.155 "/>
  </g>
</svg>
