<?xml version="1.0" encoding="UTF-8" standalone="no"?>
<!DOCTYPE svg PUBLIC "-//W3C//DTD SVG 1.0//EN" "http://www.w3.org/TR/2001/PR-SVG-20010719/DTD/svg10.dtd">
<svg width="34cm" height="23cm" viewBox="140 41 661 460" xmlns="http://www.w3.org/2000/svg" xmlns:xlink="http://www.w3.org/1999/xlink">
  <g>
    <ellipse style="fill: #ffffff" cx="500" cy="300" rx="200" ry="200"/>
    <ellipse style="fill: none; fill-opacity:0; stroke-width: 2; stroke: #000000" cx="500" cy="300" rx="200" ry="200"/>
    <ellipse style="fill: none; fill-opacity:0; stroke-width: 2; stroke: #000000" cx="500" cy="300" rx="200" ry="200"/>
  </g>
  <line style="fill: none; fill-opacity:0; stroke-width: 2; stroke: #000000" x1="340" y1="180" x2="660" y2="180"/>
  <g>
    <ellipse style="fill: #ffffff" cx="350" cy="210" rx="10" ry="10"/>
    <ellipse style="fill: none; fill-opacity:0; stroke-width: 2; stroke: #000000" cx="350" cy="210" rx="10" ry="10"/>
    <ellipse style="fill: none; fill-opacity:0; stroke-width: 2; stroke: #000000" cx="350" cy="210" rx="10" ry="10"/>
  </g>
  <g>
    <ellipse style="fill: #ffffff" cx="390" cy="210" rx="10" ry="10"/>
    <ellipse style="fill: none; fill-opacity:0; stroke-width: 2; stroke: #000000" cx="390" cy="210" rx="10" ry="10"/>
    <ellipse style="fill: none; fill-opacity:0; stroke-width: 2; stroke: #000000" cx="390" cy="210" rx="10" ry="10"/>
  </g>
  <g>
    <ellipse style="fill: #ffffff" cx="430" cy="210" rx="10" ry="10"/>
    <ellipse style="fill: none; fill-opacity:0; stroke-width: 2; stroke: #000000" cx="430" cy="210" rx="10" ry="10"/>
    <ellipse style="fill: none; fill-opacity:0; stroke-width: 2; stroke: #000000" cx="430" cy="210" rx="10" ry="10"/>
  </g>
  <g>
    <ellipse style="fill: #ffffff" cx="470" cy="210" rx="10" ry="10"/>
    <ellipse style="fill: none; fill-opacity:0; stroke-width: 2; stroke: #000000" cx="470" cy="210" rx="10" ry="10"/>
    <ellipse style="fill: none; fill-opacity:0; stroke-width: 2; stroke: #000000" cx="470" cy="210" rx="10" ry="10"/>
  </g>
  <g>
    <ellipse style="fill: #ffffff" cx="510" cy="210" rx="10" ry="10"/>
    <ellipse style="fill: none; fill-opacity:0; stroke-width: 2; stroke: #000000" cx="510" cy="210" rx="10" ry="10"/>
    <ellipse style="fill: none; fill-opacity:0; stroke-width: 2; stroke: #000000" cx="510" cy="210" rx="10" ry="10"/>
  </g>
  <g>
    <ellipse style="fill: #ffffff" cx="550" cy="210" rx="10" ry="10"/>
    <ellipse style="fill: none; fill-opacity:0; stroke-width: 2; stroke: #000000" cx="550" cy="210" rx="10" ry="10"/>
    <ellipse style="fill: none; fill-opacity:0; stroke-width: 2; stroke: #000000" cx="550" cy="210" rx="10" ry="10"/>
  </g>
  <g>
    <ellipse style="fill: #ffffff" cx="590" cy="210" rx="10" ry="10"/>
    <ellipse style="fill: none; fill-opacity:0; stroke-width: 2; stroke: #000000" cx="590" cy="210" rx="10" ry="10"/>
    <ellipse style="fill: none; fill-opacity:0; stroke-width: 2; stroke: #000000" cx="590" cy="210" rx="10" ry="10"/>
  </g>
  <g>
    <ellipse style="fill: #ffffff" cx="630" cy="210" rx="10" ry="10"/>
    <ellipse style="fill: none; fill-opacity:0; stroke-width: 2; stroke: #000000" cx="630" cy="210" rx="10" ry="10"/>
    <ellipse style="fill: none; fill-opacity:0; stroke-width: 2; stroke: #000000" cx="630" cy="210" rx="10" ry="10"/>
  </g>
  <g>
    <ellipse style="fill: #ffffff" cx="330" cy="250" rx="10" ry="10"/>
    <ellipse style="fill: none; fill-opacity:0; stroke-width: 2; stroke: #000000" cx="330" cy="250" rx="10" ry="10"/>
    <ellipse style="fill: none; fill-opacity:0; stroke-width: 2; stroke: #000000" cx="330" cy="250" rx="10" ry="10"/>
  </g>
  <g>
    <ellipse style="fill: #ffffff" cx="370" cy="250" rx="10" ry="10"/>
    <ellipse style="fill: none; fill-opacity:0; stroke-width: 2; stroke: #000000" cx="370" cy="250" rx="10" ry="10"/>
    <ellipse style="fill: none; fill-opacity:0; stroke-width: 2; stroke: #000000" cx="370" cy="250" rx="10" ry="10"/>
  </g>
  <g>
    <ellipse style="fill: #ffffff" cx="410" cy="250" rx="10" ry="10"/>
    <ellipse style="fill: none; fill-opacity:0; stroke-width: 2; stroke: #000000" cx="410" cy="250" rx="10" ry="10"/>
    <ellipse style="fill: none; fill-opacity:0; stroke-width: 2; stroke: #000000" cx="410" cy="250" rx="10" ry="10"/>
  </g>
  <g>
    <ellipse style="fill: #ffffff" cx="450" cy="250" rx="10" ry="10"/>
    <ellipse style="fill: none; fill-opacity:0; stroke-width: 2; stroke: #000000" cx="450" cy="250" rx="10" ry="10"/>
    <ellipse style="fill: none; fill-opacity:0; stroke-width: 2; stroke: #000000" cx="450" cy="250" rx="10" ry="10"/>
  </g>
  <g>
    <ellipse style="fill: #ffffff" cx="490" cy="250" rx="10" ry="10"/>
    <ellipse style="fill: none; fill-opacity:0; stroke-width: 2; stroke: #000000" cx="490" cy="250" rx="10" ry="10"/>
    <ellipse style="fill: none; fill-opacity:0; stroke-width: 2; stroke: #000000" cx="490" cy="250" rx="10" ry="10"/>
  </g>
  <g>
    <ellipse style="fill: #ffffff" cx="530" cy="250" rx="10" ry="10"/>
    <ellipse style="fill: none; fill-opacity:0; stroke-width: 2; stroke: #000000" cx="530" cy="250" rx="10" ry="10"/>
    <ellipse style="fill: none; fill-opacity:0; stroke-width: 2; stroke: #000000" cx="530" cy="250" rx="10" ry="10"/>
  </g>
  <g>
    <ellipse style="fill: #ffffff" cx="570" cy="250" rx="10" ry="10"/>
    <ellipse style="fill: none; fill-opacity:0; stroke-width: 2; stroke: #000000" cx="570" cy="250" rx="10" ry="10"/>
    <ellipse style="fill: none; fill-opacity:0; stroke-width: 2; stroke: #000000" cx="570" cy="250" rx="10" ry="10"/>
  </g>
  <g>
    <ellipse style="fill: #ffffff" cx="610" cy="250" rx="10" ry="10"/>
    <ellipse style="fill: none; fill-opacity:0; stroke-width: 2; stroke: #000000" cx="610" cy="250" rx="10" ry="10"/>
    <ellipse style="fill: none; fill-opacity:0; stroke-width: 2; stroke: #000000" cx="610" cy="250" rx="10" ry="10"/>
  </g>
  <g>
    <ellipse style="fill: #ffffff" cx="350" cy="290" rx="10" ry="10"/>
    <ellipse style="fill: none; fill-opacity:0; stroke-width: 2; stroke: #000000" cx="350" cy="290" rx="10" ry="10"/>
    <ellipse style="fill: none; fill-opacity:0; stroke-width: 2; stroke: #000000" cx="350" cy="290" rx="10" ry="10"/>
  </g>
  <g>
    <ellipse style="fill: #ffffff" cx="390" cy="290" rx="10" ry="10"/>
    <ellipse style="fill: none; fill-opacity:0; stroke-width: 2; stroke: #000000" cx="390" cy="290" rx="10" ry="10"/>
    <ellipse style="fill: none; fill-opacity:0; stroke-width: 2; stroke: #000000" cx="390" cy="290" rx="10" ry="10"/>
  </g>
  <g>
    <ellipse style="fill: #ffffff" cx="430" cy="290" rx="10" ry="10"/>
    <ellipse style="fill: none; fill-opacity:0; stroke-width: 2; stroke: #000000" cx="430" cy="290" rx="10" ry="10"/>
    <ellipse style="fill: none; fill-opacity:0; stroke-width: 2; stroke: #000000" cx="430" cy="290" rx="10" ry="10"/>
  </g>
  <g>
    <ellipse style="fill: #ffffff" cx="470" cy="290" rx="10" ry="10"/>
    <ellipse style="fill: none; fill-opacity:0; stroke-width: 2; stroke: #000000" cx="470" cy="290" rx="10" ry="10"/>
    <ellipse style="fill: none; fill-opacity:0; stroke-width: 2; stroke: #000000" cx="470" cy="290" rx="10" ry="10"/>
  </g>
  <g>
    <ellipse style="fill: #ffffff" cx="510" cy="290" rx="10" ry="10"/>
    <ellipse style="fill: none; fill-opacity:0; stroke-width: 2; stroke: #000000" cx="510" cy="290" rx="10" ry="10"/>
    <ellipse style="fill: none; fill-opacity:0; stroke-width: 2; stroke: #000000" cx="510" cy="290" rx="10" ry="10"/>
  </g>
  <g>
    <ellipse style="fill: #ffffff" cx="550" cy="290" rx="10" ry="10"/>
    <ellipse style="fill: none; fill-opacity:0; stroke-width: 2; stroke: #000000" cx="550" cy="290" rx="10" ry="10"/>
    <ellipse style="fill: none; fill-opacity:0; stroke-width: 2; stroke: #000000" cx="550" cy="290" rx="10" ry="10"/>
  </g>
  <g>
    <ellipse style="fill: #ffffff" cx="590" cy="290" rx="10" ry="10"/>
    <ellipse style="fill: none; fill-opacity:0; stroke-width: 2; stroke: #000000" cx="590" cy="290" rx="10" ry="10"/>
    <ellipse style="fill: none; fill-opacity:0; stroke-width: 2; stroke: #000000" cx="590" cy="290" rx="10" ry="10"/>
  </g>
  <g>
    <ellipse style="fill: #ffffff" cx="330" cy="330" rx="10" ry="10"/>
    <ellipse style="fill: none; fill-opacity:0; stroke-width: 2; stroke: #000000" cx="330" cy="330" rx="10" ry="10"/>
    <ellipse style="fill: none; fill-opacity:0; stroke-width: 2; stroke: #000000" cx="330" cy="330" rx="10" ry="10"/>
  </g>
  <g>
    <ellipse style="fill: #ffffff" cx="370" cy="330" rx="10" ry="10"/>
    <ellipse style="fill: none; fill-opacity:0; stroke-width: 2; stroke: #000000" cx="370" cy="330" rx="10" ry="10"/>
    <ellipse style="fill: none; fill-opacity:0; stroke-width: 2; stroke: #000000" cx="370" cy="330" rx="10" ry="10"/>
  </g>
  <g>
    <ellipse style="fill: #ffffff" cx="410" cy="330" rx="10" ry="10"/>
    <ellipse style="fill: none; fill-opacity:0; stroke-width: 2; stroke: #000000" cx="410" cy="330" rx="10" ry="10"/>
    <ellipse style="fill: none; fill-opacity:0; stroke-width: 2; stroke: #000000" cx="410" cy="330" rx="10" ry="10"/>
  </g>
  <g>
    <ellipse style="fill: #ffffff" cx="450" cy="330" rx="10" ry="10"/>
    <ellipse style="fill: none; fill-opacity:0; stroke-width: 2; stroke: #000000" cx="450" cy="330" rx="10" ry="10"/>
    <ellipse style="fill: none; fill-opacity:0; stroke-width: 2; stroke: #000000" cx="450" cy="330" rx="10" ry="10"/>
  </g>
  <g>
    <ellipse style="fill: #ffffff" cx="490" cy="330" rx="10" ry="10"/>
    <ellipse style="fill: none; fill-opacity:0; stroke-width: 2; stroke: #000000" cx="490" cy="330" rx="10" ry="10"/>
    <ellipse style="fill: none; fill-opacity:0; stroke-width: 2; stroke: #000000" cx="490" cy="330" rx="10" ry="10"/>
  </g>
  <g>
    <ellipse style="fill: #ffffff" cx="530" cy="330" rx="10" ry="10"/>
    <ellipse style="fill: none; fill-opacity:0; stroke-width: 2; stroke: #000000" cx="530" cy="330" rx="10" ry="10"/>
    <ellipse style="fill: none; fill-opacity:0; stroke-width: 2; stroke: #000000" cx="530" cy="330" rx="10" ry="10"/>
  </g>
  <g>
    <ellipse style="fill: #ffffff" cx="570" cy="330" rx="10" ry="10"/>
    <ellipse style="fill: none; fill-opacity:0; stroke-width: 2; stroke: #000000" cx="570" cy="330" rx="10" ry="10"/>
    <ellipse style="fill: none; fill-opacity:0; stroke-width: 2; stroke: #000000" cx="570" cy="330" rx="10" ry="10"/>
  </g>
  <g>
    <ellipse style="fill: #ffffff" cx="610" cy="330" rx="10" ry="10"/>
    <ellipse style="fill: none; fill-opacity:0; stroke-width: 2; stroke: #000000" cx="610" cy="330" rx="10" ry="10"/>
    <ellipse style="fill: none; fill-opacity:0; stroke-width: 2; stroke: #000000" cx="610" cy="330" rx="10" ry="10"/>
  </g>
  <g>
    <ellipse style="fill: #ffffff" cx="350" cy="370" rx="10" ry="10"/>
    <ellipse style="fill: none; fill-opacity:0; stroke-width: 2; stroke: #000000" cx="350" cy="370" rx="10" ry="10"/>
    <ellipse style="fill: none; fill-opacity:0; stroke-width: 2; stroke: #000000" cx="350" cy="370" rx="10" ry="10"/>
  </g>
  <g>
    <ellipse style="fill: #ffffff" cx="390" cy="370" rx="10" ry="10"/>
    <ellipse style="fill: none; fill-opacity:0; stroke-width: 2; stroke: #000000" cx="390" cy="370" rx="10" ry="10"/>
    <ellipse style="fill: none; fill-opacity:0; stroke-width: 2; stroke: #000000" cx="390" cy="370" rx="10" ry="10"/>
  </g>
  <g>
    <ellipse style="fill: #ffffff" cx="430" cy="370" rx="10" ry="10"/>
    <ellipse style="fill: none; fill-opacity:0; stroke-width: 2; stroke: #000000" cx="430" cy="370" rx="10" ry="10"/>
    <ellipse style="fill: none; fill-opacity:0; stroke-width: 2; stroke: #000000" cx="430" cy="370" rx="10" ry="10"/>
  </g>
  <g>
    <ellipse style="fill: #ffffff" cx="470" cy="370" rx="10" ry="10"/>
    <ellipse style="fill: none; fill-opacity:0; stroke-width: 2; stroke: #000000" cx="470" cy="370" rx="10" ry="10"/>
    <ellipse style="fill: none; fill-opacity:0; stroke-width: 2; stroke: #000000" cx="470" cy="370" rx="10" ry="10"/>
  </g>
  <g>
    <ellipse style="fill: #ffffff" cx="510" cy="370" rx="10" ry="10"/>
    <ellipse style="fill: none; fill-opacity:0; stroke-width: 2; stroke: #000000" cx="510" cy="370" rx="10" ry="10"/>
    <ellipse style="fill: none; fill-opacity:0; stroke-width: 2; stroke: #000000" cx="510" cy="370" rx="10" ry="10"/>
  </g>
  <g>
    <ellipse style="fill: #ffffff" cx="550" cy="370" rx="10" ry="10"/>
    <ellipse style="fill: none; fill-opacity:0; stroke-width: 2; stroke: #000000" cx="550" cy="370" rx="10" ry="10"/>
    <ellipse style="fill: none; fill-opacity:0; stroke-width: 2; stroke: #000000" cx="550" cy="370" rx="10" ry="10"/>
  </g>
  <g>
    <ellipse style="fill: #ffffff" cx="590" cy="370" rx="10" ry="10"/>
    <ellipse style="fill: none; fill-opacity:0; stroke-width: 2; stroke: #000000" cx="590" cy="370" rx="10" ry="10"/>
    <ellipse style="fill: none; fill-opacity:0; stroke-width: 2; stroke: #000000" cx="590" cy="370" rx="10" ry="10"/>
  </g>
  <g>
    <ellipse style="fill: #ffffff" cx="630" cy="370" rx="10" ry="10"/>
    <ellipse style="fill: none; fill-opacity:0; stroke-width: 2; stroke: #000000" cx="630" cy="370" rx="10" ry="10"/>
    <ellipse style="fill: none; fill-opacity:0; stroke-width: 2; stroke: #000000" cx="630" cy="370" rx="10" ry="10"/>
  </g>
  <g>
    <ellipse style="fill: #ffffff" cx="650" cy="250" rx="10" ry="10"/>
    <ellipse style="fill: none; fill-opacity:0; stroke-width: 2; stroke: #000000" cx="650" cy="250" rx="10" ry="10"/>
    <ellipse style="fill: none; fill-opacity:0; stroke-width: 2; stroke: #000000" cx="650" cy="250" rx="10" ry="10"/>
  </g>
  <g>
    <ellipse style="fill: #ffffff" cx="370" cy="410" rx="10" ry="10"/>
    <ellipse style="fill: none; fill-opacity:0; stroke-width: 2; stroke: #000000" cx="370" cy="410" rx="10" ry="10"/>
    <ellipse style="fill: none; fill-opacity:0; stroke-width: 2; stroke: #000000" cx="370" cy="410" rx="10" ry="10"/>
  </g>
  <g>
    <ellipse style="fill: #ffffff" cx="410" cy="410" rx="10" ry="10"/>
    <ellipse style="fill: none; fill-opacity:0; stroke-width: 2; stroke: #000000" cx="410" cy="410" rx="10" ry="10"/>
    <ellipse style="fill: none; fill-opacity:0; stroke-width: 2; stroke: #000000" cx="410" cy="410" rx="10" ry="10"/>
  </g>
  <g>
    <ellipse style="fill: #ffffff" cx="450" cy="410" rx="10" ry="10"/>
    <ellipse style="fill: none; fill-opacity:0; stroke-width: 2; stroke: #000000" cx="450" cy="410" rx="10" ry="10"/>
    <ellipse style="fill: none; fill-opacity:0; stroke-width: 2; stroke: #000000" cx="450" cy="410" rx="10" ry="10"/>
  </g>
  <g>
    <ellipse style="fill: #ffffff" cx="490" cy="410" rx="10" ry="10"/>
    <ellipse style="fill: none; fill-opacity:0; stroke-width: 2; stroke: #000000" cx="490" cy="410" rx="10" ry="10"/>
    <ellipse style="fill: none; fill-opacity:0; stroke-width: 2; stroke: #000000" cx="490" cy="410" rx="10" ry="10"/>
  </g>
  <g>
    <ellipse style="fill: #ffffff" cx="530" cy="410" rx="10" ry="10"/>
    <ellipse style="fill: none; fill-opacity:0; stroke-width: 2; stroke: #000000" cx="530" cy="410" rx="10" ry="10"/>
    <ellipse style="fill: none; fill-opacity:0; stroke-width: 2; stroke: #000000" cx="530" cy="410" rx="10" ry="10"/>
  </g>
  <g>
    <ellipse style="fill: #ffffff" cx="570" cy="410" rx="10" ry="10"/>
    <ellipse style="fill: none; fill-opacity:0; stroke-width: 2; stroke: #000000" cx="570" cy="410" rx="10" ry="10"/>
    <ellipse style="fill: none; fill-opacity:0; stroke-width: 2; stroke: #000000" cx="570" cy="410" rx="10" ry="10"/>
  </g>
  <g>
    <ellipse style="fill: #ffffff" cx="610" cy="410" rx="10" ry="10"/>
    <ellipse style="fill: none; fill-opacity:0; stroke-width: 2; stroke: #000000" cx="610" cy="410" rx="10" ry="10"/>
    <ellipse style="fill: none; fill-opacity:0; stroke-width: 2; stroke: #000000" cx="610" cy="410" rx="10" ry="10"/>
  </g>
  <g>
    <ellipse style="fill: #ffffff" cx="630" cy="290" rx="10" ry="10"/>
    <ellipse style="fill: none; fill-opacity:0; stroke-width: 2; stroke: #000000" cx="630" cy="290" rx="10" ry="10"/>
    <ellipse style="fill: none; fill-opacity:0; stroke-width: 2; stroke: #000000" cx="630" cy="290" rx="10" ry="10"/>
  </g>
  <g>
    <ellipse style="fill: #ffffff" cx="650" cy="330" rx="10" ry="10"/>
    <ellipse style="fill: none; fill-opacity:0; stroke-width: 2; stroke: #000000" cx="650" cy="330" rx="10" ry="10"/>
    <ellipse style="fill: none; fill-opacity:0; stroke-width: 2; stroke: #000000" cx="650" cy="330" rx="10" ry="10"/>
  </g>
  <g>
    <ellipse style="fill: #ffffff" cx="670" cy="290" rx="10" ry="10"/>
    <ellipse style="fill: none; fill-opacity:0; stroke-width: 2; stroke: #000000" cx="670" cy="290" rx="10" ry="10"/>
    <ellipse style="fill: none; fill-opacity:0; stroke-width: 2; stroke: #000000" cx="670" cy="290" rx="10" ry="10"/>
  </g>
  <g>
    <ellipse style="fill: #ffffff" cx="650" cy="410" rx="10" ry="10"/>
    <ellipse style="fill: none; fill-opacity:0; stroke-width: 2; stroke: #000000" cx="650" cy="410" rx="10" ry="10"/>
    <ellipse style="fill: none; fill-opacity:0; stroke-width: 2; stroke: #000000" cx="650" cy="410" rx="10" ry="10"/>
  </g>
  <g>
    <ellipse style="fill: #ffffff" cx="670" cy="370" rx="10" ry="10"/>
    <ellipse style="fill: none; fill-opacity:0; stroke-width: 2; stroke: #000000" cx="670" cy="370" rx="10" ry="10"/>
    <ellipse style="fill: none; fill-opacity:0; stroke-width: 2; stroke: #000000" cx="670" cy="370" rx="10" ry="10"/>
  </g>
  <g>
    <line style="fill: none; fill-opacity:0; stroke-width: 2; stroke: #000000" x1="349.736" y1="80" x2="650.264" y2="80"/>
    <polygon style="fill: #000000" points="342.236,80 352.236,75 349.736,80 352.236,85 "/>
    <polygon style="fill: none; fill-opacity:0; stroke-width: 2; stroke: #000000" points="342.236,80 352.236,75 349.736,80 352.236,85 "/>
    <polygon style="fill: #000000" points="657.764,80 647.764,85 650.264,80 647.764,75 "/>
    <polygon style="fill: none; fill-opacity:0; stroke-width: 2; stroke: #000000" points="657.764,80 647.764,85 650.264,80 647.764,75 "/>
  </g>
  <g>
    <line style="fill: none; fill-opacity:0; stroke-width: 2; stroke: #000000" x1="280" y1="109.736" x2="280" y2="490.264"/>
    <polygon style="fill: #000000" points="280,102.236 285,112.236 280,109.736 275,112.236 "/>
    <polygon style="fill: none; fill-opacity:0; stroke-width: 2; stroke: #000000" points="280,102.236 285,112.236 280,109.736 275,112.236 "/>
    <polygon style="fill: #000000" points="280,497.764 275,487.764 280,490.264 285,487.764 "/>
    <polygon style="fill: none; fill-opacity:0; stroke-width: 2; stroke: #000000" points="280,497.764 275,487.764 280,490.264 285,487.764 "/>
  </g>
  <text font-size="16.9333" style="fill: #000000;text-anchor:start;font-family:Segoe UI Light;font-style:normal;font-weight:300" x="460" y="60">
    <tspan x="460" y="60">Weir length</tspan>
  </text>
  <text font-size="16.9333" style="fill: #000000;text-anchor:start;font-family:Segoe UI Light;font-style:normal;font-weight:300" x="140" y="300">
    <tspan x="140" y="300">Column diameter</tspan>
  </text>
  <g>
    <line style="fill: none; fill-opacity:0; stroke-width: 2; stroke: #000000" x1="688.309" y1="280.261" x2="717" y2="265"/>
    <polygon style="fill: #000000" points="681.687,283.783 688.168,274.673 688.309,280.261 692.864,283.502 "/>
    <polygon style="fill: none; fill-opacity:0; stroke-width: 2; stroke: #000000" points="681.687,283.783 688.168,274.673 688.309,280.261 692.864,283.502 "/>
  </g>
  <text font-size="16.9333" style="fill: #000000;text-anchor:start;font-family:Segoe UI Light;font-style:normal;font-weight:300" x="700" y="260">
    <tspan x="700" y="260">Hole diameter</tspan>
  </text>
</svg>
