<?xml version="1.0" encoding="UTF-8" standalone="no"?>
<!DOCTYPE svg PUBLIC "-//W3C//DTD SVG 1.0//EN" "http://www.w3.org/TR/2001/PR-SVG-20010719/DTD/svg10.dtd">
<svg width="23cm" height="21cm" viewBox="290 96 449 407" xmlns="http://www.w3.org/2000/svg" xmlns:xlink="http://www.w3.org/1999/xlink">
  <line style="fill: none; fill-opacity:0; stroke-width: 6; stroke: #000000" x1="300" y1="100" x2="300" y2="500"/>
  <line style="fill: none; fill-opacity:0; stroke-width: 6; stroke: #000000" x1="600" y1="100" x2="600" y2="500"/>
  <line style="fill: none; fill-opacity:0; stroke-width: 20; stroke-dasharray: 20; stroke: #000000" x1="360" y1="400" x2="540" y2="400"/>
  <line style="fill: none; fill-opacity:0; stroke-width: 6; stroke: #000000" x1="540" y1="360" x2="540" y2="500"/>
  <line style="fill: none; fill-opacity:0; stroke-width: 20; stroke-dasharray: 20; stroke: #000000" x1="360" y1="200" x2="540" y2="200"/>
  <line style="fill: none; fill-opacity:0; stroke-width: 6; stroke: #000000" x1="360" y1="160" x2="360" y2="360"/>
  <line style="fill: none; fill-opacity:0; stroke-width: 20; stroke: #000000" x1="540" y1="200" x2="600" y2="200"/>
  <line style="fill: none; fill-opacity:0; stroke-width: 20; stroke: #000000" x1="300" y1="400" x2="360" y2="400"/>
  <g>
    <line style="fill: none; fill-opacity:0; stroke-width: 2; stroke: #000000" x1="369.736" y1="220" x2="510.264" y2="220"/>
    <polygon style="fill: #000000" points="362.236,220 372.236,215 369.736,220 372.236,225 "/>
    <polygon style="fill: none; fill-opacity:0; stroke-width: 2; stroke: #000000" points="362.236,220 372.236,215 369.736,220 372.236,225 "/>
    <polygon style="fill: #000000" points="517.764,220 507.764,225 510.264,220 507.764,215 "/>
    <polygon style="fill: none; fill-opacity:0; stroke-width: 2; stroke: #000000" points="517.764,220 507.764,225 510.264,220 507.764,215 "/>
  </g>
  <g>
    <line style="fill: none; fill-opacity:0; stroke-width: 2; stroke: #000000" x1="340" y1="190.264" x2="340" y2="169.736"/>
    <polygon style="fill: #000000" points="340,197.764 335,187.764 340,190.264 345,187.764 "/>
    <polygon style="fill: none; fill-opacity:0; stroke-width: 2; stroke: #000000" points="340,197.764 335,187.764 340,190.264 345,187.764 "/>
    <polygon style="fill: #000000" points="340,162.236 345,172.236 340,169.736 335,172.236 "/>
    <polygon style="fill: none; fill-opacity:0; stroke-width: 2; stroke: #000000" points="340,162.236 345,172.236 340,169.736 335,172.236 "/>
  </g>
  <text font-size="16.9333" style="fill: #000000;text-anchor:start;font-family:Segoe UI Light;font-style:normal;font-weight:300" x="320" y="160">
    <tspan x="320" y="160">Weir height</tspan>
  </text>
  <text font-size="16.9333" style="fill: #000000;text-anchor:start;font-family:Segoe UI Light;font-style:normal;font-weight:300" x="400" y="240">
    <tspan x="400" y="240">Active area</tspan>
  </text>
  <g>
    <line style="fill: none; fill-opacity:0; stroke-width: 2; stroke: #000000" x1="620" y1="210.264" x2="620" y2="189.736"/>
    <polygon style="fill: #000000" points="620,217.764 615,207.764 620,210.264 625,207.764 "/>
    <polygon style="fill: none; fill-opacity:0; stroke-width: 2; stroke: #000000" points="620,217.764 615,207.764 620,210.264 625,207.764 "/>
    <polygon style="fill: #000000" points="620,182.236 625,192.236 620,189.736 615,192.236 "/>
    <polygon style="fill: none; fill-opacity:0; stroke-width: 2; stroke: #000000" points="620,182.236 625,192.236 620,189.736 615,192.236 "/>
  </g>
  <line style="fill: none; fill-opacity:0; stroke-width: 6; stroke: #000000" x1="540" y1="100" x2="540" y2="160"/>
  <text font-size="16.9333" style="fill: #000000;text-anchor:start;font-family:Segoe UI Light;font-style:normal;font-weight:300" x="640" y="200">
    <tspan x="640" y="200">Tray thickness</tspan>
  </text>
</svg>
