<?xml version="1.0" encoding="utf-8"?>
<!-- Generator: Adobe Illustrator 16.0.4, SVG Export Plug-In . SVG Version: 6.00 Build 0)  -->
<!DOCTYPE svg PUBLIC "-//W3C//DTD SVG 1.1//EN" "http://www.w3.org/Graphics/SVG/1.1/DTD/svg11.dtd">
<svg version="1.1" id="Layer_1" xmlns="http://www.w3.org/2000/svg" xmlns:xlink="http://www.w3.org/1999/xlink" x="0px" y="0px"
	 width="99.5px" height="72.25px" viewBox="9.75 -4 99.5 72.25" enable-background="new 9.75 -4 99.5 72.25" xml:space="preserve">
<path fill="none" stroke="#FFFFFF" stroke-width="6" stroke-linecap="round" stroke-linejoin="round" stroke-miterlimit="10" d="
	M89.846,15.902h-3.43h-9.611L71.047,1H46.544l-5.758,14.902h-9.562h-3.428c-7.557,0-12.082,12.047-12.082,19.6
	c0,7.557,4.525,19.6,12.082,19.6h3.428h40.119v7.785h13.208v-7.785h1.865h3.43c7.557,0,12.082-12.043,12.082-19.6
	C101.928,27.949,97.402,15.902,89.846,15.902z"/>
<path fill="#6F6F6F" d="M89.846,15.902h-3.43h-9.611L71.047,1H46.544l-5.758,14.902h-9.562h-3.428
	c-7.557,0-12.082,12.047-12.082,19.6c0,7.557,4.525,19.6,12.082,19.6h3.428h40.119v7.785h13.208v-7.785h1.865h3.43
	c7.557,0,12.082-12.043,12.082-19.6C101.928,27.949,97.402,15.902,89.846,15.902z"/>
<line fill="none" stroke="#C6C6C5" stroke-width="0.9147" stroke-linecap="round" stroke-linejoin="round" stroke-miterlimit="10" x1="85.166" y1="43.97" x2="85.166" y2="26.414"/>
<line fill="none" stroke="#C6C6C5" stroke-width="1.0174" stroke-linecap="round" stroke-linejoin="round" stroke-miterlimit="10" x1="30.764" y1="43.97" x2="30.764" y2="26.414"/>
<line fill="none" stroke="#C6C6C5" stroke-width="0.9306" stroke-linecap="round" stroke-linejoin="round" stroke-miterlimit="10" x1="30.764" y1="29.57" x2="85.166" y2="29.57"/>
<line fill="none" stroke="#C6C6C5" stroke-width="0.9306" stroke-linecap="round" stroke-linejoin="round" stroke-miterlimit="10" x1="30.764" y1="27.856" x2="85.166" y2="27.856"/>
<line fill="none" stroke="#C6C6C5" stroke-width="0.9306" stroke-linecap="round" stroke-linejoin="round" stroke-miterlimit="10" x1="30.764" y1="33.905" x2="85.166" y2="33.905"/>
<line fill="none" stroke="#C6C6C5" stroke-width="0.9306" stroke-linecap="round" stroke-linejoin="round" stroke-miterlimit="10" x1="30.764" y1="32.192" x2="85.166" y2="32.192"/>
<line fill="none" stroke="#C6C6C5" stroke-width="0.9306" stroke-linecap="round" stroke-linejoin="round" stroke-miterlimit="10" x1="30.764" y1="38.242" x2="85.166" y2="38.242"/>
<line fill="none" stroke="#C6C6C5" stroke-width="0.9306" stroke-linecap="round" stroke-linejoin="round" stroke-miterlimit="10" x1="30.764" y1="36.529" x2="85.166" y2="36.529"/>
<line fill="none" stroke="#C6C6C5" stroke-width="0.9306" stroke-linecap="round" stroke-linejoin="round" stroke-miterlimit="10" x1="30.764" y1="42.577" x2="85.166" y2="42.577"/>
<line fill="none" stroke="#C6C6C5" stroke-width="0.9306" stroke-linecap="round" stroke-linejoin="round" stroke-miterlimit="10" x1="30.764" y1="40.864" x2="85.166" y2="40.864"/>
<line fill="none" stroke="#C6C6C5" stroke-width="0.893" stroke-linecap="round" stroke-linejoin="round" stroke-miterlimit="10" x1="43.434" y1="15.94" x2="73.735" y2="15.94"/>
<path fill="none" stroke="#2D2D2D" stroke-width="1.5" stroke-linecap="round" stroke-linejoin="round" stroke-miterlimit="10" d="
	M89.846,15.902h-3.43h-9.611L71.047,1H46.544l-5.758,14.902h-9.562h-3.428c-7.557,0-12.082,12.047-12.082,19.6
	c0,7.557,4.525,19.6,12.082,19.6h3.428h40.119v7.785h13.208v-7.785h1.865h3.43c7.557,0,12.082-12.043,12.082-19.6
	C101.928,27.949,97.402,15.902,89.846,15.902z"/>
</svg>
