<?xml version="1.0" encoding="UTF-8" standalone="no"?>
<!-- Generator: Adobe Illustrator 16.0.4, SVG Export Plug-In . SVG Version: 6.00 Build 0)  -->

<?gproms path="WARN(1).WARN.f"?><!--
  Warning model must define only the following warnings:

  warnings := ["Temperature crossover"] ;
 -->

<svg
   xmlns:dc="http://purl.org/dc/elements/1.1/"
   xmlns:cc="http://creativecommons.org/ns#"
   xmlns:rdf="http://www.w3.org/1999/02/22-rdf-syntax-ns#"
   xmlns:svg="http://www.w3.org/2000/svg"
   xmlns="http://www.w3.org/2000/svg"
   xmlns:sodipodi="http://sodipodi.sourceforge.net/DTD/sodipodi-0.dtd"
   xmlns:inkscape="http://www.inkscape.org/namespaces/inkscape"
   version="1.1"
   id="Layer_1"
   x="0px"
   y="0px"
   width="40"
   height="40"
   viewBox="0 0 40 40"
   enable-background="new 0 0 32.917 32.917"
   xml:space="preserve"
   inkscape:version="0.48.4 r9939"
   sodipodi:docname="Manipulate_spec_gML.svg">
  <metadata
   id="metadata19">
    <rdf:RDF>
      <cc:Work
   rdf:about="">
        <dc:format>image/svg+xml</dc:format>
        <dc:type
   rdf:resource="http://purl.org/dc/dcmitype/StillImage" />
      <dc:title></dc:title></cc:Work>
    </rdf:RDF>
  </metadata>
  <defs
   id="defs17" />
  <sodipodi:namedview
   pagecolor="#ffffff"
   bordercolor="#666666"
   borderopacity="1"
   objecttolerance="10"
   gridtolerance="10"
   guidetolerance="10"
   inkscape:pageopacity="0"
   inkscape:pageshadow="2"
   inkscape:window-width="1920"
   inkscape:window-height="1018"
   id="namedview15"
   showgrid="false"
   fit-margin-top="0"
   fit-margin-left="0"
   fit-margin-right="0"
   fit-margin-bottom="0"
   inkscape:zoom="5.2615343"
   inkscape:cx="-62.578994"
   inkscape:cy="-12.729962"
   inkscape:window-x="1358"
   inkscape:window-y="-8"
   inkscape:window-maximized="1"
   inkscape:current-layer="layer2"
   showguides="true"
   inkscape:guide-bbox="true">
    <sodipodi:guide
   orientation="1,0"
   position="28.624606,20.568579"
   id="guide3780" />
    <sodipodi:guide
   orientation="0,1"
   position="24.8537,26.224938"
   id="guide3782" />
    <sodipodi:guide
   orientation="0,1"
   position="-6.2655457,45.750001"
   id="guide3784" />
    
    <sodipodi:guide
   orientation="1,0"
   position="48.75,41.938044"
   id="guide3788" />
    <sodipodi:guide
   orientation="1,0"
   position="10.627099,18.511721"
   id="guide3790" />
  <sodipodi:guide
   orientation="0,1"
   position="7.5418123,19.711555"
   id="guide3031" /><sodipodi:guide
   orientation="1,0"
   position="19.454448,16.883375"
   id="guide3035" /></sodipodi:namedview>
  <g
   display="none"
   id="g3"
   style="display:none"
   transform="translate(15.705172,-8.6701741)">
    <path
   display="inline"
   stroke-miterlimit="10"
   d="m 11.229,22.105 v -8.64 h 1.788 c 0.224,0 0.434,0.042 0.63,0.126 0.196,0.084 0.368,0.2 0.516,0.348 0.148,0.148 0.264,0.322 0.348,0.522 0.084,0.2 0.126,0.412 0.126,0.636 v 0.9 c 0,0.224 -0.042,0.434 -0.126,0.63 -0.084,0.196 -0.2,0.369 -0.348,0.516 -0.148,0.147 -0.32,0.267 -0.516,0.354 -0.196,0.087 -0.406,0.131 -0.63,0.131 h -1.788 1.788 c 0.224,0 0.434,-0.043 0.63,-0.131 0.196,-0.088 0.368,-0.207 0.516,-0.354 0.148,-0.147 0.264,-0.32 0.348,-0.516 0.084,-0.196 0.126,-0.406 0.126,-0.63 v -0.9 c 0,-0.224 -0.044,-0.436 -0.132,-0.636 -0.088,-0.2 -0.206,-0.374 -0.354,-0.522 -0.148,-0.148 -0.32,-0.264 -0.516,-0.348 -0.196,-0.084 -0.402,-0.126 -0.618,-0.126 h -1.788 v 8.64 z"
   id="path5"
   inkscape:connector-curvature="0"
   style="fill:none;stroke:#c6c6c5;stroke-linecap:round;stroke-linejoin:round;stroke-miterlimit:10;display:inline" />
    <path
   display="inline"
   stroke-miterlimit="10"
   d="m 24.08,22.105 v -8.627 h 2.076 c 0.201,0 0.391,0.038 0.57,0.114 0.18,0.076 0.336,0.182 0.469,0.318 0.131,0.136 0.234,0.294 0.311,0.474 0.076,0.18 0.115,0.37 0.115,0.57 v 5.676 c 0,0.207 -0.039,0.399 -0.115,0.576 -0.075,0.176 -0.18,0.332 -0.311,0.467 -0.133,0.138 -0.289,0.242 -0.469,0.318 -0.18,0.076 -0.369,0.113 -0.57,0.113 H 24.08 z m 0,0 v -8.627 h 2.076 c 0.201,0 0.391,0.038 0.57,0.114 0.18,0.076 0.336,0.182 0.469,0.318 0.131,0.136 0.234,0.294 0.311,0.474 0.076,0.18 0.115,0.37 0.115,0.57 v 5.676 c 0,0.207 -0.039,0.399 -0.115,0.576 -0.075,0.176 -0.18,0.332 -0.311,0.467 -0.133,0.138 -0.289,0.242 -0.469,0.318 -0.18,0.076 -0.369,0.113 -0.57,0.113 H 24.08 z"
   id="path7"
   inkscape:connector-curvature="0"
   style="fill:none;stroke:#c6c6c5;stroke-linecap:round;stroke-linejoin:round;stroke-miterlimit:10;display:inline" />
  </g>
  <g
   inkscape:groupmode="layer"
   id="layer1"
   inkscape:label="Base icon"
   style="display:inline"
   transform="translate(0.74999996,-22.75048)">
    <circle
   cx="16.471001"
   cy="16.493999"
   r="15.333"
   id="circle9"
   sodipodi:cx="16.471001"
   sodipodi:cy="16.493999"
   sodipodi:rx="15.333"
   sodipodi:ry="15.333"
   transform="matrix(1.2431507,0,0,1.2431507,-1.21968,22.239697)"
   style="fill:#6f6f6e"
   d="m 31.804001,16.493999 c 0,8.468183 -6.864818,15.333001 -15.333,15.333001 -8.4681825,0 -15.3330005,-6.864818 -15.3330005,-15.333001 0,-8.4681817 6.864818,-15.3329997 15.3330005,-15.3329997 8.468182,0 15.333,6.864818 15.333,15.3329997 z">

  </circle>
    
    <circle
   stroke-miterlimit="10"
   cx="16.471001"
   cy="16.493999"
   r="15.333"
   id="circle13"
   sodipodi:cx="16.471001"
   sodipodi:cy="16.493999"
   sodipodi:rx="15.333"
   sodipodi:ry="15.333"
   transform="matrix(1.2427526,0,0,1.2427526,-1.2193782,22.25252)"
   style="fill:none;stroke:#ececec;stroke-width:1.52061605;stroke-linecap:round;stroke-linejoin:round;stroke-miterlimit:10;stroke-dasharray:none"
   d="m 31.804001,16.493999 c 0,8.468183 -6.864818,15.333001 -15.333,15.333001 -8.4681825,0 -15.3330005,-6.864818 -15.3330005,-15.333001 0,-8.4681817 6.864818,-15.3329997 15.3330005,-15.3329997 8.468182,0 15.333,6.864818 15.333,15.3329997 z" />
  <text
   xml:space="preserve"
   style="font-size:60.50434875px;font-style:normal;font-variant:normal;font-weight:normal;font-stretch:normal;line-height:125%;letter-spacing:0px;word-spacing:0px;fill:#c6c6c6;fill-opacity:1;stroke:none;display:inline;font-family:Arial Unicode MS;-inkscape-font-specification:Arial Unicode MS"
   x="3.3421535"
   y="57.833916"
   id="text3960"
   sodipodi:linespacing="125%"><tspan
     sodipodi:role="line"
     id="tspan3962"
     x="3.3421535"
     y="57.833916">∝</tspan></text>

<path
   sodipodi:type="arc"
   style="color:#000000;fill:none;stroke:#2d2d2d;stroke-width:1.09000003;stroke-linecap:round;stroke-linejoin:round;stroke-miterlimit:10;stroke-opacity:1;stroke-dasharray:none;stroke-dashoffset:0;marker:none;visibility:visible;display:inline;overflow:visible;enable-background:accumulate"
   id="path3800"
   sodipodi:cx="-75.246719"
   sodipodi:cy="-0.79434824"
   sodipodi:rx="20.225769"
   sodipodi:ry="19.19734"
   d="m -55.02095,-0.79434824 a 20.225769,19.19734 0 1 1 -40.451538,0 20.225769,19.19734 0 1 1 40.451538,0 z"
   transform="matrix(0.91411298,0,0,0.96308332,88.034003,43.515504)" /></g>
  <g
   inkscape:groupmode="layer"
   id="layer2"
   inkscape:label="Warning"
   transform="translate(0.74999996,-22.75048)">
    
  </g>
</svg>