<?xml version="1.0" encoding="UTF-8" standalone="no"?>
<?gproms path="Content_uniformity_sensor_module.is_CU_within_range"?>

<svg
   xmlns:dc="http://purl.org/dc/elements/1.1/"
   xmlns:cc="http://creativecommons.org/ns#"
   xmlns:rdf="http://www.w3.org/1999/02/22-rdf-syntax-ns#"
   xmlns:svg="http://www.w3.org/2000/svg"
   xmlns="http://www.w3.org/2000/svg"
   xmlns:sodipodi="http://sodipodi.sourceforge.net/DTD/sodipodi-0.dtd"
   xmlns:inkscape="http://www.inkscape.org/namespaces/inkscape"
   version="1.1"
   x="0px"
   y="0px"
   width="50.5px"
   height="50.5px"
   viewBox="0 0 50.5 50.5"
   style="enable-background:new 0 0 50.5 50.5;"
   xml:space="preserve"
   id="svg3336"
   inkscape:version="0.91 r13725"
   sodipodi:docname="content uniformity sensor.svg"><metadata
     id="metadata3363"><rdf:RDF><cc:Work
         rdf:about=""><dc:format>image/svg+xml</dc:format><dc:type
           rdf:resource="http://purl.org/dc/dcmitype/StillImage" /></cc:Work></rdf:RDF></metadata><defs
     id="defs3361" /><sodipodi:namedview
     pagecolor="#ffffff"
     bordercolor="#666666"
     borderopacity="1"
     objecttolerance="10"
     gridtolerance="10"
     guidetolerance="10"
     inkscape:pageopacity="0"
     inkscape:pageshadow="2"
     inkscape:window-width="1536"
     inkscape:window-height="897"
     id="namedview3359"
     showgrid="false"
     inkscape:zoom="14.415842"
     inkscape:cx="25.25"
     inkscape:cy="25.25"
     inkscape:window-x="-8"
     inkscape:window-y="-8"
     inkscape:window-maximized="1"
     inkscape:current-layer="Layer_1" /><style
     type="text/css"
     id="style3338">
	.st0{display:none;}
	.st1{display:inline;fill:#1EFF00;stroke:#000000;stroke-miterlimit:10;}
	.st2{fill:none;stroke:#FFFFFF;stroke-width:6;stroke-linecap:round;stroke-linejoin:round;stroke-miterlimit:10;}
	.st3{fill:none;}
	.st4{fill:#FFFFFF;}
	.st5{fill:#727070;}
	.st6{fill:none;stroke:#2D2D2E;stroke-width:1.5;stroke-linecap:round;stroke-linejoin:round;stroke-miterlimit:10;}
</style><g
     id="Layer_2"
     class="st0"><rect
       x="-2.6"
       y="-4.7"
       class="st1"
       width="63.5"
       height="59.6"
       id="rect3341" /></g><g
     id="Layer_1"><g
       id="g7" /><circle
       class="st2"
       cx="25.4"
       cy="25.4"
       r="22"
       id="circle3345" 
       style="stroke:#ff0000;stroke-opacity:1;stroke-width:0;stroke-miterlimit:10;stroke-dasharray:none"><animate
         attributeName="stroke-width"
         attributeType="XML"
         begin="0s"
         dur="1s"
         fill="freeze"
         from="6"
         to="0" /></circle>
	<circle
       class="st3"
       cx="25.4"
       cy="25.4"
       r="22"
       id="circle3347" /><circle
       class="st4"
       cx="25.4"
       cy="25.4"
       r="22"
       id="circle3349" /><g
       id="g3351"
       transformBehaviour="pinned"><path
         class="st5"
         d="m 18.7,34 c -0.5,-0.1 -0.9,-0.3 -1.3,-0.6 -0.4,-0.3 -0.7,-0.6 -1,-1 -0.3,-0.4 -0.5,-0.8 -0.7,-1.2 -0.2,-0.4 -0.2,-0.9 -0.2,-1.4 l 0,-8.8 c 0,-0.5 0.1,-1 0.2,-1.4 0.1,-0.4 0.4,-0.9 0.7,-1.2 0.3,-0.4 0.6,-0.7 1,-1 0.4,-0.3 0.8,-0.5 1.3,-0.6 1,-0.3 1.9,-0.2 2.8,0.2 0.9,0.4 1.6,1 2.1,1.8 0.2,0.3 0.2,0.6 0.1,0.9 -0.1,0.3 -0.3,0.6 -0.6,0.8 -0.3,0.2 -0.6,0.2 -0.9,0.1 C 21.9,20.5 21.6,20.3 21.4,20 21.2,19.6 20.9,19.4 20.5,19.2 20.1,19 19.7,19 19.3,19.1 c -0.4,0.1 -0.7,0.3 -1,0.7 C 18.1,20.2 18,20.6 18,21 l 0,8.8 c 0,0.4 0.1,0.8 0.4,1.1 0.3,0.3 0.6,0.6 1,0.7 0.4,0.1 0.8,0.1 1.2,-0.1 0.4,-0.2 0.7,-0.4 0.9,-0.8 0.2,-0.3 0.4,-0.5 0.8,-0.6 0.3,-0.1 0.6,-0.1 0.9,0.1 0.3,0.2 0.5,0.4 0.6,0.8 0.1,0.3 0,0.6 -0.1,0.9 -0.5,0.9 -1.2,1.5 -2.1,1.8 -1,0.5 -1.9,0.5 -2.9,0.3 z"
         id="path3353"
         inkscape:connector-curvature="0"
         style="fill:#727070" /><path
         class="st5"
         d="m 29.5,31.1 c 0.4,0.4 0.8,0.5 1.3,0.5 0.5,0 0.9,-0.2 1.3,-0.5 0.4,-0.4 0.6,-0.8 0.6,-1.3 l 0,-11.9 c 0,-0.3 0.1,-0.6 0.4,-0.9 0.2,-0.2 0.5,-0.4 0.9,-0.4 0.3,0 0.6,0.1 0.9,0.4 0.2,0.2 0.4,0.5 0.4,0.9 l 0,11.9 c 0,0.6 -0.1,1.2 -0.3,1.7 -0.2,0.5 -0.5,1 -0.9,1.4 -0.4,0.4 -0.8,0.7 -1.4,0.9 -0.5,0.2 -1.1,0.3 -1.7,0.3 -0.6,0 -1.2,-0.1 -1.7,-0.3 -0.5,-0.2 -1,-0.5 -1.4,-0.9 C 27.5,32.5 27.2,32 27,31.5 26.8,31 26.7,30.4 26.7,29.8 l 0,-11.9 c 0,-0.3 0.1,-0.6 0.4,-0.9 0.2,-0.2 0.5,-0.4 0.9,-0.4 0.3,0 0.6,0.1 0.9,0.4 0.2,0.2 0.4,0.5 0.4,0.9 l 0,11.9 c -0.3,0.5 -0.2,0.9 0.2,1.3 z"
         id="path3355"
         inkscape:connector-curvature="0"
         style="fill:#727070" /></g><circle
       class="st6"
       cx="25.4"
       cy="25.4"
       r="22"
       id="circle3357" /></g></svg>