<?xml version="1.0" encoding="utf-8"?>
<!-- Generator: Adobe Illustrator 21.0.2, SVG Export Plug-In . SVG Version: 6.00 Build 0)  -->
<svg version="1.1" xmlns="http://www.w3.org/2000/svg" xmlns:xlink="http://www.w3.org/1999/xlink" x="0px" y="0px" width="73.7px"
	 height="152.6px" viewBox="0 0 73.7 152.6" style="enable-background:new 0 0 73.7 152.6;" xml:space="preserve">
<style type="text/css">
	.st0{display:none;}
	.st1{display:inline;fill:#E8FF3F;stroke:#000000;stroke-miterlimit:10;}
	.st2{display:inline;fill:#D83D3D;}
	.st3{display:inline;fill:#F5821F;}
	.st4{fill:none;stroke:#FFFFFF;stroke-width:6;stroke-linecap:round;stroke-linejoin:round;stroke-miterlimit:10;}
	.st5{fill:#6F6F6F;}
	.st6{fill:#006C85;}
	.st7{fill:none;stroke:#D2D2D2;stroke-linecap:round;stroke-linejoin:round;stroke-miterlimit:10;}
	.st8{fill:none;stroke:#D2D2D2;stroke-linecap:round;stroke-linejoin:round;}
	.st9{fill:none;stroke:#2D2D2D;stroke-width:1.5;stroke-linecap:round;stroke-linejoin:round;stroke-miterlimit:10;}
	.st10{fill:#59A7B6;}
</style>
<g id="Layer_2_2_" class="st0">
	<rect x="-13.5" y="-14.4" class="st1" width="101.4" height="186.7"/>
</g>
<g id="Layer_1">
	<g id="Layer_2_1_" class="st0">
		<rect x="4.4" y="17.6" class="st2" width="63.2" height="117.2"/>
	</g>
	<g id="Layer_1_2_">
		<g id="Layer_2" class="st0">
			<rect x="-9.8" y="-8.5" class="st3" width="101.1" height="169.9"/>
		</g>
		<g id="Layer_1_1_">
			<path class="st4" d="M37.2,3.2C24.5,3.2,4,10.9,4,23.7v5.8v93.6v5.8c0,12.8,20.5,20.5,33.2,20.5s33.2-7.7,33.2-20.5v-5.8V29.5
				v-5.8C70.5,10.9,50.1,3.2,37.2,3.2z"/>
			<path class="st5" d="M37.2,3.2C24.5,3.2,4,10.9,4,23.7v5.8v93.6v5.8c0,12.8,20.5,20.5,33.2,20.5s33.2-7.7,33.2-20.5v-5.8V29.5
				v-5.8C70.5,10.9,50.1,3.2,37.2,3.2z"/>
			<path class="st6" d="M66.7,59.2h-3.4L61,58.8l-2.8-1.2L54.2,58l-3.1,1.4L48,59.9l-3.1-1.4l-3.1-1.1l-3.4,0.9l-4.1,0.8l-3.5-0.4
				l-2.8-1.2h-2.6l-3.4,1.6h-3.3l-3.3-0.5l-2.6-1.1l-3.4,0.1L6,59.2H4.1v63.9v5.8c0,12.8,20.5,20.5,33.2,20.5s33.2-7.7,33.2-20.5
				v-5.8V58L66.7,59.2z"/>
			<g>
				<path class="st7" d="M4,59.2c4.7,0,3.7-1.8,7.5-1.8s2.3,1.8,7.6,1.8c4.7,0,3.8-1.8,7.5-1.8s2.3,1.8,7.6,1.8
					c4.7,0,3.8-1.8,7.5-1.8c3.7,0,2.3,1.8,7.6,1.8c4.7,0,3.8-1.8,7.5-1.8s2.3,1.8,7.6,1.8"/>
				<path class="st7" d="M64.4,59.2c4.1,0,3.9-1.4,6.1-1.6"/>
			</g>
			<g>
				<line class="st8" x1="37.2" y1="3.2" x2="37.2" y2="116.9"/>
				<ellipse class="st8" cx="44.6" cy="116.9" rx="7.3" ry="3.4"/>
				<ellipse class="st8" cx="29.9" cy="116.9" rx="7.3" ry="3.4"/>
			</g>
			<path class="st9" d="M37.2,3.2C24.5,3.2,4,10.9,4,23.7v5.8v93.6v5.8c0,12.8,20.5,20.5,33.2,20.5s33.2-7.7,33.2-20.5v-5.8V29.5
				v-5.8C70.5,10.9,50.1,3.2,37.2,3.2z"/>
		</g>
	</g>
	<ellipse transform="matrix(0.7071 -0.7071 0.7071 0.7071 -46.4517 31.8622)" class="st10" cx="15.2" cy="72" rx="4.5" ry="4.5"/>
	
		<ellipse transform="matrix(0.7071 -0.7071 0.7071 0.7071 -69.6877 37.8778)" class="st10" cx="10.9" cy="103.1" rx="3.5" ry="3.5"/>
	<ellipse transform="matrix(0.7071 -0.7071 0.7071 0.7071 -51.8983 42.5365)" class="st10" cx="25.4" cy="83.9" rx="3.3" ry="3.3"/>
	
		<ellipse transform="matrix(0.7071 -0.7071 0.7071 0.7071 -79.2249 73.7645)" class="st10" cx="49.4" cy="132.5" rx="2.3" ry="2.3"/>
	
		<ellipse transform="matrix(0.7071 -0.7071 0.7071 0.7071 -72.6354 74.9571)" class="st10" cx="54.2" cy="125.2" rx="2.3" ry="2.3"/>
	
		<ellipse transform="matrix(0.7071 -0.7071 0.7071 0.7071 -85.3453 74.3627)" class="st10" cx="47.1" cy="140.2" rx="1.6" ry="1.6"/>
	<ellipse transform="matrix(0.7071 -0.7071 0.7071 0.7071 -62.626 42.4038)" class="st10" cx="19.9" cy="96.8" rx="4.1" ry="4.1"/>
	
		<ellipse transform="matrix(0.7071 -0.7071 0.7071 0.7071 -72.5518 83.2932)" class="st10" cx="64.3" cy="129.2" rx="4.1" ry="4.1"/>
	
		<ellipse transform="matrix(0.7071 -0.7071 0.7071 0.7071 -89.0505 65.4483)" class="st10" cx="34.5" cy="140.2" rx="4.1" ry="4.1"/>
	
		<ellipse transform="matrix(0.7071 -0.7071 0.7071 0.7071 -52.6278 73.5367)" class="st10" cx="62.5" cy="100.3" rx="4.1" ry="4.1"/>
	<ellipse transform="matrix(0.7071 -0.7071 0.7071 0.7071 -34.6128 55.2788)" class="st10" cx="49.4" cy="69.4" rx="4.1" ry="4.1"/>
	<ellipse transform="matrix(0.7071 -0.7071 0.7071 0.7071 -59.1834 49.6697)" class="st10" cx="30.4" cy="96.3" rx="3.3" ry="3.3"/>
	<ellipse transform="matrix(0.7071 -0.7071 0.7071 0.7071 -36.8805 64.6242)" class="st10" cx="59.6" cy="76.8" rx="3.3" ry="3.3"/>
	<ellipse transform="matrix(0.7071 -0.7071 0.7071 0.7071 -45.7497 55.1908)" class="st10" cx="43.7" cy="82.8" rx="3.3" ry="3.3"/>
	<ellipse transform="matrix(0.7071 -0.7071 0.7071 0.7071 -78.8612 42.3052)" class="st10" cx="11.6" cy="116.3" rx="2" ry="2"/>
	<circle class="st10" cx="24.9" cy="128.4" r="3.3"/>
	<circle class="st10" cx="61.8" cy="113.5" r="3.3"/>
	<circle class="st10" cx="48.6" cy="100.3" r="3.3"/>
	<circle class="st10" cx="14.2" cy="129.2" r="2.3"/>
	<circle class="st10" cx="42.3" cy="93.3" r="2.3"/>
	<ellipse transform="matrix(0.7071 -0.7071 0.7071 0.7071 -42.148 42.2135)" class="st10" cx="29.9" cy="72" rx="2.3" ry="2.3"/>
	
		<ellipse transform="matrix(0.7071 -0.7071 0.7071 0.7071 -77.2294 65.1719)" class="st10" cx="40.1" cy="125.8" rx="2.3" ry="2.3"/>
	<ellipse transform="matrix(0.7071 -0.7071 0.7071 0.7071 -42.6419 71.5851)" class="st10" cx="65.1" cy="87.3" rx="2.3" ry="2.3"/>
	<ellipse transform="matrix(0.7071 -0.7071 0.7071 0.7071 -55.7665 35.7097)" class="st10" cx="15.2" cy="85.2" rx="2.3" ry="2.3"/>
	
		<ellipse transform="matrix(0.7071 -0.7071 0.7071 0.7071 -66.6713 53.9864)" class="st10" cx="31.8" cy="107.5" rx="2.3" ry="2.3"/>
	<ellipse transform="matrix(0.7071 -0.7071 0.7071 0.7071 -26.6959 66.1963)" class="st10" cx="66.6" cy="65.3" rx="2.3" ry="2.3"/>
	
		<ellipse transform="matrix(0.7071 -0.7071 0.7071 0.7071 -92.5955 55.5178)" class="st10" cx="20.7" cy="139.5" rx="2.3" ry="2.3"/>
	<circle class="st10" cx="25.4" cy="63.7" r="1.6"/>
	<circle class="st10" cx="21.6" cy="110.4" r="1.6"/>
	<circle class="st10" cx="52.6" cy="91.1" r="1.6"/>
	<circle class="st10" cx="41.7" cy="63.7" r="1.6"/>
	<circle class="st10" cx="18.4" cy="121.9" r="1.6"/>
	<circle class="st10" cx="8.6" cy="93.3" r="1.6"/>
	<circle class="st10" cx="46.2" cy="108.7" r="1.6"/>
</g>
</svg>
