<?xml version="1.0" encoding="utf-8"?>
<!-- Generator: Adobe Illustrator 21.0.2, SVG Export Plug-In . SVG Version: 6.00 Build 0)  -->
<svg version="1.1" id="Layer_1" xmlns="http://www.w3.org/2000/svg" xmlns:xlink="http://www.w3.org/1999/xlink" x="0px" y="0px"
	 width="56.7px" height="74.2px" viewBox="0 0 56.7 74.2" style="enable-background:new 0 0 56.7 74.2;" xml:space="preserve">
<style type="text/css">
	.st0{fill:none;stroke:#FFFFFF;stroke-width:6;stroke-linecap:round;stroke-linejoin:round;stroke-miterlimit:10;}
	.st1{fill:#707070;}
	.st2{fill:none;stroke:#D1D1D1;stroke-linecap:round;stroke-linejoin:round;}
	.st3{fill:none;stroke:#D1D1D1;stroke-linecap:round;stroke-linejoin:round;stroke-miterlimit:10;}
	.st4{fill:#D1D1D1;}
	.st5{fill:none;stroke:#2D2D2E;stroke-width:1.5;stroke-linecap:round;stroke-linejoin:round;stroke-miterlimit:10;}
</style>
<path id="leg" class="st0" d="M52.5,58.2c-1.8-4.1-16.2-35.7-16.2-35.7v-16c0.5-0.3,0.8-0.7,0.8-1c0-1.4-3.9-2.5-8.8-2.5
	s-8.8,1.1-8.8,2.5c0,0.3,0.2,0.6,0.6,0.9V23c-1.7,3.8-14.3,31.4-16,35.2c-3.4,7.6,2,12.9,6.9,12.9h17.3h17.3
	C50.5,71.1,55.9,65.8,52.5,58.2z"/>
<path id="fill" class="st1" d="M52.5,58.2c-1.8-4.1-16.2-35.7-16.2-35.7v-16c0.5-0.3,0.8-0.7,0.8-1c0-1.4-3.9-2.5-8.8-2.5
	s-8.8,1.1-8.8,2.5c0,0.3,0.2,0.6,0.6,0.9V23c-1.7,3.8-14.3,31.4-16,35.2c-3.4,7.6,2,12.9,6.9,12.9h17.3h17.3
	C50.5,71.1,55.9,65.8,52.5,58.2z"/>
<g id="dec">
	<line class="st2" x1="18.4" y1="35" x2="23.2" y2="35"/>
	<line class="st2" x1="18.4" y1="39.3" x2="23.2" y2="39.3"/>
	<line class="st2" x1="11.2" y1="43.6" x2="45.5" y2="43.6"/>
	<g>
		<polyline class="st3" points="27.5,51.2 27.5,64.3 46.1,64.3 		"/>
		<path class="st3" d="M27.5,63.6c0,0,1.1,0.1,2.2-0.2c7.8-2.2,7.8-11.5,15.1-11.6"/>
	</g>
	<g>
		<path class="st4" d="M13.1,54.8c0,0.3-0.1,0.6-0.2,0.8c-0.1,0.3-0.3,0.5-0.5,0.7c-0.2,0.2-0.4,0.3-0.7,0.5
			c-0.3,0.1-0.5,0.2-0.8,0.2c-0.3,0-0.6-0.1-0.8-0.2c-0.3-0.1-0.5-0.3-0.7-0.5s-0.3-0.4-0.5-0.7c-0.1-0.3-0.2-0.5-0.2-0.8
			c0-0.3,0.1-0.6,0.2-0.8c0.1-0.3,0.3-0.5,0.5-0.7c0.2-0.2,0.4-0.3,0.7-0.5c0.3-0.1,0.5-0.2,0.8-0.2c0.3,0,0.6,0.1,0.8,0.2
			c0.3,0.1,0.5,0.3,0.7,0.5c0.2,0.2,0.3,0.4,0.5,0.7C13.1,54.3,13.1,54.5,13.1,54.8z M15.8,52.7c0.2,0.1,0.3,0.2,0.4,0.4
			c0.1,0.2,0.1,0.4,0,0.6l-4.4,9.2c-0.1,0.2-0.2,0.3-0.4,0.4c-0.2,0.1-0.4,0.1-0.6,0c-0.2-0.1-0.3-0.2-0.4-0.4
			c-0.1-0.2-0.1-0.4,0-0.6l4.4-9.2c0.1-0.2,0.2-0.3,0.4-0.4C15.4,52.6,15.6,52.6,15.8,52.7z M10.3,54.8c0,0.2,0.1,0.4,0.2,0.5
			c0.1,0.1,0.3,0.2,0.5,0.2c0.2,0,0.4-0.1,0.5-0.2c0.1-0.1,0.2-0.3,0.2-0.5s-0.1-0.4-0.2-0.5c-0.1-0.1-0.3-0.2-0.5-0.2
			c-0.2,0-0.4,0.1-0.5,0.2C10.4,54.4,10.3,54.6,10.3,54.8z M15.5,59c0.3,0,0.6,0.1,0.8,0.2c0.3,0.1,0.5,0.3,0.7,0.5s0.3,0.4,0.5,0.7
			c0.1,0.3,0.2,0.5,0.2,0.8c0,0.3-0.1,0.6-0.2,0.8s-0.3,0.5-0.5,0.7s-0.4,0.3-0.7,0.5c-0.3,0.1-0.5,0.2-0.8,0.2
			c-0.3,0-0.6-0.1-0.8-0.2c-0.3-0.1-0.5-0.3-0.7-0.5c-0.2-0.2-0.3-0.4-0.5-0.7s-0.2-0.5-0.2-0.8c0-0.3,0.1-0.6,0.2-0.8
			c0.1-0.3,0.3-0.5,0.5-0.7c0.2-0.2,0.4-0.3,0.7-0.5C14.9,59.1,15.2,59,15.5,59z M15.5,61.9c0.2,0,0.4-0.1,0.5-0.2
			c0.1-0.1,0.2-0.3,0.2-0.5c0-0.2-0.1-0.4-0.2-0.5c-0.1-0.1-0.3-0.2-0.5-0.2c-0.2,0-0.4,0.1-0.5,0.2c-0.1,0.1-0.2,0.3-0.2,0.5
			c0,0.2,0.1,0.4,0.2,0.5C15.1,61.8,15.3,61.9,15.5,61.9z"/>
		<path class="st4" d="M21.4,52.7c0.4,0,0.7,0.1,1,0.2c0.3,0.1,0.6,0.3,0.8,0.6c0.2,0.2,0.4,0.5,0.6,0.8c0.1,0.3,0.2,0.7,0.2,1v5.3
			c0,0.4-0.1,0.7-0.2,1c-0.1,0.3-0.3,0.6-0.6,0.8s-0.5,0.4-0.8,0.6c-0.3,0.1-0.7,0.2-1,0.2h-1.9c-0.2,0-0.4-0.1-0.5-0.2
			c-0.1-0.1-0.2-0.3-0.2-0.5v-9.1c0-0.2,0.1-0.4,0.2-0.5c0.1-0.1,0.3-0.2,0.5-0.2H21.4z M22.2,54.5c-0.2-0.2-0.5-0.3-0.8-0.3h-1.1
			v7.5h1.1c0.3,0,0.6-0.1,0.8-0.3c0.2-0.2,0.3-0.5,0.3-0.8v-5.3C22.6,55,22.5,54.8,22.2,54.5z"/>
	</g>
</g>
<path id="out" class="st5" d="M52.5,58.2c-1.8-4.1-16.2-35.7-16.2-35.7v-16c0.5-0.3,0.8-0.7,0.8-1c0-1.4-3.9-2.5-8.8-2.5
	s-8.8,1.1-8.8,2.5c0,0.3,0.2,0.6,0.6,0.9V23c-1.7,3.8-14.3,31.4-16,35.2c-3.4,7.6,2,12.9,6.9,12.9h17.3h17.3
	C50.5,71.1,55.9,65.8,52.5,58.2z"/>
<path id="out_x5F_2" class="st5" d="M37.1,5.5c0,1.4-3.9,2.5-8.8,2.5s-8.8-1.1-8.8-2.5"/>
<line class="st3" x1="29.7" y1="61.5" x2="31.3" y2="61.5"/>
<line class="st3" x1="35.3" y1="59.5" x2="36.8" y2="59.5"/>
<line class="st3" x1="36" y1="55.8" x2="37.9" y2="55.8"/>
<line class="st3" x1="39.8" y1="53.9" x2="41.8" y2="53.9"/>
<line class="st3" x1="40.3" y1="51.2" x2="42.1" y2="51.2"/>
</svg>
