<?xml version="1.0" encoding="utf-8"?>
<!-- Generator: Adobe Illustrator 21.0.2, SVG Export Plug-In . SVG Version: 6.00 Build 0)  -->
<svg version="1.1" xmlns="http://www.w3.org/2000/svg" xmlns:xlink="http://www.w3.org/1999/xlink" x="0px" y="0px" width="69.2px"
	 height="130.4px" viewBox="0 0 69.2 130.4" style="enable-background:new 0 0 69.2 130.4;" xml:space="preserve">
<style type="text/css">
	.st0{display:none;}
	.st1{display:inline;fill:#98D400;stroke:#000000;stroke-miterlimit:10;}
	.st2{display:inline;fill:#14C5E2;}
	.st3{fill:none;stroke:#FFFFFF;stroke-width:6;stroke-linecap:round;stroke-linejoin:round;stroke-miterlimit:10;}
	.st4{fill:#6F6F6F;}
	.st5{fill:#F5821F;}
	.st6{fill:none;stroke:#D2D2D2;stroke-linecap:round;stroke-linejoin:round;stroke-miterlimit:10;}
	.st7{fill:none;stroke:#2D2D2D;stroke-width:1.5;stroke-linecap:round;stroke-linejoin:round;stroke-miterlimit:10;}
</style>
<g id="Layer_2_1_" class="st0">
	<rect x="-14" y="-10.1" class="st1" width="104.5" height="151.8"/>
</g>
<g id="Layer_1">
	<g id="Layer_2" class="st0">
		<rect x="-0.6" y="-0.2" class="st2" width="72.2" height="129.7"/>
	</g>
	<g id="Layer_1_1_">
		<path class="st3" d="M65.8,80.8c0-10.1-4.8-19.1-12.3-24.9l9.3-52.8H5.6l9.2,53.2C7.7,62.1,3.1,70.9,3.1,80.8
			c0,11.9,6.6,22.3,16.4,27.6L14,127.3h40.9l-5.8-18.9C59.1,103.1,65.8,92.7,65.8,80.8z"/>
		<path class="st4" d="M65.8,80.8c0-10.1-4.8-19.1-12.3-24.9l9.3-52.8H5.6l9.2,53.2C7.7,62.1,3.1,70.9,3.1,80.8
			c0,11.9,6.6,22.3,16.4,27.6L14,127.3h40.9l-5.8-18.9C59.1,103.1,65.8,92.7,65.8,80.8z"/>
		<circle class="st5" cx="22.3" cy="119.4" r="1.1"/>
		<circle class="st5" cx="24.2" cy="121.7" r="1.1"/>
		<circle class="st5" cx="26.8" cy="119.1" r="1"/>
		<circle class="st5" cx="28.1" cy="122.2" r="1.1"/>
		<circle class="st5" cx="32.8" cy="118.8" r="1.1"/>
		<circle class="st5" cx="30.1" cy="119.9" r="1.1"/>
		<circle class="st5" cx="31.9" cy="122.5" r="1.1"/>
		<circle class="st5" cx="35.8" cy="119.4" r="1"/>
		<circle class="st5" cx="37.1" cy="122" r="1.1"/>
		<circle class="st5" cx="39.7" cy="119.4" r="1"/>
		<circle class="st5" cx="41" cy="122.4" r="1.1"/>
		<circle class="st5" cx="45.7" cy="119" r="1.1"/>
		<circle class="st5" cx="43" cy="120.2" r="1.1"/>
		<circle class="st5" cx="45" cy="122.7" r="1"/>
		<circle class="st5" cx="48.8" cy="119.7" r="1.1"/>
	</g>
	<g id="Layer_3">
		<circle class="st6" cx="34.4" cy="81" r="15.4"/>
		<line class="st6" x1="37.2" y1="65.8" x2="28.6" y2="62.5"/>
		<line class="st6" x1="29.3" y1="66.4" x2="20.1" y2="68"/>
		<line class="st6" x1="22.7" y1="70.9" x2="15.5" y2="76.9"/>
		<line class="st6" x1="19.2" y1="78.2" x2="16" y2="86.9"/>
		<line class="st6" x1="19.9" y1="86.1" x2="21.4" y2="95.3"/>
		<line class="st6" x1="24.4" y1="92.7" x2="30.3" y2="99.9"/>
		<line class="st6" x1="31.6" y1="96.2" x2="40.3" y2="99.5"/>
		<line class="st6" x1="39.6" y1="95.5" x2="48.8" y2="94"/>
		<line class="st6" x1="46.3" y1="91" x2="53.4" y2="85.1"/>
		<line class="st6" x1="49.6" y1="83.8" x2="52.9" y2="75.1"/>
		<line class="st6" x1="49" y1="75.8" x2="47.4" y2="66.7"/>
		<line class="st6" x1="44.5" y1="69.2" x2="38.5" y2="62"/>
		<path class="st7" d="M65.8,80.8c0-10.1-4.8-19.1-12.3-24.9l9.3-52.8H5.6l9.2,53.2C7.7,62.1,3.1,70.9,3.1,80.8
			c0,11.9,6.6,22.3,16.4,27.6L14,127.3h40.9l-5.8-18.9C59.1,103.1,65.8,92.7,65.8,80.8z"/>
	</g>
	<circle class="st5" cx="27" cy="14" r="2.5"/>
	<circle class="st5" cx="33.5" cy="9.1" r="2.5"/>
	<circle class="st5" cx="33.5" cy="19" r="2.5"/>
	<circle class="st5" cx="32.9" cy="28.9" r="2.5"/>
	<circle class="st5" cx="20.6" cy="59.5" r="2.5"/>
	<circle class="st5" cx="8.2" cy="76.9" r="2.5"/>
	<circle class="st5" cx="19.9" cy="102.4" r="2.5"/>
	<circle class="st5" cx="34.4" cy="102" r="2.5"/>
	<circle class="st5" cx="47.9" cy="102.4" r="2.5"/>
	<circle class="st5" cx="9.2" cy="87.6" r="2.5"/>
	<circle class="st5" cx="33" cy="59.5" r="2.5"/>
	<circle class="st5" cx="45.7" cy="62" r="2.5"/>
	<circle class="st5" cx="52.9" cy="71.2" r="2.5"/>
	<circle class="st5" cx="58.9" cy="78.7" r="2.5"/>
	<circle class="st5" cx="53.7" cy="92.3" r="2.5"/>
	<circle class="st5" cx="16.6" cy="70.9" r="2.5"/>
	<circle class="st5" cx="40.5" cy="24.6" r="2.5"/>
	<circle class="st5" cx="42.2" cy="8.2" r="2.5"/>
	<circle class="st5" cx="40.5" cy="15.6" r="2.5"/>
	<path class="st6" d="M47.4,108.8c-3.9,1.8-8.4,2.8-13,2.8s-9.1-1-13.1-2.8"/>
	<path class="st6" d="M16.9,54.4c5-3.4,11.1-5.3,17.5-5.3c6.2,0,11.9,1.7,16.7,4.9"/>
</g>
</svg>
