<?xml version="1.0" encoding="utf-8"?>
<!-- Generator: Adobe Illustrator 21.0.2, SVG Export Plug-In . SVG Version: 6.00 Build 0)  -->
<svg version="1.1" id="Layer_3" xmlns="http://www.w3.org/2000/svg" xmlns:xlink="http://www.w3.org/1999/xlink" x="0px" y="0px"
	 width="85.6px" height="48.3px" viewBox="0 0 85.6 48.3" style="enable-background:new 0 0 85.6 48.3;" xml:space="preserve">
<style type="text/css">
	.st0{fill:none;stroke:#FFFFFF;stroke-width:6;stroke-linecap:round;stroke-linejoin:round;stroke-miterlimit:10;}
	.st1{fill:#707070;}
	.st2{fill:none;stroke:#000000;stroke-width:1.5;stroke-linecap:round;stroke-linejoin:round;stroke-miterlimit:10;}
</style>
<polygon class="st0" points="82.2,13.3 82.2,3.2 64.6,3.2 54.5,3.2 54.5,13.3 54.5,19.2 3,19.2 3,29.2 21,29.2 21,34.8 3,34.8 3,45 
	31.1,45 31.1,42 31.1,34.8 31.1,29.2 82.2,29.2 82.2,19.2 64.6,19.2 64.6,13.3 "/>
<polygon class="st1" points="82.2,13.3 82.2,3.2 64.6,3.2 54.5,3.2 54.5,13.3 54.5,19.2 3,19.2 3,29.2 21,29.2 21,34.8 3,34.8 3,45 
	31.1,45 31.1,42 31.1,34.8 31.1,29.2 82.2,29.2 82.2,19.2 64.6,19.2 64.6,13.3 "/>
<polygon class="st2" points="82.2,13.3 82.2,3.2 64.6,3.2 54.5,3.2 54.5,13.3 54.5,19.2 3,19.2 3,29.2 21,29.2 21,34.8 3,34.8 3,45 
	31.1,45 31.1,42 31.1,34.8 31.1,29.2 82.2,29.2 82.2,19.2 64.6,19.2 64.6,13.3 "/>
</svg>
