<?xml version="1.0" encoding="utf-8"?>
<!-- Generator: Adobe Illustrator 21.0.2, SVG Export Plug-In . SVG Version: 6.00 Build 0)  -->
<svg version="1.1" id="Layer_1" xmlns="http://www.w3.org/2000/svg" xmlns:xlink="http://www.w3.org/1999/xlink" x="0px" y="0px"
	 width="56.6px" height="74.3px" viewBox="0 0 56.6 74.3" style="enable-background:new 0 0 56.6 74.3;" xml:space="preserve">
<style type="text/css">
	.st0{display:none;}
	.st1{display:inline;fill:#D2D2D2;}
	.st2{display:none;fill:#AFCC32;}
	.st3{display:none;fill:none;stroke:#000000;stroke-width:2.6906;stroke-linecap:round;stroke-linejoin:round;}
	.st4{display:none;fill:none;stroke:#000000;stroke-width:2.6906;stroke-linecap:round;}
	.st5{fill:none;stroke:#FFFFFF;stroke-width:6;stroke-linecap:round;stroke-linejoin:round;stroke-miterlimit:10;}
	.st6{fill:none;}
	.st7{fill:#707070;}
	.st8{fill:none;stroke:#D1D1D1;stroke-linecap:round;stroke-linejoin:round;}
	.st9{fill:none;stroke:#2E2E2E;stroke-width:1.5;stroke-linecap:round;stroke-linejoin:round;stroke-miterlimit:10;}
	.st10{fill:#D1D1D1;}
	.st11{fill:none;stroke:#D1D1D1;stroke-linecap:round;stroke-linejoin:round;stroke-miterlimit:10;}
</style>
<g id="Layer_2" class="st0">
	<rect x="-36.4" y="-31.1" class="st1" width="135" height="137.5"/>
</g>
<g id="Layer_1_1_">
	
		<g id="svg3015" inkscape:version="0.48.5 r10040" sodipodi:docname="gcrystal solubility analyzer.svg" xmlns:cc="http://creativecommons.org/ns#" xmlns:dc="http://purl.org/dc/elements/1.1/" xmlns:inkscape="http://www.inkscape.org/namespaces/inkscape" xmlns:rdf="http://www.w3.org/1999/02/22-rdf-syntax-ns#" xmlns:sodipodi="http://sodipodi.sourceforge.net/DTD/sodipodi-0.dtd" xmlns:svg="http://www.w3.org/2000/svg">
		
			<sodipodi:namedview  bordercolor="#666666" borderopacity="1" gridtolerance="10" guidetolerance="10" id="namedview3039" inkscape:current-layer="svg3015" inkscape:cx="-20.610169" inkscape:cy="64" inkscape:pageopacity="0" inkscape:pageshadow="2" inkscape:window-height="1018" inkscape:window-maximized="1" inkscape:window-width="1920" inkscape:window-x="-8" inkscape:window-y="-8" inkscape:zoom="1.84375" objecttolerance="10" pagecolor="#ffffff" showgrid="false">
			</sodipodi:namedview>
		<path id="path3997" inkscape:connector-curvature="0" class="st2" d="M0.6,49.2l-17.8,28.6c-8.2,10.7-2.5,25.8,15.7,24.3
			c0.9-0.1,61.5-0.3,61.5-0.3c24.6,0.9,23.4-17.6,16.6-26.3L60.2,49.7L0.6,49.2z"/>
		<path id="rect3162" inkscape:connector-curvature="0" class="st3" d="M9.9-23.3c6.5,6.9,5.5,12.1,5.6,20.5l0.2,26.4l-31.8,51.3
			c-7.7,13.8-2.5,27.3,10.1,26.5l73,0.1c13.7-0.1,18.6-13.7,8.1-28L45,23.6L44.4-2.8c-0.1-8.3-1.2-13.5,5.3-20.6L9.9-23.3z"/>
		<path id="path3180" inkscape:connector-curvature="0" class="st4" d="M43-3.2H32.1"/>
		<path id="path3182" inkscape:connector-curvature="0" class="st4" d="M43.4,17.5H32.5"/>
		<path id="path3184" inkscape:connector-curvature="0" class="st4" d="M52.9,39.1H42"/>
		<path id="path3186" inkscape:connector-curvature="0" class="st4" d="M63.1,55.5H52.2"/>
		<path id="path3188" inkscape:connector-curvature="0" class="st4" d="M72.8,72.2H61.9"/>
	</g>
	<g id="Layer_1_4_">
		<line class="st5" x1="18.4" y1="35" x2="23.2" y2="35"/>
		<line class="st5" x1="18.4" y1="39.3" x2="23.2" y2="39.3"/>
		<line class="st5" x1="18.4" y1="43.7" x2="23.2" y2="43.7"/>
		<path class="st5" d="M52.6,58.2c-1.9-4.1-16.3-35.6-16.3-35.6V6.5c0.5-0.3,0.8-0.7,0.8-1c0-1.4-3.9-2.5-8.8-2.5s-8.8,1.1-8.8,2.5
			c0,0.3,0.2,0.6,0.6,0.9V23c-1.7,3.8-14.3,31.4-16,35.2C0.7,65.8,6.2,71.1,11,71.1h17.3h17.3C50.5,71.1,55.9,65.8,52.6,58.2z"/>
		<path class="st5" d="M37.1,5.5c0,1.4-3.9,2.5-8.8,2.5s-8.8-1.1-8.8-2.5"/>
		<path class="st6" d="M52.6,58.2c-1.9-4.1-16.3-35.6-16.3-35.6V6.5c0.5-0.3,0.8-0.7,0.8-1c0-1.4-3.9-2.5-8.8-2.5s-8.8,1.1-8.8,2.5
			c0,0.3,0.2,0.6,0.6,0.9V23c-1.7,3.8-14.3,31.4-16,35.2C0.7,65.8,6.2,71.1,11,71.1h17.3h17.3C50.5,71.1,55.9,65.8,52.6,58.2z"/>
		<path class="st6" d="M37.1,5.5c0,1.4-3.9,2.5-8.8,2.5s-8.8-1.1-8.8-2.5"/>
		<line class="st6" x1="18.4" y1="35" x2="23.2" y2="35"/>
		<line class="st6" x1="18.4" y1="39.3" x2="23.2" y2="39.3"/>
		<line class="st6" x1="18.4" y1="43.7" x2="23.2" y2="43.7"/>
		<path class="st7" d="M52.6,58.2c-1.9-4.1-16.3-35.6-16.3-35.6V6.5c0.5-0.3,0.8-0.7,0.8-1c0-1.4-3.9-2.5-8.8-2.5s-8.8,1.1-8.8,2.5
			c0,0.3,0.2,0.6,0.6,0.9V23c-1.7,3.8-14.3,31.4-16,35.2C0.7,65.8,6.2,71.1,11,71.1h17.3h17.3C50.5,71.1,55.9,65.8,52.6,58.2z"/>
		<line class="st8" x1="18.4" y1="35" x2="23.2" y2="35"/>
		<line class="st8" x1="18.4" y1="39.3" x2="23.2" y2="39.3"/>
		<line class="st8" x1="11.2" y1="43.7" x2="45.5" y2="43.7"/>
		<path class="st9" d="M52.6,58.2c-1.9-4.1-16.3-35.6-16.3-35.6V6.5c0.5-0.3,0.8-0.7,0.8-1c0-1.4-3.9-2.5-8.8-2.5s-8.8,1.1-8.8,2.5
			c0,0.3,0.2,0.6,0.6,0.9V23c-1.7,3.8-14.3,31.4-16,35.2C0.7,65.8,6.2,71.1,11,71.1h17.3h17.3C50.5,71.1,55.9,65.8,52.6,58.2z"/>
		<path class="st9" d="M37.1,5.5c0,1.4-3.9,2.5-8.8,2.5s-8.8-1.1-8.8-2.5"/>
	</g>
</g>
<g>
	<path class="st10" d="M17.8,61.9c0.2-0.1,0.3-0.3,0.4-0.4c0.1-0.2,0.1-0.3,0.2-0.5c0-0.4-0.1-0.7-0.4-1L15.1,57
		c-0.3-0.3-0.5-0.6-0.7-1c-0.1-0.4-0.2-0.8-0.2-1.2c0-0.4,0.2-0.8,0.3-1.2c0.2-0.4,0.5-0.7,0.8-0.9c0.3-0.3,0.7-0.4,1.1-0.5
		c0.4-0.1,0.8-0.1,1.2,0c0.4,0.1,0.8,0.3,1.1,0.5c0.3,0.2,0.6,0.5,0.8,0.9c0.1,0.2,0.1,0.4,0.1,0.6c-0.1,0.2-0.2,0.4-0.4,0.5
		c-0.2,0.1-0.4,0.1-0.6,0.1c-0.2-0.1-0.4-0.2-0.5-0.4c-0.2-0.3-0.5-0.5-0.8-0.6c-0.4-0.1-0.7,0-1,0.2c-0.3,0.2-0.5,0.5-0.5,0.9
		c0,0.4,0.1,0.7,0.3,1l2.8,2.8c0.3,0.3,0.5,0.7,0.7,1.1c0.2,0.4,0.2,0.8,0.2,1.3c0,0.4-0.2,0.8-0.4,1.2c-0.2,0.4-0.5,0.7-0.8,1
		c-0.3,0.3-0.7,0.4-1.1,0.5c-0.4,0.1-0.8,0.1-1.3,0c-0.4-0.1-0.8-0.3-1.2-0.5c-0.3-0.2-0.6-0.6-0.8-0.9c-0.1-0.2-0.2-0.4-0.1-0.6
		c0.1-0.2,0.2-0.4,0.4-0.5c0.2-0.1,0.4-0.1,0.6-0.1c0.2,0.1,0.4,0.2,0.5,0.4c0.2,0.3,0.5,0.5,0.9,0.6C17.1,62.2,17.5,62.1,17.8,61.9
		z"/>
</g>
<polyline class="st11" points="24.2,51 24.2,63.8 42.5,63.8 "/>
<path class="st11" d="M26.7,52.3c0,0,0.7,8.6,7.3,8.6c5.1,0,7.4-8.7,7.4-8.7"/>
</svg>
