<?xml version="1.0" encoding="UTF-8" standalone="no"?>
<?gproms path="Liquid_species_concentration_sensor_block.is_concentration_within_range"?>

<svg
   xmlns:dc="http://purl.org/dc/elements/1.1/"
   xmlns:cc="http://creativecommons.org/ns#"
   xmlns:rdf="http://www.w3.org/1999/02/22-rdf-syntax-ns#"
   xmlns:svg="http://www.w3.org/2000/svg"
   xmlns="http://www.w3.org/2000/svg"
   xmlns:sodipodi="http://sodipodi.sourceforge.net/DTD/sodipodi-0.dtd"
   xmlns:inkscape="http://www.inkscape.org/namespaces/inkscape"
   version="1.1"
   x="0px"
   y="0px"
   width="50.5px"
   height="59.8px"
   viewBox="0 0 50.5 59.8"
   style="enable-background:new 0 0 50.5 59.8;"
   xml:space="preserve"
   id="svg4084"
   inkscape:version="0.91 r13725"
   sodipodi:docname="liquid species concentration sensor.svg"><metadata
     id="metadata4125"><rdf:RDF><cc:Work
         rdf:about=""><dc:format>image/svg+xml</dc:format><dc:type
           rdf:resource="http://purl.org/dc/dcmitype/StillImage" /></cc:Work></rdf:RDF></metadata><defs
     id="defs4123" /><sodipodi:namedview
     pagecolor="#ffffff"
     bordercolor="#666666"
     borderopacity="1"
     objecttolerance="10"
     gridtolerance="10"
     guidetolerance="10"
     inkscape:pageopacity="0"
     inkscape:pageshadow="2"
     inkscape:window-width="742"
     inkscape:window-height="480"
     id="namedview4121"
     showgrid="false"
     inkscape:zoom="3.9464883"
     inkscape:cx="25.25"
     inkscape:cy="29.9"
     inkscape:window-x="0"
     inkscape:window-y="0"
     inkscape:window-maximized="0"
     inkscape:current-layer="Layer_1" /><style
     type="text/css"
     id="style4086">
	.st0{display:none;}
	.st1{display:inline;fill:#6AADFF;stroke:#000000;stroke-miterlimit:10;}
	.st2{display:inline;fill:#EEE52F;}
	.st3{fill:none;stroke:#FFFFFF;stroke-width:6;stroke-linecap:round;stroke-linejoin:round;stroke-miterlimit:10;}
	.st4{fill:#6F6F6F;}
	.st5{fill:none;}
	.st6{fill:#FFFFFF;}
	.st7{fill:none;stroke:#2D2D2E;stroke-width:1.5;stroke-linecap:round;stroke-linejoin:round;stroke-miterlimit:10;}
	.st8{fill:#727070;}
</style><g
     id="Layer_2_1_"
     class="st0"><rect
       x="-10.5"
       y="-4.1"
       class="st1"
       width="66.9"
       height="70.1"
       id="rect4089" /></g><g
     id="Layer_1"><g
       id="Layer_2"
       class="st0"><rect
         x="-70.1"
         y="-60.3"
         class="st2"
         width="242"
         height="197.7"
         id="rect4093" /></g><line
       class="st3"
       x1="25.5"
       y1="45.2"
       x2="25.5"
       y2="56.7"
       id="line4095" /><circle
       class="st3"
       cx="25.5"
       cy="25"
       r="21.9"
       id="circle4097"
	   style="stroke:#ff0000;stroke-opacity:1;stroke-width:0;stroke-miterlimit:10;stroke-dasharray:none"><animate
         attributeName="stroke-width"
         attributeType="XML"
         begin="0s"
         dur="1s"
         fill="freeze"
         from="6"
         to="0" /></circle>	   
	   <line
       class="st4"
       x1="25.5"
       y1="45.2"
       x2="25.5"
       y2="56.7"
       id="line4099" /><circle
       class="st5"
       cx="25.5"
       cy="25"
       r="21.9"
       id="circle4101" /><circle
       class="st6"
       cx="25.5"
       cy="25"
       r="21.9"
       id="circle4103" /><line
       class="st7"
       x1="25.5"
       y1="47.5"
       x2="25.5"
       y2="56.7"
       id="line4105" /><circle
       class="st7"
       cx="25.5"
       cy="25"
       r="21.9"
       id="circle4107" /><g
       id="g4109"
       transformBehaviour="pinned"><path
         class="st8"
         d="M 14.2,31.7 C 14,31.5 14,31.3 14,31.1 l 0,-12.5 c 0,-0.2 0.1,-0.4 0.2,-0.6 0.2,-0.2 0.4,-0.2 0.6,-0.2 l 1.7,0 c 0.2,0 0.4,0.1 0.6,0.2 0.2,0.2 0.2,0.4 0.2,0.6 0,0.2 -0.1,0.4 -0.2,0.6 -0.2,0.2 -0.4,0.2 -0.6,0.2 l -0.9,0 0,10.9 0.9,0 c 0.2,0 0.4,0.1 0.6,0.2 0.2,0.2 0.2,0.4 0.2,0.6 0,0.2 -0.1,0.4 -0.2,0.6 -0.2,0.2 -0.4,0.2 -0.6,0.2 l -1.7,0 c -0.3,0.1 -0.5,0 -0.6,-0.2 z"
         id="path4111"
         inkscape:connector-curvature="0"
         style="fill:#727070" /><path
         class="st8"
         d="m 18.6,30.3 c -0.2,-0.2 -0.2,-0.4 -0.2,-0.6 l 0,-9.9 c 0,-0.2 0.1,-0.4 0.2,-0.6 C 18.8,19 19,19 19.2,19 c 0.2,0 0.4,0.1 0.6,0.2 0.2,0.1 0.2,0.4 0.2,0.6 l 0,9.1 2.6,0 c 0.2,0 0.4,0.1 0.6,0.2 0.2,0.2 0.2,0.4 0.2,0.6 0,0.2 -0.1,0.4 -0.2,0.6 -0.2,0.2 -0.4,0.2 -0.6,0.2 l -3.4,0 c -0.3,0.1 -0.5,0 -0.6,-0.2 z"
         id="path4113"
         inkscape:connector-curvature="0"
         style="fill:#727070" /><path
         class="st8"
         d="m 25.1,30.7 c -0.2,0 -0.4,-0.1 -0.6,-0.2 -0.2,-0.2 -0.2,-0.4 -0.2,-0.6 l 0,-10 c 0,-0.2 0.1,-0.4 0.2,-0.6 0.2,-0.2 0.4,-0.2 0.6,-0.2 0.2,0 0.4,0.1 0.6,0.2 0.2,0.1 0.2,0.4 0.2,0.6 l 0,10 c 0,0.2 -0.1,0.4 -0.2,0.6 -0.1,0.1 -0.3,0.2 -0.6,0.2 z"
         id="path4115"
         inkscape:connector-curvature="0"
         style="fill:#727070" /><path
         class="st8"
         d="m 33.3,27.8 c 0,0.4 -0.1,0.8 -0.2,1.1 -0.1,0.3 -0.3,0.6 -0.6,0.9 l 0.7,1.2 c 0.1,0.2 0.1,0.4 0.1,0.6 -0.1,0.2 -0.2,0.4 -0.4,0.5 -0.2,0.1 -0.4,0.2 -0.6,0.1 -0.2,-0.1 -0.4,-0.2 -0.5,-0.4 l -0.7,-1.2 c -0.2,0.1 -0.5,0.1 -0.7,0.1 -0.4,0 -0.8,-0.1 -1.1,-0.2 C 29,30.4 28.6,30.1 28.4,29.9 28.1,29.6 27.9,29.3 27.8,29 27.6,28.7 27.6,28.3 27.6,27.9 l 0,-5.8 c 0,-0.4 0.1,-0.8 0.2,-1.1 0.2,-0.3 0.4,-0.7 0.6,-0.9 0.3,-0.3 0.6,-0.5 0.9,-0.6 0.3,-0.1 0.7,-0.2 1.1,-0.2 0.4,0 0.8,0.1 1.1,0.2 0.3,0.1 0.7,0.4 0.9,0.6 0.3,0.3 0.5,0.6 0.6,0.9 0.1,0.3 0.2,0.7 0.2,1.1 l 0,5.7 z m -3.8,0.8 c 0.2,0.2 0.5,0.4 0.9,0.4 0.3,0 0.6,-0.1 0.9,-0.4 0.2,-0.2 0.4,-0.5 0.4,-0.9 l 0,-5.8 c 0,-0.3 -0.1,-0.6 -0.4,-0.9 -0.2,-0.2 -0.5,-0.4 -0.9,-0.4 -0.3,0 -0.6,0.1 -0.9,0.4 -0.3,0.3 -0.4,0.5 -0.4,0.9 l 0,5.8 c 0.1,0.4 0.2,0.7 0.4,0.9 z"
         id="path4117"
         inkscape:connector-curvature="0"
         style="fill:#727070" /><path
         class="st8"
         d="m 37.2,18 c 0.2,0.2 0.2,0.4 0.2,0.6 l 0,12.6 c 0,0.2 -0.1,0.4 -0.2,0.6 C 37,32 36.8,32 36.6,32 l -1.7,0 c -0.2,0 -0.4,-0.1 -0.6,-0.2 -0.2,-0.2 -0.2,-0.4 -0.2,-0.6 0,-0.2 0.1,-0.4 0.2,-0.6 0.2,-0.2 0.4,-0.2 0.6,-0.2 l 0.9,0 0,-11 -0.9,0 c -0.2,0 -0.4,-0.1 -0.6,-0.2 -0.2,-0.2 -0.2,-0.4 -0.2,-0.6 0,-0.2 0.1,-0.4 0.2,-0.6 0.2,-0.2 0.4,-0.2 0.6,-0.2 l 1.7,0 c 0.3,-0.1 0.5,0 0.6,0.2 z"
         id="path4119"
         inkscape:connector-curvature="0"
         style="fill:#727070" /></g></g></svg>