<?xml version="1.0" encoding="utf-8"?>
<!-- Generator: Adobe Illustrator 21.0.2, SVG Export Plug-In . SVG Version: 6.00 Build 0)  -->
<svg version="1.1" xmlns="http://www.w3.org/2000/svg" xmlns:xlink="http://www.w3.org/1999/xlink" x="0px" y="0px" width="43.4px"
	 height="97.9px" viewBox="0 0 43.4 97.9" style="enable-background:new 0 0 43.4 97.9;" xml:space="preserve">
<style type="text/css">
	.st0{display:none;}
	.st1{display:inline;fill:#5252DD;}
	.st2{fill:none;}
	.st3{fill:none;stroke:#FFFFFF;stroke-width:6;stroke-linecap:round;stroke-linejoin:round;stroke-miterlimit:10;}
	.st4{fill:none;stroke:#2D2D2E;stroke-width:1.5;stroke-linecap:round;stroke-linejoin:round;stroke-miterlimit:10;}
</style>
<g id="Layer_2" class="st0">
	<rect x="-72.9" y="-68.3" class="st1" width="199" height="225"/>
</g>
<g id="svg2" inkscape:version="0.91 r13725" sodipodi:docname="mixer splitter.svg" xmlns:cc="http://creativecommons.org/ns#" xmlns:dc="http://purl.org/dc/elements/1.1/" xmlns:inkscape="http://www.inkscape.org/namespaces/inkscape" xmlns:rdf="http://www.w3.org/1999/02/22-rdf-syntax-ns#" xmlns:sodipodi="http://sodipodi.sourceforge.net/DTD/sodipodi-0.dtd" xmlns:svg="http://www.w3.org/2000/svg">
	
		<sodipodi:namedview  bordercolor="#666666" borderopacity="1" gridtolerance="10" guidetolerance="10" id="namedview8" inkscape:current-layer="svg2" inkscape:cx="-9.3028139" inkscape:cy="142.74709" inkscape:pageopacity="0" inkscape:pageshadow="2" inkscape:window-height="1141" inkscape:window-maximized="1" inkscape:window-width="1920" inkscape:window-x="1912" inkscape:window-y="-8" inkscape:zoom="1.4815158" objecttolerance="10" pagecolor="#ffffff" showgrid="false">
		</sodipodi:namedview>
	<polyline class="st2" points="3.1,3.1 21.8,3.1 21.8,94.6 3.1,94.6 	"/>
	<line class="st2" x1="3.1" y1="48.9" x2="21.8" y2="48.9"/>
	<line class="st2" x1="21.8" y1="26.3" x2="40.4" y2="26.3"/>
	<line class="st2" x1="21.8" y1="72.6" x2="40.4" y2="72.6"/>
	<polyline class="st3" points="3.1,3.1 21.8,3.1 21.8,94.6 3.1,94.6 	"/>
	<line class="st3" x1="3.1" y1="48.9" x2="21.8" y2="48.9"/>
	<line class="st3" x1="21.8" y1="26.3" x2="40.4" y2="26.3"/>
	<line class="st3" x1="21.8" y1="72.6" x2="40.4" y2="72.6"/>
	<polyline class="st3" points="3.1,3.1 21.8,3.1 21.8,94.6 3.1,94.6 	"/>
	<line class="st3" x1="3.1" y1="48.9" x2="21.8" y2="48.9"/>
	<line class="st3" x1="21.8" y1="26.3" x2="40.4" y2="26.3"/>
	<line class="st3" x1="21.8" y1="72.6" x2="40.4" y2="72.6"/>
	<polyline class="st4" points="3.1,3.1 21.8,3.1 21.8,94.6 3.1,94.6 	"/>
	<line class="st4" x1="3.1" y1="48.9" x2="21.8" y2="48.9"/>
	<line class="st4" x1="21.8" y1="26.3" x2="40.4" y2="26.3"/>
	<line class="st4" x1="21.8" y1="72.6" x2="40.4" y2="72.6"/>
</g>
</svg>
