<?xml version="1.0" encoding="utf-8"?>
<!-- Generator: Adobe Illustrator 21.0.2, SVG Export Plug-In . SVG Version: 6.00 Build 0)  -->
<svg version="1.1" xmlns="http://www.w3.org/2000/svg" xmlns:xlink="http://www.w3.org/1999/xlink" x="0px" y="0px" width="50.5px"
	 height="67.7px" viewBox="0 0 50.5 67.7" style="enable-background:new 0 0 50.5 67.7;" xml:space="preserve">
<style type="text/css">
	.st0{display:none;}
	.st1{display:inline;fill:#1EFF00;stroke:#000000;stroke-miterlimit:10;}
	.st2{fill:none;stroke:#FFFFFF;stroke-width:6;stroke-linecap:round;stroke-linejoin:round;stroke-miterlimit:10;}
	.st3{fill:#707070;}
	.st4{fill:none;stroke:#000000;stroke-width:1.5;stroke-linecap:round;stroke-linejoin:round;stroke-miterlimit:10;}
</style>
<g id="Layer_2" class="st0">
	<rect x="-2.6" y="4" class="st1" width="63.5" height="59.6"/>
</g>
<g id="Layer_1" xmlns:cc="http://creativecommons.org/ns#" xmlns:dc="http://purl.org/dc/elements/1.1/" xmlns:rdf="http://www.w3.org/1999/02/22-rdf-syntax-ns#" xmlns:svg="http://www.w3.org/2000/svg">
	<g id="g7">
	</g>
	
		<g id="svg2" inkscape:version="0.48.4 r9939" sodipodi:docname="phases_recycle.svg" sodipodi:version="0.32" xmlns:cc="http://creativecommons.org/ns#" xmlns:dc="http://purl.org/dc/elements/1.1/" xmlns:inkscape="http://www.inkscape.org/namespaces/inkscape" xmlns:rdf="http://www.w3.org/1999/02/22-rdf-syntax-ns#" xmlns:sodipodi="http://sodipodi.sourceforge.net/DTD/sodipodi-0.dtd" xmlns:svg="http://www.w3.org/2000/svg">
		
			<sodipodi:namedview  bordercolor="#666666" borderopacity="1.0" fit-margin-bottom="0.1" fit-margin-left="0.1" fit-margin-right="0.1" fit-margin-top="0.1" id="base" inkscape:current-layer="g3836" inkscape:cx="18.582057" inkscape:cy="26.622134" inkscape:document-units="in" inkscape:pageopacity="0.0" inkscape:pageshadow="2" inkscape:snap-object-midpoints="true" inkscape:window-height="1018" inkscape:window-maximized="0" inkscape:window-width="1920" inkscape:window-x="17" inkscape:window-y="36" inkscape:zoom="9.6357779" pagecolor="#ffffff" showgrid="false" units="px">
			
				<inkscape:grid  empspacing="4" enabled="false" id="grid3477" originx="-2.2520317in" originy="-2.9314392in" snapvisiblegridlinesonly="true" spacingy="0.25in" type="axonomgrid" units="in" visible="true">
				</inkscape:grid>
			
				<inkscape:grid  empspacing="5" enabled="false" gridanglex="60" gridanglez="30" id="grid3479" originx="-2.2520317in" originy="-2.9314392in" snapvisiblegridlinesonly="true" spacingy="0.25in" type="axonomgrid" units="in" visible="true">
				</inkscape:grid>
			
				<inkscape:grid  dotted="false" empspacing="4" enabled="false" id="grid3481" originx="-202.68285px" originy="-263.82953px" snapvisiblegridlinesonly="true" spacingx="0.25px" spacingy="0.25px" type="xygrid" visible="true">
				</inkscape:grid>
		</sodipodi:namedview>
		
			<sodipodi:namedview  bordercolor="#666666" borderopacity="1.0" fit-margin-bottom="0.1" fit-margin-left="0.1" fit-margin-right="0.1" fit-margin-top="0.1" id="base" inkscape:current-layer="g3836" inkscape:cx="18.582057" inkscape:cy="26.622134" inkscape:document-units="in" inkscape:pageopacity="0.0" inkscape:pageshadow="2" inkscape:snap-object-midpoints="true" inkscape:window-height="1018" inkscape:window-maximized="0" inkscape:window-width="1920" inkscape:window-x="17" inkscape:window-y="36" inkscape:zoom="9.6357779" pagecolor="#ffffff" showgrid="false" units="px">
			
				<inkscape:grid  empspacing="4" enabled="false" id="grid3477" originx="-2.2520317in" originy="-2.9314392in" snapvisiblegridlinesonly="true" spacingy="0.25in" type="axonomgrid" units="in" visible="true">
				</inkscape:grid>
			
				<inkscape:grid  empspacing="5" enabled="false" gridanglex="60" gridanglez="30" id="grid3479" originx="-2.2520317in" originy="-2.9314392in" snapvisiblegridlinesonly="true" spacingy="0.25in" type="axonomgrid" units="in" visible="true">
				</inkscape:grid>
			
				<inkscape:grid  dotted="false" empspacing="4" enabled="false" id="grid3481" originx="-202.68285px" originy="-263.82953px" snapvisiblegridlinesonly="true" spacingx="0.25px" spacingy="0.25px" type="xygrid" visible="true">
				</inkscape:grid>
		</sodipodi:namedview>
		<g id="layer1_1_" transform="translate(-736.26285,-456.47985)" inkscape:groupmode="layer" inkscape:label="Layer 1">
			<path id="legib_9_" class="st2" d="M765.8,468.1l-8.4-8.4l0,0v8.3c-10.3,2.1-18.1,11.3-18.1,22.2c0,10.8,7.7,20,17.9,22.1
				l8.4,8.4v-8.3c10.3-2.1,18.1-11.3,18.1-22.2C783.7,479.4,776,470.4,765.8,468.1z M765.6,502v-13l-11.2,11.2
				c-3-2.3-4.9-5.9-4.9-10c0-5.4,3.3-9.9,8-11.7v13l11.2-11.2c3,2.3,5,5.9,5,10C773.6,495.7,770.3,500.2,765.6,502z"/>
			<g id="g3836" transform="matrix(0.1,0,0,0.1,681.8316,437.15483)">
				<path id="path2985" inkscape:connector-curvature="0" class="st3" d="M839,309.4l75.2,75.2l-46.1,46.1
					c30.3,22.8,49.6,59.1,49.6,100.4c0,54-33.1,99.4-80.3,117.3V518.8L678.6,677.6l158.9,158.9v-83.3
					c103.1-21.1,181.3-113,181.3-222C1018.8,422.6,941.3,331.2,839,309.4L839,309.4z"/>
				<path id="path5778" inkscape:connector-curvature="0" class="st3" d="M756.1,225.8v83.3c-103.1,21.1-181.3,112.9-181.3,222
					c0,108.5,77.5,200,179.8,221.8l-75.2-75.2l46.1-46.1c-30.2-22.8-49.6-59.1-49.6-100.4c0-54,33.1-99.3,80.3-117.3v129.7
					L915,384.7L756.1,225.8L756.1,225.8z"/>
			</g>
		</g>
		<g id="outline_7_" transform="translate(-736.26285,-456.47985)" inkscape:groupmode="layer" inkscape:label="Layer 1">
			<g id="g3836_1_" transform="matrix(0.1,0,0,0.1,681.8316,437.15483)">
				<path id="path2985_1_" inkscape:connector-curvature="0" class="st4" d="M839,309.5l75.2,75.2l-46.1,46.1
					c30.3,22.8,49.6,59.1,49.6,100.4c0,54-33.1,99.4-80.3,117.3V518.8L678.6,677.7l158.9,158.9v-83.3
					c103.1-21.1,181.3-113,181.3-222C1018.8,422.7,941.3,331.3,839,309.5L839,309.5z"/>
				<path id="path5778_1_" inkscape:connector-curvature="0" class="st4" d="M756.1,225.9v83.3c-103.1,21.2-181.3,113-181.3,222
					c0,108.5,77.5,200,179.8,221.8l-75.2-75.2l46.1-46.1c-30.2-22.8-49.6-59.1-49.6-100.4c0-54,33.1-99.3,80.3-117.3v129.7
					l158.9-158.9L756.1,225.9L756.1,225.9z"/>
			</g>
		</g>
	</g>
</g>
</svg>
