<?xml version="1.0" encoding="UTF-8" standalone="no"?>
<!-- Created with Inkscape (http://www.inkscape.org/) -->

<svg
   xmlns:dc="http://purl.org/dc/elements/1.1/"
   xmlns:cc="http://creativecommons.org/ns#"
   xmlns:rdf="http://www.w3.org/1999/02/22-rdf-syntax-ns#"
   xmlns:svg="http://www.w3.org/2000/svg"
   xmlns="http://www.w3.org/2000/svg"
   xmlns:sodipodi="http://sodipodi.sourceforge.net/DTD/sodipodi-0.dtd"
   xmlns:inkscape="http://www.inkscape.org/namespaces/inkscape"
   width="22.069778mm"
   height="36.604221mm"
   viewBox="0 0 78.200002 129.7"
   id="svg4263"
   version="1.1"
   inkscape:version="0.91 r13725"
   sodipodi:docname="psychrometric conv dryer.svg">
  <defs
     id="defs4265">
    <inkscape:path-effect
       effect="spiro"
       id="path-effect6208"
       is_visible="true" />
  </defs>
  <sodipodi:namedview
     id="base"
     pagecolor="#ffffff"
     bordercolor="#666666"
     borderopacity="1.0"
     inkscape:pageopacity="0.0"
     inkscape:pageshadow="2"
     inkscape:zoom="0.35"
     inkscape:cx="318.38572"
     inkscape:cy="-429.43571"
     inkscape:document-units="px"
     inkscape:current-layer="layer1"
     showgrid="false"
     fit-margin-top="0"
     fit-margin-left="0"
     fit-margin-right="0"
     fit-margin-bottom="0"
     inkscape:window-width="1536"
     inkscape:window-height="801"
     inkscape:window-x="-8"
     inkscape:window-y="-8"
     inkscape:window-maximized="1" />
  <metadata
     id="metadata4268">
    <rdf:RDF>
      <cc:Work
         rdf:about="">
        <dc:format>image/svg+xml</dc:format>
        <dc:type
           rdf:resource="http://purl.org/dc/dcmitype/StillImage" />
        <dc:title></dc:title>
      </cc:Work>
    </rdf:RDF>
  </metadata>
  <g
     inkscape:label="Layer 1"
     inkscape:groupmode="layer"
     id="layer1"
     transform="translate(364.81429,26.77351)">
    <g
       id="Layer_1"
       transform="translate(-365.11429,-27.27351)">
      <g
         id="Layer_2"
         class="st0"
         style="display:none">
        <rect
           x="-13.8"
           y="-35.599998"
           class="st2"
           width="164"
           height="233"
           id="rect11"
           style="display:inline;fill:#c97231" />
      </g>
      <g
         id="Layer_1_1_"
         inkscape:version="0.48.4 r9939"
         sodipodi:docname="psychrometric convective dryer.svg">
        <defs
           id="defs14">
          <inkscape:path-effect
             effect="spiro"
             id="path-effect4208"
             is_visible="true" />
          <inkscape:path-effect
             effect="spiro"
             id="path-effect6204"
             is_visible="true" />
          <inkscape:path-effect
             effect="spiro"
             id="path-effect6200"
             is_visible="true" />
          <inkscape:path-effect
             effect="spiro"
             id="path-effect6196"
             is_visible="true" />
          <inkscape:path-effect
             effect="spiro"
             id="path-effect6192"
             is_visible="true" />
          <inkscape:path-effect
             effect="spiro"
             id="path-effect6188"
             is_visible="true" />
          <inkscape:path-effect
             effect="spiro"
             id="path-effect6184"
             is_visible="true" />
          <inkscape:path-effect
             effect="spiro"
             id="path-effect6180"
             is_visible="true" />
          <inkscape:path-effect
             effect="spiro"
             id="path-effect6176"
             is_visible="true" />
          <inkscape:path-effect
             effect="spiro"
             id="path-effect6172"
             is_visible="true" />
          <inkscape:path-effect
             effect="spiro"
             id="path-effect6168"
             is_visible="true" />
          <inkscape:path-effect
             effect="spiro"
             id="path-effect6164"
             is_visible="true" />
          <inkscape:path-effect
             effect="spiro"
             id="path-effect6160"
             is_visible="true" />
          <inkscape:path-effect
             effect="spiro"
             id="path-effect6156"
             is_visible="true" />
          <inkscape:path-effect
             effect="spiro"
             id="path-effect6152"
             is_visible="true" />
          <inkscape:path-effect
             effect="spiro"
             id="path-effect6148"
             is_visible="true" />
          <inkscape:path-effect
             effect="spiro"
             id="path-effect6144"
             is_visible="true" />
          <inkscape:path-effect
             effect="spiro"
             id="path-effect6140"
             is_visible="true" />
          <inkscape:path-effect
             effect="spiro"
             id="path-effect6136"
             is_visible="true" />
          <inkscape:path-effect
             effect="spiro"
             id="path-effect6132"
             is_visible="true" />
          <inkscape:path-effect
             effect="spiro"
             id="path-effect6128"
             is_visible="true" />
          <inkscape:path-effect
             effect="spiro"
             id="path-effect6124"
             is_visible="true" />
          <inkscape:path-effect
             effect="spiro"
             id="path-effect6116"
             is_visible="true" />
          <inkscape:path-effect
             effect="spiro"
             id="path-effect6112"
             is_visible="true" />
          <inkscape:path-effect
             effect="spiro"
             id="path-effect6108"
             is_visible="true" />
          <inkscape:path-effect
             effect="spiro"
             id="path-effect6104"
             is_visible="true" />
          <inkscape:path-effect
             effect="spiro"
             id="path-effect6100"
             is_visible="true" />
          <inkscape:path-effect
             effect="spiro"
             id="path-effect6096"
             is_visible="true" />
          <inkscape:path-effect
             effect="spiro"
             id="path-effect6092"
             is_visible="true" />
          <inkscape:path-effect
             effect="spiro"
             id="path-effect6082"
             is_visible="true" />
        </defs>
        <sodipodi:namedview
           bordercolor="#666666"
           borderopacity="1"
           fit-margin-bottom="0"
           fit-margin-left="0"
           fit-margin-right="0"
           fit-margin-top="0"
           gridtolerance="10"
           guidetolerance="10"
           id="namedview4084"
           inkscape:current-layer="Layer_1"
           inkscape:cx="12.656794"
           inkscape:cy="62.715891"
           inkscape:pageopacity="0"
           inkscape:pageshadow="2"
           inkscape:window-height="1018"
           inkscape:window-maximized="1"
           inkscape:window-width="1920"
           inkscape:window-x="-8"
           inkscape:window-y="-8"
           inkscape:zoom="5.7918335"
           objecttolerance="10"
           pagecolor="#ffffff"
           showgrid="false" />
        <rect
           id="rect4072"
           x="37.5"
           y="98"
           class="st3"
           width="17"
           height="12.2"
           style="display:none;fill:#949493;stroke:#3c3c3b;stroke-width:1.5;stroke-linecap:round;stroke-linejoin:round" />
        <rect
           id="rect4092"
           x="3.4000001"
           y="12"
           class="st4"
           width="60"
           height="51.5"
           style="display:none;fill:#c8b7b7;fill-opacity:0" />
        <rect
           id="rect4606"
           x="4.9000001"
           y="11.8"
           class="st5"
           width="55.799999"
           height="49.900002"
           style="display:none;fill:#ffffff;fill-opacity:0.5661;stroke:#000000;stroke-width:5;stroke-opacity:0.65429999" />
        <path
           id="path6060"
           inkscape:connector-curvature="0"
           class="st6"
           d="m 11.9,17.7 c 0,36.6 0,36.6 0,36.6"
           style="display:none;fill:none;stroke:#000000;stroke-width:1.01329994" />
        <path
           id="path6060-2"
           inkscape:connector-curvature="0"
           class="st7"
           d="m 53.3,53.7 c -41.4,0 -41.4,0 -41.4,0"
           style="display:none;fill:none;stroke:#000000;stroke-width:1.07739997" />
        <path
           id="path6206"
           inkscape:connector-curvature="0"
           inkscape:original-d="m 23.464871,42.56659 c 2.280255,-1.047099 4.223119,-2.671743 6.478008,-3.799188 2.268765,-1.134382 6.470041,-4.440557 8.546081,-5.738082 2.010371,-1.256482 2.277356,-0.727727 2.930085,-2.685912 1.797362,-5.392088 -7.956844,-11.160985 -12.147644,-10.072165 -1.924465,0.499999 -4.03539,-0.299885 -5.738083,-0.854609 -2.151752,-0.701024 -7.628304,0.06211 -9.461732,-0.854607"
           inkscape:path-effect="#path-effect6208"
           sodipodi:nodetypes="csssssc"
           class="st8"
           d="m 23.464871,42.56659 c 2.202868,-1.190141 4.363975,-2.457575 6.478008,-3.799188 2.897233,-1.838649 5.704035,-3.815229 8.546081,-5.738082 1.107335,-0.749194 2.258223,-1.530022 2.930085,-2.685912 0.396144,-0.681537 0.603494,-1.467694 0.622705,-2.255764 0.01921,-0.78807 -0.147301,-1.577127 -0.457794,-2.301708 -0.620985,-1.449162 -1.803003,-2.612579 -3.166242,-3.404585 -2.726477,-1.584013 -6.016608,-1.72576 -9.146313,-2.110108 -1.919452,-0.235721 -3.824273,-0.57677 -5.738083,-0.854609 -3.135425,-0.455188 -6.295489,-0.740613 -9.461732,-0.854607"
           style="display:none;fill:none;stroke:#0000ff;stroke-width:0.40000001;stroke-miterlimit:1" />
        <path
           id="path6214"
           inkscape:connector-curvature="0"
           class="st9"
           d="m 15.6,19 c 36.3,0 36.3,0.1 36.3,0.1 l 0.2,35"
           style="display:none;fill:none;stroke:#000000;stroke-opacity:0" />
        <path
           id="path6249"
           inkscape:connector-curvature="0"
           class="st9"
           d="M 52.6,53.9 52.4,18.7 15.8,18.6"
           style="display:none;fill:none;stroke:#000000;stroke-opacity:0" />
        <path
           id="path6253"
           inkscape:connector-curvature="0"
           class="st10"
           d="m 39.8,35.6 c 2.4,3 2.4,3 2.4,3"
           style="display:none;fill:none;stroke:#c7ff4f;stroke-width:0.40000001" />
        <path
           id="path6253-6"
           inkscape:connector-curvature="0"
           class="st10"
           d="m 42.4,35.7 c -2.4,3 -2.4,3 -2.4,3"
           style="display:none;fill:none;stroke:#c7ff4f;stroke-width:0.40000001" />
        <path
           id="path3863"
           inkscape:connector-curvature="0"
           sodipodi:nodetypes="ccc"
           class="st11"
           d="m 11.6,18.3 40.8,0.1 0.2,35.4"
           style="display:none;fill:none;stroke:#000000" />
        <path
           id="path3871"
           inkscape:connector-curvature="0"
           class="st12"
           d="m 12.6,39.1 0,-14.1 1.1,0 c 3.8,0.1 7.9,0.6 11.7,1.2 2.9,0.5 5.3,0.8 7.1,1 4,0.5 5.6,0.8 7.4,1.4 2.9,1.1 4.9,3.1 5.7,5.5 0.2,0.8 0.4,2.2 0.1,3 -0.1,0.7 -0.7,1.7 -1.2,2.4 -0.6,0.7 -1.4,1.3 -4.7,3.5 -6.9,4.8 -10.2,6.8 -14.5,9.2 l -1.4,0.8 -5.6,0 -5.6,0 C 12.6,53.1 12.6,39.1 12.6,39.1 Z m 28,-0.7 0.5,-0.6 0.2,0.4 c 0.1,0.1 0.4,0.5 0.5,0.6 L 42,39 42.2,38.9 c 0.1,-0.1 0.1,-0.2 0.1,-0.2 0,0 -0.2,-0.4 -0.5,-0.6 -0.4,-0.5 -0.5,-0.6 -0.4,-0.7 0,-0.1 0.4,-0.4 0.6,-0.7 L 42.5,36.1 42.3,36 c -0.1,-0.1 -0.2,-0.1 -0.2,-0.1 0,0 -0.2,0.2 -0.5,0.6 -0.2,0.4 -0.5,0.6 -0.5,0.6 0,0 -0.2,-0.2 -0.6,-0.6 L 40,35.8 39.8,35.9 C 39.7,36 39.6,36 39.6,36 c 0,0 0.2,0.4 0.6,0.7 l 0.6,0.7 -0.5,0.6 -0.5,0.6 0.1,0.1 c 0.1,0.1 0.2,0.1 0.2,0.1 0,0 0.3,-0.2 0.5,-0.4 l 0,0 z" />
        <path
           id="path3873"
           inkscape:connector-curvature="0"
           class="st13"
           d="m 25.2,53.1 c 5.4,-3.1 7.4,-4.4 14.4,-9.1 4.2,-2.9 4.6,-3.1 5.4,-4.1 1.1,-1.3 1.7,-3.2 1.3,-4.9 -0.5,-3 -2.8,-5.4 -6.3,-6.7 -1.8,-0.7 -3.5,-1 -7.5,-1.4 -1.6,-0.2 -5.3,-0.7 -7.1,-1 -3.5,-0.6 -8.1,-1.1 -11.1,-1.1 -0.6,0 -1.3,0 -1.4,-0.1 l -0.2,0 0,-2.7 0,-2.8 19.6,0 19.6,0 0,0.7 c 0,0.6 0.2,28 0.2,32.2 l 0,1.3 -13.6,0 C 28.4,53.1 25.1,53.1 25.2,53.1 l 0,0 z" />
        <path
           id="path3885"
           inkscape:connector-curvature="0"
           class="st14"
           d="m 12.5,24.7 c 1.2,0 1.2,0 1.2,0"
           style="display:none;fill:#1c8a03;stroke:#0000ff;stroke-width:0.40000001;stroke-miterlimit:1" />
        <path
           id="path3889"
           inkscape:connector-curvature="0"
           class="st15"
           d="m 23.1,53.6 c 2.8,0 2.8,0 2.8,0"
           style="display:none;fill:none;stroke:#000000;stroke-width:0.69760001" />
        <polygon
           id="legib_22_"
           class="st16"
           points="44.5,108.3 44.5,127.2 32.5,127.2 32.5,108.3 32.4,108.3 3.3,67.3 3.3,3.5 75.5,3.5 75.5,66.8 44.6,108.3 "
           style="fill:none;stroke:#ffffff;stroke-width:6;stroke-linecap:round;stroke-linejoin:round;stroke-miterlimit:1" />
        <polygon
           id="polygon4076"
           class="st17"
           points="44.5,108.3 44.5,127.2 32.5,127.2 32.5,108.3 32.4,108.3 3.3,67.3 3.3,3.5 75.5,3.5 75.5,66.8 44.6,108.3 "
           style="fill:#707070" />
        <line
           id="line4078"
           class="st18"
           x1="8.3999996"
           y1="67.900002"
           x2="68.5"
           y2="67.900002"
           style="fill:none;stroke:#d1d1d1;stroke-linecap:round;stroke-linejoin:round" />
        <path
           id="path4080"
           inkscape:connector-curvature="0"
           class="st19"
           d="M 74.4,0.8"
           style="fill:#ef7e04" />
        <line
           id="line4082"
           class="st18"
           x1="35.5"
           y1="108.7"
           x2="41.5"
           y2="108.7"
           style="fill:none;stroke:#d1d1d1;stroke-linecap:round;stroke-linejoin:round" />
        <path
           id="path3873_3_"
           inkscape:connector-curvature="0"
           class="st20"
           d="m 27.7,61.1 0,0 c 8.1,-4.7 11.4,-6.7 21.9,-13.9 6.3,-4.3 6.8,-4.7 8.3,-6.2 1.7,-1.9 2.5,-4.9 2,-7.5 C 59.1,28.9 55.7,25.2 50.2,23.2 47.4,22.1 44.9,21.6 38.7,20.9 36.3,20.7 30.8,19.8 27.9,19.3 22.8,18.5 15.4,17.7 10.9,17.6 9.9,17.6 9,17.5 8.7,17.5 l -0.3,0"
           style="fill:none;stroke:#d1d1d1;stroke-miterlimit:1" />
        <rect
           x="8.3999996"
           y="9.1999998"
           class="st18"
           width="60.099998"
           height="52.099998"
           id="rect68"
           style="fill:none;stroke:#d1d1d1;stroke-linecap:round;stroke-linejoin:round" />
        <polygon
           id="outline_33_"
           class="st21"
           points="44.5,108.3 44.5,127.2 32.5,127.2 32.5,108.3 32.4,108.3 3.3,67.3 3.3,3.5 75.5,3.5 75.5,66.8 44.6,108.3 "
           style="fill:none;stroke:#000000;stroke-width:1.5;stroke-linecap:round;stroke-linejoin:round;stroke-miterlimit:1" />
      </g>
    </g>
  </g>
</svg>
