<?xml version="1.0" encoding="utf-8"?>
<!-- Generator: Adobe Illustrator 21.0.2, SVG Export Plug-In . SVG Version: 6.00 Build 0)  -->
<svg version="1.1" xmlns="http://www.w3.org/2000/svg" xmlns:xlink="http://www.w3.org/1999/xlink" x="0px" y="0px" width="80.6px"
	 height="130.4px" viewBox="0 0 80.6 130.4" style="enable-background:new 0 0 80.6 130.4;" xml:space="preserve">
<style type="text/css">
	.st0{display:none;}
	.st1{display:inline;fill:#00FFEA;stroke:#000000;stroke-miterlimit:10;}
	.st2{display:inline;fill:#E87825;}
	.st3{display:inline;fill:#E51313;}
	.st4{fill:none;stroke:#FFFFFF;stroke-width:4;stroke-linecap:round;stroke-linejoin:round;stroke-miterlimit:10;}
	.st5{display:inline;fill:#8C4994;}
	.st6{fill:none;stroke:#FFFFFF;stroke-width:6;stroke-linecap:round;stroke-linejoin:round;stroke-miterlimit:10;}
	.st7{fill:#717070;}
	.st8{fill:#EF8023;}
	.st9{fill:none;stroke:#D0CFD0;stroke-linecap:round;stroke-linejoin:round;stroke-miterlimit:10;}
	.st10{fill:none;stroke:#2D2D2E;stroke-width:1.5;stroke-linecap:round;stroke-linejoin:round;stroke-miterlimit:10;}
</style>
<g id="Layer_2_2_" class="st0">
	<rect x="-9" y="-6.6" class="st1" width="101.4" height="145.9"/>
</g>
<g id="Layer_1">
	<g id="Layer_2" class="st0">
		<rect x="-6.3" y="-0.9" class="st2" width="92.7" height="129.7"/>
	</g>
	<g id="Layer_1_1_">
		<g id="Layer_2_1_" class="st0">
			<rect x="-6.1" y="-3.1" class="st3" width="89.5" height="139"/>
		</g>
		<polyline class="st4" points="36.2,116.5 36.2,128.1 44.2,128.1 44.2,115.5 		"/>
		<g id="Layer_1_18_">
			<g id="Layer_2_13_" class="st0">
				<rect x="-30.3" y="1.1" class="st5" width="144.7" height="107.4"/>
			</g>
			<circle class="st6" cx="60.8" cy="110.5" r="16.3"/>
			<polygon class="st6" points="9.7,3.5 70.3,3.5 56.2,106.4 24.4,106.4 			"/>
			<circle class="st6" cx="19.5" cy="110.5" r="16.3"/>
			<circle class="st7" cx="60.8" cy="110.5" r="16.3"/>
			<polygon class="st7" points="9.7,3.5 70.3,3.5 56.2,111.1 24.4,111.1 			"/>
			<circle class="st7" cx="19.5" cy="110.5" r="16.3"/>
			<circle class="st8" cx="34.1" cy="96.4" r="1.1"/>
			<circle class="st8" cx="36.4" cy="94.2" r="1.1"/>
			<circle class="st8" cx="34.7" cy="99.5" r="1.1"/>
			<circle class="st8" cx="30.5" cy="95.7" r="1.1"/>
			<circle class="st8" cx="38.7" cy="98" r="1.1"/>
			<circle class="st8" cx="37.5" cy="100.6" r="1.1"/>
			<circle class="st8" cx="37" cy="103.7" r="1.1"/>
			<circle class="st8" cx="39.7" cy="105.2" r="1.1"/>
			<circle class="st8" cx="37.5" cy="106.8" r="1.1"/>
			<circle class="st8" cx="38.8" cy="109.6" r="1.1"/>
			<circle class="st8" cx="40" cy="101.9" r="1.1"/>
			<circle class="st8" cx="44.6" cy="96.1" r="1.1"/>
			<circle class="st8" cx="45.7" cy="99.5" r="1.1"/>
			<circle class="st8" cx="48.2" cy="97.3" r="1.1"/>
			<circle class="st8" cx="40.9" cy="95.3" r="1.1"/>
			<circle class="st8" cx="43.2" cy="101.1" r="1.1"/>
			<circle class="st8" cx="42.9" cy="104.3" r="1.1"/>
			<circle class="st8" cx="42" cy="106.9" r="1.1"/>
			<circle class="st8" cx="41.8" cy="109.7" r="1.1"/>
			<circle class="st8" cx="42" cy="98.3" r="1.1"/>
			<circle class="st9" cx="18.9" cy="111.1" r="4.1"/>
			<circle class="st9" cx="60.8" cy="111.1" r="4.1"/>
			<polyline class="st9" points="8,104.1 12,104.3 11.8,108.6 			"/>
			<path class="st9" d="M19,121.5c-5.6,0-10.2-4.6-10.2-10.2c0-2.8,1-5.2,2.9-7"/>
			<polyline class="st9" points="67.8,108.6 67.6,104.3 71.7,104.1 			"/>
			<path class="st9" d="M67.9,104.3c1.7,1.8,2.9,4.3,2.9,7c0,5.6-4.6,10.2-10.2,10.2"/>
			<polyline class="st10" points="22.6,94.2 9.7,3.5 70.3,3.5 57.8,94.2 			"/>
			<g>
				<circle class="st8" cx="43.5" cy="8.5" r="1.6"/>
				<circle class="st8" cx="36.3" cy="8.5" r="1.6"/>
				<circle class="st8" cx="38.5" cy="29.5" r="1.6"/>
				<circle class="st8" cx="40.3" cy="17" r="1.6"/>
				<circle class="st8" cx="32.7" cy="14.2" r="1.6"/>
				<circle class="st8" cx="43.5" cy="23.1" r="1.6"/>
				<circle class="st8" cx="36.3" cy="23.1" r="1.6"/>
				<circle class="st8" cx="47.5" cy="14.9" r="1.6"/>
				<circle class="st8" cx="47.5" cy="26.3" r="1.6"/>
			</g>
			<polygon class="st8" points="44.3,128.1 36.3,128.1 36,111.1 44.3,111.1 			"/>
			<circle class="st10" cx="60.8" cy="110.5" r="16.3"/>
			<circle class="st10" cx="19.5" cy="110.5" r="16.3"/>
		</g>
	</g>
</g>
</svg>
