<?xml version="1.0" encoding="utf-8"?>
<!-- Generator: Adobe Illustrator 21.1.0, SVG Export Plug-In . SVG Version: 6.00 Build 0)  -->
<svg version="1.1" id="Layer_1" xmlns="http://www.w3.org/2000/svg" xmlns:xlink="http://www.w3.org/1999/xlink" x="0px" y="0px"
	 width="109.8px" height="70.7px" viewBox="0 0 109.8 70.7" style="enable-background:new 0 0 109.8 70.7;" xml:space="preserve">
<style type="text/css">
	.st0{fill:none;stroke:#FFFFFF;stroke-width:6;stroke-linecap:round;stroke-linejoin:round;}
	.st1{fill:#006C84;}
	.st2{fill:none;stroke:#D1D1D1;stroke-linecap:round;stroke-linejoin:round;}
	.st3{fill:#EF8122;}
	.st4{fill:none;stroke:#2D2D2D;stroke-width:1.5;stroke-linecap:round;stroke-linejoin:round;stroke-miterlimit:10;}
</style>
<polygon class="st0" points="106.6,31.2 87,31.2 87,3.1 22.5,3.1 22.5,31.2 3,31.2 3,39.6 22.5,39.6 22.5,67.6 87,67.6 87,39.6 
	106.6,39.6 "/>
<polygon class="st1" points="106.6,31.2 87,31.2 87,3.1 22.5,3.1 22.5,31.2 3,31.2 3,39.6 22.5,39.6 22.5,67.6 87,67.6 87,39.6 
	106.6,39.6 "/>
<g>
	<line class="st2" x1="54.7" y1="3.1" x2="54.7" y2="47.9"/>
	<ellipse class="st2" cx="61.6" cy="48.3" rx="6.9" ry="3.2"/>
	<ellipse class="st2" cx="47.8" cy="48.3" rx="6.9" ry="3.2"/>
</g>
<circle class="st3" cx="8.1" cy="35.3" r="2.8"/>
<circle class="st3" cx="14.9" cy="35.3" r="2.8"/>
<circle class="st3" cx="21.8" cy="35.3" r="2.8"/>
<circle class="st3" cx="30.1" cy="9.6" r="2.8"/>
<circle class="st3" cx="37.3" cy="16.6" r="2.2"/>
<circle class="st3" cx="44.9" cy="21.8" r="1.8"/>
<circle class="st3" cx="49.6" cy="9.6" r="1.8"/>
<circle class="st3" cx="51.4" cy="19.5" r="1.8"/>
<circle class="st3" cx="61.6" cy="9.9" r="1.3"/>
<circle class="st3" cx="65.6" cy="17.7" r="1.3"/>
<circle class="st3" cx="60.4" cy="31.1" r="1.3"/>
<circle class="st3" cx="65.6" cy="56" r="1.3"/>
<circle class="st3" cx="69.8" cy="63.3" r="1.3"/>
<circle class="st3" cx="60.4" cy="17.7" r="1.3"/>
<circle class="st3" cx="68.1" cy="35.6" r="1.3"/>
<circle class="st3" cx="57" cy="57.8" r="1.3"/>
<circle class="st3" cx="65.6" cy="24.6" r="1.3"/>
<circle class="st3" cx="70.6" cy="43.6" r="1.3"/>
<circle class="st3" cx="61.6" cy="63.3" r="1.3"/>
<circle class="st3" cx="60.4" cy="39.8" r="1.3"/>
<circle class="st3" cx="46.7" cy="39.2" r="1.8"/>
<circle class="st3" cx="49.6" cy="31.6" r="1.8"/>
<circle class="st3" cx="48.5" cy="56" r="1.8"/>
<circle class="st3" cx="51.4" cy="63.9" r="1.8"/>
<circle class="st3" cx="40.2" cy="7.8" r="2.2"/>
<circle class="st3" cx="28.6" cy="21.8" r="2.8"/>
<circle class="st3" cx="37.9" cy="27.1" r="2.2"/>
<circle class="st3" cx="39.7" cy="36.1" r="2.2"/>
<circle class="st3" cx="31" cy="34.4" r="2.8"/>
<circle class="st3" cx="37.4" cy="44.4" r="2.2"/>
<circle class="st3" cx="41.9" cy="61.8" r="2.2"/>
<circle class="st3" cx="28.6" cy="50.1" r="2.8"/>
<circle class="st3" cx="37.9" cy="53.7" r="2.2"/>
<circle class="st3" cx="31.4" cy="61.8" r="2.8"/>
<circle class="st3" cx="68.6" cy="30.6" r="0.8"/>
<circle class="st3" cx="72.6" cy="8.3" r="0.8"/>
<circle class="st3" cx="74.2" cy="21.8" r="0.8"/>
<circle class="st3" cx="71.1" cy="59" r="0.8"/>
<circle class="st3" cx="75.7" cy="43.6" r="0.8"/>
<circle class="st3" cx="77.2" cy="65.3" r="0.8"/>
<circle class="st3" cx="73.4" cy="36.1" r="0.8"/>
<circle class="st3" cx="74.2" cy="31.7" r="0.5"/>
<circle class="st3" cx="81" cy="43.3" r="0.5"/>
<circle class="st3" cx="81" cy="49.5" r="0.5"/>
<circle class="st3" cx="82.6" cy="38.9" r="0.5"/>
<circle class="st3" cx="77.6" cy="27.1" r="0.5"/>
<circle class="st3" cx="79.5" cy="22.8" r="0.5"/>
<circle class="st3" cx="77.6" cy="31.9" r="0.5"/>
<circle class="st3" cx="77.8" cy="39.8" r="0.5"/>
<circle class="st3" cx="78.1" cy="46.6" r="0.5"/>
<circle class="st3" cx="76.2" cy="39.7" r="0.5"/>
<circle class="st3" cx="80.5" cy="36.6" r="0.5"/>
<circle class="st3" cx="82.6" cy="33.9" r="0.5"/>
<circle class="st3" cx="81" cy="29.8" r="0.5"/>
<circle class="st3" cx="75.7" cy="49" r="0.8"/>
<circle class="st3" cx="77.2" cy="59.5" r="0.8"/>
<circle class="st3" cx="71.9" cy="53.7" r="0.8"/>
<circle class="st3" cx="69.9" cy="18.8" r="0.8"/>
<circle class="st3" cx="75.7" cy="14.8" r="0.8"/>
<circle class="st3" cx="72.6" cy="27.1" r="0.8"/>
<circle class="st3" cx="70.1" cy="12.8" r="0.8"/>
<polygon class="st4" points="106.6,31.2 87,31.2 87,3.1 22.5,3.1 22.5,31.2 3,31.2 3,39.6 22.5,39.6 22.5,67.6 87,67.6 87,39.6 
	106.6,39.6 "/>
</svg>
