<?xml version="1.0" encoding="utf-8"?>
<!-- Generator: Adobe Illustrator 21.0.2, SVG Export Plug-In . SVG Version: 6.00 Build 0)  -->
<svg version="1.1" id="Layer_1" xmlns="http://www.w3.org/2000/svg" xmlns:xlink="http://www.w3.org/1999/xlink" x="0px" y="0px"
	 width="52.3px" height="91.7px" viewBox="0 0 52.3 91.7" style="enable-background:new 0 0 52.3 91.7;" xml:space="preserve">
<style type="text/css">
	.st0{display:none;}
	.st1{display:inline;fill:#2AA8FF;stroke:#000000;stroke-miterlimit:10;}
	.st2{display:inline;fill:#4B1DF2;stroke:#FFFFFF;stroke-miterlimit:10;}
	.st3{fill:#FFFFFF;}
	.st4{fill:#6F6F6F;}
	.st5{fill:#2D2D2D;}
	.st6{fill:#F08224;}
	.st7{fill:#D2D2D2;}
</style>
<g id="Layer_2_1_" class="st0">
	<rect x="-19.3" y="-26" class="st1" width="86" height="143.5"/>
</g>
<g id="Layer_1_1_">
	<g id="Layer_2" class="st0">
		<rect x="8.1" y="10.9" class="st2" width="37.4" height="70"/>
	</g>
	
		<g id="svg10655" inkscape:version="0.48.4 r9939" sodipodi:docname="singledroplet.png" xmlns:cc="http://creativecommons.org/ns#" xmlns:dc="http://purl.org/dc/elements/1.1/" xmlns:inkscape="http://www.inkscape.org/namespaces/inkscape" xmlns:rdf="http://www.w3.org/1999/02/22-rdf-syntax-ns#" xmlns:sodipodi="http://sodipodi.sourceforge.net/DTD/sodipodi-0.dtd" xmlns:svg="http://www.w3.org/2000/svg">
		<g>
			<path class="st3" d="M47.3,91.7H5.1c-2.8,0-5.1-2.3-5.1-5.1V5.1C0,2.3,2.3,0,5.1,0h42.2c2.8,0,5.1,2.3,5.1,5.1v81.6
				C52.3,89.4,50.1,91.7,47.3,91.7z M10.1,81.6h32.1V10.1H10.1V81.6z"/>
		</g>
		<g>
			<rect x="5.1" y="5.1" class="st4" width="42.2" height="81.6"/>
		</g>
		<g>
			<path class="st5" d="M47.3,87.9H5.1c-0.7,0-1.3-0.6-1.3-1.3V5.1c0-0.7,0.6-1.3,1.3-1.3h42.2c0.7,0,1.3,0.6,1.3,1.3v81.6
				C48.5,87.3,48,87.9,47.3,87.9z M6.3,85.4H46v-79H6.3V85.4z"/>
		</g>
		<defs>
			
			<inkscape:path-effect  effect="spiro" id="path-effect7901" is_visible="true"></inkscape:path-effect>
			<inkscape:path-effect  effect="spiro" id="path-effect7901-1" is_visible="true"></inkscape:path-effect>
			<inkscape:path-effect  effect="spiro" id="path-effect7964" is_visible="true"></inkscape:path-effect>
			<inkscape:path-effect  effect="spiro" id="path-effect10134" is_visible="true"></inkscape:path-effect>
			<inkscape:path-effect  effect="spiro" id="path-effect10138" is_visible="true"></inkscape:path-effect>
			<inkscape:path-effect  effect="spiro" id="path-effect10134-5" is_visible="true"></inkscape:path-effect>
			<inkscape:path-effect  effect="spiro" id="path-effect7964-7" is_visible="true"></inkscape:path-effect>
			<inkscape:path-effect  effect="spiro" id="path-effect7964-7-2" is_visible="true"></inkscape:path-effect>
		</defs>
		
			<sodipodi:namedview  bordercolor="#666666" borderopacity="1.0" fit-margin-bottom="0" fit-margin-left="0" fit-margin-right="0" fit-margin-top="0" id="base" inkscape:current-layer="layer1" inkscape:cx="13.886947" inkscape:cy="10.119594" inkscape:document-units="px" inkscape:pageopacity="0.0" inkscape:pageshadow="2" inkscape:window-height="1018" inkscape:window-maximized="1" inkscape:window-width="1920" inkscape:window-x="-8" inkscape:window-y="-8" inkscape:zoom="25.568807" pagecolor="#ffffff" showgrid="false">
			</sodipodi:namedview>
		<g>
			<g>
				<circle class="st6" cx="26.2" cy="41.2" r="4.6"/>
			</g>
		</g>
		<g>
			<g>
				<path class="st7" d="M11,34.4c-0.2,0-0.4-0.1-0.5-0.2c-4.6-3.7-2.4-6.7-0.8-8.9s2.4-3.6,0.7-5.5c-0.3-0.4-0.3-0.9,0.1-1.2
					c0.4-0.3,0.9-0.3,1.2,0.1c2.6,3.1,0.8,5.6-0.6,7.6c-1.6,2.3-2.8,3.9,0.5,6.6c0.4,0.3,0.4,0.8,0.1,1.2
					C11.5,34.3,11.2,34.4,11,34.4z"/>
			</g>
			<g>
				<path class="st7" d="M20.9,34.4c-0.2,0-0.4-0.1-0.5-0.2c-4.6-3.7-2.4-6.7-0.8-8.9s2.4-3.6,0.7-5.5c-0.3-0.4-0.3-0.9,0.1-1.2
					c0.4-0.3,0.9-0.3,1.2,0.1c2.6,3.1,0.8,5.6-0.6,7.6c-1.6,2.3-2.8,3.9,0.5,6.6c0.4,0.3,0.4,0.8,0.1,1.2
					C21.4,34.3,21.2,34.4,20.9,34.4z"/>
			</g>
			<g>
				<path class="st7" d="M31.1,34.4c-0.2,0-0.4-0.1-0.5-0.2c-4.6-3.7-2.4-6.7-0.8-8.9s2.4-3.6,0.7-5.5c-0.3-0.4-0.3-0.9,0.1-1.2
					c0.4-0.3,0.9-0.3,1.2,0.1c2.6,3.1,0.8,5.6-0.6,7.6c-1.6,2.3-2.8,3.9,0.5,6.6c0.4,0.3,0.4,0.8,0.1,1.2
					C31.6,34.3,31.3,34.4,31.1,34.4z"/>
			</g>
			<g>
				<path class="st7" d="M41,34.4c-0.2,0-0.4-0.1-0.5-0.2c-4.6-3.7-2.4-6.7-0.8-8.9c1.6-2.2,2.4-3.6,0.7-5.5
					c-0.3-0.4-0.3-0.9,0.1-1.2c0.4-0.3,0.9-0.3,1.2,0.1c2.6,3.1,0.8,5.6-0.6,7.6c-1.6,2.3-2.8,3.9,0.5,6.6c0.4,0.3,0.4,0.8,0.1,1.2
					C41.5,34.3,41.3,34.4,41,34.4z"/>
			</g>
			<g>
				<polygon class="st7" points="11.5,14.7 9.5,19.4 13.7,19.4 				"/>
				<path class="st7" d="M13.7,20.1H9.5c-0.2,0-0.4-0.1-0.5-0.3c-0.1-0.2-0.1-0.4-0.1-0.6l2-4.7c0.1-0.2,0.3-0.4,0.6-0.4
					c0.2,0,0.5,0.1,0.6,0.4l2.2,4.7c0.1,0.2,0.1,0.4,0,0.6C14.1,19.9,13.9,20.1,13.7,20.1z M10.4,18.8h2.3l-1.2-2.5L10.4,18.8z"/>
			</g>
			<g>
				<polygon class="st7" points="21.4,14.7 19.4,19.4 23.6,19.4 				"/>
				<path class="st7" d="M23.6,20.1h-4.2c-0.2,0-0.4-0.1-0.5-0.3c-0.1-0.2-0.1-0.4-0.1-0.6l2-4.7c0.1-0.2,0.3-0.4,0.6-0.4
					c0.2,0,0.5,0.1,0.6,0.4l2.2,4.7c0.1,0.2,0.1,0.4,0,0.6C24.1,19.9,23.9,20.1,23.6,20.1z M20.4,18.8h2.3l-1.2-2.5L20.4,18.8z"/>
			</g>
			<g>
				<polygon class="st7" points="31.6,14.7 29.5,19.4 33.8,19.4 				"/>
				<path class="st7" d="M33.8,20.1h-4.2c-0.2,0-0.4-0.1-0.5-0.3C29,19.6,29,19.4,29,19.2l2-4.7c0.1-0.2,0.3-0.4,0.6-0.4
					c0.3,0,0.5,0.1,0.6,0.4l2.2,4.7c0.1,0.2,0.1,0.4,0,0.6C34.2,19.9,34,20.1,33.8,20.1z M30.5,18.8h2.3l-1.2-2.5L30.5,18.8z"/>
			</g>
			<g>
				<polygon class="st7" points="41.5,14.7 39.5,19.4 43.7,19.4 				"/>
				<path class="st7" d="M43.7,20.1h-4.2c-0.2,0-0.4-0.1-0.5-0.3c-0.1-0.2-0.1-0.4-0.1-0.6l2-4.7c0.1-0.2,0.3-0.4,0.6-0.4
					s0.5,0.1,0.6,0.4l2.2,4.7c0.1,0.2,0.1,0.4,0,0.6C44.2,19.9,43.9,20.1,43.7,20.1z M40.5,18.8h2.3l-1.2-2.5L40.5,18.8z"/>
			</g>
		</g>
		<g>
			<g>
				<g>
					<path class="st7" d="M26.2,76.7c-0.5,0-0.8-0.4-0.8-0.8V62.6c0-0.5,0.4-0.8,0.8-0.8c0.5,0,0.8,0.4,0.8,0.8v13.2
						C27,76.3,26.6,76.7,26.2,76.7z"/>
				</g>
				<g>
					<path class="st7" d="M21.6,66.7c-0.2,0-0.4-0.1-0.6-0.2c-0.3-0.3-0.3-0.9,0-1.2l4.6-4.6c0.3-0.3,0.9-0.3,1.2,0
						c0.3,0.3,0.3,0.9,0,1.2l-4.6,4.6C22,66.6,21.8,66.7,21.6,66.7z"/>
				</g>
				<g>
					<path class="st7" d="M30.7,66.7c-0.2,0-0.4-0.1-0.6-0.2l-4.6-4.6c-0.3-0.3-0.3-0.9,0-1.2s0.9-0.3,1.2,0l4.6,4.6
						c0.3,0.3,0.3,0.9,0,1.2C31.2,66.6,30.9,66.7,30.7,66.7z"/>
				</g>
			</g>
		</g>
	</g>
</g>
</svg>
