<?xml version="1.0" encoding="UTF-8" standalone="no"?>
<!-- Generator: Adobe Illustrator 21.0.2, SVG Export Plug-In . SVG Version: 6.00 Build 0)  -->

<svg
   xmlns:dc="http://purl.org/dc/elements/1.1/"
   xmlns:cc="http://creativecommons.org/ns#"
   xmlns:rdf="http://www.w3.org/1999/02/22-rdf-syntax-ns#"
   xmlns:svg="http://www.w3.org/2000/svg"
   xmlns="http://www.w3.org/2000/svg"
   xmlns:sodipodi="http://sodipodi.sourceforge.net/DTD/sodipodi-0.dtd"
   xmlns:inkscape="http://www.inkscape.org/namespaces/inkscape"
   version="1.1"
   id="Layer_1"
   x="0px"
   y="0px"
   width="68.5px"
   height="41.1px"
   viewBox="0 0 68.5 41.1"
   style="enable-background:new 0 0 68.5 41.1;"
   xml:space="preserve"
   inkscape:version="0.91 r13725"
   sodipodi:docname="sink.svg"><metadata
     id="metadata3938"><rdf:RDF><cc:Work
         rdf:about=""><dc:format>image/svg+xml</dc:format><dc:type
           rdf:resource="http://purl.org/dc/dcmitype/StillImage" /></cc:Work></rdf:RDF></metadata><defs
     id="defs3936" /><sodipodi:namedview
     pagecolor="#ffffff"
     bordercolor="#666666"
     borderopacity="1"
     objecttolerance="10"
     gridtolerance="10"
     guidetolerance="10"
     inkscape:pageopacity="0"
     inkscape:pageshadow="2"
     inkscape:window-width="742"
     inkscape:window-height="480"
     id="namedview3934"
     showgrid="false"
     inkscape:zoom="4.2043796"
     inkscape:cx="34.25"
     inkscape:cy="20.549999"
     inkscape:window-x="0"
     inkscape:window-y="0"
     inkscape:window-maximized="0"
     inkscape:current-layer="Layer_1_1_" /><style
     type="text/css"
     id="style3912">
	.st0{display:none;}
	.st1{display:inline;fill:#EAE41F;stroke:#000000;stroke-miterlimit:10;}
	.st2{fill:none;stroke:#FFFFFF;stroke-width:6;stroke-linecap:round;stroke-linejoin:round;stroke-miterlimit:10;}
	.st3{fill:#6F6F6F;}
	.st4{fill:none;stroke:#D2D2D2;stroke-linecap:round;stroke-linejoin:round;stroke-miterlimit:10;}
	.st5{enable-background:new    ;}
	.st6{fill:#D2D2D2;}
	.st7{fill:none;stroke:#2D2D2D;stroke-width:1.5;stroke-linecap:round;stroke-linejoin:round;stroke-miterlimit:10;}
</style><g
     id="Layer_2"
     class="st0"><rect
       x="-23.5"
       y="-17.8"
       class="st1"
       width="106"
       height="76.6"
       id="rect3915" /></g><g
     id="Layer_1_1_"><polygon
       class="st2"
       points="48.5,38 3,38 3,3 48.5,3 65.4,20.3  "
       id="polygon3918" /><polygon
       class="st3"
       points="48.5,38 3,38 3,3 48.5,3 65.4,20.3  "
       id="polygon3920" /><polyline
       class="st4"
       points="6.6,34.8 20.8,20.5 6.6,6.3  "
       id="polyline3922" /><g
       class="st5"
       id="g3924"
       transformBehaviour="pinned
"
       style="enable-background:new"><path
         class="st6"
         d="m 6.2,18.1 c 0,-0.1 0,-0.2 0,-0.3 0.1,-0.1 0.1,-0.2 0.3,-0.2 0.1,0 0.2,0 0.3,0 0.1,0.1 0.2,0.1 0.2,0.3 0.1,0.4 0.2,0.8 0.3,1.2 0.1,0.4 0.2,0.7 0.3,1.1 0.1,0.4 0.3,0.8 0.4,1.2 0.1,-0.4 0.2,-0.7 0.3,-1.2 0.1,-0.5 0.2,-0.8 0.3,-1.1 0.1,-0.4 0.2,-0.8 0.3,-1.2 0,-0.1 0.1,-0.2 0.2,-0.2 0.1,-0.1 0.2,-0.1 0.3,0 0.1,0 0.2,0.1 0.3,0.2 0.1,0.1 0.1,0.2 0,0.3 L 8.4,23 c 0,0.1 -0.1,0.2 -0.1,0.2 0,0 -0.3,0.1 -0.3,0.1 -0.1,0 -0.2,0 -0.3,-0.1 C 7.6,23.1 7.6,23.1 7.6,23 L 6.2,18.1 Z"
         id="path3926"
         inkscape:connector-curvature="0"
         style="fill:#d2d2d2" /><path
         class="st6"
         d="M 10.4,23.2 C 10.3,23.1 10.3,23 10.3,22.9 l 0,-4.9 c 0,-0.1 0,-0.2 0.1,-0.3 0.1,-0.1 0.2,-0.1 0.3,-0.1 0.1,0 0.2,0 0.3,0.1 0.1,0.1 0.1,0.2 0.1,0.3 l 0,4.5 1.3,0 c 0.1,0 0.2,0 0.3,0.1 0.1,0.1 0.1,0.2 0.1,0.3 0,0.1 0,0.2 -0.1,0.3 -0.1,0.1 -0.2,0.1 -0.3,0.1 l -1.7,0 c -0.1,0 -0.2,-0.1 -0.3,-0.1 z"
         id="path3928"
         inkscape:connector-curvature="0"
         style="fill:#d2d2d2" /><path
         class="st6"
         d="m 14.8,22.4 c 0.1,-0.1 0.1,-0.1 0.2,-0.2 0,-0.1 0.1,-0.2 0.1,-0.3 0,-0.2 0,-0.4 -0.2,-0.5 L 13.5,20 c -0.1,-0.1 -0.3,-0.3 -0.3,-0.5 -0.1,-0.2 -0.1,-0.4 -0.1,-0.6 0,-0.2 0.1,-0.4 0.2,-0.6 0.1,-0.2 0.2,-0.3 0.4,-0.5 0.2,-0.1 0.3,-0.2 0.5,-0.3 0.2,0 0.4,0 0.6,0 0.2,0 0.4,0.1 0.5,0.2 0.1,0.1 0.3,0.3 0.4,0.4 0.1,0.1 0.1,0.2 0,0.3 0,0.1 -0.1,0.2 -0.2,0.3 -0.1,0.1 -0.2,0.1 -0.3,0 -0.1,-0.1 -0.2,-0.1 -0.2,-0.2 -0.1,-0.2 -0.2,-0.3 -0.4,-0.3 -0.2,0 -0.3,0 -0.5,0.1 -0.1,0.1 -0.2,0.3 -0.2,0.4 0,0.2 0,0.3 0.2,0.5 l 1.4,1.4 c 0.1,0.2 0.3,0.3 0.3,0.5 0.1,0.2 0.1,0.4 0.1,0.6 0,0.2 -0.1,0.4 -0.2,0.6 -0.1,0.2 -0.2,0.3 -0.4,0.5 -0.2,0.1 -0.4,0.2 -0.6,0.3 -0.2,0 -0.4,0 -0.6,0 -0.2,0 -0.4,-0.1 -0.6,-0.3 -0.2,-0.2 -0.3,-0.3 -0.4,-0.5 -0.1,-0.1 -0.1,-0.2 0,-0.3 0,-0.1 0.1,-0.2 0.2,-0.3 0.1,-0.1 0.2,-0.1 0.3,0 0.1,0 0.2,0.1 0.3,0.2 0.1,0.2 0.2,0.3 0.4,0.3 0.1,0.3 0.3,0.3 0.5,0.2 z"
         id="path3930"
         inkscape:connector-curvature="0"
         style="fill:#d2d2d2" /></g><polygon
       class="st7"
       points="48.5,38 3,38 3,3 48.5,3 65.4,20.3  "
       id="polygon3932" /></g></svg>