<?xml version="1.0" encoding="UTF-8" standalone="no"?>
<!-- Generator: Adobe Illustrator 21.0.2, SVG Export Plug-In . SVG Version: 6.00 Build 0)  -->

<svg
   xmlns:dc="http://purl.org/dc/elements/1.1/"
   xmlns:cc="http://creativecommons.org/ns#"
   xmlns:rdf="http://www.w3.org/1999/02/22-rdf-syntax-ns#"
   xmlns:svg="http://www.w3.org/2000/svg"
   xmlns="http://www.w3.org/2000/svg"
   xmlns:sodipodi="http://sodipodi.sourceforge.net/DTD/sodipodi-0.dtd"
   xmlns:inkscape="http://www.inkscape.org/namespaces/inkscape"
   version="1.1"
   x="0px"
   y="0px"
   width="50.5px"
   height="50.5px"
   viewBox="0 0 50.5 50.5"
   style="enable-background:new 0 0 50.5 50.5;"
   xml:space="preserve"
   id="svg4247"
   inkscape:version="0.91 r13725"
   sodipodi:docname="temperature controller.svg"><metadata
     id="metadata4274"><rdf:RDF><cc:Work
         rdf:about=""><dc:format>image/svg+xml</dc:format><dc:type
           rdf:resource="http://purl.org/dc/dcmitype/StillImage" /></cc:Work></rdf:RDF></metadata><defs
     id="defs4272" /><sodipodi:namedview
     pagecolor="#ffffff"
     bordercolor="#666666"
     borderopacity="1"
     objecttolerance="10"
     gridtolerance="10"
     guidetolerance="10"
     inkscape:pageopacity="0"
     inkscape:pageshadow="2"
     inkscape:window-width="742"
     inkscape:window-height="480"
     id="namedview4270"
     showgrid="false"
     inkscape:zoom="4.6732673"
     inkscape:cx="25.25"
     inkscape:cy="25.25"
     inkscape:window-x="0"
     inkscape:window-y="0"
     inkscape:window-maximized="0"
     inkscape:current-layer="Layer_1" /><style
     type="text/css"
     id="style4249">
	.st0{display:none;}
	.st1{display:inline;fill:#1EFF00;stroke:#000000;stroke-miterlimit:10;}
	.st2{fill:none;stroke:#FFFFFF;stroke-width:6;stroke-linecap:round;stroke-linejoin:round;stroke-miterlimit:10;}
	.st3{fill:none;}
	.st4{fill:#FFFFFF;}
	.st5{fill:#717070;}
	.st6{fill:none;stroke:#2D2D2E;stroke-width:1.5;stroke-linecap:round;stroke-linejoin:round;stroke-miterlimit:10;}
</style><g
     id="Layer_2"
     class="st0"><rect
       x="-2.6"
       y="-4.7"
       class="st1"
       width="63.5"
       height="59.6"
       id="rect4252" /></g><g
     id="Layer_1"><g
       id="g7" /><circle
       class="st2"
       cx="25.2"
       cy="25.2"
       r="22.1"
       id="circle4256" /><circle
       class="st3"
       cx="25.2"
       cy="25.2"
       r="22.1"
       id="circle4258" /><circle
       class="st4"
       cx="25.2"
       cy="25.2"
       r="22.1"
       id="circle4260" /><g
       id="g4262"
       transformBehaviour="pinned"><path
         class="st5"
         d="m 23.1,15.1 c 0.4,0 0.7,0.1 1,0.4 0.3,0.3 0.4,0.6 0.4,1 0,0.4 -0.1,0.7 -0.4,1 -0.3,0.3 -0.6,0.4 -1,0.4 l -2.5,0 0,16 c 0,0.4 -0.1,0.7 -0.4,1 -0.3,0.3 -0.6,0.4 -1,0.4 -0.4,0 -0.7,-0.1 -1,-0.4 -0.3,-0.3 -0.4,-0.6 -0.4,-1 l 0,-15.9 -2.5,0 c -0.4,0 -0.7,-0.1 -1,-0.4 -0.3,-0.3 -0.4,-0.6 -0.4,-1 0,-0.4 0.1,-0.7 0.4,-1 0.3,-0.3 0.6,-0.4 1,-0.4 l 7.8,0 z"
         id="path4264"
         inkscape:connector-curvature="0"
         style="fill:#717070" /><path
         class="st5"
         d="M 30.8,35.3 C 30.3,35.2 29.7,34.9 29.3,34.6 28.8,34.3 28.4,33.9 28.1,33.5 27.8,33.1 27.5,32.6 27.3,32.1 27.1,31.6 27,31 27,30.4 L 27,20 c 0,-0.6 0.1,-1.1 0.3,-1.7 0.2,-0.5 0.4,-1 0.8,-1.5 0.3,-0.4 0.7,-0.8 1.2,-1.1 0.5,-0.3 1,-0.5 1.5,-0.7 1.1,-0.3 2.2,-0.2 3.3,0.2 1.1,0.4 1.9,1.2 2.5,2.2 0.2,0.3 0.3,0.7 0.2,1.1 -0.1,0.4 -0.3,0.7 -0.7,0.9 -0.3,0.2 -0.7,0.2 -1.1,0.1 -0.4,-0.1 -0.7,-0.3 -0.9,-0.7 -0.2,-0.4 -0.6,-0.7 -1,-0.9 -0.5,-0.2 -0.9,-0.2 -1.4,-0.1 -0.5,0.1 -0.9,0.4 -1.2,0.8 C 30.2,19 30,19.4 30,19.9 l 0,10.3 c 0,0.5 0.2,0.9 0.5,1.3 0.3,0.4 0.7,0.6 1.2,0.8 0.5,0.1 1,0.1 1.4,-0.1 0.5,-0.2 0.8,-0.5 1,-0.9 0.2,-0.3 0.5,-0.6 0.9,-0.7 0.4,-0.1 0.7,-0.1 1.1,0.1 0.3,0.2 0.6,0.5 0.7,0.9 0.1,0.4 0.1,0.7 -0.2,1.1 -0.6,1 -1.4,1.7 -2.5,2.2 -1.1,0.6 -2.2,0.7 -3.3,0.4 z"
         id="path4266"
         inkscape:connector-curvature="0"
         style="fill:#717070" /></g><circle
       class="st6"
       cx="25.2"
       cy="25.2"
       r="22.1"
       id="circle4268" /></g></svg>