<?xml version="1.0" encoding="UTF-8" standalone="no"?>
<!-- Generator: Adobe Illustrator 21.0.2, SVG Export Plug-In . SVG Version: 6.00 Build 0)  -->

<svg
   xmlns:dc="http://purl.org/dc/elements/1.1/"
   xmlns:cc="http://creativecommons.org/ns#"
   xmlns:rdf="http://www.w3.org/1999/02/22-rdf-syntax-ns#"
   xmlns:svg="http://www.w3.org/2000/svg"
   xmlns="http://www.w3.org/2000/svg"
   xmlns:sodipodi="http://sodipodi.sourceforge.net/DTD/sodipodi-0.dtd"
   xmlns:inkscape="http://www.inkscape.org/namespaces/inkscape"
   version="1.1"
   x="0px"
   y="0px"
   width="50.5px"
   height="50.5px"
   viewBox="0 0 50.5 50.5"
   style="enable-background:new 0 0 50.5 50.5;"
   xml:space="preserve"
   id="svg4659"
   inkscape:version="0.91 r13725"
   sodipodi:docname="three_compartment_PK.svg"><metadata
     id="metadata4686"><rdf:RDF><cc:Work
         rdf:about=""><dc:format>image/svg+xml</dc:format><dc:type
           rdf:resource="http://purl.org/dc/dcmitype/StillImage" /></cc:Work></rdf:RDF></metadata><defs
     id="defs4684" /><sodipodi:namedview
     pagecolor="#ffffff"
     bordercolor="#666666"
     borderopacity="1"
     objecttolerance="10"
     gridtolerance="10"
     guidetolerance="10"
     inkscape:pageopacity="0"
     inkscape:pageshadow="2"
     inkscape:window-width="742"
     inkscape:window-height="480"
     id="namedview4682"
     showgrid="false"
     inkscape:zoom="4.6732673"
     inkscape:cx="25.25"
     inkscape:cy="25.25"
     inkscape:window-x="0"
     inkscape:window-y="0"
     inkscape:window-maximized="0"
     inkscape:current-layer="svg2" /><style
     type="text/css"
     id="style4661">
	.st0{display:none;}
	.st1{display:inline;fill:#1EFF00;stroke:#000000;stroke-miterlimit:10;}
	.st2{fill:none;stroke:#FFFFFF;stroke-width:6;stroke-linecap:round;stroke-linejoin:round;stroke-miterlimit:10;}
	.st3{fill:#6F6F6F;}
	.st4{fill:#C0C0C0;}
	.st5{fill:none;stroke:#2D2D2D;stroke-width:1.5;stroke-linecap:round;stroke-linejoin:round;stroke-miterlimit:10;}
</style><g
     id="Layer_2"
     class="st0"><rect
       x="-2.6"
       y="-4.7"
       class="st1"
       width="63.5"
       height="59.6"
       id="rect4664" /></g><g
     id="Layer_1"><g
       id="g7" /><g
       id="svg2"
       inkscape:version="0.48.4 r"
       sodipodi:docname="PK1.png"><sodipodi:namedview
         bordercolor="#666666"
         borderopacity="1.0"
         id="base"
         inkscape:current-layer="layer1"
         inkscape:cx="691.40998"
         inkscape:cy="451.42319"
         inkscape:document-units="px"
         inkscape:pageopacity="0.0"
         inkscape:pageshadow="2"
         inkscape:window-height="1018"
         inkscape:window-maximized="1"
         inkscape:window-width="1920"
         inkscape:window-x="-8"
         inkscape:window-y="-8"
         inkscape:zoom="0.35"
         pagecolor="#ffffff"
         showgrid="false" /><path
         class="st2"
         d="M47,41.7c0,2.9-2.3,5.3-5.3,5.3H8.8c-2.9,0-5.3-2.3-5.3-5.3V8.8c0-2.9,2.4-5.3,5.3-5.3h32.9    c2.9,0,5.3,2.3,5.3,5.3V41.7z"
         id="path4670" /><path
         class="st3"
         d="M47,41.7c0,2.9-2.3,5.3-5.3,5.3H8.8c-2.9,0-5.3-2.3-5.3-5.3V8.8c0-2.9,2.4-5.3,5.3-5.3h32.9    c2.9,0,5.3,2.3,5.3,5.3V41.7z"
         id="path4672" /><path
         class="st4"
         d="M38.5,19.1c-0.6-6.7-6.2-12-13-12c-7,0-12.6,5.3-13.2,12.2c-4,2.3-6.5,6.5-6.5,11.4c0,7.3,5.9,13.2,13.2,13.2    c2.4,0,4.6-0.7,6.6-1.8c2,1.1,4.2,1.8,6.6,1.8c7.3,0,13.2-5.9,13.2-13.2C45.4,25.7,42.6,21.4,38.5,19.1z"
         id="path4674" /><g
         id="g4676"
         transformBehaviour="pinned"><path
           class="st3"
           d="m 25.8,31 c 0.3,-0.1 0.7,-0.3 0.9,-0.7 C 26.9,30 27,29.6 27,29.2 l 0,-1.4 C 27,27.4 26.8,26.9 26.4,26.6 26.1,26.3 25.6,26 25.2,26 c -0.3,0 -0.6,-0.1 -0.8,-0.3 -0.2,-0.2 -0.3,-0.6 -0.3,-0.8 0,-0.2 0.1,-0.6 0.3,-0.8 0.2,-0.2 0.6,-0.3 0.8,-0.3 0.4,0 0.9,-0.2 1.2,-0.6 C 26.7,22.9 27,22.4 27,22 l 0,-1 c 0,-0.4 -0.1,-0.8 -0.3,-1.1 -0.2,-0.3 -0.6,-0.6 -0.9,-0.7 -0.4,-0.1 -0.8,-0.1 -1.1,0.1 -0.3,0.1 -0.7,0.4 -0.9,0.8 -0.2,0.3 -0.4,0.4 -0.8,0.6 -0.3,0.1 -0.6,0 -0.9,-0.1 -0.3,-0.2 -0.4,-0.4 -0.6,-0.8 -0.1,-0.3 0,-0.6 0.1,-0.9 0.2,-0.4 0.6,-0.8 0.9,-1 0.3,-0.3 0.7,-0.6 1.1,-0.7 0.4,-0.2 0.9,-0.2 1.3,-0.3 0.4,0 0.9,0 1.3,0.1 0.4,0.1 0.9,0.3 1.2,0.6 0.3,0.2 0.7,0.6 1,0.9 0.2,0.3 0.4,0.8 0.7,1.2 0.1,0.4 0.2,0.9 0.2,1.3 l 0,1 c 0,0.6 -0.1,1.1 -0.3,1.7 -0.2,0.6 -0.6,1 -0.9,1.3 0.4,0.3 0.7,0.8 0.9,1.3 0.2,0.6 0.3,1 0.3,1.7 l 0,1.4 c 0,0.4 -0.1,0.9 -0.2,1.3 -0.1,0.4 -0.3,0.8 -0.7,1.1 -0.2,0.3 -0.6,0.7 -1,0.9 -0.3,0.2 -0.8,0.4 -1.2,0.6 -0.4,0.1 -0.9,0.2 -1.3,0.1 -0.4,0 -0.9,-0.1 -1.3,-0.3 -0.4,-0.2 -0.8,-0.4 -1.1,-0.7 -0.3,-0.3 -0.7,-0.7 -0.9,-1 -0.1,-0.2 -0.2,-0.6 -0.1,-0.9 0.1,-0.3 0.2,-0.6 0.6,-0.8 0.2,-0.1 0.6,-0.2 0.9,-0.1 0.3,0.1 0.6,0.2 0.8,0.6 0.2,0.4 0.4,0.6 0.9,0.8 0.3,0.1 0.7,0.1 1.1,0 z"
           id="path4678"
           inkscape:connector-curvature="0"
           style="fill:#6f6f6f" /></g><path
         class="st5"
         d="M47,41.7c0,2.9-2.3,5.3-5.3,5.3H8.8c-2.9,0-5.3-2.3-5.3-5.3V8.8c0-2.9,2.4-5.3,5.3-5.3h32.9    c2.9,0,5.3,2.3,5.3,5.3V41.7z"
         id="path4680" /></g></g></svg>