<?xml version="1.0" encoding="UTF-8" standalone="no"?>
<!-- Generator: Adobe Illustrator 21.0.2, SVG Export Plug-In . SVG Version: 6.00 Build 0)  -->

<svg
   xmlns:dc="http://purl.org/dc/elements/1.1/"
   xmlns:cc="http://creativecommons.org/ns#"
   xmlns:rdf="http://www.w3.org/1999/02/22-rdf-syntax-ns#"
   xmlns:svg="http://www.w3.org/2000/svg"
   xmlns="http://www.w3.org/2000/svg"
   xmlns:sodipodi="http://sodipodi.sourceforge.net/DTD/sodipodi-0.dtd"
   xmlns:inkscape="http://www.inkscape.org/namespaces/inkscape"
   version="1.1"
   x="0px"
   y="0px"
   width="50.5px"
   height="50.5px"
   viewBox="0 0 50.5 50.5"
   style="enable-background:new 0 0 50.5 50.5;"
   xml:space="preserve"
   id="svg4035"
   inkscape:version="0.91 r13725"
   sodipodi:docname="vapour composition sensor.svg"><metadata
     id="metadata4082"><rdf:RDF><cc:Work
         rdf:about=""><dc:format>image/svg+xml</dc:format><dc:type
           rdf:resource="http://purl.org/dc/dcmitype/StillImage" /></cc:Work></rdf:RDF></metadata><defs
     id="defs4080" /><sodipodi:namedview
     pagecolor="#ffffff"
     bordercolor="#666666"
     borderopacity="1"
     objecttolerance="10"
     gridtolerance="10"
     guidetolerance="10"
     inkscape:pageopacity="0"
     inkscape:pageshadow="2"
     inkscape:window-width="742"
     inkscape:window-height="480"
     id="namedview4078"
     showgrid="false"
     inkscape:zoom="4.6732673"
     inkscape:cx="25.25"
     inkscape:cy="25.25"
     inkscape:window-x="0"
     inkscape:window-y="0"
     inkscape:window-maximized="0"
     inkscape:current-layer="Layer_1" /><style
     type="text/css"
     id="style4037">
	.st0{display:none;}
	.st1{display:inline;fill:#6AADFF;stroke:#000000;stroke-miterlimit:10;}
	.st2{display:inline;fill:#EEE52F;}
	.st3{fill:none;stroke:#FFFFFF;stroke-width:6;stroke-linecap:round;stroke-linejoin:round;stroke-miterlimit:10;}
	.st4{fill:none;}
	.st5{fill:#FFFFFF;}
	.st6{fill:none;stroke:#2D2D2E;stroke-width:1.5;stroke-linecap:round;stroke-linejoin:round;stroke-miterlimit:10;}
	.st7{fill:#727070;}
</style><g
     id="Layer_2_1_"
     class="st0"><rect
       x="-10.5"
       y="-4.1"
       class="st1"
       width="66.9"
       height="60.6"
       id="rect4040" /></g><g
     id="Layer_1"><g
       id="Layer_2"
       class="st0"><rect
         x="-70.1"
         y="-60.3"
         class="st2"
         width="242"
         height="197.7"
         id="rect4044" /></g><line
       class="st3"
       x1="25.2"
       y1="37.9"
       x2="25.2"
       y2="47.2"
       id="line4046" /><circle
       class="st3"
       cx="25.2"
       cy="21.2"
       r="18"
       id="circle4048" /><line
       class="st4"
       x1="25.2"
       y1="37.9"
       x2="25.2"
       y2="47.2"
       id="line4050" /><circle
       class="st4"
       cx="25.2"
       cy="21.2"
       r="18"
       id="circle4052" /><circle
       class="st5"
       cx="25.2"
       cy="21.2"
       r="18"
       id="circle4054" /><line
       class="st6"
       x1="25.2"
       y1="39.7"
       x2="25.2"
       y2="47.2"
       id="line4056" /><circle
       class="st6"
       cx="25.2"
       cy="21.2"
       r="18"
       id="circle4058" /><g
       id="g4060"
       transformBehaviour="pinned"><path
         class="st7"
         d="M 14.2,25.1 C 14.1,25 14,24.8 14,24.6 l 0,-10.3 c 0,-0.2 0.1,-0.3 0.2,-0.5 0.1,-0.1 0.3,-0.2 0.5,-0.2 l 1.4,0 c 0.2,0 0.3,0.1 0.5,0.2 0.1,0.1 0.2,0.3 0.2,0.5 0,0.2 -0.1,0.3 -0.2,0.5 -0.1,0.1 -0.3,0.2 -0.5,0.2 l -0.7,0 0,9 0.7,0 c 0.2,0 0.3,0.1 0.5,0.2 0.1,0.1 0.2,0.3 0.2,0.5 0,0.2 -0.1,0.3 -0.2,0.5 -0.1,0.1 -0.3,0.2 -0.5,0.2 l -1.4,0 c -0.2,-0.1 -0.4,-0.2 -0.5,-0.3 z"
         id="path4062"
         inkscape:connector-curvature="0"
         style="fill:#727070" /><path
         class="st7"
         d="m 17.1,15.5 c 0,-0.2 0,-0.4 0.1,-0.5 0.1,-0.2 0.2,-0.3 0.4,-0.3 0.2,0 0.3,0 0.5,0.1 0.2,0.1 0.3,0.2 0.3,0.4 0.2,0.7 0.4,1.3 0.5,2 0.2,0.6 0.3,1.2 0.5,1.9 0.2,0.7 0.4,1.3 0.5,1.9 0.2,-0.6 0.3,-1.2 0.5,-1.9 0.2,-0.7 0.4,-1.3 0.5,-1.9 0.2,-0.7 0.4,-1.3 0.5,-2 0,-0.2 0.2,-0.3 0.3,-0.4 0.2,-0.1 0.3,-0.1 0.5,-0.1 0.2,0 0.3,0.2 0.4,0.3 0.1,0.2 0.1,0.3 0.1,0.5 l -2.3,8.2 c 0,0.2 -0.1,0.3 -0.2,0.4 -0.1,0.1 -0.3,0.1 -0.4,0.1 -0.2,0 -0.3,0 -0.4,-0.1 -0.1,-0.1 -0.2,-0.2 -0.2,-0.4 l -2.1,-8.2 z"
         id="path4064"
         inkscape:connector-curvature="0"
         style="fill:#727070" /><path
         class="st7"
         d="M 24.4,24.9 C 24.3,25 24.2,25 24.1,25 c -0.1,0 -0.2,0 -0.3,-0.1 -0.1,-0.1 -0.1,-0.2 -0.1,-0.3 0,-0.1 0,-0.2 0.1,-0.3 l 1,-1 c 0.1,-0.1 0.3,-0.2 0.4,-0.1 0.1,0 0.1,0.1 0.2,0.1 0,0.1 0.1,0.1 0.1,0.2 l 0,4.8 c 0,0.1 0,0.2 -0.1,0.3 -0.1,0.1 -0.2,0.1 -0.3,0.1 -0.1,0 -0.2,0 -0.3,-0.1 -0.1,-0.1 -0.1,-0.2 -0.1,-0.3 l 0,-3.8 c 0,0 -0.1,0.1 -0.1,0.1 0,0 -0.1,0.1 -0.1,0.1 0,0.1 -0.1,0.1 -0.1,0.2 z"
         id="path4066"
         inkscape:connector-curvature="0"
         style="fill:#727070" /><path
         class="st7"
         d="m 31,28.7 c -0.1,0 -0.2,-0.1 -0.2,-0.2 0,-0.1 0,-0.2 0,-0.3 l 0.8,-1.5 -0.8,-1.4 c 0,-0.1 -0.1,-0.2 0,-0.3 0,-0.1 0.1,-0.2 0.2,-0.2 0.1,0 0.2,-0.1 0.3,0 0.1,0 0.2,0.1 0.2,0.2 l 0.6,1 0.6,-1 c 0,-0.1 0.1,-0.1 0.2,-0.2 0.1,0 0.2,0 0.3,0 0.1,0 0.2,0.1 0.2,0.2 0,0.1 0,0.2 0,0.3 l -0.8,1.4 0.8,1.5 c 0,0.1 0.1,0.2 0,0.3 0,0.1 -0.1,0.2 -0.2,0.2 -0.1,0 -0.2,0.1 -0.3,0 -0.1,0 -0.2,-0.1 -0.2,-0.2 l -0.6,-1.1 -0.6,1.1 c 0,0.1 -0.1,0.2 -0.2,0.2 -0.1,0.1 -0.2,0 -0.3,0 z"
         id="path4068"
         inkscape:connector-curvature="0"
         style="fill:#727070" /><path
         class="st7"
         d="m 36.3,13.8 c 0.1,0.1 0.2,0.3 0.2,0.5 l 0,10.3 c 0,0.2 -0.1,0.3 -0.2,0.5 -0.1,0.1 -0.3,0.2 -0.5,0.2 l -1.4,0 c -0.2,0 -0.3,-0.1 -0.5,-0.2 -0.1,-0.1 -0.2,-0.3 -0.2,-0.5 0,-0.2 0.1,-0.3 0.2,-0.5 0.1,-0.1 0.3,-0.2 0.5,-0.2 l 0.7,0 0,-9 -0.7,0 c -0.2,0 -0.3,-0.1 -0.5,-0.2 -0.1,-0.1 -0.2,-0.3 -0.2,-0.5 0,-0.2 0.1,-0.3 0.2,-0.5 0.1,-0.1 0.3,-0.2 0.5,-0.2 l 1.4,0 c 0.2,0.1 0.3,0.2 0.5,0.3 z"
         id="path4070"
         inkscape:connector-curvature="0"
         style="fill:#727070" /></g><circle
       class="st7"
       cx="27"
       cy="26.5"
       r="0.5"
       id="circle4072" /><circle
       class="st7"
       cx="28.5"
       cy="26.5"
       r="0.5"
       id="circle4074" /><circle
       class="st7"
       cx="30"
       cy="26.5"
       r="0.5"
       id="circle4076" /></g></svg>