<?xml version="1.0" encoding="UTF-8" standalone="no"?>
<?gproms path="Vapour_species_concentration_sensor_block.is_concentration_within_range"?>

<svg
   xmlns:dc="http://purl.org/dc/elements/1.1/"
   xmlns:cc="http://creativecommons.org/ns#"
   xmlns:rdf="http://www.w3.org/1999/02/22-rdf-syntax-ns#"
   xmlns:svg="http://www.w3.org/2000/svg"
   xmlns="http://www.w3.org/2000/svg"
   xmlns:sodipodi="http://sodipodi.sourceforge.net/DTD/sodipodi-0.dtd"
   xmlns:inkscape="http://www.inkscape.org/namespaces/inkscape"
   version="1.1"
   x="0px"
   y="0px"
   width="50.5px"
   height="59.8px"
   viewBox="0 0 50.5 59.8"
   style="enable-background:new 0 0 50.5 59.8;"
   xml:space="preserve"
   id="svg3336"
   inkscape:version="0.91 r13725"
   sodipodi:docname="vapour species concentration sensor.svg"><metadata
     id="metadata3377"><rdf:RDF><cc:Work
         rdf:about=""><dc:format>image/svg+xml</dc:format><dc:type
           rdf:resource="http://purl.org/dc/dcmitype/StillImage" /></cc:Work></rdf:RDF></metadata><defs
     id="defs3375" /><sodipodi:namedview
     pagecolor="#ffffff"
     bordercolor="#666666"
     borderopacity="1"
     objecttolerance="10"
     gridtolerance="10"
     guidetolerance="10"
     inkscape:pageopacity="0"
     inkscape:pageshadow="2"
     inkscape:window-width="1536"
     inkscape:window-height="897"
     id="namedview3373"
     showgrid="false"
     inkscape:zoom="12.173913"
     inkscape:cx="25.25"
     inkscape:cy="29.9"
     inkscape:window-x="-8"
     inkscape:window-y="-8"
     inkscape:window-maximized="1"
     inkscape:current-layer="svg3336" /><style
     type="text/css"
     id="style3338">
	.st0{display:none;}
	.st1{display:inline;fill:#6AADFF;stroke:#000000;stroke-miterlimit:10;}
	.st2{display:inline;fill:#EEE52F;}
	.st3{fill:none;stroke:#FFFFFF;stroke-width:6;stroke-linecap:round;stroke-linejoin:round;stroke-miterlimit:10;}
	.st4{fill:none;}
	.st5{fill:#FFFFFF;}
	.st6{fill:none;stroke:#2D2D2E;stroke-width:1.5;stroke-linecap:round;stroke-linejoin:round;stroke-miterlimit:10;}
	.st7{fill:#727070;}
</style><g
     id="Layer_2_1_"
     class="st0"><rect
       x="-10.5"
       y="-4.1"
       class="st1"
       width="66.9"
       height="60.6"
       id="rect3341" /></g><g
     id="Layer_1"><g
       id="Layer_2"
       class="st0"><rect
         x="-70.1"
         y="-60.3"
         class="st2"
         width="242"
         height="197.7"
         id="rect3345" /></g><line
       class="st3"
       x1="25.2"
       y1="45.2"
       x2="25.2"
       y2="56.6"
       id="line3347" /><circle
       class="st3"
       cx="25.2"
       cy="24.9"
       r="21.8"
       id="circle3349"
 style="stroke:#ff0000;stroke-opacity:1;stroke-width:0;stroke-miterlimit:10;stroke-dasharray:none"><animate
         attributeName="stroke-width"
         attributeType="XML"
         begin="0s"
         dur="1s"
         fill="freeze"
         from="6"
         to="0" /></circle>	   
	   <line
       class="st4"
       x1="25.2"
       y1="45.2"
       x2="25.2"
       y2="56.6"
       id="line3351" /><circle
       class="st4"
       cx="25.2"
       cy="24.9"
       r="21.8"
       id="circle3353" /><circle
       class="st5"
       cx="25.2"
       cy="24.9"
       r="21.8"
       id="circle3355" /><line
       class="st6"
       x1="25.2"
       y1="47.4"
       x2="25.2"
       y2="56.6"
       id="line3357" /><circle
       class="st6"
       cx="25.2"
       cy="24.9"
       r="21.8"
       id="circle3359" /><g
       id="g3361"
       transformBehaviour="pinned"><path
         class="st7"
         d="m 11.5,31.8 c -0.2,-0.2 -0.2,-0.4 -0.2,-0.6 l 0,-12.5 c 0,-0.2 0.1,-0.4 0.2,-0.6 0.2,-0.2 0.4,-0.2 0.6,-0.2 l 1.7,0 c 0.2,0 0.4,0.1 0.6,0.2 0.2,0.2 0.2,0.4 0.2,0.6 0,0.2 -0.1,0.4 -0.2,0.6 -0.2,0.2 -0.4,0.2 -0.6,0.2 l -0.9,0 0,10.9 0.9,0 c 0.2,0 0.4,0.1 0.6,0.2 0.2,0.2 0.2,0.4 0.2,0.6 0,0.2 -0.1,0.4 -0.2,0.6 C 14.2,32 14,32 13.8,32 l -1.7,0 c -0.2,0.1 -0.4,0 -0.6,-0.2 z"
         id="path3363"
         inkscape:connector-curvature="0"
         style="fill:#727070" /><path
         class="st7"
         d="m 15.1,20.2 c -0.1,-0.2 0,-0.4 0.1,-0.6 0.1,-0.2 0.3,-0.3 0.5,-0.4 0.2,-0.1 0.4,0 0.6,0.1 0.2,0.1 0.3,0.3 0.4,0.5 0.2,0.8 0.4,1.6 0.7,2.4 0.2,0.7 0.4,1.5 0.6,2.3 0.2,0.8 0.4,1.6 0.6,2.3 0.2,-0.7 0.4,-1.5 0.6,-2.3 0.2,-0.8 0.4,-1.6 0.6,-2.3 0.2,-0.8 0.4,-1.6 0.7,-2.4 0.1,-0.2 0.2,-0.4 0.4,-0.5 0.2,-0.1 0.4,-0.1 0.6,-0.1 0.2,0.1 0.4,0.2 0.5,0.4 0.1,0.2 0.1,0.4 0.1,0.6 l -2.7,9.9 c -0.1,0.2 -0.2,0.3 -0.3,0.4 -0.1,0.1 -0.3,0.2 -0.5,0.2 -0.2,0 -0.4,-0.1 -0.5,-0.2 -0.1,-0.1 -0.2,-0.3 -0.3,-0.4 l -2.7,-9.9 z"
         id="path3365"
         inkscape:connector-curvature="0"
         style="fill:#727070" /><path
         class="st7"
         d="m 29,29.7 c 0.1,0.2 0,0.4 -0.1,0.6 -0.1,0.2 -0.3,0.3 -0.5,0.4 -0.2,0.1 -0.4,0 -0.6,-0.1 -0.2,-0.1 -0.3,-0.3 -0.4,-0.5 0,-0.1 -0.1,-0.3 -0.1,-0.5 0,-0.2 -0.1,-0.4 -0.2,-0.6 C 27,28.8 27,28.5 26.9,28.3 l -2.9,0 c -0.1,0.3 -0.1,0.5 -0.2,0.7 -0.1,0.2 -0.1,0.4 -0.2,0.6 0,0.2 -0.1,0.4 -0.1,0.5 -0.1,0.2 -0.2,0.4 -0.4,0.5 -0.2,0.1 -0.4,0.1 -0.6,0.1 -0.2,-0.1 -0.4,-0.2 -0.5,-0.4 -0.1,-0.2 -0.1,-0.4 -0.1,-0.6 l 2.7,-9.9 c 0,-0.2 0.1,-0.3 0.3,-0.4 0.2,-0.1 0.3,-0.2 0.5,-0.2 0.2,0 0.4,0.1 0.5,0.2 0.1,0.1 0.2,0.3 0.3,0.4 l 2.8,9.9 z m -2.6,-3 c -0.2,-0.6 -0.3,-1.2 -0.5,-1.8 -0.2,-0.6 -0.3,-1.2 -0.5,-1.8 -0.2,0.6 -0.3,1.2 -0.5,1.8 -0.2,0.6 -0.3,1.2 -0.5,1.8 l 2,0 z"
         id="path3367"
         inkscape:connector-curvature="0"
         style="fill:#727070" /><path
         class="st7"
         d="m 30.3,19.5 c 0.2,-0.2 0.4,-0.2 0.6,-0.2 l 2.1,0 c 0.4,0 0.8,0.1 1.1,0.2 0.3,0.1 0.7,0.4 0.9,0.6 0.3,0.3 0.5,0.6 0.6,0.9 0.1,0.3 0.2,0.7 0.2,1.1 l 0,1 c 0,0.4 -0.1,0.8 -0.2,1.1 -0.1,0.3 -0.4,0.7 -0.6,0.9 -0.3,0.3 -0.6,0.5 -0.9,0.6 -0.3,0.1 -0.7,0.2 -1.1,0.2 l -1.2,0 0,4 c 0,0.2 -0.1,0.4 -0.2,0.6 -0.2,0.2 -0.4,0.2 -0.6,0.2 -0.2,0 -0.4,-0.1 -0.6,-0.2 -0.2,-0.2 -0.2,-0.4 -0.2,-0.6 l 0,-9.8 C 30,19.9 30.1,19.7 30.3,19.5 Z m 3.5,1.8 c -0.2,-0.2 -0.5,-0.4 -0.9,-0.4 l -1.2,0 0,3.4 1.2,0 c 0.3,0 0.6,-0.1 0.9,-0.4 0.2,-0.2 0.4,-0.5 0.4,-0.9 l 0,-1 C 34.1,21.8 34,21.5 33.8,21.3 Z"
         id="path3369"
         inkscape:connector-curvature="0"
         style="fill:#727070" /><path
         class="st7"
         d="m 39.2,18.1 c 0.2,0.2 0.2,0.4 0.2,0.6 l 0,12.5 c 0,0.2 -0.1,0.4 -0.2,0.6 C 39,32 38.8,32 38.6,32 l -1.7,0 c -0.2,0 -0.4,-0.1 -0.6,-0.2 -0.2,-0.2 -0.2,-0.4 -0.2,-0.6 0,-0.2 0.1,-0.4 0.2,-0.6 0.2,-0.2 0.4,-0.2 0.6,-0.2 l 0.9,0 0,-10.9 -0.9,0 c -0.2,0 -0.4,-0.1 -0.6,-0.2 -0.2,-0.2 -0.2,-0.4 -0.2,-0.6 0,-0.2 0.1,-0.4 0.2,-0.6 0.2,-0.2 0.4,-0.2 0.6,-0.2 l 1.7,0 c 0.3,0 0.5,0.1 0.6,0.2 z"
         id="path3371"
         inkscape:connector-curvature="0"
         style="fill:#727070" /></g></g></svg>