<?xml version="1.0" encoding="utf-8"?>
<!-- Generator: Adobe Illustrator 21.0.2, SVG Export Plug-In . SVG Version: 6.00 Build 0)  -->
<svg version="1.1" id="Layer_1" xmlns="http://www.w3.org/2000/svg" xmlns:xlink="http://www.w3.org/1999/xlink" x="0px" y="0px"
	 width="76.1px" height="134px" viewBox="0 0 76.1 134" style="enable-background:new 0 0 76.1 134;" xml:space="preserve">
<style type="text/css">
	.st0{fill:none;stroke:#FFFFFF;stroke-width:6;stroke-linecap:round;stroke-linejoin:round;stroke-miterlimit:10;}
	.st1{fill:#707070;}
	.st2{fill:none;stroke:#D2D2D2;stroke-linecap:round;stroke-linejoin:round;stroke-miterlimit:10;}
	.st3{fill:#EF8023;}
	.st4{fill:none;stroke:#D2D2D2;stroke-linecap:round;stroke-linejoin:round;}
	.st5{fill:none;stroke:#2D2D2D;stroke-width:1.5;stroke-linecap:round;stroke-linejoin:round;stroke-miterlimit:10;}
</style>
<polygon id="leg" class="st0" points="49.1,3 38.1,3 19,3 14.1,3 14.1,15.3 14.1,15.4 3.1,15.4 3.1,27.1 14.1,27.1 14.1,36.7 
	3.1,36.7 3.1,47.1 14.1,47.1 14.1,72.8 36.9,131 50,131 73.1,72.8 73.1,3 "/>
<polygon id="fill" class="st1" points="49.1,3.3 38.1,3.3 19,3.3 14.1,3.3 14.1,15.6 14.1,15.6 3.1,15.6 3.1,27.3 14.1,27.3 
	14.1,36.9 3.1,36.9 3.1,47.4 14.1,47.4 14.1,73.1 36.9,131.3 50,131.3 73.1,73.1 73.1,3.3 "/>
<g id="dec">
	<line class="st2" x1="14.1" y1="31.9" x2="73.1" y2="31.9"/>
	<circle class="st3" cx="33.6" cy="108.5" r="2.7"/>
	<circle class="st3" cx="40.6" cy="126.6" r="2.7"/>
	<circle class="st3" cx="54.1" cy="109.3" r="2.7"/>
	<circle class="st3" cx="45.2" cy="100.4" r="2.7"/>
	<circle class="st3" cx="6.6" cy="42.7" r="1.8"/>
	<circle class="st3" cx="15.2" cy="44.2" r="1.8"/>
	<circle class="st3" cx="9.6" cy="44.8" r="1.2"/>
	<circle class="st3" cx="11.9" cy="42.7" r="1.2"/>
	<circle class="st3" cx="17.8" cy="41.2" r="1.2"/>
	<circle class="st3" cx="47.9" cy="107.2" r="2.7"/>
	<circle class="st3" cx="39.8" cy="105.8" r="2.7"/>
	<circle class="st3" cx="49.7" cy="115.6" r="2.7"/>
	<circle class="st3" cx="36.3" cy="115.6" r="2.7"/>
	<circle class="st3" cx="43.2" cy="111.9" r="2.7"/>
	<circle class="st3" cx="42.5" cy="119.3" r="2.7"/>
	<circle class="st3" cx="48.7" cy="122.8" r="2.7"/>
	<rect x="28.7" y="31.9" class="st2" width="3.3" height="40.9"/>
	<rect x="37.5" y="31.9" class="st2" width="3.3" height="40.9"/>
	<rect x="46.3" y="31.9" class="st2" width="3.3" height="40.9"/>
	<rect x="55.1" y="31.9" class="st2" width="3.3" height="40.9"/>
	<path class="st4" d="M5.9,22.5c7,4.9,7.5-3.3,14.1,0"/>
	<path class="st4" d="M6,38.9c7,4.9,7.5-3.3,14.1,0"/>
	<path class="st4" d="M5.9,18.5c7.1,5,7.5-3.3,14.1,0"/>
</g>
<polygon id="out" class="st5" points="49.1,3 38.1,3 19,3 14.1,3 14.1,15.3 14.1,15.4 3.1,15.4 3.1,27.1 14.1,27.1 14.1,36.7 
	3.1,36.7 3.1,47.1 14.1,47.1 14.1,72.8 36.9,131 50,131 73.1,72.8 73.1,3 "/>
</svg>
