<?xml version="1.0" encoding="utf-8"?>
<!-- Generator: Adobe Illustrator 21.0.2, SVG Export Plug-In . SVG Version: 6.00 Build 0)  -->
<svg version="1.1" xmlns="http://www.w3.org/2000/svg" xmlns:xlink="http://www.w3.org/1999/xlink" x="0px" y="0px" width="76.2px"
	 height="143.1px" viewBox="0 0 76.2 143.1" style="enable-background:new 0 0 76.2 143.1;" xml:space="preserve">
<style type="text/css">
	.st0{display:none;}
	.st1{display:inline;fill:#8282D8;}
	.st2{fill:none;stroke:#FFFFFF;stroke-width:6;stroke-linecap:round;stroke-linejoin:round;stroke-miterlimit:10;}
	.st3{fill:#6F6F6F;}
	.st4{display:inline;fill:#EF8122;}
	.st5{fill:none;stroke:#2D2D2D;stroke-width:1.5;stroke-linecap:round;stroke-linejoin:round;stroke-miterlimit:10;}
	.st6{fill:#EF8122;}
	.st7{fill:none;stroke:#D1D1D1;stroke-linecap:round;stroke-linejoin:round;}
</style>
<g id="Layer_1">
	<g id="Layer_2" class="st0">
		<rect x="-12.4" y="-12.3" class="st1" width="97.2" height="178.4"/>
	</g>
	<g id="Layer_1_1_">
		<polygon class="st2" points="73.1,12 49.1,12 49.1,3 38.1,3 38.1,12 19,12 14.1,12 14.1,24.3 14.1,29 3.1,29 3.1,41 14.1,41 
			14.1,81.8 36.9,140 50,140 73.1,81.8 		"/>
		<polygon class="st3" points="73.1,12 49.1,12 49.1,3 38.1,3 38.1,12 19,12 14.1,12 14.1,24.3 14.1,29 3.1,29 3.1,41 14.1,41 
			14.1,81.8 36.9,140 50,140 73.1,81.8 		"/>
	</g>
	<g id="Layer_1_12_">
		<g id="Layer_2_12_" class="st0">
			<rect x="89.4" y="-15.9" class="st4" width="74.5" height="125.2"/>
		</g>
	</g>
	<polygon class="st5" points="73.1,12 49.1,12 49.1,3 38.1,3 38.1,12 19,12 14.1,12 14.1,24.3 14.1,29 3.1,29 3.1,41 14.1,41 
		14.1,81.8 36.9,140 50,140 73.1,81.8 	"/>
	<circle class="st6" cx="41.2" cy="6" r="0.7"/>
	<circle class="st6" cx="43" cy="9.6" r="0.6"/>
	<circle class="st6" cx="43.6" cy="15" r="0.7"/>
	<circle class="st6" cx="45.2" cy="6.3" r="0.6"/>
	<circle class="st6" cx="45.9" cy="10.7" r="0.7"/>
	<circle class="st6" cx="46.9" cy="14.4" r="0.7"/>
	<circle class="st6" cx="40.4" cy="12.4" r="0.6"/>
	<circle class="st6" cx="33.7" cy="117.5" r="2.7"/>
	<circle class="st6" cx="40.7" cy="135.6" r="2.7"/>
	<circle class="st6" cx="49.8" cy="115.5" r="2.7"/>
	<circle class="st6" cx="36.4" cy="124.6" r="2.7"/>
	<circle class="st6" cx="43.2" cy="119.2" r="2.7"/>
	<circle class="st6" cx="48.8" cy="131.8" r="2.7"/>
</g>
<g id="Layer_2_1_">
	<path class="st7" d="M22.4,24.4c0,0,39.4-13.3,45.5,12.2C71.7,52,31,56.6,31,56.6s-11.6,1.5-11.6-4.2s10.6-9.1,22.7-9.1
		s26,6,26,26.3S36.1,89.1,36.1,89.1s-16.7,0.4-16.7-5.3s11.3-9.2,24.4-9.2s20.7,3.9,21.4,14.5s-11,24-24.2,24c0,0-12.1,1.2-12.1-1.4
		c0-2.7,2.2-4.4,11.4-4.4s14.2,2.8,14.2,9.3s-14.8,11.2-14.8,11.2"/>
</g>
</svg>
