<?xml version="1.0" encoding="UTF-8" standalone="no"?>
<svg
   xmlns:dc="http://purl.org/dc/elements/1.1/"
   xmlns:cc="http://creativecommons.org/ns#"
   xmlns:rdf="http://www.w3.org/1999/02/22-rdf-syntax-ns#"
   xmlns:svg="http://www.w3.org/2000/svg"
   xmlns="http://www.w3.org/2000/svg"
   xml:space="preserve"
   style="enable-background:new 0 0 156 74;"
   viewBox="0 0 156 74"
   height="74px"
   width="156px"
   y="0px"
   x="0px"
   id="Layer_1"
   version="1.1"><metadata
     id="metadata117"><rdf:RDF><cc:Work
         rdf:about=""><dc:format>image/svg+xml</dc:format><dc:type
           rdf:resource="http://purl.org/dc/dcmitype/StillImage" /><dc:title></dc:title></cc:Work></rdf:RDF></metadata><defs
     id="defs115" /><style
     id="style3"
     type="text/css">
	.st0{fill:none;stroke:#FFFFFF;stroke-width:6;stroke-linecap:round;stroke-linejoin:round;stroke-miterlimit:10;}
	.st1{fill:#6F6F6F;}
	.st2{fill:none;stroke:#2E2E2E;stroke-width:1.5;stroke-linecap:round;stroke-linejoin:round;stroke-miterlimit:10;}
	.st3{fill:#F08223;}
	.st4{fill:#D2D2D2;}
</style><path
     id="path5"
     d="M3.3,37c0,13,7.8,33.7,20.8,33.7H30h94.9h5.9c13,0,20.8-20.7,20.8-33.7c0-13-7.8-33.7-20.8-33.7h-5.9H30h-5.9  C11.1,3.3,3.3,24,3.3,37z"
     class="st0" /><path
     id="path7"
     d="M3.3,37.4c0,13,7.8,33.7,20.8,33.7H30h94.9h5.9c13,0,20.8-20.7,20.8-33.7c0-13-7.8-33.7-20.8-33.7h-5.9H30h-5.9  C11.1,3.7,3.3,24.4,3.3,37.4z"
     class="st1" /><path
     id="path9"
     d="M3.3,37c0,13,7.8,33.7,20.8,33.7H30h94.9h5.9c13,0,20.8-20.7,20.8-33.7c0-13-7.8-33.7-20.8-33.7h-5.9H30h-5.9  C11.1,3.3,3.3,24,3.3,37z"
     class="st2" /><g
     id="g11"><circle
       id="circle13"
       r="2.8"
       cy="11.9"
       cx="24.8"
       class="st3" /></g><g
     id="g15"><circle
       id="circle17"
       r="2.8"
       cy="19.3"
       cx="30.7"
       class="st3" /></g><g
     id="g19"><circle
       id="circle21"
       r="2.8"
       cy="27.6"
       cx="36.2"
       class="st3" /></g><g
     id="g23"><circle
       id="circle25"
       r="2.8"
       cy="23.3"
       cx="44.4"
       class="st3" /></g><g
     id="g27"><circle
       id="circle29"
       r="2.8"
       cy="27.1"
       cx="26.6"
       class="st3" /></g><g
     id="path3097_2_"><g
       id="g32"><path
         id="path34"
         d="M95.1,64.5c-7.6,0-14.5-5.2-16.1-12.6c-0.1-0.3,0.1-0.5,0.4-0.6c0.3,0,0.5,0.1,0.6,0.4    c1.7,7.9,9.8,13.1,18,11.6c4.1-0.8,7.6-3,9.8-6.4c2.1-3.2,2.9-7,2.1-10.8c-1.4-6.8-7.7-11.8-15-11.9c-0.3,0-0.5-0.2-0.5-0.5    c0-0.3,0.2-0.5,0.5-0.5c0,0,0,0,0,0c7.7,0.1,14.4,5.4,15.9,12.6c0.9,4,0.1,8.1-2.2,11.5c-2.4,3.6-6.1,6-10.5,6.8    C97.2,64.4,96.1,64.5,95.1,64.5z"
         class="st4" /></g></g><g
     transform="translate(17.489033,10.845574)"
     id="layer1_2_"><g
       id="path4103-3_3_"><path
         id="path38"
         d="M30.1,26.5c-1.3,1.9-2.3,4.1-2.8,6.4c-2,9.4,4.2,18.3,14,19.9    C51,54.4,60.5,48,62.6,38.6c0.6-2.6,0.5-5.1-0.1-7.5c8.4-0.2,16-6.2,17.8-14.5c2-9.4-4.2-18.3-14-19.9C56.6-4.8,47,1.6,45,11    c-0.6,2.6-0.5,5.1,0.1,7.4C39.1,18.6,33.4,21.7,30.1,26.5z"
         class="st1" /></g><g
       id="path4384_1_"><path
         id="path41"
         d="M46.5,46.8c-0.2,0-0.5-0.2-0.5-0.4l-2.5-21.1c0-0.3,0.2-0.5,0.4-0.6c0.3,0,0.5,0.2,0.6,0.4L47,46.2    C47,46.5,46.8,46.8,46.5,46.8C46.5,46.8,46.5,46.8,46.5,46.8z"
         class="st4" /></g><g
       id="path4384-5_1_"><path
         id="path44"
         d="M33.6,37.6c-0.3,0-0.5-0.2-0.5-0.4c0-0.3,0.2-0.5,0.4-0.6l23.2-2.7c0.3,0,0.5,0.2,0.6,0.4    c0,0.3-0.2,0.5-0.4,0.6L33.6,37.6C33.6,37.6,33.6,37.6,33.6,37.6z"
         class="st4" /></g><g
       id="path4384-9_1_"><path
         id="path47"
         d="M71,21.9c-0.1,0-0.2,0-0.3-0.1L54.4,6.9c-0.2-0.2-0.2-0.5,0-0.7C54.5,6,54.8,6,55,6.2l16.3,14.9    c0.2,0.2,0.2,0.5,0,0.7C71.3,21.9,71.1,21.9,71,21.9z"
         class="st4" /></g><g
       id="path4384-5-9_1_"><path
         id="path50"
         d="M54.5,22.1c-0.1,0-0.3-0.1-0.4-0.2c-0.2-0.2-0.2-0.5,0-0.7L70.9,6c0.2-0.2,0.5-0.2,0.7,0    c0.2,0.2,0.2,0.5,0,0.7L54.8,21.9C54.7,22,54.6,22.1,54.5,22.1z"
         class="st4" /></g></g><g
     id="g52"><path
       id="path54"
       d="M103.2,56.6c0,1.1-0.9,1.9-1.9,1.9l0,0c-1.1,0-1.9-0.9-1.9-1.9l0,0c0-1.1,0.9-1.9,1.9-1.9l0,0   C102.4,54.7,103.2,55.6,103.2,56.6L103.2,56.6z"
       class="st3" /></g><g
     id="g56"><path
       id="path58"
       d="M102,43.3c-1.3,0-2.4-1.1-2.4-2.4s1.1-2.4,2.4-2.4s2.4,1.1,2.4,2.4S103.4,43.3,102,43.3z M102,39.5   c-0.8,0-1.4,0.6-1.4,1.4s0.6,1.4,1.4,1.4s1.4-0.6,1.4-1.4S102.8,39.5,102,39.5z"
       class="st4" /></g><g
     id="g60"><path
       id="path62"
       d="M89,55.8c0,1.1-0.9,1.9-1.9,1.9l0,0c-1.1,0-1.9-0.9-1.9-1.9l0,0c0-1.1,0.9-1.9,1.9-1.9l0,0   C88.2,53.9,89,54.7,89,55.8L89,55.8z"
       class="st3" /></g><g
     id="g64"><path
       id="path66"
       d="M94.2,61.1c-1.3,0-2.4-1.1-2.4-2.4s1.1-2.4,2.4-2.4s2.4,1.1,2.4,2.4S95.6,61.1,94.2,61.1z M94.2,57.3   c-0.8,0-1.4,0.6-1.4,1.4s0.6,1.4,1.4,1.4s1.4-0.6,1.4-1.4S95,57.3,94.2,57.3z"
       class="st4" /></g><g
     id="g68"><path
       id="path70"
       d="M105,51.6c-1.3,0-2.4-1.1-2.4-2.4s1.1-2.4,2.4-2.4s2.4,1.1,2.4,2.4S106.3,51.6,105,51.6z M105,47.8   c-0.8,0-1.4,0.6-1.4,1.4s0.6,1.4,1.4,1.4s1.4-0.6,1.4-1.4S105.7,47.8,105,47.8z"
       class="st4" /></g><g
     id="path4103-3_2_"><g
       id="g73"><path
         id="path75"
         d="M61.7,64.4c-1,0-2-0.1-3-0.2c-4.9-0.8-9.2-3.4-11.9-7.4c-2.6-3.8-3.5-8.5-2.5-13.1c0.5-2.4,1.5-4.6,2.9-6.6v0    c3.4-4.8,8.9-7.9,14.8-8.2c-0.5-2.3-0.5-4.7,0-7.1c2.1-9.7,11.9-16.2,21.9-14.6c4.9,0.8,9.2,3.4,11.9,7.4    c2.6,3.8,3.5,8.5,2.5,13.1c-1.8,8.2-9.1,14.3-17.7,14.8c0.5,2.3,0.4,4.7-0.1,7.1C78.7,58.2,70.5,64.4,61.7,64.4z M48,37.6    c-1.3,1.9-2.2,4-2.7,6.2c-0.9,4.3-0.1,8.7,2.4,12.3c2.6,3.7,6.5,6.2,11.2,7c9.5,1.5,18.8-4.7,20.7-13.8c0.5-2.4,0.5-4.9-0.1-7.2    c0-0.1,0-0.3,0.1-0.4c0.1-0.1,0.2-0.2,0.4-0.2c8.3-0.2,15.6-6.2,17.4-14.1c0.9-4.3,0.1-8.7-2.4-12.3c-2.6-3.7-6.5-6.2-11.2-7    C74.3,6.6,65,12.8,63,22c-0.5,2.4-0.5,4.8,0.1,7.2c0,0.1,0,0.3-0.1,0.4c-0.1,0.1-0.2,0.2-0.4,0.2C56.8,30,51.3,32.9,48,37.6    L48,37.6z"
         class="st4" /></g></g><g
     id="g77"><circle
       id="circle79"
       r="2.8"
       cy="40.9"
       cx="55.4"
       class="st3" /></g><g
     id="g81"><circle
       id="circle83"
       r="2.8"
       cy="36.1"
       cx="68.7"
       class="st3" /></g><g
     id="g85"><circle
       id="circle87"
       r="2.8"
       cy="14.7"
       cx="80.3"
       class="st3" /></g><g
     id="g89"><circle
       id="circle91"
       r="2.8"
       cy="53.9"
       cx="71.3"
       class="st3" /></g><g
     id="g93"><circle
       id="circle95"
       r="2.8"
       cy="55.8"
       cx="87.1"
       class="st3" /></g><g
     id="g97"><circle
       id="circle99"
       r="2.8"
       cy="56.6"
       cx="101.3"
       class="st3" /></g><g
     id="g101"><circle
       id="circle103"
       r="2.8"
       cy="65"
       cx="110.7"
       class="st3" /></g><g
     id="g105"><circle
       id="circle107"
       r="2.8"
       cy="61.2"
       cx="121.8"
       class="st3" /></g><g
     id="g109"><circle
       id="circle111"
       r="2.8"
       cy="65"
       cx="131.1"
       class="st3" /></g></svg>