<?xml version="1.0" encoding="utf-8"?>
<!-- Generator: Adobe Illustrator 21.0.2, SVG Export Plug-In . SVG Version: 6.00 Build 0)  -->
<svg version="1.1" xmlns="http://www.w3.org/2000/svg" xmlns:xlink="http://www.w3.org/1999/xlink" x="0px" y="0px" width="49.3px"
	 height="49.2px" viewBox="0 0 49.3 49.2" style="enable-background:new 0 0 49.3 49.2;" xml:space="preserve">
<style type="text/css">
	.st0{display:none;}
	.st1{display:inline;}
	.st2{fill:#006699;stroke:#006699;stroke-width:0.1499;stroke-linecap:round;stroke-linejoin:round;}
	.st3{fill:#FFFFFF;}
	.st4{fill:#7F7F7F;stroke:#7F7F7F;stroke-width:0.1499;stroke-linecap:round;stroke-linejoin:round;}
	.st5{fill:none;stroke:#FFFFFF;stroke-width:6;stroke-linecap:round;stroke-linejoin:round;stroke-miterlimit:10;}
	.st6{fill:#707070;}
	.st7{fill:none;stroke:#000000;stroke-width:1.5;stroke-linecap:round;stroke-linejoin:round;stroke-miterlimit:10;}
	.st8{fill:none;stroke:#D1D1D1;stroke-linecap:round;stroke-linejoin:round;stroke-miterlimit:10;}
	.st9{display:inline;fill:#D3CE20;}
</style>
<g id="_x30_" inkscape:version="0.48.5 r10040" sodipodi:docname="gcrystal global.svg" xmlns:cc="http://creativecommons.org/ns#" xmlns:dc="http://purl.org/dc/elements/1.1/" xmlns:inkscape="http://www.inkscape.org/namespaces/inkscape" xmlns:rdf="http://www.w3.org/1999/02/22-rdf-syntax-ns#" xmlns:sodipodi="http://sodipodi.sourceforge.net/DTD/sodipodi-0.dtd" xmlns:svg="http://www.w3.org/2000/svg" class="st0">
	
		<sodipodi:namedview  bordercolor="#666666" borderopacity="1" gridtolerance="10" guidetolerance="10" id="namedview12" inkscape:current-layer="1" inkscape:cx="64.364174" inkscape:cy="64.364174" inkscape:pageopacity="0" inkscape:pageshadow="2" inkscape:window-height="1018" inkscape:window-maximized="1" inkscape:window-width="1920" inkscape:window-x="-8" inkscape:window-y="-8" inkscape:zoom="1.833318" objecttolerance="10" pagecolor="#ffffff" showgrid="false">
		</sodipodi:namedview>
	<g id="_x31_" class="st1">
		<path id="_x32_" class="st2" d="M-34.1-32.6v-0.3l0.1-0.3l0.1-0.3l0.1-0.1l0.1-0.1l0.3-0.1l0.3-0.1h0.3H77.3h0.3l0.3,0.1l0.1,0.1
			l0.3,0.1l0.1,0.1l0.1,0.3l0.1,0.3v0.3V77.1v0.3l-0.1,0.3l-0.1,0.1l-0.1,0.3L78,78.3l-0.1,0.1l-0.3,0.1h-0.3H-32.6h-0.3l-0.3-0.1
			l-0.3-0.1l-0.1-0.1l-0.1-0.3l-0.1-0.1l-0.1-0.3v-0.3C-34.1,77.1-34.1-32.6-34.1-32.6z M-30.9,77.1l-1.6-1.6H77.3l-1.6,1.6V-32.6
			l1.6,1.6H-32.6l1.6-1.6C-30.9-32.6-30.9,77.1-30.9,77.1z"/>
		<path id="_x33_" class="st3" d="M-17.6-17.6V92.1H92.2V-17.6C92.2-17.6-17.6-17.6-17.6-17.6z"/>
		<path id="_x34_" class="st2" d="M-19.1-17.6v-0.3l0.1-0.3l0.1-0.3l0.1-0.1l0.1-0.1l0.3-0.1l0.3-0.1h0.3H92.2h0.3l0.3,0.1l0.1,0.1
			l0.3,0.1l0.1,0.1l0.1,0.3l0.1,0.3v0.3V92.1v0.3l-0.1,0.3l-0.1,0.1l-0.1,0.3L93,93.3l-0.1,0.1l-0.3,0.1h-0.3H-17.6h-0.3l-0.3-0.1
			l-0.3-0.1l-0.1-0.1l-0.1-0.3l-0.1-0.1l-0.1-0.3v-0.3C-19.1,92.1-19.1-17.6-19.1-17.6z M-16,92.1l-1.6-1.6H92.2l-1.6,1.6V-17.6
			l1.6,1.6H-17.6l1.6-1.6C-16-17.6-16,92.1-16,92.1z"/>
		<g id="g2989">
			<path id="_x35_" class="st4" d="M-3.5,0.8h69.1v3.1H-3.5l0-1.6L-3.5,0.8z"/>
			<path id="_x36_" class="st4" d="M-3.5,15.8h69.1v3.1H-3.5L-3.5,15.8z"/>
			<path id="_x37_" class="st4" d="M-3.5,30.7h69.1v3.1H-3.5L-3.5,30.7z"/>
		</g>
		<path class="st4" d="M65.6,2.4"/>
	</g>
	<g id="Layer_2_23_" class="st1">
		<polygon id="legib_17_" class="st5" points="-163.2,17.7 -168.8,12.2 -199.2,12.2 -199.2,16.2 -203.4,16.2 -203.4,62.4 
			-167.4,62.4 -167.4,58.3 -163.2,58.3 		"/>
		<polygon class="st6" points="-139.9,-3.8 -139.9,42.3 -103.9,42.3 -103.9,1.7 -109.4,-3.8 		"/>
		<polygon id="outline_19_" class="st7" points="-139.9,-3.8 -139.9,42.3 -103.9,42.3 -103.9,1.7 -109.4,-3.8 		"/>
		<polygon class="st6" points="-159.8,100.9 -159.8,147.1 -123.9,147.1 -123.9,106.5 -129.4,100.9 		"/>
		<line class="st8" x1="-137.4" y1="7.2" x2="-123.9" y2="7.2"/>
		<line class="st8" x1="-3" y1="143.4" x2="18.4" y2="143.4"/>
		<line class="st8" x1="-137.4" y1="18.4" x2="-116" y2="18.4"/>
		<line class="st8" x1="-137.4" y1="21.4" x2="-116" y2="21.4"/>
		<line class="st8" x1="-137.4" y1="24.4" x2="-116" y2="24.4"/>
		<line class="st8" x1="-137.4" y1="27.4" x2="-116" y2="27.4"/>
		<line class="st8" x1="-137.4" y1="30.3" x2="-116" y2="30.3"/>
		<line class="st8" x1="-137.4" y1="33.3" x2="-116" y2="33.3"/>
		<polygon id="outline_17_" class="st7" points="-90.1,93.6 -90.1,139.8 -54.2,139.8 -54.2,99.2 -59.7,93.6 		"/>
	</g>
</g>
<g id="Layer_3" class="st0">
	<rect x="-40.4" y="-41.2" class="st9" width="136.6" height="133.7"/>
</g>
<g id="Layer_2">
	<rect x="3.1" y="3" class="st5" width="37.8" height="37.8"/>
	<rect x="8.2" y="8.2" class="st5" width="37.8" height="37.8"/>
	<rect x="3.1" y="3" class="st6" width="37.8" height="37.8"/>
	<rect x="3.1" y="3" class="st7" width="37.8" height="37.8"/>
	<rect x="8.2" y="8.2" class="st6" width="37.8" height="37.8"/>
	<rect x="8.2" y="8.2" class="st7" width="37.8" height="37.8"/>
	<line class="st8" x1="13.1" y1="15.1" x2="36.9" y2="15.1"/>
	<line class="st8" x1="13.1" y1="20.2" x2="36.9" y2="20.2"/>
	<line class="st8" x1="13.1" y1="25.4" x2="36.9" y2="25.4"/>
</g>
</svg>
