<?xml version="1.0" encoding="utf-8"?>
<!-- Generator: Adobe Illustrator 21.0.2, SVG Export Plug-In . SVG Version: 6.00 Build 0)  -->
<svg version="1.1" xmlns="http://www.w3.org/2000/svg" xmlns:xlink="http://www.w3.org/1999/xlink" x="0px" y="0px" width="107px"
	 height="94.3px" viewBox="0 0 107 94.3" style="enable-background:new 0 0 107 94.3;" xml:space="preserve">
<style type="text/css">
	.st0{display:none;}
	.st1{display:inline;fill:#AAFFE5;stroke:#000000;stroke-miterlimit:10;}
	.st2{display:inline;fill:#BF00A1;stroke:#000000;stroke-miterlimit:10;}
	.st3{fill:none;stroke:#FFFFFF;stroke-width:6;stroke-linecap:round;stroke-linejoin:round;stroke-miterlimit:10;}
	.st4{fill:#707070;}
	.st5{fill:none;stroke:#2D2D2E;stroke-width:1.5;stroke-linecap:round;stroke-linejoin:round;stroke-miterlimit:10;}
	.st6{fill:none;stroke:#C6C6C5;stroke-linecap:round;stroke-linejoin:round;stroke-miterlimit:10;}
</style>
<g id="Layer_2_2_" class="st0">
	<rect x="-38.5" y="-23.7" class="st1" width="181" height="160.6"/>
</g>
<g id="Layer_1">
	<g id="Layer_2_1_" class="st0">
		<rect x="-67" y="-65.1" class="st2" width="303" height="270"/>
	</g>
	
		<g id="svg2_3_" inkscape:version="0.48.4 r9939" sodipodi:docname="stomach.svg" xmlns:cc="http://creativecommons.org/ns#" xmlns:dc="http://purl.org/dc/elements/1.1/" xmlns:inkscape="http://www.inkscape.org/namespaces/inkscape" xmlns:rdf="http://www.w3.org/1999/02/22-rdf-syntax-ns#" xmlns:sodipodi="http://sodipodi.sourceforge.net/DTD/sodipodi-0.dtd" xmlns:svg="http://www.w3.org/2000/svg">
		<path class="st3" d="M93.9,76.1c9.7-9.2,8.8-14.6,9.5-27.6c0.3-4.3-3.7-10.5-7.3-13.4c-7.3-5.9-12.8-8.1-21.7-8
			c-9.8,0.1-22.7,2.5-29.7-6.4l0,0C40.4,16.5,40.2,9.6,41.6,4c-1.9,0-8.3-1.1-9.5,0c-1.9,1.6-1.2,10.3-1.1,12.4
			c0.4,7,4.3,10.5,9,15.2c5.6,5.6,13.2,12.4,14.2,20.8C56,66.7,38.7,70.5,27.8,69.8C8.8,65.7,6.2,68.2,5.3,69.5
			c-1.6,2.3-1.6,4.3,2.4,5.9C27.5,66.3,55.4,113.2,93.9,76.1z"/>
		
			<sodipodi:namedview  bordercolor="#666666" borderopacity="1.0" fit-margin-bottom="0" fit-margin-left="0" fit-margin-right="0" fit-margin-top="0" id="base" inkscape:current-layer="g3082" inkscape:cx="87.957404" inkscape:cy="49.945742" inkscape:document-units="px" inkscape:pageopacity="0.0" inkscape:pageshadow="2" inkscape:window-height="1018" inkscape:window-maximized="1" inkscape:window-width="1920" inkscape:window-x="-8" inkscape:window-y="-8" inkscape:zoom="2.8" pagecolor="#ffffff" showgrid="false">
			</sodipodi:namedview>
		<path class="st4" d="M93.9,76.1c9.7-9.2,8.8-14.6,9.5-27.6c0.3-4.3-3.7-10.5-7.3-13.4c-7.3-5.9-12.8-8.1-21.7-8
			c-9.8,0.1-22.7,2.5-29.7-6.4l0,0C40.4,16.5,40.2,9.6,41.6,4c-1.9,0-8.3-1.1-9.5,0c-1.9,1.6-1.2,10.3-1.1,12.4
			c0.4,7,4.3,10.5,9,15.2c5.6,5.6,13.2,12.4,14.2,20.8C56,66.7,38.7,70.5,27.8,69.8C8.8,65.7,6.2,68.2,5.3,69.5
			c-1.6,2.3-1.6,4.3,2.4,5.9C27.5,66.3,55.4,113.2,93.9,76.1z"/>
		<path class="st5" d="M93.9,76.1c9.7-9.2,8.8-14.6,9.5-27.6c0.3-4.3-3.7-10.5-7.3-13.4c-7.3-5.9-12.8-8.1-21.7-8
			c-9.8,0.1-22.7,2.5-29.7-6.4l0,0C40.4,16.5,40.2,9.6,41.6,4c-1.9,0-8.3-1.1-9.5,0c-1.9,1.6-1.2,10.3-1.1,12.4
			c0.4,7,4.3,10.5,9,15.2c5.6,5.6,13.2,12.4,14.2,20.8C56,66.7,38.7,70.5,27.8,69.8C8.8,65.7,6.2,68.2,5.3,69.5
			c-1.6,2.3-1.6,4.3,2.4,5.9C27.5,66.3,55.4,113.2,93.9,76.1z"/>
		<path id="path3072" inkscape:connector-curvature="0" class="st6" d="M50.8,91.7"/>
	</g>
</g>
</svg>
