<?xml version="1.0" encoding="utf-8"?>
<!-- Generator: Adobe Illustrator 21.0.2, SVG Export Plug-In . SVG Version: 6.00 Build 0)  -->
<svg version="1.1" xmlns="http://www.w3.org/2000/svg" xmlns:xlink="http://www.w3.org/1999/xlink" x="0px" y="0px" width="64.3px"
	 height="130.4px" viewBox="0 0 64.3 130.4" style="enable-background:new 0 0 64.3 130.4;" xml:space="preserve">
<style type="text/css">
	.st0{display:none;}
	.st1{display:inline;fill:#0089D4;stroke:#000000;stroke-miterlimit:10;}
	.st2{display:inline;fill:#CE1417;stroke:#000000;stroke-miterlimit:10;}
	.st3{display:inline;fill:#006C85;}
	.st4{display:inline;stroke:#FFFFFF;stroke-miterlimit:10;}
	.st5{fill:none;stroke:#FFFFFF;stroke-width:6;stroke-linecap:round;stroke-linejoin:round;stroke-miterlimit:10;}
	.st6{fill:none;stroke:#2D2D2E;stroke-width:1.5;stroke-linecap:round;stroke-linejoin:round;stroke-miterlimit:10;}
	.st7{fill:#717070;}
	.st8{fill:#006D86;stroke:#E1E0E0;stroke-miterlimit:10;}
	.st9{fill:#006D86;}
	.st10{fill:none;stroke:#E1E0E0;stroke-miterlimit:10;}
	.st11{fill:#016C83;}
</style>
<g id="Layer_2_3_" class="st0">
	<rect x="-16.5" y="-7.1" class="st1" width="88.8" height="147"/>
</g>
<g id="Layer_1">
	<g id="Layer_2" class="st0">
		<rect x="-1.6" y="5.4" class="st2" width="62.9" height="118.1"/>
	</g>
	<g id="Layer_1_2_">
		<g id="Layer_2_2_" class="st0">
			<rect x="-8.7" y="-5.1" class="st3" width="81.3" height="140.8"/>
		</g>
		<g id="Layer_1_1_">
			<g id="Layer_2_1_" class="st0">
				<rect x="-35.5" y="-2.3" class="st4" width="112.1" height="150.2"/>
			</g>
			<path class="st5" d="M43.8,116.4c1.1,0,1.6-0.5,1.6-0.5s1.2-1.2,0-2.7c-1.2-1.5-1.6-4-1.6-4s-0.4,2.6-1.6,4s0,2.7,0,2.7
				S42.7,116.4,43.8,116.4"/>
			<path class="st5" d="M35.2,119c1,0,1.6-0.5,1.6-0.5s1.2-1.2,0-2.7s-1.6-4-1.6-4s-0.4,2.6-1.6,4c-1.2,1.5,0,2.7,0,2.7
				S34.1,119,35.2,119"/>
			<path class="st5" d="M44.9,126.8c1.1,0,1.6-0.5,1.6-0.5s1.2-1.2,0-2.7s-1.6-4-1.6-4s-0.4,2.6-1.6,4c-1.2,1.5,0,2.7,0,2.7
				S43.8,126.8,44.9,126.8"/>
			<polyline class="st5" points="3.1,14.8 40.8,14.8 40.8,35.4 			"/>
			<line class="st5" x1="3.1" y1="126.8" x2="3.1" y2="3.1"/>
			<path class="st5" d="M25.8,90.8c2.3,0,2.3,0,2.3,0v2.4c0,0,0,1.1,1.5,1.7v5h4.6v-5c1.3-0.6,1.3-1.7,1.3-1.7v-2.4h2.1v5.6h0.9v7
				h4.8v-7.1h0.9v-5.6h2v2.4c0,0,0,1.1,1.5,1.7v5h4.6v-5c1.3-0.6,1.3-1.7,1.3-1.7v-2.4c0,0,0,0,2.3,0c5.6,0,5.1-5.2,5.1-5.2
				s0-29.2,0-36.1c0-6.5-5.4-6.1-5.4-6.1s-4.6,0-7,0s-3.1-1.5-3.1-3.3s-1.7-2.1-1.7-2.1h-3.1h-3.1c0,0-1.7,0.2-1.7,2.1
				s-0.7,3.3-3.1,3.3c-2.3,0-7,0-7,0s-5.4-0.4-5.4,6.1c0,7,0,36.1,0,36.1S20.2,90.8,25.8,90.8z"/>
			<polyline class="st6" points="3.1,14.8 40.8,14.8 40.8,38 			"/>
			<line class="st6" x1="3.1" y1="126.8" x2="3.1" y2="3.1"/>
			<g>
				<path class="st7" d="M25.8,90.8c2.3,0,2.3,0,2.3,0v2.4c0,0,0,1.1,1.5,1.7v5h4.6v-5c1.3-0.6,1.3-1.7,1.3-1.7v-2.4h2.1v5.6h0.9v7
					h4.8v-7.1h0.9v-5.6h2v2.4c0,0,0,1.1,1.5,1.7v5h4.6v-5c1.3-0.6,1.3-1.7,1.3-1.7v-2.4c0,0,0,0,2.3,0c5.6,0,5.1-5.2,5.1-5.2
					s0-29.2,0-36.1c0-6.5-5.4-6.1-5.4-6.1s-4.6,0-7,0s-3.1-1.5-3.1-3.3s-1.7-2.1-1.7-2.1h-3.1h-3.1c0,0-1.7,0.2-1.7,2.1
					s-0.7,3.3-3.1,3.3c-2.3,0-7,0-7,0s-5.4-0.4-5.4,6.1c0,7,0,36.1,0,36.1S20.2,90.8,25.8,90.8z"/>
				<path class="st8" d="M26.5,78.6V58c0-1.8,1.5-3.4,3.4-3.4h21.8c1.8,0,3.4,1.5,3.4,3.4v20.6c0,1.8-1.5,3.4-3.4,3.4h-22
					C28,82,26.4,80.5,26.5,78.6z"/>
			</g>
			<path class="st7" d="M25.8,90.8c2.3,0,2.3,0,2.3,0v2.4c0,0,0,1.1,1.5,1.7v5h4.6v-5c1.3-0.6,1.3-1.7,1.3-1.7v-2.4h2.1v5.6h0.9v7
				h4.8v-7.1h0.9v-5.6h2v2.4c0,0,0,1.1,1.5,1.7v5h4.6v-5c1.3-0.6,1.3-1.7,1.3-1.7v-2.4c0,0,0,0,2.3,0c5.6,0,5.1-5.2,5.1-5.2
				s0-29.2,0-36.1c0-6.5-5.4-6.1-5.4-6.1s-4.6,0-7,0s-3.1-1.5-3.1-3.3s-1.7-2.1-1.7-2.1h-3.1h-3.1c0,0-1.7,0.2-1.7,2.1
				s-0.7,3.3-3.1,3.3c-2.3,0-7,0-7,0s-5.4-0.4-5.4,6.1c0,7,0,36.1,0,36.1S20.2,90.8,25.8,90.8z"/>
			<path class="st6" d="M25.8,90.8c2.3,0,2.3,0,2.3,0v2.4c0,0,0,1.1,1.5,1.7v5h4.6v-5c1.3-0.6,1.3-1.7,1.3-1.7v-2.4h2.1v5.6h0.9v7
				h4.8v-7.1h0.9v-5.6h2v2.4c0,0,0,1.1,1.5,1.7v5h4.6v-5c1.3-0.6,1.3-1.7,1.3-1.7v-2.4c0,0,0,0,2.3,0c5.6,0,5.1-5.2,5.1-5.2
				s0-29.2,0-36.1c0-6.5-5.4-6.1-5.4-6.1s-4.6,0-7,0s-3.1-1.5-3.1-3.3s-1.7-2.1-1.7-2.1h-3.1h-3.1c0,0-1.7,0.2-1.7,2.1
				s-0.7,3.3-3.1,3.3c-2.3,0-7,0-7,0s-5.4-0.4-5.4,6.1c0,7,0,36.1,0,36.1S20.2,90.8,25.8,90.8z"/>
			<polygon class="st9" points="28.2,80.8 31.5,82 40.2,82 48.8,82 52,81.6 54.1,80 55.2,78.3 55.2,67.2 26.4,67.2 26.4,78.3 			"/>
			<path class="st10" d="M26.5,78.6V58c0-1.8,1.5-3.4,3.4-3.4h21.8c1.8,0,3.4,1.5,3.4,3.4v20.6c0,1.8-1.5,3.4-3.4,3.4h-22
				C28,82,26.4,80.5,26.5,78.6z"/>
			<path class="st11" d="M43.8,116.4c1.1,0,1.6-0.5,1.6-0.5s1.2-1.2,0-2.7c-1.2-1.5-1.6-4-1.6-4s-0.4,2.6-1.6,4s0,2.7,0,2.7
				S42.7,116.4,43.8,116.4"/>
			<path class="st11" d="M35.2,119c1,0,1.6-0.5,1.6-0.5s1.2-1.2,0-2.7s-1.6-4-1.6-4s-0.4,2.6-1.6,4c-1.2,1.5,0,2.7,0,2.7
				S34.1,119,35.2,119"/>
			<path class="st11" d="M44.9,126.8c1.1,0,1.6-0.5,1.6-0.5s1.2-1.2,0-2.7s-1.6-4-1.6-4s-0.4,2.6-1.6,4c-1.2,1.5,0,2.7,0,2.7
				S43.8,126.8,44.9,126.8"/>
		</g>
	</g>
</g>
</svg>
