<?xml version="1.0" encoding="utf-8"?>
<!-- Generator: Adobe Illustrator 21.0.2, SVG Export Plug-In . SVG Version: 6.00 Build 0)  -->
<svg version="1.1" xmlns="http://www.w3.org/2000/svg" xmlns:xlink="http://www.w3.org/1999/xlink" x="0px" y="0px" width="112.9px"
	 height="48.6px" viewBox="0 0 112.9 48.6" style="enable-background:new 0 0 112.9 48.6;" xml:space="preserve">
<style type="text/css">
	.st0{display:none;}
	.st1{display:inline;stroke:#FFFFFF;stroke-miterlimit:10;}
	.st2{fill:none;stroke:#FFFFFF;stroke-width:6;stroke-miterlimit:10;}
	.st3{fill:#D1D1D1;}
	.st4{fill:#707070;}
	.st5{fill:#EF8122;}
	.st6{fill:none;stroke:#000000;stroke-width:1.5;stroke-miterlimit:10;}
</style>
<g id="Layer_2" class="st0">
	<rect x="-34.4" y="-27.5" class="st1" width="193.7" height="103.1"/>
</g>
<g id="svg2" xmlns:cc="http://creativecommons.org/ns#" xmlns:dc="http://purl.org/dc/elements/1.1/" xmlns:rdf="http://www.w3.org/1999/02/22-rdf-syntax-ns#" xmlns:svg="http://www.w3.org/2000/svg">
	<path id="legib_2_" class="st2" d="M91.9,3.1H56.4H21l0,0c-9.8,0-17.8,9.5-17.8,21.1s8,21.1,17.8,21.1h35.5l0,0h35.5
		c9.8,0,17.8-9.5,17.8-21.1S101.7,3.1,91.9,3.1z"/>
	<path id="path4297" class="st3" d="M91.9,3.1H56.4v42.3h35.5c9.8,0,17.8-9.5,17.8-21.1S101.7,3.1,91.9,3.1z"/>
	<path id="path4299" class="st4" d="M21,3.1h35.5v42.3H21c-9.8,0-17.8-9.5-17.8-21.1S11.1,3.1,21,3.1L21,3.1z"/>
	<ellipse id="ellipse2986-1-1-862-55-4-7-9_35_" class="st5" cx="24.4" cy="30.5" rx="2.6" ry="2.5"/>
	<ellipse id="ellipse2986-1-1-862-55-4-7-9_1_" class="st5" cx="27.1" cy="23.8" rx="2.6" ry="2.5"/>
	<ellipse id="ellipse2986-1-1-862-55-4-7-9_2_" class="st5" cx="29.8" cy="17.1" rx="2.6" ry="2.5"/>
	<ellipse id="ellipse2986-1-1-862-55-4-7-9_5_" class="st5" cx="32.3" cy="28" rx="2.6" ry="2.5"/>
	<ellipse id="ellipse2986-1-1-862-55-4-7-9_4_" class="st5" cx="35" cy="21.3" rx="2.6" ry="2.5"/>
	<ellipse id="ellipse2986-1-1-862-55-4-7-9_3_" class="st5" cx="37.7" cy="14.6" rx="2.6" ry="2.5"/>
	<ellipse id="ellipse2986-1-1-862-55-4-7-9_8_" class="st5" cx="38.4" cy="31.5" rx="2.6" ry="2.5"/>
	<ellipse id="ellipse2986-1-1-862-55-4-7-9_7_" class="st5" cx="41.1" cy="24.8" rx="2.6" ry="2.5"/>
	<ellipse id="ellipse2986-1-1-862-55-4-7-9_6_" class="st5" cx="43.8" cy="18.1" rx="2.6" ry="2.5"/>
	<ellipse id="ellipse2986-1-1-862-55-4-7-9_11_" class="st5" cx="46.6" cy="29" rx="2.6" ry="2.5"/>
	<ellipse id="ellipse2986-1-1-862-55-4-7-9_10_" class="st5" cx="49.3" cy="22.3" rx="2.6" ry="2.5"/>
	<ellipse id="ellipse2986-1-1-862-55-4-7-9_9_" class="st5" cx="52" cy="15.6" rx="2.6" ry="2.5"/>
	<ellipse id="ellipse2986-1-1-862-55-4-7-9_23_" class="st5" cx="52.2" cy="32.9" rx="2.6" ry="2.5"/>
	<ellipse id="ellipse2986-1-1-862-55-4-7-9_22_" class="st5" cx="54.8" cy="26.3" rx="2.6" ry="2.5"/>
	<ellipse id="ellipse2986-1-1-862-55-4-7-9_21_" class="st5" cx="57.5" cy="19.6" rx="2.6" ry="2.5"/>
	<ellipse id="ellipse2986-1-1-862-55-4-7-9_20_" class="st5" cx="60.1" cy="30.5" rx="2.6" ry="2.5"/>
	<ellipse id="ellipse2986-1-1-862-55-4-7-9_19_" class="st5" cx="62.7" cy="23.8" rx="2.6" ry="2.5"/>
	<ellipse id="ellipse2986-1-1-862-55-4-7-9_18_" class="st5" cx="65.4" cy="17.1" rx="2.6" ry="2.5"/>
	<ellipse id="ellipse2986-1-1-862-55-4-7-9_17_" class="st5" cx="66.2" cy="34" rx="2.6" ry="2.5"/>
	<ellipse id="ellipse2986-1-1-862-55-4-7-9_16_" class="st5" cx="68.8" cy="27.3" rx="2.6" ry="2.5"/>
	<ellipse id="ellipse2986-1-1-862-55-4-7-9_15_" class="st5" cx="71.5" cy="20.6" rx="2.6" ry="2.5"/>
	<ellipse id="ellipse2986-1-1-862-55-4-7-9_14_" class="st5" cx="74.3" cy="31.5" rx="2.6" ry="2.5"/>
	<ellipse id="ellipse2986-1-1-862-55-4-7-9_13_" class="st5" cx="77" cy="24.8" rx="2.6" ry="2.5"/>
	<ellipse id="ellipse2986-1-1-862-55-4-7-9_12_" class="st5" cx="79.7" cy="18.1" rx="2.6" ry="2.5"/>
	<ellipse id="ellipse2986-1-1-862-55-4-7-9_36_" class="st5" cx="80.4" cy="35.4" rx="2.6" ry="2.5"/>
	<ellipse id="ellipse2986-1-1-862-55-4-7-9_34_" class="st5" cx="83.1" cy="28.7" rx="2.6" ry="2.5"/>
	<ellipse id="ellipse2986-1-1-862-55-4-7-9_33_" class="st5" cx="85.8" cy="22" rx="2.6" ry="2.5"/>
	<ellipse id="ellipse2986-1-1-862-55-4-7-9_32_" class="st5" cx="88.3" cy="33" rx="2.6" ry="2.5"/>
	<ellipse id="ellipse2986-1-1-862-55-4-7-9_31_" class="st5" cx="91" cy="26.3" rx="2.6" ry="2.5"/>
	<ellipse id="ellipse2986-1-1-862-55-4-7-9_30_" class="st5" cx="93.7" cy="19.6" rx="2.6" ry="2.5"/>
	<ellipse id="ellipse2986-1-1-862-55-4-7-9_26_" class="st5" cx="17.1" cy="27.3" rx="2.6" ry="2.5"/>
	<ellipse id="ellipse2986-1-1-862-55-4-7-9_25_" class="st5" cx="19.8" cy="20.6" rx="2.6" ry="2.5"/>
	<ellipse id="ellipse2986-1-1-862-55-4-7-9_24_" class="st5" cx="22.5" cy="13.9" rx="2.6" ry="2.5"/>
	<path id="outline_1_" class="st6" d="M91.9,3.1H56.4H21l0,0c-9.8,0-17.8,9.5-17.8,21.2s8,21.1,17.8,21.1h35.5l0,0h35.5
		c9.8,0,17.8-9.5,17.8-21.1S101.7,3.1,91.9,3.1z"/>
</g>
</svg>
