<?xml version="1.0" encoding="utf-8"?>
<!-- Generator: Adobe Illustrator 21.0.1, SVG Export Plug-In . SVG Version: 6.00 Build 0)  -->
<svg version="1.1" id="Layer_1" xmlns="http://www.w3.org/2000/svg" xmlns:xlink="http://www.w3.org/1999/xlink" x="0px" y="0px"
	 width="146.1px" height="31px" viewBox="0 0 146.1 31" style="enable-background:new 0 0 146.1 31;" xml:space="preserve">
<style type="text/css">
	.st0{display:none;}
	.st1{display:inline;fill:#EF29D8;}
	.st2{display:inline;fill:#E80F0F;}
	.st3{fill:none;stroke:#FFFFFF;stroke-width:6;stroke-linecap:round;stroke-linejoin:round;stroke-miterlimit:10;}
	.st4{fill:url(#SVGID_1_);}
	.st5{fill:none;stroke:#2D2D2D;stroke-width:1.5;stroke-linecap:round;stroke-linejoin:round;stroke-miterlimit:10;}
	.st6{fill:#006C85;}
	.st7{fill:#208197;}
	.st8{fill:#AEE0E5;}
	.st9{fill:#59A7B6;}
</style>
<g id="Layer_2_1_" class="st0">
	<rect x="-2.5" y="-2.8" class="st1" width="155.7" height="36.8"/>
</g>
<g id="Layer_1_2_">
	<g id="Layer_2" class="st0">
		<rect x="-14.3" y="-11.8" class="st2" width="178" height="56"/>
	</g>
	<g id="Layer_1_1_">
		<path class="st3" d="M143.1,10.9H136c-0.6-4.6-2-7.9-3.6-7.9h-118c-1.6,0-3.1,3.3-3.6,7.9H3v8.7h7.7c0.5,4.9,2,8.4,3.7,8.4h118
			c1.7,0,3.1-3.5,3.7-8.4h7L143.1,10.9L143.1,10.9z"/>
		
			<linearGradient id="SVGID_1_" gradientUnits="userSpaceOnUse" x1="3" y1="16.5" x2="143.1" y2="16.5" gradientTransform="matrix(1 0 0 -1 0 32)">
			<stop  offset="0" style="stop-color:#DCFFFF"/>
			<stop  offset="9.794998e-02" style="stop-color:#AEE0E5"/>
			<stop  offset="0.2111" style="stop-color:#80C2CC"/>
			<stop  offset="0.3287" style="stop-color:#59A7B6"/>
			<stop  offset="0.449" style="stop-color:#3992A4"/>
			<stop  offset="0.573" style="stop-color:#208197"/>
			<stop  offset="0.7021" style="stop-color:#0E758D"/>
			<stop  offset="0.8396" style="stop-color:#036E87"/>
			<stop  offset="1" style="stop-color:#006C85"/>
		</linearGradient>
		<path class="st4" d="M143.1,10.9H136c-0.6-4.6-2-7.9-3.6-7.9h-118c-1.6,0-3.1,3.3-3.6,7.9H3v8.7h7.7c0.5,4.9,2,8.4,3.7,8.4h118
			c1.7,0,3.1-3.5,3.7-8.4h7L143.1,10.9L143.1,10.9z"/>
	</g>
	<path class="st5" d="M143.1,10.9H136c-0.6-4.6-2-7.9-3.6-7.9h-118c-1.6,0-3.1,3.3-3.6,7.9H3v8.7h7.7c0.5,4.9,2,8.4,3.7,8.4h118
		c1.7,0,3.1-3.5,3.7-8.4h7L143.1,10.9L143.1,10.9z"/>
</g>
<circle class="st6" cx="21.8" cy="10.9" r="3.9"/>
<circle class="st6" cx="29.8" cy="21.7" r="2.8"/>
<circle class="st6" cx="32.6" cy="13.7" r="2.8"/>
<circle class="st6" cx="40.5" cy="8.2" r="2.8"/>
<circle class="st7" cx="56.5" cy="21.7" r="2.8"/>
<circle class="st7" cx="73.5" cy="14.2" r="2.8"/>
<circle class="st7" cx="65.4" cy="21.7" r="1.4"/>
<circle class="st7" cx="78.2" cy="9.1" r="1.4"/>
<circle class="st7" cx="67.7" cy="7.7" r="1.8"/>
<ellipse transform="matrix(0.7071 -0.7071 0.7071 0.7071 8.8636 48.0032)" class="st7" cx="62.4" cy="13.3" rx="3.3" ry="3.3"/>
<ellipse transform="matrix(0.7071 -0.7071 0.7071 0.7071 7.1916 60.6931)" class="st7" cx="76.9" cy="21.7" rx="3.3" ry="3.3"/>
<circle class="st6" cx="40.5" cy="18.9" r="1.9"/>
<ellipse transform="matrix(0.7071 -0.7071 0.7071 0.7071 5.2463 38.6767)" class="st6" cx="49.3" cy="13" rx="3.7" ry="3.7"/>
<circle class="st8" cx="132.8" cy="15.5" r="2.8"/>
<circle class="st8" cx="124.8" cy="22.5" r="2.8"/>
<circle class="st9" cx="108.9" cy="9" r="2.8"/>
<circle class="st9" cx="91.8" cy="16.5" r="2.8"/>
<circle class="st9" cx="100" cy="9" r="1.4"/>
<circle class="st9" cx="87.1" cy="21.6" r="1.4"/>
<circle class="st8" cx="118.6" cy="7.7" r="1.4"/>
<circle class="st9" cx="97.7" cy="23" r="1.8"/>
<ellipse transform="matrix(0.7071 -0.7071 0.7071 0.7071 17.8613 77.9238)" class="st9" cx="103" cy="17.4" rx="3.3" ry="3.3"/>
<ellipse transform="matrix(0.7071 -0.7071 0.7071 0.7071 19.5333 65.2339)" class="st9" cx="88.5" cy="9" rx="3.3" ry="3.3"/>
<circle class="st8" cx="124.8" cy="11.8" r="1.9"/>
<ellipse transform="matrix(0.7071 -0.7071 0.7071 0.7071 21.4787 87.2503)" class="st8" cx="116.1" cy="17.7" rx="3.7" ry="3.7"/>
</svg>
