<?xml version="1.0" encoding="UTF-8" standalone="no"?>
<!-- Generator: Adobe Illustrator 21.0.2, SVG Export Plug-In . SVG Version: 6.00 Build 0)  -->

<svg
   xmlns:dc="http://purl.org/dc/elements/1.1/"
   xmlns:cc="http://creativecommons.org/ns#"
   xmlns:rdf="http://www.w3.org/1999/02/22-rdf-syntax-ns#"
   xmlns:svg="http://www.w3.org/2000/svg"
   xmlns="http://www.w3.org/2000/svg"
   xmlns:sodipodi="http://sodipodi.sourceforge.net/DTD/sodipodi-0.dtd"
   xmlns:inkscape="http://www.inkscape.org/namespaces/inkscape"
   version="1.1"
   x="0px"
   y="0px"
   width="50.5px"
   height="59.8px"
   viewBox="0 0 50.5 59.8"
   style="enable-background:new 0 0 50.5 59.8;"
   xml:space="preserve"
   id="svg3529"
   inkscape:version="0.91 r13725"
   sodipodi:docname="psd sensor.svg"><metadata
     id="metadata3566"><rdf:RDF><cc:Work
         rdf:about=""><dc:format>image/svg+xml</dc:format><dc:type
           rdf:resource="http://purl.org/dc/dcmitype/StillImage" /></cc:Work></rdf:RDF></metadata><defs
     id="defs3564" /><sodipodi:namedview
     pagecolor="#ffffff"
     bordercolor="#666666"
     borderopacity="1"
     objecttolerance="10"
     gridtolerance="10"
     guidetolerance="10"
     inkscape:pageopacity="0"
     inkscape:pageshadow="2"
     inkscape:window-width="742"
     inkscape:window-height="480"
     id="namedview3562"
     showgrid="false"
     inkscape:zoom="3.9464883"
     inkscape:cx="25.25"
     inkscape:cy="29.9"
     inkscape:window-x="0"
     inkscape:window-y="0"
     inkscape:window-maximized="0"
     inkscape:current-layer="_x30_" /><style
     type="text/css"
     id="style3531">
	.st0{display:none;}
	.st1{display:inline;fill:#6AADFF;stroke:#000000;stroke-miterlimit:10;}
	.st2{display:inline;fill:#EEE52F;}
	.st3{display:inline;fill:#FFFFFF;}
	.st4{display:inline;fill:#006699;stroke:#006699;stroke-width:0.1498;stroke-linecap:round;stroke-linejoin:round;}
	.st5{fill:none;}
	.st6{fill:none;stroke:#FFFFFF;stroke-width:6;stroke-linecap:round;stroke-linejoin:round;stroke-miterlimit:10;}
	.st7{fill:#FFFFFF;}
	.st8{fill:none;stroke:#707070;stroke-linecap:round;stroke-linejoin:round;stroke-miterlimit:10;}
	.st9{fill:none;stroke:#2D2D2E;stroke-width:1.5;stroke-linecap:round;stroke-linejoin:round;stroke-miterlimit:10;}
</style><g
     id="Layer_2_1_"
     class="st0"><rect
       x="-10.5"
       y="-4.1"
       class="st1"
       width="66.9"
       height="70.1"
       id="rect3534" /></g><g
     id="Layer_1"><g
       id="Layer_2"
       class="st0"><rect
         x="-70.1"
         y="-60.3"
         class="st2"
         width="242"
         height="197.7"
         id="rect3538" /></g><g
       id="_x30_"
       inkscape:version="0.48.4 r9939"
       sodipodi:docname="pid controller.svg"><sodipodi:namedview
         bordercolor="#666666"
         borderopacity="1"
         gridtolerance="10"
         guidetolerance="10"
         id="namedview9"
         inkscape:current-layer="1"
         inkscape:cx="100.91701"
         inkscape:cy="50.283773"
         inkscape:pageopacity="0"
         inkscape:pageshadow="2"
         inkscape:window-height="1018"
         inkscape:window-maximized="1"
         inkscape:window-width="1920"
         inkscape:window-x="-8"
         inkscape:window-y="-8"
         inkscape:zoom="2.8405582"
         objecttolerance="10"
         pagecolor="#ffffff"
         showgrid="true"><inkscape:grid
           id="grid2986"
           type="xygrid" /></sodipodi:namedview><g
         id="_x31_"
         class="st0"><path
           id="_x32_"
           inkscape:connector-curvature="0"
           class="st3"
           d="M-16.1,34.3v-2.8l0.3-2.8l0.3-2.7l0.4-2.7l0.7-2.7l0.6-2.5     l0.9-2.5l1-2.5l1-2.4l1.2-2.4l1.3-2.2l1.5-2.2l1.5-2.1l1.6-2.1l1.6-2.1l1.8-1.8L1.5-6l1.9-1.8l2.1-1.6l2.2-1.5l2.1-1.3l2.4-1.3     l2.2-1.2l3-1.7l2.4-0.9l2.5-0.9l2.8-0.7l2.5-0.6l2.7-0.4l2.9-0.5l2.7-0.1h2.8h2.8l2.9,0.1l2.7,0.4l2.7,0.4l2.7,0.6l2.5,0.7     l2.5,0.9l2.6,1l2.4,1.2l2.4,1.2l2.2,1.3l2.2,1.3l2.1,1.5l2.1,1.6l1.9,1.8l1.9,1.8l1.8,1.8l1.8,2.1l1.6,2.1L84,3.4l1.3,2.2     l1.3,2.2l1.2,2.4l1,2.4l1,2.5l0.9,2.5l0.7,2.5l0.6,2.7l0.4,2.7l0.3,2.7L93,31v2.8v2.7l-0.3,2.8L92.4,42L92,44.7l-0.6,2.7     l-0.7,2.5l-0.9,2.5l-1,2.5l-1,2.4l-1.2,2.4l-1.3,2.2L84,64.1l-1.5,2.2l-1.6,1.9l-1.8,2.1l-1.8,1.8L75.4,74l-1.9,1.6l-2.1,1.6     l-2.1,1.5l-2.2,1.5l-2.2,1.3l-2.4,1.2l-2.4,1l-2.5,1l-2.5,0.7l-2.5,0.7l-2.7,0.6l-2.7,0.6l-2.7,0.3l-2.8,0.1l-2.8,0.1l-2.8-0.1     l-2.7-0.1l-2.7-0.3l-2.8-0.6l-2.5-0.6l-2.7-0.7l-2.5-0.7l-2.4-1l-2.5-1l-2.2-1.2l-2.4-1.3l-2.1-1.5l-2.2-1.5l-2.1-1.6L2.4,74     l-1.9-1.9l-2.4-0.9l-1.6-2.1l-1.6-1.9L-6.6,65l-1.6-2.4l-1.3-2.2l-1.2-2.4l-1-2.4l-1-2.5l-0.9-2.5l-0.6-2.5l-0.7-2.7l-0.4-2.7     l-0.3-2.7l-0.3-2.8C-16.1,37-16.1,34.3-16.1,34.3z" /><path
           id="_x33_"
           inkscape:connector-curvature="0"
           class="st4"
           d="M-18.6,34.3v-2.8l0.3-2.9l0.3-2.8l0.4-2.8l0.7-2.7l0.7-2.7     l0.7-2.5l1-2.7l1.2-2.4l1.2-2.4l1.3-2.4l1.5-2.4l1.5-2.1L-6-1.5l1.6-1.9l1.9-1.9l1.9-1.9L1.5-9l2.1-1.6l2.2-1.5L8-13.6l2.4-1.3     l2.4-1.3l2.4-1l2.7-1l2.5-0.9l3.2-1.3l2.7-0.6l2.8-0.4l2.8-0.4l2.8-0.1l2.8-0.1l2.8,0.1l3,0.1l2.7,0.4l3.1,0.4l2.7,0.6l2.7,0.7     l2.7,0.9l2.5,1l2.4,1l2.5,1.3l2.2,1.3l2.4,1.3l2.1,1.6l2.2,1.6l1.9,1.8l1.9,1.8l1.9,1.9L81-2.1L82.6,0l1.5,2.2l1.5,2.2l1.3,2.4     l1.3,2.4l1,2.5l1,2.5l0.9,2.7l0.7,2.5l0.6,2.8l0.4,2.7l0.4,2.8l0.1,2.8l0.1,3l-0.1,2.8l-0.1,2.8l-0.3,2.8l-0.6,2.7l-0.6,2.8     L91,50.1l-0.9,2.5l-1,2.5l-1,2.5L86.9,60l-1.5,2.4l-1.3,2.2l-1.6,2.2l-1.6,2.1L79.1,71l-1.8,1.9l-1.9,1.8l-2.1,1.8l-2.1,1.6     L69,79.7l-2.2,1.5l-2.4,1.3L62,83.7l-2.5,1.2L57,85.8l-2.5,0.9l-2.7,0.7l-2.7,2.2L46.4,90l-2.8,0.3l-2.8,0.3H38h-3l-2.8-0.3     L29.4,90l-2.7-0.4L23.9,89l-2.5-0.7l-2.7-0.9l-2.5-1l-2.5-1.2L11.3,84l-2.4-1.3l-2.2-1.5l-2.2-1.5l-2.1-1.6l-2.1-1.8l-1.9-1.9     l-2.3-2.2l-1.8-1.9l-1.6-2.2L-8.9,66l-1.5-2.4l-1.5-2.5l-1.2-2.4l-1.2-2.4l-0.9-2.5l-0.9-2.7l-0.7-2.7l-0.7-2.7l-0.4-2.8     l-0.3-2.7l-0.3-3v-2.9H-18.6z M-15.5,37l0.1,2.7l0.4,2.7l0.4,2.5l0.6,2.5l0.6,2.5l0.9,2.5l0.9,2.4l1.2,2.4l1,2.2l1.3,2.2l1.3,2.1     l1.5,2.1l1.6,2.1l1.6,1.9l1.8,1.8l1.8,1.8L3.4,75l1.9,1.6l2.1,1.5l2.2,1.3l2.1,1.2l2.4,1.2l2.4,1l2.4,1l2.4,0.7l2.5,0.7l2.5,0.6     l2.7,0.4l2.7,0.4l2.7,0.1l2.7,0.1l2.7-0.1l2.7-0.1l2.7-0.4l2.7-0.4l2.5-0.6l2.5-0.6l2.4-0.9l2.5-0.9l2.2-1l2.4-1.2l2.1-1.3     l2.2-1.3l2.1-1.5l1.9-1.6l1.9-1.6l1.9-1.8l1.6-1.8l1.8-1.9l1.5-1.9l1.5-2.1l1.3-2.2l1.3-2.1l1.2-2.4l1-2.4l0.9-2.4l0.9-2.4     l0.7-2.5l0.6-2.5l0.4-2.7l0.3-2.7l0.3-2.7v-2.7v-2.5l-0.3-2.7l-0.3-2.7l-0.4-2.7L88.2,21l-0.7-2.5l-0.9-2.4l-0.9-2.4l-1-2.4     l-1.2-2.4l-1.2-2.1l-1.5-2.2l-1.5-2.1l-1.5-1.9l-1.6-1.9l-1.8-1.9l-1.8-1.6l-1.9-1.8l-1.1-1.8l-2.1-1.5l-2.1-1.3l-2.2-1.3     L61-13.7l-2.4-1l-2.4-0.9l-2.5-0.9l-2.6-0.9L48.6-18l-2.5-0.4l-2.7-0.3l-2.7-0.1L38-18.9l-2.8,0.1l-2.7,0.1l-2.7,0.3L27.1-18     l-2.6,0.6L22-16.7l-2.5,0.9l-2.4,0.9l-2.4,1l-2.2,1.2l-2.3,1.3L8.1-9.9L6-8.4L3.9-6.9L2-5.3L0.1-3.5l-1.8,1.8l-1.6,1.9l-1.6,2.1     l-1.5,2.1l-1.4,2.2L-9,8.8l-1.2,2.2l-1,2.4l-1,2.4l-0.7,2.5l-0.7,2.5l-0.6,2.5l-0.7,2.7l-0.4,2.7l-0.1,2.7v2.8     C-15.5,34.3-15.5,37-15.5,37z" /></g><line
         class="st5"
         x1="25.4"
         y1="45.4"
         x2="25.4"
         y2="56.9"
         id="line3546" /><circle
         class="st5"
         cx="25.4"
         cy="25.1"
         r="21.9"
         id="circle3548" /><circle
         class="st6"
         cx="25.4"
         cy="25.1"
         r="21.9"
         id="circle3550" /><line
         class="st6"
         x1="25.4"
         y1="45.4"
         x2="25.4"
         y2="56.9"
         id="line3552" /><circle
         class="st7"
         cx="25.4"
         cy="25.1"
         r="21.9"
         id="circle3554" /><path
         class="st8"
         d="m 7.3,36.2 c 0,0 3.6,-1.1 4.4,-1.9 0.9,-0.7 2.3,-3.2 2.9,-5.2 0.4,-2 1,-5.2 2.2,-5 1.1,0.1 0.6,1.9 1.9,1.7 1.3,-0.1 5.4,-15.6 7.9,-15.8 2.5,-0.2 11,27.2 16.3,27"
         id="path3556"
         transformBehaviour="pinned"
         inkscape:connector-curvature="0"
         style="fill:none;stroke:#707070;stroke-linecap:round;stroke-linejoin:round;stroke-miterlimit:10" /><line
         class="st9"
         x1="25.4"
         y1="47.7"
         x2="25.4"
         y2="56.9"
         id="line3558" /><circle
         class="st9"
         cx="25.4"
         cy="25.1"
         r="21.9"
         id="circle3560" /></g></g></svg>