<?xml version="1.0" encoding="utf-8"?>
<!-- Generator: Adobe Illustrator 21.1.0, SVG Export Plug-In . SVG Version: 6.00 Build 0)  -->
<svg version="1.1" id="Layer_1" xmlns="http://www.w3.org/2000/svg" xmlns:xlink="http://www.w3.org/1999/xlink" x="0px" y="0px"
	 width="80.4px" height="132px" viewBox="0 0 80.4 132" style="enable-background:new 0 0 80.4 132;" xml:space="preserve">
<style type="text/css">
	.st0{fill:none;stroke:#FFFFFF;stroke-width:6;stroke-linecap:round;stroke-linejoin:round;stroke-miterlimit:10;}
	.st1{fill:#6F6F6F;}
	.st2{fill:#006C84;}
	.st3{fill:#F5821F;}
	.st4{fill:none;stroke:#D1D1D1;stroke-linecap:round;stroke-linejoin:round;stroke-miterlimit:10;}
	.st5{fill:none;stroke:#2D2D2D;stroke-width:1.5;stroke-linecap:round;stroke-linejoin:round;stroke-miterlimit:10;}
</style>
<polygon class="st0" points="59.2,91.4 54.1,91.4 70.2,79.7 70.2,3.3 3,3.3 3,79.7 19.1,91.4 10.4,91.4 10.4,128.9 59.2,128.9 
	77.3,109.9 "/>
<polygon class="st1" points="59.2,91.4 54.1,91.4 70.2,79.7 70.2,3.3 3,3.3 3,79.7 19.1,91.4 10.4,91.4 10.4,128.9 59.2,128.9 
	77.3,109.9 "/>
<polygon class="st2" points="3,55 3,79.7 19.1,91.4 10.4,91.4 10.4,128.9 59.2,128.9 77.3,109.9 59.2,91.4 54.1,91.4 70.2,79.7 
	70.3,53.4 68.3,54.1 66,55 62.8,55.3 59.6,54.1 57.6,53.3 55.2,53.3 52.5,54.4 49.6,55 46.2,54.8 43.3,53.4 40.6,53.3 37.3,54.5 
	35.3,55 32.2,55 29.6,54.2 27.5,53.3 24.8,53.4 21.6,54.7 18.8,55 15.9,54.7 12.9,53.4 11.2,53.3 8.9,53.3 6.6,54.7 "/>
<polygon class="st3" points="56,82.5 51.2,82.1 50.4,84.3 51.7,85.4 53.2,85.4 "/>
<polygon class="st3" points="31.4,103.4 26.6,103 25.8,105.2 27.1,106.3 28.6,106.3 "/>
<polygon class="st3" points="41.5,85.6 43.3,81.1 41.7,79.7 40.2,80.5 39.7,82 "/>
<polygon class="st3" points="38.6,98.8 43.4,99.5 44.4,97.6 43.3,96.3 41.7,96.2 "/>
<polygon class="st3" points="26.8,74.9 25.8,72.6 23.5,71.8 22,72.9 21.4,74.6 22.7,75.6 25,75.9 "/>
<polygon class="st3" points="24.4,93 23.7,95.4 24.9,97.5 26.8,97.6 28.3,96.7 28,95.1 26.4,93.4 "/>
<polygon class="st3" points="60.3,125 59.3,122.7 57,121.9 55.5,123 54.9,124.7 56.2,125.7 58.5,126 "/>
<polygon class="st3" points="63.6,111.2 62.6,108.9 60.3,108.1 58.8,109.2 58.2,110.9 59.5,111.9 61.8,112.2 "/>
<polygon class="st3" points="63.7,62.8 61.5,63.9 60.9,66.4 62.2,67.7 63.8,68.2 64.7,66.9 64.8,64.6 "/>
<polygon class="st3" points="15,74.9 13.2,74.3 10.9,74.9 10.9,77 13,77.7 14.3,76.6 "/>
<polygon class="st3" points="66,75.1 61.5,72.5 59.1,72.5 57.3,74.8 56,77.4 58.3,78.8 61.5,79.7 63.7,78.8 "/>
<polygon class="st3" points="57.6,102 56,97.1 54.2,95.5 51.3,96 48.6,97.1 49.4,99.7 51.2,102.5 53.4,103.3 "/>
<polygon class="st3" points="38.6,116.8 34.1,114.2 31.7,114.2 29.9,116.5 28.6,119.1 30.9,120.5 34.1,121.4 36.3,120.5 "/>
<polygon class="st3" points="28.6,84.1 27.6,81.3 26,79.8 23.8,79.3 21.2,80.3 19.6,82.9 20.2,86.4 21.7,88 24.2,88 27.3,87 "/>
<polygon class="st3" points="38.6,90.8 37.4,88.8 36.1,88 34.5,88 32.7,89.2 31.9,91.3 32.9,93.8 34.2,94.6 36,94.4 38.1,93.1 "/>
<polygon class="st3" points="21.6,100.9 20.4,98.9 19.1,98.1 17.5,98.1 15.7,99.3 14.9,101.4 15.9,103.9 17.2,104.7 19,104.5 
	21.1,103.2 "/>
<polygon class="st3" points="52.5,64.8 51.5,66.4 48.4,67.4 45,64.1 45.6,62.3 48.8,60.8 51.7,63.4 "/>
<polygon class="st3" points="23.3,124.6 22.3,126.2 19.2,127.2 15.8,123.9 16.4,122.1 19.6,120.6 22.5,123.2 "/>
<polygon class="st3" points="45.8,77.4 44.5,75.9 44.7,72.6 48.8,70.3 50.2,71.6 50.7,75.1 47.3,77 "/>
<polygon class="st3" points="15,68.7 12.2,63.3 7.9,63.3 8.9,65.6 9.9,66.9 "/>
<polygon class="st3" points="30.1,66.1 29.1,63.6 27.3,61.8 20.6,61.8 18.3,64.9 20.1,67.5 21.7,69.2 27.8,69.2 "/>
<polygon class="st3" points="45.2,118.3 47.8,119 50.3,118.6 54.3,113.3 53.2,109.6 50,109.4 47.7,109.7 44.1,114.6 "/>
<polygon class="st3" points="30.9,77 32,78.7 34.2,79.5 35.3,77.9 34.2,76.1 32.4,76.1 "/>
<polygon class="st3" points="39.4,124.8 40.5,126.5 42.7,127.3 43.8,125.7 42.7,123.9 40.9,123.9 "/>
<polygon class="st3" points="37.2,105.5 38.3,107.2 40.5,108 41.6,106.4 40.5,104.6 38.7,104.6 "/>
<polygon class="st3" points="19.2,113.4 20.3,115.1 22.5,115.9 23.6,114.3 22.5,112.5 20.7,112.5 "/>
<polygon class="st3" points="36.8,65.9 35.3,67.9 35.6,70.2 37.3,71 38.9,70.8 39.4,69.2 38.6,66.9 "/>
<polygon class="st3" points="44.5,89 44.7,91.5 46.5,92.9 48.1,92.6 49.2,91.3 48.6,89.8 46.5,88.5 "/>
<g>
	<path class="st4" d="M3.7,55c4.8,0,3.7-1.8,7.5-1.8s2.3,1.8,7.6,1.8c4.8,0,3.8-1.8,7.5-1.8s2.3,1.8,7.6,1.8c4.8,0,3.8-1.8,7.5-1.8
		S43.7,55,49,55c4.8,0,3.8-1.8,7.5-1.8c3.7,0,2.3,1.8,7.6,1.8"/>
	<path class="st4" d="M70.3,53.4c-2.2,0.3-2,1.6-6.1,1.6"/>
</g>
<polygon class="st5" points="59.2,91.4 54.1,91.4 70.2,79.7 70.2,3.3 3,3.3 3,79.7 19.1,91.4 10.4,91.4 10.4,128.9 59.2,128.9 
	77.3,109.9 "/>
</svg>
