<?xml version="1.0" encoding="UTF-8" standalone="no"?>
<!-- Generator: Adobe Illustrator 21.0.2, SVG Export Plug-In . SVG Version: 6.00 Build 0)  -->

<svg
   xmlns:dc="http://purl.org/dc/elements/1.1/"
   xmlns:cc="http://creativecommons.org/ns#"
   xmlns:rdf="http://www.w3.org/1999/02/22-rdf-syntax-ns#"
   xmlns:svg="http://www.w3.org/2000/svg"
   xmlns="http://www.w3.org/2000/svg"
   xmlns:sodipodi="http://sodipodi.sourceforge.net/DTD/sodipodi-0.dtd"
   xmlns:inkscape="http://www.inkscape.org/namespaces/inkscape"
   version="1.1"
   x="0px"
   y="0px"
   width="50.5px"
   height="50.5px"
   viewBox="0 0 50.5 50.5"
   style="enable-background:new 0 0 50.5 50.5;"
   xml:space="preserve"
   id="svg4717"
   inkscape:version="0.91 r13725"
   sodipodi:docname="single_compartment_PK.svg"><metadata
     id="metadata4744"><rdf:RDF><cc:Work
         rdf:about=""><dc:format>image/svg+xml</dc:format><dc:type
           rdf:resource="http://purl.org/dc/dcmitype/StillImage" /></cc:Work></rdf:RDF></metadata><defs
     id="defs4742" /><sodipodi:namedview
     pagecolor="#ffffff"
     bordercolor="#666666"
     borderopacity="1"
     objecttolerance="10"
     gridtolerance="10"
     guidetolerance="10"
     inkscape:pageopacity="0"
     inkscape:pageshadow="2"
     inkscape:window-width="742"
     inkscape:window-height="480"
     id="namedview4740"
     showgrid="false"
     inkscape:zoom="4.6732673"
     inkscape:cx="25.25"
     inkscape:cy="25.25"
     inkscape:window-x="0"
     inkscape:window-y="0"
     inkscape:window-maximized="0"
     inkscape:current-layer="svg2" /><style
     type="text/css"
     id="style4719">
	.st0{display:none;}
	.st1{display:inline;fill:#1EFF00;stroke:#000000;stroke-miterlimit:10;}
	.st2{fill:none;stroke:#FFFFFF;stroke-width:6;stroke-linecap:round;stroke-linejoin:round;stroke-miterlimit:10;}
	.st3{fill:#6F6F6F;}
	.st4{fill:none;stroke:#2D2D2D;stroke-width:1.5;stroke-linecap:round;stroke-linejoin:round;stroke-miterlimit:10;}
	.st5{fill:#C0C0C0;}
</style><g
     id="Layer_2"
     class="st0"><rect
       x="-2.6"
       y="-4.7"
       class="st1"
       width="63.5"
       height="59.6"
       id="rect4722" /></g><g
     id="Layer_1"><g
       id="g7" /><g
       id="svg2"
       inkscape:version="0.48.4 r"
       sodipodi:docname="PK1.png"><sodipodi:namedview
         bordercolor="#666666"
         borderopacity="1.0"
         id="base"
         inkscape:current-layer="layer1"
         inkscape:cx="691.40998"
         inkscape:cy="451.42319"
         inkscape:document-units="px"
         inkscape:pageopacity="0.0"
         inkscape:pageshadow="2"
         inkscape:window-height="1018"
         inkscape:window-maximized="1"
         inkscape:window-width="1920"
         inkscape:window-x="-8"
         inkscape:window-y="-8"
         inkscape:zoom="0.35"
         pagecolor="#ffffff"
         showgrid="false" /><path
         class="st2"
         d="M47.7,42.1c0,2.9-2.4,5.4-5.4,5.4H8.5c-2.9,0-5.4-2.4-5.4-5.4V8.4c0-2.9,2.4-5.4,5.4-5.4h33.7    c2.9,0,5.4,2.4,5.4,5.4C47.7,8.4,47.7,42.1,47.7,42.1z"
         id="path4728" /><path
         class="st3"
         d="M47.7,42.1c0,2.9-2.4,5.4-5.4,5.4H8.5c-2.9,0-5.4-2.4-5.4-5.4V8.4c0-2.9,2.4-5.4,5.4-5.4h33.7    c2.9,0,5.4,2.4,5.4,5.4C47.7,8.4,47.7,42.1,47.7,42.1z"
         id="path4730" /><path
         class="st4"
         d="M47.7,42.1c0,2.9-2.4,5.4-5.4,5.4H8.5c-2.9,0-5.4-2.4-5.4-5.4V8.4c0-2.9,2.4-5.4,5.4-5.4h33.7    c2.9,0,5.4,2.4,5.4,5.4C47.7,8.4,47.7,42.1,47.7,42.1z"
         id="path4732" /><circle
         class="st5"
         cx="25.2"
         cy="25.3"
         r="13.5"
         id="circle4734" /><g
         id="g4736"
         transformBehaviour="pinned"><path
           class="st3"
           d="m 24.6,21.9 c -0.2,0.2 -0.6,0.3 -0.8,0.3 -0.2,0 -0.6,-0.1 -0.8,-0.3 -0.2,-0.2 -0.3,-0.6 -0.3,-0.8 0,-0.3 0.1,-0.6 0.3,-0.8 l 2.9,-2.9 c 0.3,-0.3 0.8,-0.5 1.2,-0.2 0.2,0.1 0.5,0.2 0.6,0.5 0.1,0.2 0.2,0.5 0.2,0.7 l 0,14.5 c 0,0.3 -0.1,0.6 -0.3,0.8 C 27.4,33.9 27,34 26.8,34 26.5,34 26.2,33.9 26,33.7 25.8,33.5 25.7,33.1 25.7,32.9 l 0,-11.9 c -0.1,0.1 -0.2,0.2 -0.3,0.3 -0.1,0.1 -0.2,0.2 -0.3,0.3 -0.3,0.1 -0.4,0.2 -0.5,0.3 z"
           id="path4738"
           inkscape:connector-curvature="0"
           style="fill:#6f6f6f" /></g></g></g></svg>