<?xml version="1.0" encoding="UTF-8" standalone="no"?>
<!-- Generator: Adobe Illustrator 21.0.2, SVG Export Plug-In . SVG Version: 6.00 Build 0)  -->

<svg
   xmlns:dc="http://purl.org/dc/elements/1.1/"
   xmlns:cc="http://creativecommons.org/ns#"
   xmlns:rdf="http://www.w3.org/1999/02/22-rdf-syntax-ns#"
   xmlns:svg="http://www.w3.org/2000/svg"
   xmlns="http://www.w3.org/2000/svg"
   xmlns:sodipodi="http://sodipodi.sourceforge.net/DTD/sodipodi-0.dtd"
   xmlns:inkscape="http://www.inkscape.org/namespaces/inkscape"
   version="1.1"
   id="Layer_1"
   x="0px"
   y="0px"
   width="68.4px"
   height="41.1px"
   viewBox="0 0 68.4 41.1"
   style="enable-background:new 0 0 68.4 41.1;"
   xml:space="preserve"
   inkscape:version="0.91 r13725"
   sodipodi:docname="slurry source.svg"><metadata
     id="metadata4005"><rdf:RDF><cc:Work
         rdf:about=""><dc:format>image/svg+xml</dc:format><dc:type
           rdf:resource="http://purl.org/dc/dcmitype/StillImage" /></cc:Work></rdf:RDF></metadata><defs
     id="defs4003" /><sodipodi:namedview
     pagecolor="#ffffff"
     bordercolor="#666666"
     borderopacity="1"
     objecttolerance="10"
     gridtolerance="10"
     guidetolerance="10"
     inkscape:pageopacity="0"
     inkscape:pageshadow="2"
     inkscape:window-width="742"
     inkscape:window-height="480"
     id="namedview4001"
     showgrid="false"
     inkscape:zoom="4.2105262"
     inkscape:cx="34.200001"
     inkscape:cy="20.549999"
     inkscape:window-x="0"
     inkscape:window-y="0"
     inkscape:window-maximized="0"
     inkscape:current-layer="Layer_1" /><style
     type="text/css"
     id="style3941">
	.st0{display:none;}
	.st1{display:inline;fill:#DBD621;stroke:#000000;stroke-miterlimit:10;}
	.st2{fill:none;stroke:#FFFFFF;stroke-width:6;stroke-linecap:round;stroke-linejoin:round;stroke-miterlimit:10;}
	.st3{fill:#006C84;}
	.st4{fill:none;stroke:#D2D2D2;stroke-linecap:round;stroke-linejoin:round;stroke-miterlimit:10;}
	.st5{enable-background:new    ;}
	.st6{fill:#D2D2D2;}
	.st7{fill:none;stroke:#2D2D2E;stroke-width:1.5;stroke-linecap:round;stroke-linejoin:round;stroke-miterlimit:10;}
	.st8{fill:#EF8124;}
</style><g
     id="Layer_2"
     class="st0"><rect
       x="-31.8"
       y="-34.4"
       class="st1"
       width="136"
       height="105"
       id="rect3944" /></g><polygon
     class="st2"
     points="48.5,38 3,38 3,3 48.5,3 65.4,20.3 "
     id="polygon3946" /><polygon
     class="st3"
     points="48.5,38 3,38 3,3 48.5,3 65.4,20.3 "
     id="polygon3948" /><polyline
     class="st4"
     points="46.3,34.8 60.5,20.5 46.3,6.3 "
     id="polyline3950" /><g
     class="st5"
     id="g3952"
     transformBehaviour="pinned"
     style="enable-background:new"><path
       class="st6"
       d="m 48.1,23 c 0.1,-0.1 0.2,-0.2 0.3,-0.3 0.1,-0.1 0.1,-0.2 0.1,-0.4 0,-0.3 -0.1,-0.5 -0.3,-0.7 l -1.9,-2 c -0.2,-0.2 -0.4,-0.4 -0.5,-0.7 -0.1,-0.3 -0.1,-0.6 -0.1,-0.8 0,-0.3 0.1,-0.6 0.2,-0.8 0.1,-0.2 0.3,-0.5 0.6,-0.6 0.2,-0.2 0.5,-0.3 0.8,-0.4 0.3,-0.1 0.6,-0.1 0.8,0 0.3,0.1 0.5,0.2 0.8,0.3 0.2,0.2 0.4,0.4 0.6,0.6 0.1,0.1 0.1,0.3 0.1,0.4 0,0.2 -0.1,0.3 -0.3,0.4 -0.1,0.1 -0.3,0.1 -0.4,0.1 -0.2,0 -0.3,-0.1 -0.3,-0.3 -0.1,-0.2 -0.3,-0.4 -0.6,-0.4 -0.3,0 -0.5,0 -0.7,0.2 -0.2,0.2 -0.3,0.4 -0.3,0.6 0,0.3 0.1,0.5 0.2,0.7 l 1.9,2 c 0.2,0.2 0.4,0.5 0.5,0.7 0.1,0.3 0.1,0.6 0.1,0.9 0,0.3 -0.1,0.6 -0.3,0.8 -0.1,0.3 -0.3,0.5 -0.6,0.7 -0.2,0.2 -0.5,0.3 -0.8,0.4 -0.3,0.1 -0.6,0.1 -0.9,0 -0.3,-0.1 -0.6,-0.2 -0.8,-0.4 -0.2,-0.2 -0.4,-0.4 -0.6,-0.6 -0.1,-0.1 -0.1,-0.3 -0.1,-0.4 0,-0.2 0.1,-0.3 0.3,-0.4 0.1,-0.1 0.3,-0.1 0.4,-0.1 0.1,0 0.3,0.1 0.4,0.3 0.1,0.2 0.3,0.4 0.6,0.4 0.4,0 0.6,-0.1 0.8,-0.2 z"
       id="path3954"
       inkscape:connector-curvature="0"
       style="fill:#d2d2d2" /><path
       class="st6"
       d="M 50.8,24.1 C 50.7,24 50.6,23.9 50.6,23.7 l 0,-6.9 c 0,-0.2 0.1,-0.3 0.2,-0.4 0.1,-0.1 0.2,-0.2 0.4,-0.2 0.2,0 0.3,0.1 0.4,0.2 0.1,0.1 0.2,0.2 0.2,0.4 l 0,6.3 1.8,0 c 0.2,0 0.3,0.1 0.4,0.2 0.1,0.1 0.2,0.2 0.2,0.4 0,0.2 -0.1,0.3 -0.2,0.4 -0.1,0.1 -0.2,0.2 -0.4,0.2 l -2.4,0 c -0.2,0 -0.3,-0.1 -0.4,-0.2 z"
       id="path3956"
       inkscape:connector-curvature="0"
       style="fill:#d2d2d2" /></g><polygon
     class="st7"
     points="48.5,38 3,38 3,3 48.5,3 65.4,20.3 "
     id="polygon3958" /><g
     id="Layer_1_1_"><g
       id="g3961"><circle
         class="st8"
         cx="8.1"
         cy="7.9"
         r="1.5"
         id="circle3963" /><circle
         class="st8"
         cx="14.3"
         cy="12.6"
         r="1.5"
         id="circle3965" /><circle
         class="st8"
         cx="17.8"
         cy="6.9"
         r="1.5"
         id="circle3967" /><circle
         class="st8"
         cx="26"
         cy="7.9"
         r="1.5"
         id="circle3969" /><circle
         class="st8"
         cx="31.5"
         cy="16.2"
         r="1.5"
         id="circle3971" /><circle
         class="st8"
         cx="8.9"
         cy="17.2"
         r="1.5"
         id="circle3973" /><circle
         class="st8"
         cx="17.3"
         cy="22.8"
         r="1.5"
         id="circle3975" /><circle
         class="st8"
         cx="14.8"
         cy="33.3"
         r="1.5"
         id="circle3977" /><circle
         class="st8"
         cx="8.1"
         cy="33.9"
         r="1.5"
         id="circle3979" /><circle
         class="st8"
         cx="21.7"
         cy="15.7"
         r="1.5"
         id="circle3981" /><circle
         class="st8"
         cx="29"
         cy="24.3"
         r="1.5"
         id="circle3983" /><circle
         class="st8"
         cx="40.2"
         cy="18.3"
         r="1.5"
         id="circle3985" /><circle
         class="st8"
         cx="35.7"
         cy="9.4"
         r="1.5"
         id="circle3987" /><circle
         class="st8"
         cx="41.7"
         cy="6.9"
         r="1.5"
         id="circle3989" /><circle
         class="st8"
         cx="23"
         cy="28.5"
         r="1.5"
         id="circle3991" /><circle
         class="st8"
         cx="37.2"
         cy="26.5"
         r="1.5"
         id="circle3993" /><circle
         class="st8"
         cx="40.2"
         cy="33.3"
         r="1.5"
         id="circle3995" /><circle
         class="st8"
         cx="30.5"
         cy="33.9"
         r="1.5"
         id="circle3997" /><circle
         class="st8"
         cx="11.9"
         cy="27"
         r="1.5"
         id="circle3999" /></g></g></svg>