<?xml version="1.0" encoding="utf-8"?>
<!-- Generator: Adobe Illustrator 21.0.2, SVG Export Plug-In . SVG Version: 6.00 Build 0)  -->
<svg version="1.1" xmlns="http://www.w3.org/2000/svg" xmlns:xlink="http://www.w3.org/1999/xlink" x="0px" y="0px" width="56.6px"
	 height="74.3px" viewBox="0 0 56.6 74.3" style="enable-background:new 0 0 56.6 74.3;" xml:space="preserve">
<style type="text/css">
	.st0{display:none;}
	.st1{display:inline;fill:#D2D2D2;}
	.st2{display:none;fill:#AFCC32;}
	.st3{display:none;fill:none;stroke:#000000;stroke-width:2.6906;stroke-linecap:round;stroke-linejoin:round;}
	.st4{display:none;fill:none;stroke:#000000;stroke-width:2.6906;stroke-linecap:round;}
	.st5{fill:none;stroke:#FFFFFF;stroke-width:6;stroke-miterlimit:10;}
	.st6{fill:#6F6F6F;}
	.st7{fill:none;stroke:#D2D2D2;stroke-linecap:round;stroke-linejoin:round;}
	.st8{fill:none;stroke:#000000;stroke-width:1.5;stroke-miterlimit:10;}
</style>
<g id="Layer_2_1_" class="st0">
	<rect x="-23.2" y="-9" class="st1" width="94" height="96.7"/>
</g>
<g id="Layer_1">
	
		<g id="svg3015" inkscape:version="0.48.5 r10040" sodipodi:docname="gcrystal solubility analyzer.svg" xmlns:cc="http://creativecommons.org/ns#" xmlns:dc="http://purl.org/dc/elements/1.1/" xmlns:inkscape="http://www.inkscape.org/namespaces/inkscape" xmlns:rdf="http://www.w3.org/1999/02/22-rdf-syntax-ns#" xmlns:sodipodi="http://sodipodi.sourceforge.net/DTD/sodipodi-0.dtd" xmlns:svg="http://www.w3.org/2000/svg">
		
			<sodipodi:namedview  bordercolor="#666666" borderopacity="1" gridtolerance="10" guidetolerance="10" id="namedview3039" inkscape:current-layer="svg3015" inkscape:cx="-20.610169" inkscape:cy="64" inkscape:pageopacity="0" inkscape:pageshadow="2" inkscape:window-height="1018" inkscape:window-maximized="1" inkscape:window-width="1920" inkscape:window-x="-8" inkscape:window-y="-8" inkscape:zoom="1.84375" objecttolerance="10" pagecolor="#ffffff" showgrid="false">
			</sodipodi:namedview>
		<path id="path3997" inkscape:connector-curvature="0" class="st2" d="M-1.4,47.6l-17.8,28.6c-8.2,10.7-2.5,25.8,15.7,24.3
			c0.9-0.1,61.5-0.3,61.5-0.3c24.6,0.9,23.4-17.6,16.6-26.3L58.2,48.1L-1.4,47.6z"/>
		<path id="rect3162" inkscape:connector-curvature="0" class="st3" d="M7.9-24.9c6.5,6.9,5.5,12.1,5.6,20.5L13.7,22l-31.8,51.3
			c-7.7,13.8-2.5,27.3,10.1,26.5l73,0.1c13.7-0.1,18.6-13.7,8.1-28L43,22L42.4-4.4c-0.1-8.3-1.2-13.5,5.3-20.6L7.9-24.9z"/>
		<path id="path3180" inkscape:connector-curvature="0" class="st4" d="M41-4.8H30.1"/>
		<path id="path3182" inkscape:connector-curvature="0" class="st4" d="M41.4,15.9H30.5"/>
		<path id="path3184" inkscape:connector-curvature="0" class="st4" d="M50.9,37.5H40"/>
		<path id="path3186" inkscape:connector-curvature="0" class="st4" d="M61.1,53.9H50.2"/>
		<path id="path3188" inkscape:connector-curvature="0" class="st4" d="M70.8,70.6H59.9"/>
	</g>
	<g id="Layer_2">
		<path id="legib" class="st5" d="M52.6,58.2c-1.9-4.1-16.3-35.6-16.3-35.6V6.5c0.5-0.3,0.8-0.7,0.8-1c0-1.4-3.9-2.5-8.8-2.5
			s-8.8,1.1-8.8,2.5c0,0.3,0.2,0.6,0.6,0.9V23c-1.7,3.8-14.3,31.4-16,35.2C0.7,65.8,6.2,71.1,11,71.1h17.3h17.3
			C50.5,71.1,55.9,65.8,52.6,58.2z"/>
		<path class="st6" d="M52.6,58.2c-1.9-4.1-16.3-35.6-16.3-35.6V6.5c0.5-0.3,0.8-0.7,0.8-1c0-1.4-3.9-2.5-8.8-2.5s-8.8,1.1-8.8,2.5
			c0,0.3,0.2,0.6,0.6,0.9V23c-1.7,3.8-14.3,31.4-16,35.2C0.7,65.8,6.2,71.1,11,71.1h17.3h17.3C50.5,71.1,55.9,65.8,52.6,58.2z"/>
		<line class="st7" x1="18.4" y1="35" x2="23.2" y2="35"/>
		<line class="st7" x1="18.4" y1="39.2" x2="23.2" y2="39.2"/>
		<line class="st7" x1="11.2" y1="43.7" x2="45.5" y2="43.7"/>
		<path class="st8" d="M37,5.5c0,1.4-3.9,2.4-8.8,2.4s-8.8-1.1-8.8-2.5"/>
		<path id="outline" class="st8" d="M52.5,58.2c-1.9-4.1-16.3-35.6-16.3-35.6V6.5c0.5-0.3,0.8-0.7,0.8-1C37,4.1,33.1,3,28.2,3
			s-8.8,1.1-8.8,2.5c0,0.3,0.2,0.6,0.6,0.9V23C18.3,26.8,5.7,54.4,4,58.2c-3.4,7.6,2.1,12.9,6.9,12.9h17.3h17.3
			C50.4,71.1,55.8,65.8,52.5,58.2z"/>
	</g>
</g>
</svg>
