<?xml version="1.0" encoding="utf-8"?>
<!-- Generator: Adobe Illustrator 21.0.2, SVG Export Plug-In . SVG Version: 6.00 Build 0)  -->
<svg version="1.1" xmlns="http://www.w3.org/2000/svg" xmlns:xlink="http://www.w3.org/1999/xlink" x="0px" y="0px" width="73.7px"
	 height="92.1px" viewBox="0 0 73.7 92.1" style="enable-background:new 0 0 73.7 92.1;" xml:space="preserve">
<style type="text/css">
	.st0{display:none;}
	.st1{display:inline;fill:#0042BF;stroke:#000000;stroke-miterlimit:10;}
	.st2{display:inline;stroke:#FFFFFF;stroke-miterlimit:10;}
	.st3{fill:none;stroke:#FFFFFF;stroke-width:6;stroke-linecap:round;stroke-linejoin:round;stroke-miterlimit:10;}
	.st4{fill:#707070;}
	.st5{fill:#006C84;}
	.st6{fill:none;stroke:#000000;stroke-miterlimit:10;}
	.st7{fill:none;stroke:#000000;stroke-width:1.5;stroke-linecap:round;stroke-linejoin:round;stroke-miterlimit:10;}
	.st8{fill:#EF8124;}
</style>
<g id="Layer_2_1_" class="st0">
	<rect x="-18.8" y="-18.4" class="st1" width="117.3" height="133.8"/>
</g>
<g id="Layer_1">
	<g id="Layer_2" class="st0">
		<rect x="-9.8" y="-4.4" class="st2" width="93" height="104.1"/>
	</g>
	<path id="legib_25_" class="st3" d="M70.6,7.9c0-2.6-14.8-4.6-33.2-4.6S4.2,5.3,4.2,7.9c0,0.3,6.8,75.3,6.8,75.3l0.1,0.3
		c0,2.7,11.6,5,25.8,5s26.1-2.6,26.1-5.3l0,0C63.1,83.2,70.6,8,70.6,7.9z"/>
	<path class="st4" d="M70.6,7.9c0-2.6-14.8-4.6-33.2-4.6S4.2,5.3,4.2,7.9c0,0.3,6.8,75.3,6.8,75.3l0.1,0.3c0,2.7,11.6,5,25.8,5
		s25.8-2.3,25.8-5l0.3-0.3C63.1,83.2,70.6,8,70.6,7.9z"/>
	<path class="st5" d="M37.4,25.7c-16.7,0-30.2,2-31.2,4.4c0,0.3,0,0.4,0,0.7C8.1,53,11,83.2,11,83.2l0.1,0.3c0,2.7,11.6,5,25.8,5
		s25.8-2.3,25.8-5l0.3-0.3c0,0,3-30,5.3-52.1c0-0.4,0.1-0.9,0.1-1.3C66.6,27.6,53.4,25.7,37.4,25.7z"/>
	<ellipse class="st6" cx="37.4" cy="30.4" rx="31.4" ry="4.6"/>
	<path class="st7" d="M70.6,7.9c0,2.6-14.8,4.6-33.2,4.6s-33.2-2-33.2-4.6"/>
	<path id="outline_23_" class="st7" d="M70.6,7.9c0-2.6-14.8-4.6-33.2-4.6S4.2,5.3,4.2,7.9c0,0.3,6.8,75.3,6.8,75.3l0.1,0.3
		c0,2.7,11.6,5,25.8,5s26.1-2.6,26.1-5.3l0,0C63.1,83.2,70.6,8,70.6,7.9z"/>
	<g id="Layer_1_27_">
		<g>
			<circle class="st8" cx="16.8" cy="39.6" r="1.3"/>
			<circle class="st8" cx="22" cy="43.7" r="1.3"/>
			<circle class="st8" cx="36.5" cy="45.4" r="1.3"/>
			<circle class="st8" cx="52.2" cy="45.1" r="1.3"/>
			<circle class="st8" cx="59.1" cy="51.5" r="1.3"/>
			<circle class="st8" cx="48.5" cy="53" r="1.3"/>
			<circle class="st8" cx="40.7" cy="59.4" r="1.3"/>
			<circle class="st8" cx="37.5" cy="53.3" r="1.3"/>
			<circle class="st8" cx="26.1" cy="58.2" r="1.3"/>
			<circle class="st8" cx="20.7" cy="52.3" r="1.3"/>
			<circle class="st8" cx="16.4" cy="59" r="1.3"/>
			<circle class="st8" cx="22.1" cy="67.9" r="1.3"/>
			<circle class="st8" cx="30.1" cy="68.2" r="1.3"/>
			<circle class="st8" cx="30.8" cy="82.5" r="1.3"/>
			<circle class="st8" cx="40.1" cy="83.6" r="1.3"/>
			<circle class="st8" cx="57.2" cy="73.2" r="1.3"/>
			<circle class="st8" cx="44.4" cy="65.4" r="1.3"/>
			<circle class="st8" cx="50.8" cy="83.1" r="1.3"/>
			<circle class="st8" cx="29.3" cy="48.3" r="1.3"/>
			<circle class="st8" cx="37.8" cy="68.7" r="1.3"/>
			<circle class="st8" cx="32.8" cy="59.4" r="1.3"/>
			<circle class="st8" cx="51.1" cy="66.8" r="1.3"/>
			<circle class="st8" cx="54.2" cy="61.1" r="1.3"/>
			<circle class="st8" cx="43.9" cy="48" r="1.3"/>
			<circle class="st8" cx="52.5" cy="76.8" r="1.3"/>
			<circle class="st8" cx="20" cy="78.2" r="1.3"/>
			<circle class="st8" cx="31.4" cy="76.1" r="1.3"/>
			<circle class="st8" cx="42.5" cy="76.8" r="1.3"/>
		</g>
	</g>
</g>
</svg>
