<?xml version="1.0" encoding="UTF-8" standalone="no"?>
<!-- Generator: Adobe Illustrator 21.0.1, SVG Export Plug-In . SVG Version: 6.00 Build 0)  -->

<svg
   xmlns:dc="http://purl.org/dc/elements/1.1/"
   xmlns:cc="http://creativecommons.org/ns#"
   xmlns:rdf="http://www.w3.org/1999/02/22-rdf-syntax-ns#"
   xmlns:svg="http://www.w3.org/2000/svg"
   xmlns="http://www.w3.org/2000/svg"
   xmlns:sodipodi="http://sodipodi.sourceforge.net/DTD/sodipodi-0.dtd"
   xmlns:inkscape="http://www.inkscape.org/namespaces/inkscape"
   version="1.1"
   x="0px"
   y="0px"
   width="68.5px"
   height="41px"
   viewBox="0 0 68.5 41"
   style="enable-background:new 0 0 68.5 41;"
   xml:space="preserve"
   id="svg3773"
   inkscape:version="0.91 r13725"
   sodipodi:docname="tablet sink.svg"><metadata
     id="metadata3797"><rdf:RDF><cc:Work
         rdf:about=""><dc:format>image/svg+xml</dc:format><dc:type
           rdf:resource="http://purl.org/dc/dcmitype/StillImage" /></cc:Work></rdf:RDF></metadata><defs
     id="defs3795" /><sodipodi:namedview
     pagecolor="#ffffff"
     bordercolor="#666666"
     borderopacity="1"
     objecttolerance="10"
     gridtolerance="10"
     guidetolerance="10"
     inkscape:pageopacity="0"
     inkscape:pageshadow="2"
     inkscape:window-width="742"
     inkscape:window-height="480"
     id="namedview3793"
     showgrid="false"
     inkscape:zoom="4.2043796"
     inkscape:cx="34.25"
     inkscape:cy="20.5"
     inkscape:window-x="0"
     inkscape:window-y="0"
     inkscape:window-maximized="0"
     inkscape:current-layer="Layer_3" /><style
     type="text/css"
     id="style3775">
	.st0{display:none;}
	.st1{display:inline;fill:#EEE52F;}
	.st2{fill:none;stroke:#FFFFFF;stroke-width:6;stroke-linecap:round;stroke-linejoin:round;stroke-miterlimit:10;}
	.st3{fill:#6F6F6F;}
	.st4{fill:none;stroke:#D2D2D2;stroke-linecap:round;stroke-linejoin:round;stroke-miterlimit:10;}
	.st5{fill:#D2D2D2;}
	.st6{fill:none;stroke:#2E2E2E;stroke-width:1.5;stroke-linecap:round;stroke-linejoin:round;stroke-miterlimit:10;}
</style><g
     id="Layer_2"
     class="st0"><rect
       x="-62.4"
       y="-65.1"
       class="st1"
       width="242"
       height="197.7"
       id="rect3778" /></g><g
     id="Layer_3"><polygon
       class="st2"
       points="48.4,38 3,38 3,3 48.4,3 65.3,20.3  "
       id="polygon3781" /><polygon
       class="st3"
       points="48.4,38 3,38 3,3 48.4,3 65.3,20.3  "
       id="polygon3783" /><polyline
       class="st4"
       points="6.6,34.7 20.8,20.5 6.6,6.3  "
       id="polyline3785" /><g
       id="g3787"
       transformBehaviour="pinned"><path
         class="st5"
         d="m 11.8,16.2 c 0.2,0 0.3,0.1 0.4,0.2 0.1,0.1 0.2,0.2 0.2,0.4 0,0.2 -0.1,0.3 -0.2,0.4 -0.1,0.1 -0.2,0.2 -0.4,0.2 l -1,0 0,6.3 c 0,0.2 -0.1,0.3 -0.2,0.4 -0.1,0.1 -0.2,0.2 -0.4,0.2 C 10,24.3 9.9,24.2 9.8,24.1 9.7,24 9.6,23.9 9.6,23.7 l 0,-6.3 -1,0 C 8.4,17.4 8.3,17.3 8.2,17.2 8.1,17.1 8,17 8,16.8 8,16.6 8.1,16.5 8.2,16.4 8.3,16.3 8.4,16.2 8.6,16.2 l 3.2,0 z"
         id="path3789"
         inkscape:connector-curvature="0"
         style="fill:#d2d2d2" /></g><polygon
       class="st6"
       points="48.4,38 3,38 3,3 48.4,3 65.3,20.3  "
       id="polygon3791" /></g></svg>