<?xml version="1.0" encoding="UTF-8" standalone="no"?>
<!-- Generator: Adobe Illustrator 21.0.1, SVG Export Plug-In . SVG Version: 6.00 Build 0)  -->

<svg
   xmlns:dc="http://purl.org/dc/elements/1.1/"
   xmlns:cc="http://creativecommons.org/ns#"
   xmlns:rdf="http://www.w3.org/1999/02/22-rdf-syntax-ns#"
   xmlns:svg="http://www.w3.org/2000/svg"
   xmlns="http://www.w3.org/2000/svg"
   xmlns:sodipodi="http://sodipodi.sourceforge.net/DTD/sodipodi-0.dtd"
   xmlns:inkscape="http://www.inkscape.org/namespaces/inkscape"
   version="1.1"
   x="0px"
   y="0px"
   width="65.3px"
   height="91.7px"
   viewBox="0 0 65.3 91.7"
   style="enable-background:new 0 0 65.3 91.7;"
   xml:space="preserve"
   id="svg3686"
   inkscape:version="0.91 r13725"
   sodipodi:docname="vapour pressure analysis.svg"><metadata
     id="metadata3724"><rdf:RDF><cc:Work
         rdf:about=""><dc:format>image/svg+xml</dc:format><dc:type
           rdf:resource="http://purl.org/dc/dcmitype/StillImage" /></cc:Work></rdf:RDF></metadata><defs
     id="defs3722" /><sodipodi:namedview
     pagecolor="#ffffff"
     bordercolor="#666666"
     borderopacity="1"
     objecttolerance="10"
     gridtolerance="10"
     guidetolerance="10"
     inkscape:pageopacity="0"
     inkscape:pageshadow="2"
     inkscape:window-width="742"
     inkscape:window-height="480"
     id="namedview3720"
     showgrid="false"
     inkscape:zoom="2.5736097"
     inkscape:cx="32.650002"
     inkscape:cy="45.849998"
     inkscape:window-x="0"
     inkscape:window-y="0"
     inkscape:window-maximized="0"
     inkscape:current-layer="Layer_1" /><style
     type="text/css"
     id="style3688">
	.st0{display:none;}
	.st1{display:inline;fill:#3318EF;}
	.st2{fill:none;stroke:#FFFFFF;stroke-width:6;stroke-linecap:round;stroke-linejoin:round;stroke-miterlimit:10;}
	.st3{fill:#6F6F6F;}
	.st4{fill:none;stroke:#D2D2D2;stroke-linecap:round;stroke-linejoin:round;stroke-miterlimit:10;}
	.st5{fill:none;stroke:#2D2D2D;stroke-width:1.5;stroke-linecap:round;stroke-linejoin:round;stroke-miterlimit:10;}
	.st6{fill:#D2D2D2;}
</style><g
     id="Layer_2"
     class="st0"><rect
       x="-5.6"
       y="-5.7"
       class="st1"
       width="76.1"
       height="100.9"
       id="rect3691" /></g><g
     id="Layer_1"><path
       class="st2"
       d="M47.6,14.6c0-2.2,0-4.9,0-6.8c0-1.8-6.8-4.8-14-4.8c-0.5,0-1,0-1.5,0c-7.2,0.1-14.3,3-14.3,4.8   c0,1.8,0,4.6,0,6.8H3v74.1h59.3V14.6H47.6z M32.6,6.1c1.6,0,2.9,1.3,2.9,2.9S34.2,12,32.6,12c-1.6,0-2.9-1.3-2.9-2.9   S31,6.1,32.6,6.1z"
       id="path3694" /><path
       class="st3"
       d="M47.6,14.6c0-2.2,0-4.9,0-6.8c0-1.8-6.8-4.8-14-4.8c-0.5,0-1,0-1.5,0c-7.2,0.1-14.3,3-14.3,4.8   c0,1.8,0,4.6,0,6.8H3v74.1h59.3V14.6H47.6z M32.6,6.1c1.6,0,2.9,1.3,2.9,2.9S34.2,12,32.6,12c-1.6,0-2.9-1.3-2.9-2.9   S31,6.1,32.6,6.1z"
       id="path3696" /><polyline
       class="st4"
       points="59,73.4 15.8,73.4 15.8,32.3  "
       id="polyline3698" /><line
       class="st4"
       x1="20.7"
       y1="17.6"
       x2="45.3"
       y2="17.6"
       id="line3700" /><path
       class="st5"
       d="M47.6,14.6c0-2.2,0-4.9,0-6.8c0-1.8-6.8-4.8-14-4.8c-0.5,0-1,0-1.5,0c-7.2,0.1-14.3,3-14.3,4.8   c0,1.8,0,4.6,0,6.8H3v74.1h59.3V14.6H47.6z M32.6,6.1c1.6,0,2.9,1.3,2.9,2.9S34.2,12,32.6,12c-1.6,0-2.9-1.3-2.9-2.9   S31,6.1,32.6,6.1z"
       id="path3702" /><path
       class="st4"
       d="M 15.8,73.4 C 42.5,66.6 52.3,51 52.3,36.6"
       id="path3704"
       transformBehaviour="pinned"
       inkscape:connector-curvature="0"
       style="fill:none;stroke:#d2d2d2;stroke-linecap:round;stroke-linejoin:round;stroke-miterlimit:10" /><g
       id="g3706"
       transformBehaviour="pinned"><path
         class="st6"
         d="m 8,54 0,-8.3 c 0,-0.2 0.2,-0.4 0.4,-0.4 l 1.4,0 c 1,0 1.8,0.8 1.8,1.8 l 0,2.7 c 0,1 -0.8,1.8 -1.8,1.8 l -1,0 0,2.4 c 0,0.2 -0.2,0.4 -0.4,0.4 C 8.1,54.4 8,54.3 8,54 Z m 1.8,-7.9 -1,0 0,4.7 1,0 c 0.5,0 1,-0.4 1,-1 l 0,-2.7 c 0,-0.6 -0.5,-1 -1,-1 z"
         id="path3708"
         inkscape:connector-curvature="0"
         style="fill:#d2d2d2" /><path
         class="st6"
         d="M 7.7,59.4 C 7.7,59.2 7.6,59.1 7.5,59 L 6.8,58.5 C 6.6,58.3 6.4,58.1 6.4,57.8 c 0,-0.3 0.1,-0.5 0.3,-0.7 0.2,-0.2 0.5,-0.3 0.8,-0.2 0.3,0.1 0.5,0.2 0.7,0.4 0.1,0.1 0,0.3 -0.1,0.3 -0.1,0.1 -0.3,0 -0.3,-0.1 -0.1,-0.1 -0.2,-0.2 -0.3,-0.2 -0.1,0 -0.3,0 -0.4,0.1 -0.1,0.1 -0.2,0.2 -0.1,0.4 0,0.1 0.1,0.3 0.2,0.3 l 0.7,0.5 c 0.1,0.2 0.2,0.4 0.3,0.7 0,0.3 -0.1,0.6 -0.3,0.8 -0.2,0.2 -0.5,0.3 -0.8,0.2 -0.3,-0.1 -0.5,-0.2 -0.7,-0.5 -0.1,-0.1 0,-0.3 0.1,-0.3 0.1,-0.1 0.3,0 0.3,0.1 0.1,0.1 0.2,0.2 0.3,0.2 0.1,0 0.3,0 0.4,-0.1 0.2,-0.1 0.2,-0.2 0.2,-0.3 z"
         id="path3710"
         inkscape:connector-curvature="0"
         style="fill:#d2d2d2" /><path
         class="st6"
         d="m 10.3,57.8 c 0,-0.2 -0.1,-0.4 -0.3,-0.5 -0.2,-0.1 -0.4,0 -0.6,0.1 0,0 -0.1,0.1 -0.2,0.1 -0.1,0 -0.1,0 -0.2,-0.1 0,0 -0.1,-0.1 -0.1,-0.2 0,-0.1 0,-0.1 0.1,-0.2 0.3,-0.3 0.7,-0.4 1.1,-0.2 0.4,0.2 0.6,0.5 0.6,0.9 l 0,2.3 c 0,0.1 -0.1,0.2 -0.2,0.2 l -0.8,0 c -0.5,0 -1,-0.4 -1,-1 0,-0.6 0.4,-1 1,-1 l 0.5,0 0,-0.4 z m -0.6,2.1 0.5,0 0,-1.1 -0.5,0 c -0.3,0 -0.5,0.2 -0.5,0.5 0,0.3 0.2,0.6 0.5,0.6 z"
         id="path3712"
         inkscape:connector-curvature="0"
         style="fill:#d2d2d2" /><path
         class="st6"
         d="m 11.4,57.1 c 0,-0.1 0.1,-0.2 0.2,-0.2 l 0.4,0 0,-1.3 c 0,-0.1 0.1,-0.2 0.2,-0.2 0.1,0 0.2,0.1 0.2,0.2 l 0,1.3 0.6,0 c 0.1,0 0.2,0.1 0.2,0.2 0,0.1 -0.1,0.2 -0.2,0.2 l -0.5,0 0,2 c 0,0.3 0.2,0.5 0.5,0.5 0.1,0 0.2,0.1 0.2,0.2 0,0.1 -0.1,0.2 -0.2,0.2 -0.5,0 -1,-0.4 -1,-1 l 0,-2 -0.4,0 c -0.1,0.1 -0.2,0 -0.2,-0.1 z"
         id="path3714"
         inkscape:connector-curvature="0"
         style="fill:#d2d2d2" /></g><g
       id="g3716"
       transformBehaviour="pinned"><path
         class="st6"
         d="m 39.6,77.5 c 0,0.3 -0.2,0.4 -0.4,0.4 l -1.4,0 0,7.6 c 0,0.3 -0.2,0.4 -0.4,0.4 -0.2,0 -0.4,-0.2 -0.4,-0.4 l 0,-7.6 -1.4,0 c -0.2,0 -0.4,-0.2 -0.4,-0.4 0,-0.3 0.2,-0.4 0.4,-0.4 l 3.6,0 c 0.2,-0.1 0.4,0.1 0.4,0.4 z"
         id="path3718"
         inkscape:connector-curvature="0"
         style="fill:#d2d2d2" /></g></g></svg>