<?xml version="1.0" encoding="utf-8"?>
<!-- Generator: Adobe Illustrator 21.0.2, SVG Export Plug-In . SVG Version: 6.00 Build 0)  -->
<svg version="1.1" id="Layer_1" xmlns="http://www.w3.org/2000/svg" xmlns:xlink="http://www.w3.org/1999/xlink" x="0px" y="0px"
	 width="88.4px" height="130.4px" viewBox="0 0 88.4 130.4" style="enable-background:new 0 0 88.4 130.4;" xml:space="preserve">
<style type="text/css">
	.st0{fill:none;stroke:#FFFFFF;stroke-width:6;stroke-linecap:round;stroke-linejoin:round;stroke-miterlimit:10;}
	.st1{fill:#6F6F6F;}
	.st2{fill:none;stroke:#D2D2D2;stroke-linecap:round;stroke-linejoin:round;}
	.st3{fill:#006C85;}
	.st4{fill:none;stroke:#231F20;stroke-width:1.5;stroke-linecap:round;stroke-linejoin:round;stroke-miterlimit:10;}
</style>
<path id="leg" class="st0" d="M57.1,3.3c-10.8,0-28.2,6.5-28.2,17.4v5v35.8H3v8.1h25.9v35.6v5c0,10.8,17.4,17.4,28.2,17.4
	s28.2-6.6,28.2-17.4v-5V25.6v-5C85.3,9.8,68,3.3,57.1,3.3z"/>
<path id="fill" class="st1" d="M57.1,3.3c-10.8,0-28.2,6.5-28.2,17.4v5v35.8H3v8.1h25.9v35.6v5c0,10.8,17.4,17.4,28.2,17.4
	s28.2-6.6,28.2-17.4v-5V25.6v-5C85.3,9.8,68,3.3,57.1,3.3z"/>
<line class="st2" x1="33.9" y1="17.1" x2="80.1" y2="17.1"/>
<line class="st2" x1="33.9" y1="113.3" x2="80.1" y2="113.3"/>
<rect x="3.4" y="61.6" class="st3" width="26.3" height="8.3"/>
<path id="out" class="st4" d="M57.1,3.3c-10.8,0-28.2,6.5-28.2,17.4v5v35.8H3v8.1h25.9v35.6v5c0,10.8,17.4,17.4,28.2,17.4
	s28.2-6.6,28.2-17.4v-5V25.6v-5C85.3,9.8,68,3.3,57.1,3.3z"/>
<path class="st2" d="M45.3,47.5c-2.4,7-10.6,3.7-12.1,12.1"/>
<path class="st2" d="M48,50.3c-2.4,7-10.6,3.5-12.1,12.1"/>
<circle class="st3" cx="33.5" cy="66.1" r="1.8"/>
<circle class="st3" cx="37" cy="71.2" r="1.8"/>
<circle class="st3" cx="32.8" cy="75.3" r="1.8"/>
<circle class="st3" cx="39.6" cy="66.5" r="1.8"/>
<circle class="st3" cx="43" cy="71.4" r="1.8"/>
<ellipse transform="matrix(0.1676 -0.9859 0.9859 0.1676 -40.8576 103.0453)" class="st3" cx="40.6" cy="75.7" rx="1.8" ry="1.8"/>
<ellipse transform="matrix(0.1676 -0.9859 0.9859 0.1676 -47.3783 107.1005)" class="st3" cx="39.7" cy="81.6" rx="1.8" ry="1.8"/>
<ellipse transform="matrix(0.1676 -0.9859 0.9859 0.1676 -40.5094 110.3398)" class="st3" cx="45.1" cy="79.2" rx="1.8" ry="1.8"/>
</svg>
